<?xml version="1.0" encoding="UTF-8"?>
<COLLADA xmlns="http://www.collada.org/2005/11/COLLADASchema" version="1.4.1">
<!--
# File generated by ImageToStl.com - Free Image and 3D model conversion tools
-->
  <asset>
    <contributor>
      <author>ImageToStl.com</author>
      <authoring_tool>ImageToStl.com</authoring_tool>
    </contributor>
    <created>2026-07-29T02:58:52</created>
    <modified>2026-07-29T02:58:52</modified>
    <unit meter="0.001" name="millimeter" />
    <up_axis>Z_UP</up_axis>
  </asset>
  <library_effects>
    <effect id="effect_0">
        <profile_COMMON>
          <technique sid="common">
            <phong>
              <diffuse>
                <color>0.62745 0.62745 0.62745 1</color>
              </diffuse>
            </phong>
          </technique>
        </profile_COMMON>
    </effect>
    <effect id="effect_1">
        <profile_COMMON>
          <technique sid="common">
            <phong>
              <diffuse>
                <color>0.59608 0.59608 0.59608 1</color>
              </diffuse>
            </phong>
          </technique>
        </profile_COMMON>
    </effect>
  </library_effects>
  <library_materials>
    <material id="mat_0">
      <instance_effect url="#effect_0"/>
    </material>
    <material id="mat_1">
      <instance_effect url="#effect_1"/>
    </material>
  </library_materials>
  <library_geometries>
    <geometry id="geometry_1d562997_51bf_4ec2_b453_d322ab046a9d">
      <mesh>
        <source id="pos_0">
          <float_array id="pos_0-array" count="2640">19.01956749 8.19999981 7.17999983 38.98875046 5.51674986 7.17999983 36.93901825 8.19999981 7.17999983 37.40145111 7.86135006 7.17999983 37.26691818 7.99950838 7.17999983 18.59039116 7.89193773 7.17999983 18.19924355 7.53683615 7.17999983 17.85124969 7.13934994 7.17999983 17.55452538 6.78239059 7.17999983 17.18838882 6.49706554 7.17999983 34.82984924 -3.72595 7.17999983 38.9646492 -0.51674998 7.17999983 16.7697506 6.2965498 7.17999983 12.10044956 -3.74565005 7.17999983 10.4736948 1.00845242 7.17999983 10.35748291 0.48049617 7.17999983 11.2177496 6.27834988 7.17999983 10.13049316 2.56763458 7.17999983 10.35748291 2.07700372 7.17999983 10.4736948 1.54904759 7.17999983 8.54395008 6.27874994 7.17999983 8.91369534 3.60119176 7.17999983 9.39131737 3.34797239 7.17999983 9.803339 2.99799871 7.17999983 7.80155134 6.29231548 7.17999983 7.85300255 3.77508354 7.17999983 8.3928051 3.74581623 7.17999983 7.0648675 6.19938421 7.17999983 6.34909582 6.00187302 7.17999983 7.31952906 3.68762493 7.17999983 5.66900301 5.70385742 7.17999983 5.03861952 5.31148481 7.17999983 6.81732893 3.48752999 7.17999983 4.47095013 4.83284998 7.17999983 6.36988449 3.18415523 7.17999983 5.99811745 2.79168558 7.17999983 5.71941137 2.32847285 7.17999983 5.54679871 1.81617606 7.17999983 5.48834991 1.27874994 7.17999983 5.54679871 0.74132389 7.17999983 -17.80035019 -21.12535095 7.17999983 5.71941137 0.22902724 7.17999983 5.99811745 -0.23418553 7.17999983 8.79034996 -5.46805 7.17999983 6.36988449 -0.62665516 7.17999983 6.81732893 -0.93003011 7.17999983 7.31952906 -1.13012493 7.17999983 9.33071613 -4.92800236 7.17999983 7.85300255 -1.21758354 7.17999983 9.94692039 -4.47640467 7.17999983 8.3928051 -1.18831635 7.17999983 10.62462902 -4.12376118 7.17999983 8.91369534 -1.04369175 7.17999983 11.34808159 -3.87827301 7.17999983 9.39131737 -0.79047251 7.17999983 9.803339 -0.44049865 7.17999983 10.13049316 -0.01013464 7.17999983 -18.30322075 -21.68804741 7.17999983 -15.49867153 -22.54747009 7.17999983 -14.99647045 -22.34737587 7.17999983 -14.46299744 -22.25991631 7.17999983 -15.94611549 -22.85084534 7.17999983 -18.71590996 -22.31986618 7.17999983 -16.31788254 -23.24331474 7.17999983 -19.02905846 -23.00648499 7.17999983 -16.59658813 -23.70652771 7.17999983 -19.23557091 -23.73233604 7.17999983 -16.76920128 -24.21882439 7.17999983 -19.33076477 -24.48096466 7.17999983 -16.82765007 -24.75625038 7.17999983 -19.31248093 -25.23540115 7.17999983 -16.76920128 -25.29367638 7.17999983 -19.18113518 -25.97854042 7.17999983 -16.59658813 -25.80597305 7.17999983 -18.9397049 -26.69353485 7.17999983 -16.31788254 -26.26918602 7.17999983 -18.59366035 -27.3641777 7.17999983 -15.94611549 -26.66165543 7.17999983 -18.1508503 -27.9752636 7.17999983 -15.49867153 -26.96503067 7.17999983 -17.6213131 -28.51294136 7.17999983 -14.99647045 -27.16512489 7.17999983 -17.0170517 -28.96501923 7.17999983 -16.35176277 -29.32125092 7.17999983 -14.46299744 -27.25258446 7.17999983 -15.64053345 -29.5735569 7.17999983 -14.89948463 -29.71622276 7.17999983 -14.14541531 -29.74600983 7.17999983 -13.39542198 -29.6622448 7.17999983 -13.92319489 -27.22331619 7.17999983 -12.66650486 -29.46682739 7.17999983 -11.97519112 -29.16418457 7.17999983 -13.40230465 -27.07869148 7.17999983 -11.33715153 -28.76118088 7.17999983 -10.76685047 -28.26695061 7.17999983 -11.84230518 -24.48595238 7.17999983 -11.84230518 -25.02654839 7.17999983 -11.95851707 -25.55450439 7.17999983 35.26523972 -3.77899384 7.17999983 35.70052719 -3.72512722 7.17999983 36.10985184 -3.56754994 7.17999983 37.99584961 -1.71815002 7.17999983 38.31543732 -1.48825753 7.17999983 38.58897018 -1.20512247 7.17999983 38.80770874 -0.87779796 7.17999983 38.98738861 5.82464981 7.17999983 38.93063736 6.12727737 7.17999983 38.82035065 6.4147501 7.17999983 37.11133957 8.11344337 7.17999983 -13.92319489 -22.28918457 7.17999983 -13.40230465 -22.43380737 7.17999983 -12.92468262 -22.68702698 7.17999983 -12.51266098 -23.03700066 7.17999983 -12.18550682 -23.46736526 7.17999983 -11.95851707 -23.95799637 7.17999983 -12.18550682 -26.0451355 7.17999983 -12.51266098 -26.4754982 7.17999983 -12.92468262 -26.82547188 7.17999983 19.01956749 8.19999981 3.8900001 18.71579933 7.98979425 3.8900001 18.42982101 7.75596094 3.8900001 18.1634655 7.5 3.8900001 18.05526924 7.38339615 3.83999991 18.1634655 7.5 3.83999991 17.95115662 7.26313162 3.83999991 17.85124969 7.13934994 3.83999991 -16.76920128 -25.29367638 3.83999991 -19.31248093 -25.23540115 3.83999991 -16.82765007 -24.75625038 3.83999991 -19.33076477 -24.48096466 3.83999991 -16.76920128 -24.21882439 3.83999991 -19.23557091 -23.73233604 3.83999991 -16.59658813 -23.70652771 3.83999991 -19.02905846 -23.00648499 3.83999991 -16.31788254 -23.24331474 3.83999991 -18.71590996 -22.31986618 3.83999991 -15.94611549 -22.85084534 3.83999991 -18.30322075 -21.68804741 3.83999991 -15.49867153 -22.54747009 3.83999991 -17.80035019 -21.12535095 3.83999991 -14.99647045 -22.34737587 3.83999991 -14.46299744 -22.25991631 3.83999991 -13.92319489 -22.28918457 3.83999991 8.79034996 -5.46805 3.83999991 -13.40230465 -22.43380737 3.83999991 -12.92468262 -22.68702698 3.83999991 -12.51266098 -23.03700066 3.83999991 -12.18550682 -23.46736526 3.83999991 -11.95851707 -23.95799637 3.83999991 -11.84230518 -24.48595238 3.83999991 -10.76685047 -28.26695061 3.83999991 -11.84230518 -25.02654839 3.83999991 -11.95851707 -25.55450439 3.83999991 -12.18550682 -26.0451355 3.83999991 -12.51266098 -26.4754982 3.83999991 -12.92468262 -26.82547188 3.83999991 -13.40230465 -27.07869148 3.83999991 -11.33715153 -28.76118088 3.83999991 -11.97519112 -29.16418457 3.83999991 -19.18113518 -25.97854042 3.83999991 -16.59658813 -25.80597305 3.83999991 -18.9397049 -26.69353485 3.83999991 -16.31788254 -26.26918602 3.83999991 -18.59366035 -27.3641777 3.83999991 -15.94611549 -26.66165543 3.83999991 -18.1508503 -27.9752636 3.83999991 -15.49867153 -26.96503067 3.83999991 -17.6213131 -28.51294136 3.83999991 -14.99647045 -27.16512489 3.83999991 -17.0170517 -28.96501923 3.83999991 -16.35176277 -29.32125092 3.83999991 -14.46299744 -27.25258446 3.83999991 -15.64053345 -29.5735569 3.83999991 -14.89948463 -29.71622276 3.83999991 -14.14541531 -29.74600983 3.83999991 -13.39542198 -29.6622448 3.83999991 -13.92319489 -27.22331619 3.83999991 -12.66650486 -29.46682739 3.83999991 5.54679871 1.81617606 3.83999991 5.48834991 1.27874994 3.83999991 4.47095013 4.83284998 3.83999991 5.54679871 0.74132389 3.83999991 5.71941137 0.22902724 3.83999991 5.99811745 -0.23418553 3.83999991 6.36988449 -0.62665516 3.83999991 6.81732893 -0.93003011 3.83999991 7.31952906 -1.13012493 3.83999991 9.33071613 -4.92800236 3.83999991 7.85300255 -1.21758354 3.83999991 9.94692039 -4.47640467 3.83999991 8.3928051 -1.18831635 3.83999991 10.62462902 -4.12376118 3.83999991 8.91369534 -1.04369175 3.83999991 11.34808159 -3.87827301 3.83999991 9.39131737 -0.79047251 3.83999991 12.10044956 -3.74565005 3.83999991 9.803339 -0.44049865 3.83999991 15.97669983 0.5 3.83999991 10.13049316 -0.01013464 3.83999991 10.35748291 0.48049617 3.83999991 10.4736948 1.00845242 3.83999991 10.4736948 1.54904759 3.83999991 10.35748291 2.07700372 3.83999991 10.13049316 2.56763458 3.83999991 16.7697506 6.2965498 3.83999991 17.18838882 6.49706554 3.83999991 9.803339 2.99799871 3.83999991 11.2177496 6.27834988 3.83999991 9.39131737 3.34797239 3.83999991 8.91369534 3.60119176 3.83999991 8.54395008 6.27874994 3.83999991 8.3928051 3.74581623 3.83999991 7.85300255 3.77508354 3.83999991 7.31952906 3.68762493 3.83999991 6.34909582 6.00187302 3.83999991 7.0648675 6.19938421 3.83999991 7.80155134 6.29231548 3.83999991 6.81732893 3.48752999 3.83999991 5.03861952 5.31148481 3.83999991 5.66900301 5.70385742 3.83999991 6.36988449 3.18415523 3.83999991 5.99811745 2.79168558 3.83999991 5.71941137 2.32847285 3.83999991 38.94199753 6.08509588 3.83999991 38.97669983 5.91262674 3.83999991 37.75588226 7.5 3.83999991 38.97669983 2.5 3.83999991 37.97669983 0.5 3.83999991 38.972332 1.40664339 3.83999991 38.91955185 1.16678631 3.83999991 38.80989838 0.94702774 3.83999991 38.64999008 0.76062304 3.83999991 38.44947433 0.61881548 3.83999991 38.2204361 0.53015864 3.83999991 17.55452538 6.78239059 3.83999991 15.97669983 -3.7422905 3.83999991 38.82035065 6.4147501 3.83999991 38.88969421 6.25306702 3.83999991 37.40145111 7.86135006 3.8900001 37.75588226 7.5 3.8900001 38.97669983 5.91262674 3.8900001 38.99499512 5.64888811 3.8900001 38.99097061 5.78111267 3.8900001 38.98875046 5.51674986 3.8900001 38.97669983 2.5 3.8900001 38.972332 1.40664339 3.8900001 38.9646492 -0.51674998 3.8900001 37.99584961 -1.71815002 3.8900001 38.31543732 -1.48825753 3.8900001 38.58897018 -1.20512247 3.8900001 38.80770874 -0.87779796 3.8900001 36.10985184 -3.56754994 3.8900001 34.82984924 -3.72595 3.8900001 35.26523972 -3.77899384 3.8900001 35.70052719 -3.72512722 3.8900001 15.97669983 -3.7422905 3.8900001 36.93901825 8.19999981 3.8900001 37.11133957 8.11344337 3.8900001 37.26691818 7.99950838 3.8900001 37.97669983 7.5 3.8900001 37.97669983 7.5 -4.11000013 37.75588226 7.5 -4.11000013 18.1634655 7.5 -4.11000013 15.97669983 7.5 -4.11000013 15.97669983 7.5 3.8900001 15.97669983 8.19999981 3.8900001 38.97669983 6.5 3.8900001 60.97669983 8.19999981 3.8900001 60.97669983 -2.14355755 3.8900001 38.97669983 1.5 3.8900001 38.97621536 1.46884084 3.8900001 38.97475815 1.43771183 3.8900001 57.97669983 -5.14355755 3.8900001 60.74833679 -3.29160786 3.8900001 60.91905594 -2.72882867 3.8900001 15.97669983 -5.14355755 3.8900001 58.56196976 -5.08591366 3.8900001 59.12475204 -4.91519642 3.8900001 59.64340973 -4.63796663 3.8900001 60.09801865 -4.2648778 3.8900001 60.47110748 -3.8102684 3.8900001 38.47669983 7.36602545 3.8900001 38.68380737 7.20710659 3.8900001 38.23551941 7.46592569 3.8900001 38.84272385 7 3.8900001 38.94262695 6.7588191 3.8900001 36.93901825 8.19999981 -7.82000017 36.93901825 8.19999981 -4.11000013 37.11133957 8.11344337 -7.82000017 37.11133957 8.11344337 -4.11000013 37.26691818 7.99950838 -4.11000013 37.40145111 7.86135006 -4.11000013 37.40145111 7.86135006 -7.82000017 37.26691818 7.99950838 -7.82000017 38.97669983 2.5 -4.11000013 38.97669983 5.91262674 -4.11000013 38.94199753 6.08509588 -4.11000013 18.05526924 7.38339615 -4.11000013 17.95115662 7.26313162 -4.11000013 17.85124969 7.13934994 -4.11000013 37.97669983 0.5 -4.11000013 38.972332 1.40664339 -4.11000013 38.91955185 1.16678631 -4.11000013 38.80989838 0.94702774 -4.11000013 38.64999008 0.76062304 -4.11000013 38.44947433 0.61881548 -4.11000013 38.2204361 0.53015864 -4.11000013 17.55452538 6.78239059 -4.11000013 15.97669983 0.5 -4.11000013 17.18838882 6.49706554 -4.11000013 16.7697506 6.2965498 -4.11000013 11.2177496 6.27834988 -4.11000013 9.803339 2.99799871 -4.11000013 10.13049316 2.56763458 -4.11000013 10.35748291 2.07700372 -4.11000013 10.4736948 1.54904759 -4.11000013 8.54395008 6.27874994 -4.11000013 8.91369534 3.60119176 -4.11000013 9.39131737 3.34797239 -4.11000013 7.80155134 6.29231548 -4.11000013 7.85300255 3.77508354 -4.11000013 8.3928051 3.74581623 -4.11000013 7.0648675 6.19938421 -4.11000013 6.34909582 6.00187302 -4.11000013 7.31952906 3.68762493 -4.11000013 5.66900301 5.70385742 -4.11000013 5.03861952 5.31148481 -4.11000013 6.81732893 3.48752999 -4.11000013 4.47095013 4.83284998 -4.11000013 6.36988449 3.18415523 -4.11000013 5.99811745 2.79168558 -4.11000013 5.71941137 2.32847285 -4.11000013 5.54679871 1.81617606 -4.11000013 5.48834991 1.27874994 -4.11000013 5.54679871 0.74132389 -4.11000013 -17.80035019 -21.12535095 -4.11000013 5.71941137 0.22902724 -4.11000013 5.99811745 -0.23418553 -4.11000013 8.79034996 -5.46805 -4.11000013 6.36988449 -0.62665516 -4.11000013 6.81732893 -0.93003011 -4.11000013 7.31952906 -1.13012493 -4.11000013 9.33071613 -4.92800236 -4.11000013 7.85300255 -1.21758354 -4.11000013 9.94692039 -4.47640467 -4.11000013 8.3928051 -1.18831635 -4.11000013 10.62462902 -4.12376118 -4.11000013 8.91369534 -1.04369175 -4.11000013 11.34808159 -3.87827301 -4.11000013 9.39131737 -0.79047251 -4.11000013 12.10044956 -3.74565005 -4.11000013 9.803339 -0.44049865 -4.11000013 10.13049316 -0.01013464 -4.11000013 10.35748291 0.48049617 -4.11000013 10.4736948 1.00845242 -4.11000013 -18.30322075 -21.68804741 -4.11000013 -15.49867153 -22.54747009 -4.11000013 -14.99647045 -22.34737587 -4.11000013 -14.46299744 -22.25991631 -4.11000013 -15.94611549 -22.85084534 -4.11000013 -18.71590996 -22.31986618 -4.11000013 -16.31788254 -23.24331474 -4.11000013 -19.02905846 -23.00648499 -4.11000013 -16.59658813 -23.70652771 -4.11000013 -19.23557091 -23.73233604 -4.11000013 -16.76920128 -24.21882439 -4.11000013 -19.33076477 -24.48096466 -4.11000013 -16.82765007 -24.75625038 -4.11000013 -19.31248093 -25.23540115 -4.11000013 -16.76920128 -25.29367638 -4.11000013 -19.18113518 -25.97854042 -4.11000013 -16.59658813 -25.80597305 -4.11000013 -18.9397049 -26.69353485 -4.11000013 -16.31788254 -26.26918602 -4.11000013 -18.59366035 -27.3641777 -4.11000013 -15.94611549 -26.66165543 -4.11000013 -18.1508503 -27.9752636 -4.11000013 -15.49867153 -26.96503067 -4.11000013 -17.6213131 -28.51294136 -4.11000013 -14.99647045 -27.16512489 -4.11000013 -17.0170517 -28.96501923 -4.11000013 -16.35176277 -29.32125092 -4.11000013 -14.46299744 -27.25258446 -4.11000013 -15.64053345 -29.5735569 -4.11000013 -14.89948463 -29.71622276 -4.11000013 -14.14541531 -29.74600983 -4.11000013 -13.39542198 -29.6622448 -4.11000013 -13.92319489 -27.22331619 -4.11000013 -12.66650486 -29.46682739 -4.11000013 -11.97519112 -29.16418457 -4.11000013 -13.40230465 -27.07869148 -4.11000013 -11.33715153 -28.76118088 -4.11000013 -10.76685047 -28.26695061 -4.11000013 -11.84230518 -24.48595238 -4.11000013 -11.84230518 -25.02654839 -4.11000013 -11.95851707 -25.55450439 -4.11000013 15.97669983 -3.7422905 -4.11000013 38.88969421 6.25306702 -4.11000013 38.82035065 6.4147501 -4.11000013 -13.92319489 -22.28918457 -4.11000013 -13.40230465 -22.43380737 -4.11000013 -12.92468262 -22.68702698 -4.11000013 -12.51266098 -23.03700066 -4.11000013 -12.18550682 -23.46736526 -4.11000013 -11.95851707 -23.95799637 -4.11000013 -12.18550682 -26.0451355 -4.11000013 -12.51266098 -26.4754982 -4.11000013 -12.92468262 -26.82547188 -4.11000013 5.54679871 0.74132389 -7.82000017 5.48834991 1.27874994 -7.82000017 5.54679871 1.81617606 -7.82000017 5.71941137 2.32847285 -7.82000017 5.99811745 2.79168558 -7.82000017 6.36988449 3.18415523 -7.82000017 6.81732893 3.48752999 -7.82000017 7.31952906 3.68762493 -7.82000017 7.85300255 3.77508354 -7.82000017 8.3928051 3.74581623 -7.82000017 8.91369534 3.60119176 -7.82000017 9.39131737 3.34797239 -7.82000017 9.803339 2.99799871 -7.82000017 10.13049316 2.56763458 -7.82000017 10.35748291 2.07700372 -7.82000017 10.4736948 1.54904759 -7.82000017 10.4736948 1.00845242 -7.82000017 10.35748291 0.48049617 -7.82000017 10.13049316 -0.01013464 -7.82000017 9.803339 -0.44049865 -7.82000017 9.39131737 -0.79047251 -7.82000017 8.91369534 -1.04369175 -7.82000017 8.3928051 -1.18831635 -7.82000017 7.85300255 -1.21758354 -7.82000017 7.31952906 -1.13012493 -7.82000017 6.81732893 -0.93003011 -7.82000017 6.36988449 -0.62665516 -7.82000017 5.99811745 -0.23418553 -7.82000017 5.71941137 0.22902724 -7.82000017 -16.76920128 -25.29367638 -7.82000017 -16.82765007 -24.75625038 -7.82000017 -16.76920128 -24.21882439 -7.82000017 -16.59658813 -23.70652771 -7.82000017 -16.31788254 -23.24331474 -7.82000017 -15.94611549 -22.85084534 -7.82000017 -15.49867153 -22.54747009 -7.82000017 -14.99647045 -22.34737587 -7.82000017 -14.46299744 -22.25991631 -7.82000017 -13.92319489 -22.28918457 -7.82000017 -13.40230465 -22.43380737 -7.82000017 -12.92468262 -22.68702698 -7.82000017 -12.51266098 -23.03700066 -7.82000017 -12.18550682 -23.46736526 -7.82000017 -11.95851707 -23.95799637 -7.82000017 -11.84230518 -24.48595238 -7.82000017 -11.84230518 -25.02654839 -7.82000017 -11.95851707 -25.55450439 -7.82000017 -12.18550682 -26.0451355 -7.82000017 -12.51266098 -26.4754982 -7.82000017 -12.92468262 -26.82547188 -7.82000017 -13.40230465 -27.07869148 -7.82000017 -13.92319489 -27.22331619 -7.82000017 -14.46299744 -27.25258446 -7.82000017 -14.99647045 -27.16512489 -7.82000017 -15.49867153 -26.96503067 -7.82000017 -15.94611549 -26.66165543 -7.82000017 -16.31788254 -26.26918602 -7.82000017 -16.59658813 -25.80597305 -7.82000017 38.82035065 6.4147501 -7.82000017 38.93063736 6.12727737 -7.82000017 38.98738861 5.82464981 -7.82000017 38.99097061 5.78111267 -4.11000013 38.99499512 5.64888811 -4.11000013 38.98875046 5.51674986 -4.11000013 38.98875046 5.51674986 -7.82000017 38.9646492 -0.51674998 -7.82000017 38.9646492 -0.51674998 -4.11000013 38.80770874 -0.87779796 -7.82000017 38.80770874 -0.87779796 -4.11000013 38.58897018 -1.20512247 -4.11000013 38.58897018 -1.20512247 -7.82000017 38.31543732 -1.48825753 -4.11000013 38.31543732 -1.48825753 -7.82000017 37.99584961 -1.71815002 -7.82000017 37.99584961 -1.71815002 -4.11000013 36.10985184 -3.56754994 -4.11000013 36.10985184 -3.56754994 -7.82000017 35.70052719 -3.72512722 -7.82000017 35.70052719 -3.72512722 -4.11000013 35.26523972 -3.77899384 -7.82000017 35.26523972 -3.77899384 -4.11000013 34.82984924 -3.72595 -7.82000017 34.82984924 -3.72595 -4.11000013 12.10044956 -3.74565005 -7.82000017 11.34808159 -3.87827301 -7.82000017 10.62462902 -4.12376118 -7.82000017 9.94692039 -4.47640467 -7.82000017 9.33071613 -4.92800236 -7.82000017 8.79034996 -5.46805 -7.82000017 19.01956749 8.19999981 -4.11000013 19.01956749 8.19999981 -7.82000017 18.71579933 7.98979425 -4.11000013 18.59039116 7.89193773 -7.82000017 18.42982101 7.75596094 -4.11000013 18.19924355 7.53683615 -7.82000017 17.85124969 7.13934994 -7.82000017 16.7697506 6.2965498 -7.82000017 17.18838882 6.49706554 -7.82000017 17.55452538 6.78239059 -7.82000017 11.2177496 6.27834988 -7.82000017 8.54395008 6.27874994 -7.82000017 4.47095013 4.83284998 -7.82000017 5.03861952 5.31148481 -7.82000017 5.66900301 5.70385742 -7.82000017 6.34909582 6.00187302 -7.82000017 7.0648675 6.19938421 -7.82000017 7.80155134 6.29231548 -7.82000017 -17.80035019 -21.12535095 -7.82000017 -10.76685047 -28.26695061 -7.82000017 -11.33715153 -28.76118088 -7.82000017 -11.97519112 -29.16418457 -7.82000017 -12.66650486 -29.46682739 -7.82000017 -13.39542198 -29.6622448 -7.82000017 -14.14541531 -29.74600983 -7.82000017 -14.89948463 -29.71622276 -7.82000017 -15.64053345 -29.5735569 -7.82000017 -16.35176277 -29.32125092 -7.82000017 -17.0170517 -28.96501923 -7.82000017 -17.6213131 -28.51294136 -7.82000017 -18.1508503 -27.9752636 -7.82000017 -18.59366035 -27.3641777 -7.82000017 -18.9397049 -26.69353485 -7.82000017 -19.18113518 -25.97854042 -7.82000017 -19.31248093 -25.23540115 -7.82000017 -19.33076477 -24.48096466 -7.82000017 -19.23557091 -23.73233604 -7.82000017 -19.02905846 -23.00648499 -7.82000017 -18.71590996 -22.31986618 -7.82000017 -18.30322075 -21.68804741 -7.82000017 60.97669983 8.19999981 -4.11000013 60.97669983 8.19999981 -11.10999966 60.91905594 8.19999981 -11.69527054 60.74833679 8.19999981 -12.25804996 57.97669983 8.19999981 -14.10999966 60.47110748 8.19999981 -12.77671051 60.09801865 8.19999981 -13.23132038 59.64340973 8.19999981 -13.60440922 59.12475204 8.19999981 -13.88163853 58.56196976 8.19999981 -14.05235577 15.97669983 8.19999981 -11.10999966 16.03434372 8.19999981 -11.69527054 16.20506096 8.19999981 -12.25804996 15.97669983 8.19999981 -4.11000013 18.97669983 8.19999981 -14.10999966 16.48229027 8.19999981 -12.77671051 16.8553791 8.19999981 -13.23132038 17.30998993 8.19999981 -13.60440922 17.82864952 8.19999981 -13.88163853 18.3914299 8.19999981 -14.05235577 60.97669983 8.19999981 10.89000034 60.97669983 10.5 10.89000034 60.91905594 8.19999981 11.47527122 60.91905594 10.5 11.47527122 60.74833679 8.19999981 12.03805065 60.74833679 10.5 12.03805065 60.47110748 8.19999981 12.55671024 60.47110748 10.5 12.55671024 60.09801865 8.19999981 13.01132011 60.09801865 10.5 13.01132011 59.64340973 8.19999981 13.38440895 59.64340973 10.5 13.38440895 59.12475204 8.19999981 13.66163826 59.12475204 10.5 13.66163826 58.56196976 8.19999981 13.8323555 58.56196976 10.5 13.8323555 57.97669983 8.19999981 13.89000034 57.97669983 10.5 13.89000034 60.97669983 10.5 -11.10999966 60.97669983 -2.14355755 -4.11000013 18.97669983 8.19999981 13.89000034 18.3914299 8.19999981 13.8323555 17.82864952 8.19999981 13.66163826 17.30998993 8.19999981 13.38440895 16.8553791 8.19999981 13.01132011 16.48229027 8.19999981 12.55671024 16.20506096 8.19999981 12.03805065 16.03434372 8.19999981 11.47527122 15.97669983 8.19999981 10.89000034 15.97669983 10.5 10.89000034 16.03434372 10.5 11.47527122 16.20506096 10.5 12.03805065 16.48229027 10.5 12.55671024 16.8553791 10.5 13.01132011 17.30998993 10.5 13.38440895 17.82864952 10.5 13.66163826 18.3914299 10.5 13.8323555 18.97669983 10.5 13.89000034 15.97669983 10.5 -11.10999966 16.03434372 10.5 -11.69527054 16.20506096 10.5 -12.25804996 16.48229027 10.5 -12.77671051 16.8553791 10.5 -13.23132038 17.30998993 10.5 -13.60440922 17.82864952 10.5 -13.88163853 18.3914299 10.5 -14.05235577 18.97669983 10.5 -14.10999966 60.91905594 10.5 -11.69527054 60.74833679 10.5 -12.25804996 60.47110748 10.5 -12.77671051 60.09801865 10.5 -13.23132038 59.64340973 10.5 -13.60440922 59.12475204 10.5 -13.88163853 58.56196976 10.5 -14.05235577 57.97669983 10.5 -14.10999966 57.97669983 -5.14355755 -4.11000013 58.56196976 -5.08591366 -4.11000013 59.12475204 -4.91519642 -4.11000013 59.64340973 -4.63796663 -4.11000013 60.09801865 -4.2648778 -4.11000013 60.47110748 -3.8102684 -4.11000013 60.74833679 -3.29160786 -4.11000013 60.91905594 -2.72882867 -4.11000013 38.23551941 7.46592569 -4.11000013 38.47669983 7.36602545 -4.11000013 15.97669983 -5.14355755 -4.11000013 38.97475815 1.43771183 -4.11000013 38.97621536 1.46884084 -4.11000013 38.97669983 1.5 -4.11000013 38.97669983 6.5 -4.11000013 38.94262695 6.7588191 -4.11000013 38.84272385 7 -4.11000013 38.68380737 7.20710659 -4.11000013 28.6851902 -4.14355755 0.55854541 28.62669945 -4.14355755 -0.11000006 30.97669983 -4.14355755 -0.11000006 28.6851902 -4.14355755 -0.77854556 31.02781105 -4.14355755 -0.49822864 28.8588829 -4.14355755 -1.4267776 31.1776619 -4.14355755 -0.86000007 29.14250183 -4.14355755 -2.03500009 29.52742958 -4.14355755 -2.58473229 31.41604042 -4.14355755 -1.17066026 30.00196838 -4.14355755 -3.0592711 31.72669983 -4.14355755 -1.40903819 30.55170059 -4.14355755 -3.44419789 31.15992165 -4.14355755 -3.72781658 32.08847046 -4.14355755 -1.55888879 31.80815506 -4.14355755 -3.90151 32.47669983 -4.14355755 -1.61000001 32.47669983 -4.14355755 -3.96000004 33.1452446 -4.14355755 -3.90151 32.8649292 -4.14355755 -1.55888879 33.7934761 -4.14355755 -3.72781658 33.22669983 -4.14355755 -1.40903819 34.40169907 -4.14355755 -3.44419789 34.95143127 -4.14355755 -3.0592711 33.53736115 -4.14355755 -1.17066026 35.42597198 -4.14355755 -2.58473229 33.77573776 -4.14355755 -0.86000007 35.81089783 -4.14355755 -2.03500009 36.09451675 -4.14355755 -1.4267776 33.92559052 -4.14355755 -0.49822864 36.26821136 -4.14355755 -0.77854556 33.97669983 -4.14355755 -0.11000006 36.3266983 -4.14355755 -0.11000006 36.26821136 -4.14355755 0.55854541 33.92559052 -4.14355755 0.27822852 36.09451675 -4.14355755 1.20677745 33.77573776 -4.14355755 0.63999993 35.81089783 -4.14355755 1.81499994 35.42597198 -4.14355755 2.36473227 33.53736115 -4.14355755 0.95066011 34.95143127 -4.14355755 2.83927107 33.22669983 -4.14355755 1.18903804 34.40169907 -4.14355755 3.22419763 33.7934761 -4.14355755 3.50781655 32.8649292 -4.14355755 1.33888865 33.1452446 -4.14355755 3.68150973 32.47669983 -4.14355755 1.38999999 32.47669983 -4.14355755 3.74000001 31.80815506 -4.14355755 3.68150973 32.08847046 -4.14355755 1.33888865 31.15992165 -4.14355755 3.50781655 31.72669983 -4.14355755 1.18903804 30.55170059 -4.14355755 3.22419763 30.00196838 -4.14355755 2.83927107 31.41604042 -4.14355755 0.95066011 29.52742958 -4.14355755 2.36473227 31.1776619 -4.14355755 0.63999993 29.14250183 -4.14355755 1.81499994 28.8588829 -4.14355755 1.20677745 31.02781105 -4.14355755 0.27822852 28.6851902 -5.14355755 -0.77854556 28.62669945 -5.14355755 -0.11000006 28.6851902 -5.14355755 0.55854541 28.8588829 -5.14355755 1.20677745 29.14250183 -5.14355755 1.81499994 29.52742958 -5.14355755 2.36473227 30.00196838 -5.14355755 2.83927107 30.55170059 -5.14355755 3.22419763 31.15992165 -5.14355755 3.50781655 31.80815506 -5.14355755 3.68150973 32.47669983 -5.14355755 3.74000001 33.1452446 -5.14355755 3.68150973 33.7934761 -5.14355755 3.50781655 34.40169907 -5.14355755 3.22419763 34.95143127 -5.14355755 2.83927107 35.42597198 -5.14355755 2.36473227 35.81089783 -5.14355755 1.81499994 36.09451675 -5.14355755 1.20677745 36.26821136 -5.14355755 0.55854541 36.3266983 -5.14355755 -0.11000006 36.26821136 -5.14355755 -0.77854556 36.09451675 -5.14355755 -1.4267776 35.81089783 -5.14355755 -2.03500009 35.42597198 -5.14355755 -2.58473229 34.95143127 -5.14355755 -3.0592711 34.40169907 -5.14355755 -3.44419789 33.7934761 -5.14355755 -3.72781658 33.1452446 -5.14355755 -3.90151 32.47669983 -5.14355755 -3.96000004 31.80815506 -5.14355755 -3.90151 31.15992165 -5.14355755 -3.72781658 30.55170059 -5.14355755 -3.44419789 30.00196838 -5.14355755 -3.0592711 29.52742958 -5.14355755 -2.58473229 29.14250183 -5.14355755 -2.03500009 28.8588829 -5.14355755 -1.4267776 33.92559052 0.5 -0.49822864 33.97669983 0.5 -0.11000006 33.92559052 0.5 0.27822852 33.77573776 0.5 0.63999993 33.53736115 0.5 0.95066011 33.22669983 0.5 1.18903804 32.8649292 0.5 1.33888865 32.47669983 0.5 1.38999999 32.08847046 0.5 1.33888865 31.72669983 0.5 1.18903804 31.41604042 0.5 0.95066011 31.1776619 0.5 0.63999993 31.02781105 0.5 0.27822852 30.97669983 0.5 -0.11000006 31.02781105 0.5 -0.49822864 31.1776619 0.5 -0.86000007 31.41604042 0.5 -1.17066026 31.72669983 0.5 -1.40903819 32.08847046 0.5 -1.55888879 32.47669983 0.5 -1.61000001 32.8649292 0.5 -1.55888879 33.22669983 0.5 -1.40903819 33.53736115 0.5 -1.17066026 33.77573776 0.5 -0.86000007 17.6851902 -4.14355755 0.55854541 17.62669945 -4.14355755 -0.11000006 19.97669983 -4.14355755 -0.11000006 17.6851902 -4.14355755 -0.77854556 20.02781105 -4.14355755 -0.49822864 17.8588829 -4.14355755 -1.4267776 20.1776619 -4.14355755 -0.86000007 18.14250183 -4.14355755 -2.03500009 18.52742958 -4.14355755 -2.58473229 20.41604042 -4.14355755 -1.17066026 19.00196838 -4.14355755 -3.0592711 20.72669983 -4.14355755 -1.40903819 19.55170059 -4.14355755 -3.44419789 20.15992165 -4.14355755 -3.72781658 21.08847237 -4.14355755 -1.55888879 20.80815506 -4.14355755 -3.90151 21.47669983 -4.14355755 -1.61000001 21.47669983 -4.14355755 -3.96000004 22.1452446 -4.14355755 -3.90151 21.8649292 -4.14355755 -1.55888879 22.79347801 -4.14355755 -3.72781658 22.22669983 -4.14355755 -1.40903819 23.40169907 -4.14355755 -3.44419789 23.95143318 -4.14355755 -3.0592711 22.53735924 -4.14355755 -1.17066026 24.42597198 -4.14355755 -2.58473229 22.77573776 -4.14355755 -0.86000007 24.81089783 -4.14355755 -2.03500009 25.09451675 -4.14355755 -1.4267776 22.92558861 -4.14355755 -0.49822864 25.26820946 -4.14355755 -0.77854556 22.97669983 -4.14355755 -0.11000006 25.32670021 -4.14355755 -0.11000006 25.26820946 -4.14355755 0.55854541 22.92558861 -4.14355755 0.27822852 25.09451675 -4.14355755 1.20677745 22.77573776 -4.14355755 0.63999993 24.81089783 -4.14355755 1.81499994 24.42597198 -4.14355755 2.36473227 22.53735924 -4.14355755 0.95066011 23.95143318 -4.14355755 2.83927107 22.22669983 -4.14355755 1.18903804 23.40169907 -4.14355755 3.22419763 22.79347801 -4.14355755 3.50781655 21.8649292 -4.14355755 1.33888865 22.1452446 -4.14355755 3.68150973 21.47669983 -4.14355755 1.38999999 21.47669983 -4.14355755 3.74000001 20.80815506 -4.14355755 3.68150973 21.08847237 -4.14355755 1.33888865 20.15992165 -4.14355755 3.50781655 20.72669983 -4.14355755 1.18903804 19.55170059 -4.14355755 3.22419763 19.00196838 -4.14355755 2.83927107 20.41604042 -4.14355755 0.95066011 18.52742958 -4.14355755 2.36473227 20.1776619 -4.14355755 0.63999993 18.14250183 -4.14355755 1.81499994 17.8588829 -4.14355755 1.20677745 20.02781105 -4.14355755 0.27822852 17.6851902 -5.14355755 -0.77854556 17.62669945 -5.14355755 -0.11000006 17.6851902 -5.14355755 0.55854541 17.8588829 -5.14355755 1.20677745 18.14250183 -5.14355755 1.81499994 18.52742958 -5.14355755 2.36473227 19.00196838 -5.14355755 2.83927107 19.55170059 -5.14355755 3.22419763 20.15992165 -5.14355755 3.50781655 20.80815506 -5.14355755 3.68150973 21.47669983 -5.14355755 3.74000001 22.1452446 -5.14355755 3.68150973 22.79347801 -5.14355755 3.50781655 23.40169907 -5.14355755 3.22419763 23.95143318 -5.14355755 2.83927107 24.42597198 -5.14355755 2.36473227 24.81089783 -5.14355755 1.81499994 25.09451675 -5.14355755 1.20677745 25.26820946 -5.14355755 0.55854541 25.32670021 -5.14355755 -0.11000006 25.26820946 -5.14355755 -0.77854556 25.09451675 -5.14355755 -1.4267776 24.81089783 -5.14355755 -2.03500009 24.42597198 -5.14355755 -2.58473229 23.95143318 -5.14355755 -3.0592711 23.40169907 -5.14355755 -3.44419789 22.79347801 -5.14355755 -3.72781658 22.1452446 -5.14355755 -3.90151 21.47669983 -5.14355755 -3.96000004 20.80815506 -5.14355755 -3.90151 20.15992165 -5.14355755 -3.72781658 19.55170059 -5.14355755 -3.44419789 19.00196838 -5.14355755 -3.0592711 18.52742958 -5.14355755 -2.58473229 18.14250183 -5.14355755 -2.03500009 17.8588829 -5.14355755 -1.4267776 22.92558861 0.5 -0.49822864 22.97669983 0.5 -0.11000006 22.92558861 0.5 0.27822852 22.77573776 0.5 0.63999993 22.53735924 0.5 0.95066011 22.22669983 0.5 1.18903804 21.8649292 0.5 1.33888865 21.47669983 0.5 1.38999999 21.08847237 0.5 1.33888865 20.72669983 0.5 1.18903804 20.41604042 0.5 0.95066011 20.1776619 0.5 0.63999993 20.02781105 0.5 0.27822852 19.97669983 0.5 -0.11000006 20.02781105 0.5 -0.49822864 20.1776619 0.5 -0.86000007 20.41604042 0.5 -1.17066026 20.72669983 0.5 -1.40903819 21.08847237 0.5 -1.55888879 21.47669983 0.5 -1.61000001 21.8649292 0.5 -1.55888879 22.22669983 0.5 -1.40903819 22.53735924 0.5 -1.17066026 22.77573776 0.5 -0.86000007 38.94262695 6.7588191 -0.11 38.84272385 7 -0.11 38.68380737 7.20710659 -0.11 38.47669983 7.36602545 -0.11 38.23551941 7.46592569 -0.11 38.94262695 1.2411809 -0.11 38.84272385 1 -0.11 38.68380737 0.79289323 -0.11 38.47669983 0.63397461 -0.11 38.23551941 0.53407419 -0.11</float_array>
          <technique_common>
            <accessor source="#pos_0-array" count="2640" stride="3">
              <param name="X" type="float"/>
              <param name="Y" type="float"/>
              <param name="Z" type="float"/>
            </accessor>
          </technique_common>
        </source>
        <source id="norm_0">
          <float_array id="norm_0-array" count="3924">-0 0 1 0 -0 1 -0 0 1 -0 0 1 0 0 1 -0 -0 1 -0 0 1 -0 0 1 0 -0 1 0 -0 1 -0 0 1 0 0 1 0 0 1 0 0 1 0 -0 1 0 0 1 0 0 1 0 0 1 0 0 1 -0 -0 1 0 -0 1 0 -0 1 0 -0 1 -0 -0 1 -0 0 1 -0 0 1 -0 0 1 -0 0 1 -0 0 1 -0 -0 1 -0 0 1 -0 -0 1 -0 -0 1 0 -0 1 -0 -0 1 -0 -0 1 0 0 1 -0 -0 1 0 -0 1 0 -0 1 0 -0 1 0 -0 1 0 -0 1 0 -0 1 0 -0 1 0 -0 1 -0 -0 1 0 -0 1 -0 -0 1 0 0 1 0 0 1 0 -0 1 0 -0 1 0 0 1 0 0 1 0 0 1 0 0 1 0 0 1 0 0 1 0 0 1 0 0 1 -0 -0 1 0 -0 1 0 -0 1 0 -0 1 0 0 1 0 -0 1 0 -0 1 0 -0 1 0 -0 1 0 -0 1 -0 -0 1 -0 -0 1 -0 -0 1 -0 -0 1 -0 -0 1 0 -0 1 0 -0 1 0 -0 1 0 -0 1 0 0 1 0 0 1 -0 -0 1 -0 0 1 -0.56904 0.82231 0 -0.58313 0.81238 0.00194 -0.633 0.77415 -0.0011 -0.67217 0.7404 0.0022 -0.6929 0.72104 -0.00054 -0.73312 0.6801 0.00036 -0.73304 0.68019 0 -0.75239 0.65871 0.00217 -0.75605 0.65451 0.00164 -0.77816 0.62806 0 0 0 -1 0 0 -1 0 -0 -1 -0 -0 -1 0 0 -1 -0 0 -1 -0 0 -1 0 0 -1 -0 0 -1 0 0 -1 0 0 -1 0 0 -1 0 -0 -1 -0 0 -1 0 0 -1 -0 0 -1 -0 -0 -1 -0 0 -1 -0 0 -1 -0 0 -1 -0 0 -1 -0 0 -1 -0 0 -1 -0 0 -1 -0 0 -1 -0 -0 -1 -0 -0 -1 -0 -0 -1 0 -0 -1 -0 0 -1 0 0 -1 0 0 -1 0 0 -1 0 0 -1 0 0 -1 0 0 -1 0 0 -1 0 -0 -1 -0 -0 -1 -0 0 -1 0 -0 -1 0 0 -1 0 -0 -1 -0 0 -1 0 0 -1 -0 0 -1 0 0 -1 0 0 -1 0 0 -1 -0 -0 -1 0 0 -1 0 0 -1 -0 0 -1 -0 -0 -1 -0 0 -1 -0 0 -1 -0 0 -1 0 0 -1 -0 0 -1 -0 0 -1 0 0 -1 -0 -0 -1 0 -0 -1 0 -0 -1 0 -0 -1 -0 -0 -1 -0 -0 -1 -0 -0 -1 -0 -0 -1 -0 -0 -1 -0 0 -1 -0 0 -1 -0 -0 -1 0 0 -1 0 -0 -1 -0 -0 -1 0 0 -1 0 -0 -1 -0 -0 -1 -0 0 -1 0 0 -1 -0 0 -1 0 -0 -1 0 0 -1 -0 0 -1 0 -0 -1 0 -0 -1 0 -0 -1 0 -0 -1 0 -0 -1 -0 0 -1 -0 -0 -1 0 -0 -1 -0 0 -1 -0 -0 -1 0 0 -1 -0 -0 -1 0.99414 0.10812 -0 0.99414 0.10812 0 0.99414 -0.10812 -0 0.94765 -0.3193 -0 0.94765 -0.3193 0 0.85686 -0.51555 0 0.85686 -0.51555 -0 0.726 -0.6877 0 0.726 -0.6877 -0 0.56119 -0.82769 -0 0.56119 -0.82769 -0 0.37014 -0.92898 0 0.37014 -0.92898 -0 0.16178 -0.98683 -0 0.16178 -0.98683 -0 -0.05414 -0.99853 0 -0.05414 -0.99853 -0 -0.26753 -0.96355 -0 -0.26753 -0.96355 -0 -0.46841 -0.88351 -0 -0.46841 -0.88351 0 -0.64739 -0.76216 0 -0.64739 -0.76216 -0 -0.79609 -0.60517 -0 -0.79609 -0.60517 -0 -0.90758 -0.41989 -0 -0.90758 -0.41989 0 -0.97662 -0.21497 0 -0.97662 -0.21497 -0 -1 -0 -0 -0.97662 0.21497 0 -0.97662 0.21497 0 -0.90758 0.41989 0 -0.79609 0.60517 0 -0.79609 0.60517 0 -0.64739 0.76216 0 -0.64739 0.76216 0 -0.46841 0.88351 0 -0.46841 0.88351 0 -0.26753 0.96355 0 -0.26753 0.96355 -0 -0.05414 0.99853 -0 -0.05414 0.99853 0 0.16178 0.98683 0 0.16178 0.98683 0 0.37014 0.92898 0 0.37014 0.92898 0 0.56119 0.82769 0 0.56119 0.82769 -0 0.726 0.6877 -0 0.726 0.6877 -0 0.85686 0.51555 -0 0.85686 0.51555 0 0.94765 0.3193 0 0.94765 0.3193 -0 0.99414 0.10812 0 0.99414 0.10812 -0 0.99414 -0.10812 0 0.99414 -0.10812 0 0.726 -0.6877 0 0.56119 -0.82769 0 0.37014 -0.92898 0 0.16178 -0.98683 0 0.16178 -0.98683 -0 -0.05414 -0.99853 0 -0.46841 -0.88351 -0 -0.64739 -0.76216 -0 -0.79609 -0.60517 -0 -0.90758 -0.41989 -0 -0.90758 -0.41989 0 -0.97662 -0.21497 0 -0.97662 -0.21497 -0 -0.97662 0.21497 0 -0.97662 0.21497 -0 -0.90758 0.41989 -0 -0.90758 0.41989 0 -0.79609 0.60517 0 -0.64739 0.76216 0 -0.46841 0.88351 0 -0.26753 0.96355 0 -0.05414 0.99853 0 -0.05414 0.99853 -0 0.16178 0.98683 0 0.16178 0.98683 0 0.37014 0.92898 0 0.56119 0.82769 0 0.726 0.6877 0 0.85686 0.51555 0 0.94765 0.3193 0 0.71391 0.70024 -0 0.71391 0.70024 -0 0.71391 0.70024 0 0.98035 0.19726 -0 0.9803 0.1975 0.00084 0.98287 0.18431 0.00174 0.95478 0.2973 -0.00051 0.93365 0.35819 0.00204 0.91904 0.39416 0 0.99999 0.00442 0.00208 0.99954 0.03042 0.00069 0.99416 0.10788 -0.00035 0.99888 -0.04721 0 0.99999 -0.00399 0 0.99999 -0.00399 0 0.99999 -0.00399 0 0.99999 -0.00399 -0 0.99999 -0.00399 0 0.99999 -0.00399 0 0.58395 -0.81179 0 0.58395 -0.81179 0 0.71919 -0.69481 0 0.71919 -0.69481 0 0.83144 -0.55561 0 0.83144 -0.55561 0 0.9171 -0.39865 0 0.9171 -0.39865 -0 0.70014 -0.714 0 0.70014 -0.714 0 -0.12094 -0.99266 -0 -0.12094 -0.99266 -0 0.12281 -0.99243 -0 0.12281 -0.99243 -0 0.35927 -0.93323 -0 0.35927 -0.93323 0 0.00087 -1 -0 0.00087 -1 -0 0.00087 -1 -0 0.00087 -1 0 0.7069 -0.70732 0 0.7069 -0.70732 -0 0.59112 -0.80658 -0 0.59112 -0.80658 -0 0.46159 -0.88709 -0 0.46159 -0.88709 -0 0.32133 -0.94697 -0 0.32133 -0.94697 -0 0.1736 -0.98482 -0 0.1736 -0.98482 -0 0.75901 -0.65108 0 -0.74563 0.66636 0 -0.74563 0.66636 0 -0.83723 0.54686 0 -0.83723 0.54686 0 -0.90984 0.41496 0 -0.96183 0.27365 0 -0.96183 0.27365 -0 -0.99201 0.12614 -0 -0.99201 0.12614 0 -0.99971 -0.02423 -0 -0.98474 -0.17405 -0 -0.98474 -0.17405 0 -0.94744 -0.31992 0 -0.94744 -0.31992 0 -0.88867 -0.45854 0 -0.88867 -0.45854 0 -0.80975 -0.58677 0 -0.80975 -0.58677 -0 -0.71248 -0.70169 -0 -0.71248 -0.70169 0 -0.59905 -0.80071 0 -0.59905 -0.80071 0 -0.47204 -0.88158 0 -0.47204 -0.88158 0 -0.33433 -0.94245 0 -0.33433 -0.94245 -0 -0.18905 -0.98197 -0 -0.18905 -0.98197 0 -0.03947 -0.99922 0 -0.03947 -0.99922 -0 0.111 -0.99382 0 0.25895 -0.96589 0 0.40103 -0.91606 0 0.53402 -0.84547 0 0.65491 -0.75571 0 -0.75895 0.65115 0 0.01827 0.99983 0 0.01827 0.99983 -0 -0.12516 0.99214 0 -0.266 0.96397 0 -0.266 0.96397 0 -0.40136 0.91592 0 -0.40136 0.91592 0 -0.52843 0.84898 0 -0.52843 0.84898 0 -0.64461 0.76451 0 0.00015 1 -0 0.00015 1 0 -0.00328 0.99999 0 -0.00328 0.99999 -0 -0.76901 0.63924 0 -0.61468 0.78877 0 -0.43198 0.90189 0 0.44886 0.8936 -0 0.44886 0.8936 -0 0.59083 0.80679 -0 0.71645 0.69764 0 0 -1 0 0 -1 -0 -0 -1 -0 0 -1 -0 0 -1 -0 0 -1 -0 0 -1 -0 0 -1 -0 0 0 1 0 -0 1 0 -0 1 0 -0 1 0 -0 1 0 -0 1 -0 -0 1 -0 0 1 0 -0 1 0 -0 1 0 -0 1 0 -0 1 0 -0 1 0 -0 1 -0 -0 1 0 0 1 0 -0 1 0 -0 1 -0 -0 1 0 -0 1 0 -0 1 -0 -0 1 0 0 1 0 -0 1 0 -0 1 -0 0 1 0 -0 1 -0 0 1 -0 0 1 -0 0 1 -0 0 1 -0 0 1 0 -0 1 0 -0 1 -0 0 1 0 0 1 -0 -0 1 0 0 1 0 0 1 0 0 1 0 0 1 0 0 1 0.44886 0.8936 -0 0.44886 0.8936 -0 0.59083 0.80679 -0 0.71645 0.69764 0 0.59083 0.80679 0 0 0 1 -0 -0 1 -0 -0 1 -0 0 1 0 -0 1 -0 -0 1 -0 0 1 0 -0 1 0 -0 1 0 -0 1 0 -0 1 0 -0 1 0 -0 1 0 0 1 0 0 1 -0 0 1 -0 0 1 -0 0 1 -0 0 1 -0 0 1 -0 0 1 -0 0 1 0 0 1 -0 0 1 -0 0 1 -0 0 1 -0 0 1 -0 -0 1 -0 -0 1 -0 -0 1 -0 -0 1 0 -0 1 -0 -0 1 -0 -0 1 -0 -0 1 0 0 1 -0 -0 1 -0 -0 1 0 -0 1 0 -0 1 0 -0 1 0 -0 1 0 -0 1 -0 -0 1 -0 0 1 0 0 1 0 -0 1 0 -0 1 0 -0 1 0 -0 1 -0 -0 1 -0 0 1 -0 0 1 -0 0 1 -0 0 1 -0 0 1 -0 0 1 -0 0 1 -0 0 1 -0 0 1 -0 -0 1 -0 0 1 -0 -0 1 -0 -0 1 -0 -0 1 -0 -0 1 -0 -0 1 -0 -0 1 -0 -0 1 -0 -0 1 -0 -0 1 -0 -0 1 -0 -0 1 -0 -0 1 -0 -0 1 -0 -0 1 -0 -0 1 -0 -0 1 -0 -0 1 -0 -0 1 0 -0 1 0 -0 1 0 -0 1 0 -0 1 0 -0 1 0 -0 1 -0 -0 1 0 -0 1 -0 0 1 -0 -0 1 -0 -0 1 0 0 1 -0 0 1 -0 -0 1 -0 -0 1 -0 -0 1 -0 -0 1 -0 -0 1 -0 -0 1 0.99414 0.10812 -0 0.99414 -0.10812 0 0.94765 -0.3193 0 0.94765 -0.3193 -0 0.85686 -0.51555 -0 0.85686 -0.51555 -0 0.726 -0.6877 0 0.726 -0.6877 -0 0.56119 -0.82769 -0 0.37014 -0.92898 0 0.37014 -0.92898 0 0.16178 -0.98683 0 0.16178 -0.98683 0 -0.05414 -0.99853 0 -0.05414 -0.99853 0 -0.26753 -0.96355 0 -0.46841 -0.88351 0 -0.46841 -0.88351 0 -0.64739 -0.76216 0 -0.64739 -0.76216 -0 -0.79609 -0.60517 -0 -0.90758 -0.41989 -0 -0.97662 -0.21497 -0 -0.97662 -0.21497 0 -0.97662 0.21497 -0 -0.97662 0.21497 0 -0.90758 0.41989 0 -0.79609 0.60517 0 -0.79609 0.60517 0 -0.64739 0.76216 0 -0.64739 0.76216 0 -0.46841 0.88351 0 -0.26753 0.96355 -0 -0.05414 0.99853 -0 -0.05414 0.99853 -0 0.16178 0.98683 -0 0.37014 0.92898 -0 0.37014 0.92898 -0 0.56119 0.82769 -0 0.56119 0.82769 -0 0.726 0.6877 -0 0.726 0.6877 -0 0.85686 0.51555 0 0.85686 0.51555 -0 0.94765 0.3193 -0 0.99414 0.10812 -0 0.99414 -0.10812 0 0.94765 -0.3193 0 0.85686 -0.51555 0 0.85686 -0.51555 0 0.726 -0.6877 0 0.56119 -0.82769 0 0.37014 -0.92898 0 0.16178 -0.98683 0 0.16178 -0.98683 0 -0.05414 -0.99853 0 -0.05414 -0.99853 0 -0.26753 -0.96355 0 -0.46841 -0.88351 0 -0.46841 -0.88351 0 -0.64739 -0.76216 0 -0.64739 -0.76216 0 -0.79609 -0.60517 0 -0.90758 -0.41989 0 -0.90758 -0.41989 0 -0.97662 -0.21497 0 -0.97662 -0.21497 0 -0.97662 0.21497 -0 -0.97662 0.21497 -0 -0.90758 0.41989 -0 -0.90758 0.41989 -0 -0.79609 0.60517 -0 -0.79609 0.60517 -0 -0.64739 0.76216 -0 -0.46841 0.88351 -0 -0.46841 0.88351 -0 -0.26753 0.96355 -0 -0.26753 0.96355 -0 -0.05414 0.99853 -0 -0.05414 0.99853 -0 0.16178 0.98683 -0 0.16178 0.98683 -0 0.37014 0.92898 -0 0.56119 0.82769 -0 0.56119 0.82769 -0 0.726 0.6877 -0 0.85686 0.51555 -0 0.94765 0.3193 -0 0.71391 0.70024 -0 0.93365 0.35819 -0.00184 0.95478 0.2973 0.00046 0.98035 0.19726 -0.00076 0.98287 0.18431 -0.00154 0.99416 0.10788 0.00031 0.99954 0.03042 -0.00061 0.99999 0.00442 -0.00184 0.99999 -0.00399 -0 0.99999 -0.00399 -0 0.99999 -0.00399 -0 0.9171 -0.39865 -0 0.9171 -0.39865 -0 0.83144 -0.55561 -0 0.83144 -0.55561 -0 0.71919 -0.69481 -0 0.71919 -0.69481 -0 0.58395 -0.81179 -0 0.58395 -0.81179 -0 0.70014 -0.714 -0 0.70014 -0.714 -0 0.35927 -0.93323 -0 0.35927 -0.93323 -0 0.12281 -0.99243 0 -0.12094 -0.99266 0 -0.12094 -0.99266 -0 0.00087 -1 -0 0.00087 -1 -0 0.00087 -1 -0 0.1736 -0.98482 -0 0.1736 -0.98482 0 0.32133 -0.94697 0 0.32133 -0.94697 0 0.46159 -0.88709 0 0.46159 -0.88709 0 0.59112 -0.80658 0 -0.56904 0.82231 0 -0.58313 0.81238 -0.00172 -0.633 0.77415 0.00098 -0.67217 0.7404 -0.00195 -0.6929 0.72104 0.00048 -0.73304 0.68019 -0.00032 -0.75239 0.65871 -0.00195 -0.75605 0.65451 -0.00148 -0.43198 0.90189 -0 -0.61468 0.78877 -0 -0.64461 0.76451 0 -0.64461 0.76451 0 -0.52843 0.84898 0 -0.52843 0.84898 0 -0.40136 0.91592 0 -0.266 0.96397 0 -0.12516 0.99214 0 -0.12516 0.99214 0 -0.75895 0.65115 -0 -0.75895 0.65115 0 0.65491 -0.75571 0 0.65491 -0.75571 0 0.53402 -0.84547 0 0.40103 -0.91606 0 0.40103 -0.91606 0 0.25895 -0.96589 0 0.25895 -0.96589 0 0.111 -0.99382 0 0.111 -0.99382 0 -0.03947 -0.99922 0 -0.18905 -0.98197 0 -0.33433 -0.94245 0 -0.33433 -0.94245 0 -0.47204 -0.88158 0 -0.59905 -0.80071 0 -0.71248 -0.70169 0 -0.71248 -0.70169 0 -0.80975 -0.58677 0 -0.80975 -0.58677 0 -0.88867 -0.45854 0 -0.88867 -0.45854 0 -0.94744 -0.31992 0 -0.94744 -0.31992 0 -0.98474 -0.17405 0 -0.98474 -0.17405 0 -0.99971 -0.02423 0 -0.99971 -0.02423 0 -0.99201 0.12614 -0 -0.99201 0.12614 -0 -0.96183 0.27365 -0 -0.90984 0.41496 -0 -0.83723 0.54686 -0 -0.74563 0.66636 -0 -0.74563 0.66636 -0 0.75901 -0.65108 0 -0 -0 -1 -0 -0 -1 -0 -0 -1 -0 -0 -1 -0 -0 -1 0 0 -1 0 0 -1 0 0 -1 -0 0 -1 0 0 -1 -0 0 -1 0 -0 -1 0 -0 -1 0 -0 -1 0 -0 -1 0 0 -1 0 -0 -1 0 -0 -1 0 -0 -1 -0 -0 -1 0 -0 -1 0 -0 -1 0 -0 -1 -0 -0 -1 0 0 -1 0 0 -1 -0 -0 -1 -0 -0 -1 0 -0 -1 0 0 -1 0 -0 -1 -0 0 -1 0 0 -1 -0 -0 -1 -0 0 -1 -0 0 -1 -0 0 -1 -0 0 -1 -0 -0 -1 -0 0 -1 0 -0 -1 -0 0 -1 0 -0 -1 0 0 -1 0 0 -1 0 0 -1 0 0 -1 0 -0 -1 0 0 -1 -0 -0 -1 -0 0 -1 -0 0 -1 -0 0 -1 -0 0 -1 0 0 -1 0 0 -1 0 -0 -1 -0 0 -1 0 -0 -1 -0 0 -1 -0 -0 -1 0 -0 -1 -0 0 -1 0 0 -1 0 -0 -1 -0 0 -1 -0 0 -1 0 -0 -1 0 -0 -1 0 0 -1 -0 -0 -1 0 -0 -1 0 -0 -1 -0 -0 -1 0 -0 -1 0 0 -1 0 0 -1 0 0 -1 0 0 -1 -0 0 -1 -0 0 -1 -0 0 -1 0 0 -1 0 0 -1 0 0 -1 0 0 -1 0 0 -1 0 0 -1 0 0 -1 -0 0 -1 0 0 -1 0 0 -1 0 0 -1 0 -0 -1 0 -1 -0 0 -1 -0 0 -1 -0 0 -1 -0 0 -1 0 0 -1 -0 0 -1 -0 0 -1 -0 0 -1 -0 0 -1 -0 0 -1 -0 0 -1 0 0 -1 0 0 -1 0 -0 -1 -0 0 -1 -0 0 -1 0 0 -1 0 -0 -1 -0 -0 -1 -0 0 -1 -0 0 0 -1 -0 0 -1 -0 -0 -1 0 -0 -1 0.99518 -0 0.09802 0.95694 -0 0.29028 0.88192 -0 0.4714 0.77301 -0 0.63439 0.63439 -0 0.77301 0.4714 -0 0.88192 0.29028 -0 0.95694 0.09802 -0 0.99518 1 -0 0 1 0 0 0 -1 -0 0 -1 -0 0 -1 -0 0 -1 0 0 -1 -0 0 -1 -0 0 -1 -0 0 -1 -0 0 -1 -0 0 -1 -0 0 -1 -0 0 -1 -0 -0.99518 -0 0.09802 -0.99518 -0 0.09802 -0.95694 -0 0.29028 -0.88192 -0 0.4714 -0.77301 -0 0.63439 -0.63439 -0 0.77301 -0.4714 -0 0.88192 -0.29028 -0 0.95694 -0.09802 -0 0.99518 -1 -0 0 -1 -0 0 -0.99518 -0 -0.09802 -0.99518 -0 -0.09802 -0.95694 -0 -0.29028 -0.88192 -0 -0.4714 -0.88192 -0 -0.4714 -0.77301 -0 -0.63439 -0.77301 -0 -0.63439 -0.63439 -0 -0.77301 -0.63439 0 -0.77301 -0.4714 0 -0.88192 -0.4714 -0 -0.88192 -0.29028 -0 -0.95694 -0.29028 0 -0.95694 -0.09802 0 -0.99518 -0.09802 -0 -0.99518 0.99518 0 -0.09802 0.99518 0 -0.09802 0.95694 0 -0.29028 0.95694 0 -0.29028 0.88192 0 -0.4714 0.88192 0 -0.4714 0.77301 0 -0.63439 0.63439 0 -0.77301 0.63439 0 -0.77301 0.4714 0 -0.88192 0.4714 0 -0.88192 0.29028 0 -0.95694 0.29028 0 -0.95694 0.09802 0 -0.99518 0.09802 -0.99518 -0 0.09802 -0.99518 -0 0.29028 -0.95694 -0 0.29028 -0.95694 -0 0.4714 -0.88192 -0 0.4714 -0.88192 -0 0.63439 -0.77301 -0 0.77301 -0.63439 -0 0.88192 -0.4714 -0 0.95694 -0.29028 -0 0.99518 -0.09802 -0 0.99518 -0.09802 -0 -0 -0 -1 0 0 -1 -0 -0 -1 -0 -0 -1 0 0 -1 0 -0 -1 -0 0 -1 -0 0 -1 -0 0 -1 0 -0 -1 0 0 -1 -0 0 -1 0 0 -1 0 0 -1 -0 0 -1 -0 -0 -1 -0 0 -1 0 0 -1 -0 0 -1 -0 0 -1 -0 0 -1 -0 0 -1 -0 0 -1 0 0 -1 -0 0 -1 -0 -0 -1 -0 0 -1 -0 0 -1 0 0 -1 0 0 -1 -0 0 -1 0 -0 -1 -0 0 -1 0 0 -1 0 0 -1 0 0 -1 0 -0 1 0 0 1 0 -1 -0 0 -1 -0 -0 -1 -0 -0 -1 -0 -0 -1 0 0 -1 -0 -0 -1 -0 -0 -1 -0 0 -1 -0 0 -1 0 0 -1 -0 0 -1 0 0 -1 0 0 -1 -0 0 -1 -0 -0 -1 -0 -0 -1 -0 -0 -1 -0 0 -1 -0 0 -1 0 0 -1 -0 -0 -1 -0 0.99619 -0 0.08716 0.99619 0 -0.08716 0.99619 0 -0.08716 0.96593 0 -0.25882 0.90631 0 -0.42262 0.81915 0 -0.57358 0.81915 0 -0.57358 0.70711 0 -0.70711 0.70711 0 -0.70711 0.57358 0 -0.81915 0.42262 0 -0.90631 0.42262 0 -0.90631 0.25882 0 -0.96593 0.25882 0 -0.96593 0.08716 0 -0.99619 0.08716 0 -0.99619 -0.08716 0 -0.99619 -0.08716 0 -0.99619 -0.25882 0 -0.96593 -0.42262 0 -0.90631 -0.57358 0 -0.81915 -0.70711 0 -0.70711 -0.70711 0 -0.70711 -0.81915 0 -0.57358 -0.81915 0 -0.57358 -0.90631 0 -0.42262 -0.90631 0 -0.42262 -0.96593 0 -0.25882 -0.99619 0 -0.08716 -0.99619 0 -0.08716 -0.99619 -0 0.08716 -0.96593 -0 0.25882 -0.90631 -0 0.42262 -0.90631 -0 0.42262 -0.81915 -0 0.57358 -0.81915 -0 0.57358 -0.70711 -0 0.70711 -0.70711 -0 0.70711 -0.57358 -0 0.81915 -0.57358 -0 0.81915 -0.42262 -0 0.90631 -0.25882 -0 0.96593 -0.08716 -0 0.99619 0.08716 -0 0.99619 0.25882 -0 0.96593 0.42262 -0 0.90631 0.42262 -0 0.90631 0.57358 -0 0.81915 0.70711 -0 0.70711 0.81915 -0 0.57358 0.81915 -0 0.57358 0.90631 -0 0.42262 0.90631 -0 0.42262 0.96593 -0 0.25882 0.96593 -0 0.25882 -0.99144 -0 0.13053 -0.99144 -0 0.13053 -0.99144 0 -0.13053 -0.99144 -0 -0.13053 -0.92388 -0 -0.38268 -0.79335 -0 -0.60876 -0.60876 -0 -0.79335 -0.60876 0 -0.79335 -0.38268 0 -0.92388 -0.38268 0 -0.92388 -0.13053 0 -0.99144 -0.13053 0 -0.99144 0.13053 0 -0.99144 0.38268 0 -0.92388 0.38268 0 -0.92388 0.60876 0 -0.79335 0.60876 0 -0.79335 0.79335 0 -0.60876 0.79335 0 -0.60876 0.92388 0 -0.38268 0.92388 0 -0.38268 0.99144 0 -0.13053 0.99144 0 -0.13053 0.99144 0 0.13053 0.99144 0 0.13053 0.92388 0 0.38268 0.92388 0 0.38268 0.79335 0 0.60876 0.60876 -0 0.79335 0.38268 -0 0.92388 0.38268 0 0.92388 0.13053 -0 0.99144 -0.13053 -0 0.99144 -0.13053 -0 0.99144 -0.38268 -0 0.92388 -0.38268 -0 0.92388 -0.60876 -0 0.79335 -0.60876 -0 0.79335 -0.79335 -0 0.60876 -0.79335 -0 0.60876 -0.92388 -0 0.38268 0 -1 0 0 -1 -0 0.99619 -0 0.08716 0.99619 0 -0.08716 0.96593 0 -0.25882 0.96593 0 -0.25882 0.90631 0 -0.42262 0.90631 0 -0.42262 0.81915 0 -0.57358 0.70711 0 -0.70711 0.57358 0 -0.81915 0.42262 0 -0.90631 0.25882 0 -0.96593 0.08716 0 -0.99619 -0.08716 0 -0.99619 -0.25882 0 -0.96593 -0.42262 0 -0.90631 -0.57358 0 -0.81915 -0.70711 0 -0.70711 -0.81915 0 -0.57358 -0.96593 0 -0.25882 -0.99619 0 -0.08716 -0.96593 -0 0.25882 -0.57358 0 0.81915 -0.42262 0 0.90631 0.25882 -0 0.96593 -0.99144 -0 0.13053 -0.99144 -0 0.13053 -0.99144 -0 -0.13053 -0.99144 -0 -0.13053 -0.92388 -0 -0.38268 -0.92388 -0 -0.38268 -0.79335 -0 -0.60876 -0.60876 -0 -0.79335 -0.60876 -0 -0.79335 -0.38268 -0 -0.92388 -0.38268 0 -0.92388 -0.13053 0 -0.99144 0.13053 0 -0.99144 0.38268 0 -0.92388 0.38268 0 -0.92388 0.60876 0 -0.79335 0.92388 0 -0.38268 0.99144 0 -0.13053 0.99144 0 0.13053 0.92388 0 0.38268 0.79335 0 0.60876 0.60876 0 0.79335 0.60876 0 0.79335 0.38268 -0 0.92388 0.13053 -0 0.99144 0.13053 -0 0.99144 -0.13053 -0 0.99144 -0.38268 -0 0.92388 -0.38268 -0 0.92388 -0.60876 -0 0.79335 -0.60876 -0 0.79335 -0.79335 -0 0.60876 -0.79335 -0 0.60876 -0.92388 -0 0.38268 -0.92388 -0 0.38268 -0.99144 -0.13053 -0 -0.99144 -0.13053 -0 -0.92388 -0.38268 -0 -0.79335 -0.60876 -0 -0.79335 -0.60876 -0 -0.60876 -0.79335 -0 -0.38268 -0.92388 -0 -0.38268 -0.92388 -0 -0.13053 -0.99144 -0 -0.13053 -0.99144 -0 -0.60876 -0.79335 -0 -0.92388 -0.38268 -0 -0.99697 0.07783 0 -0.99697 0.07783 0 -0.98571 0.16844 0.00036 -0.99696 0.07783 -0.00418 -0.97663 0.21491 0.00164 -0.99891 0.04673 0 -0.99891 0.04673 0 -0.99988 0.01558 0 -0.99988 0.01558 0 -0.92388 0.38268 -0.00179 -0.8948 0.44647 0.00143 -0.79335 0.60876 -0.00155 -0.75899 0.6511 0.00116 -0.60876 0.79335 -0.00125 -0.5774 0.81646 0.00084 -0.38268 0.92388 -0.0009 -0.36099 0.93257 0.00045 -0.1373 0.99053 -0.00045 -0.1228 0.99243 0 -0.1228 0.99243 0.00051 -0.36099 0.93257 -0.00045 -0.38268 0.92388 0.00091 -0.5774 0.81646 -0.00085 -0.60876 0.79335 0.00127 -0.75899 0.6511 -0.00118 -0.79335 0.60876 0.00157 -0.8948 0.44647 -0.00145 -0.92388 0.38268 0.00181 -0.97663 0.21491 -0.00166 -0 1 0 -0 1 0 -0 1 0 0 1 0 -0 1 0 -0 1 0 -0 1 0 -0 1 0 -0 1 0 -0 1 0 0 1 0 -0 1 0 -0 1 0 -0 1 0 -0 1 0 -0 1 0 -0 1 0 -0 1 0 -0 1 -0 -0 1 -0 -0 1 0 -0 1 0 -0 1 0 -0 1 0 -0 1 0 -0 1 0 -0 1 0 -0 1 0 -0 1 -0 -0 1 -0 -0 1 0 -0 1 0 -0 1 -0 -0 1 0 -0 1 -0 -0 1 0 -0 1 0 -0 1 0 -0 1 -0 -0 1 0 -0 1 0 -0 1 0 -0 1 0 -0 1 0 -0 1 0 -0 1 0 -0 1 0 -0 1 0 0 1 -0 -1 -0 0 -1 -0 0 -1 -0 -0 0 -1 -0 0 -1 -0 0 -1 -0 0 -1 0 0 -1 0 0 -1 0 0 -1 -0 -0 -1 -0 0 -1 -0 0 -1 -0 0 -1 -0 -0 -1 -0 0 -1 0 0 -1 0 -0 -1 -0 0 -1 -0 0 -1 0 0 -1 -0 0 -1 0 0 -1 -0 0 -1 -0 0 -1 -0 0 -1 0 0 -1 -0 -0 -1 -0 0 -1 -0 0 -1 -0 0 -1 0 0 -1 -0 0 -1 0 0 -1 0 0 -1 0 0 -1 0 0 -1 0 0 -1 -0 0 -1 0 0 -1 -0 0 -1 0 0 -1 0 0 -1 -0 0 -1 -0 0 -1 -0 0 -1 -0 0 -1 -0 0 -1 -0 0 -1 -0 0 -1 -0 0 -1 -0 0 -1 -0 0 -1 -0 0 -1 -0 0 -1 -0 0 -1 -0 0 -1 -0 0 -1 -0 -0 -1 -0 -0 -1 -0 -0 -1 0 -0 1 -0 -0 1 -0 0 1 0 -0 1 -0 -0 1 -0 -0 1 -0 -0 1 -0 -0 1 0 -0 1 0 0 1 0 -0 1 0 -0 1 0 -0 1 0 -0 1 0 -0 1 0 -0 1 0 -0 1 0 -0 1 0 0 1 0 0 1 0 -0 1 -0 -0 1 -0 -0 1 -0 0 1 0 0 1 -0 -0 1 0 0 1 -0</float_array>
          <technique_common>
            <accessor source="#norm_0-array" count="3924" stride="3">
              <param name="X" type="float"/>
              <param name="Y" type="float"/>
              <param name="Z" type="float"/>
            </accessor>
          </technique_common>
        </source>
        <vertices id="vert_0">
          <input semantic="POSITION" source="#pos_0"/>
        </vertices>
        <triangles count="1795">
          <input semantic="VERTEX" source="#vert_0" offset="0"/>
          <input semantic="NORMAL" source="#norm_0" offset="1"/>
          <p>2 0 1 0 3 0 2 0 3 0 4 0 5 0 6 0 0 0 0 1 6 1 7 1 0 2 7 2 8 2 9 3 10 3 8 3 8 4 10 4 11 4 8 5 11 5 1 5 9 6 12 6 10 6 10 7 12 7 13 7 13 8 12 8 14 8 13 9 14 9 15 9 16 10 17 10 12 10 12 11 17 11 18 11 12 12 18 12 19 12 20 13 21 13 16 13 16 14 21 14 22 14 16 15 22 15 23 15 24 16 25 16 20 16 20 17 25 17 26 17 20 18 26 18 21 18 24 0 27 0 25 0 25 0 27 0 28 0 25 19 28 19 29 19 29 20 28 20 30 20 29 21 30 21 31 21 29 22 31 22 32 22 32 23 31 23 33 23 32 24 33 24 34 24 34 25 33 25 35 25 35 26 33 26 36 26 36 27 33 27 37 27 37 28 33 28 38 28 38 29 33 29 39 29 39 30 33 30 40 30 39 31 40 31 41 31 41 32 40 32 42 32 42 33 40 33 43 33 42 34 43 34 44 34 44 35 43 35 45 35 45 36 43 36 46 36 46 0 43 0 47 0 46 0 47 0 48 0 48 0 47 0 49 0 48 0 49 0 50 0 50 0 49 0 51 0 50 37 51 37 52 37 52 38 51 38 53 38 52 39 53 39 54 39 54 40 53 40 13 40 54 41 13 41 55 41 55 42 13 42 56 42 56 43 13 43 15 43 57 44 58 44 40 44 40 45 58 45 59 45 40 46 59 46 60 46 58 47 57 47 61 47 61 48 57 48 62 48 61 0 62 0 63 0 63 0 62 0 64 0 63 0 64 0 65 0 65 0 64 0 66 0 65 0 66 0 67 0 67 0 66 0 68 0 67 0 68 0 69 0 69 0 68 0 70 0 69 0 70 0 71 0 71 49 70 49 72 49 71 50 72 50 73 50 73 51 72 51 74 51 73 0 74 0 75 0 75 0 74 0 76 0 75 0 76 0 77 0 77 0 76 0 78 0 77 52 78 52 79 52 79 53 78 53 80 53 79 54 80 54 81 54 81 55 80 55 82 55 81 56 82 56 83 56 81 57 83 57 84 57 84 58 83 58 85 58 84 59 85 59 86 59 86 60 87 60 84 60 84 0 87 0 88 0 84 0 88 0 89 0 89 0 88 0 90 0 89 0 90 0 91 0 89 61 91 61 92 61 92 62 91 62 93 62 92 63 93 63 94 63 43 64 95 64 94 64 94 65 95 65 96 65 94 66 96 66 97 66 98 0 99 0 10 0 10 0 99 0 100 0 10 0 100 0 101 0 102 67 103 67 101 67 101 68 103 68 104 68 101 69 104 69 11 69 1 0 105 0 3 0 3 0 105 0 106 0 3 0 106 0 107 0 4 0 108 0 2 0 60 0 109 0 40 0 40 0 109 0 43 0 109 70 110 70 43 70 43 71 110 71 111 71 43 72 111 72 112 72 112 73 113 73 43 73 43 74 113 74 114 74 43 75 114 75 95 75 97 76 115 76 94 76 94 77 115 77 116 77 94 78 116 78 117 78 117 79 92 79 94 79 23 80 17 80 16 80 19 81 14 81 12 81 1 82 0 82 8 82 101 83 11 83 10 83 118 84 119 84 0 84 0 85 119 85 5 85 5 86 119 86 120 86 5 87 120 87 6 87 6 88 120 88 121 88 6 89 121 89 122 89 122 90 121 90 123 90 6 91 122 91 7 91 7 92 122 92 124 92 7 93 124 93 125 93 126 94 127 94 128 94 128 94 127 94 129 94 128 94 129 94 130 94 130 94 129 94 131 94 130 94 131 94 132 94 132 94 131 94 133 94 132 95 133 95 134 95 134 96 133 96 135 96 134 97 135 97 136 97 136 94 135 94 137 94 136 94 137 94 138 94 138 98 137 98 139 98 138 99 139 99 140 99 140 100 139 100 141 100 141 101 139 101 142 101 142 102 139 102 143 102 142 103 143 103 144 103 144 104 143 104 145 104 145 105 143 105 146 105 146 106 143 106 147 106 147 107 143 107 148 107 148 108 143 108 149 108 149 109 143 109 150 109 149 110 150 110 151 110 151 111 150 111 152 111 152 112 150 112 153 112 153 113 150 113 154 113 154 114 150 114 155 114 155 115 150 115 156 115 156 116 150 116 157 116 156 117 157 117 158 117 127 94 126 94 159 94 159 118 126 118 160 118 159 119 160 119 161 119 161 120 160 120 162 120 161 121 162 121 163 121 163 122 162 122 164 122 163 123 164 123 165 123 165 124 164 124 166 124 165 125 166 125 167 125 167 126 166 126 168 126 167 127 168 127 169 127 169 128 168 128 170 128 170 129 168 129 171 129 170 130 171 130 172 130 172 131 171 131 173 131 173 94 171 94 174 94 174 94 171 94 175 94 175 94 171 94 176 94 175 94 176 94 177 94 177 132 176 132 158 132 158 133 176 133 156 133 178 134 179 134 180 134 180 135 179 135 181 135 180 136 181 136 139 136 139 137 181 137 182 137 139 138 182 138 183 138 139 139 183 139 143 139 143 140 183 140 184 140 143 141 184 141 185 141 185 142 186 142 143 142 143 143 186 143 187 143 187 144 186 144 188 144 187 145 188 145 189 145 189 146 188 146 190 146 189 147 190 147 191 147 191 148 190 148 192 148 191 149 192 149 193 149 193 150 192 150 194 150 193 151 194 151 195 151 195 152 194 152 196 152 195 153 196 153 197 153 197 94 196 94 198 94 197 94 198 94 199 94 199 94 200 94 197 94 197 94 200 94 201 94 197 94 201 94 202 94 202 154 203 154 197 154 197 155 203 155 204 155 197 156 204 156 205 156 203 157 206 157 204 157 204 158 206 158 207 158 207 159 206 159 208 159 207 160 208 160 209 160 207 161 209 161 210 161 210 162 209 162 211 162 210 163 211 163 212 163 213 94 214 94 212 94 212 94 214 94 215 94 212 94 215 94 216 94 217 164 218 164 213 164 213 165 218 165 219 165 213 166 219 166 214 166 218 167 217 167 180 167 180 168 217 168 220 168 180 169 220 169 221 169 221 170 222 170 180 170 180 171 222 171 178 171 223 172 224 172 225 172 225 173 224 173 226 173 225 174 226 174 123 174 123 175 226 175 125 175 123 176 125 176 124 176 125 177 226 177 227 177 227 178 226 178 228 178 227 179 228 179 229 179 229 180 230 180 227 180 227 181 230 181 231 181 227 182 231 182 232 182 232 183 233 183 227 183 125 184 227 184 234 184 234 185 227 185 197 185 234 186 197 186 205 186 197 187 235 187 195 187 216 188 210 188 212 188 124 176 122 176 123 176 236 189 237 189 225 189 225 190 237 190 223 190 39 191 181 191 38 191 38 192 181 192 179 192 38 193 179 193 37 193 37 193 179 193 178 193 37 194 178 194 36 194 36 195 178 195 222 195 36 196 222 196 35 196 35 197 222 197 221 197 35 198 221 198 34 198 34 199 221 199 220 199 34 200 220 200 32 200 32 201 220 201 217 201 32 202 217 202 29 202 29 203 217 203 213 203 29 204 213 204 25 204 25 205 213 205 212 205 25 206 212 206 26 206 26 207 212 207 211 207 26 208 211 208 21 208 21 209 211 209 209 209 21 210 209 210 22 210 22 211 209 211 208 211 22 212 208 212 23 212 23 213 208 213 206 213 23 214 206 214 17 214 17 215 206 215 203 215 17 216 203 216 18 216 18 217 203 217 202 217 18 218 202 218 19 218 19 219 202 219 201 219 19 220 201 220 14 220 14 220 201 220 200 220 14 221 200 221 15 221 15 222 200 222 199 222 15 223 199 223 56 223 56 223 199 223 198 223 56 224 198 224 55 224 55 225 198 225 196 225 55 226 196 226 54 226 54 227 196 227 194 227 54 228 194 228 52 228 52 229 194 229 192 229 52 230 192 230 50 230 50 231 192 231 190 231 50 232 190 232 48 232 48 233 190 233 188 233 48 234 188 234 46 234 46 235 188 235 186 235 46 236 186 236 45 236 45 237 186 237 185 237 45 238 185 238 44 238 44 239 185 239 184 239 44 240 184 240 42 240 42 241 184 241 183 241 42 242 183 242 41 242 41 243 183 243 182 243 41 244 182 244 39 244 39 245 182 245 181 245 71 246 126 246 69 246 69 247 126 247 128 247 69 248 128 248 67 248 67 249 128 249 130 249 67 195 130 195 65 195 65 195 130 195 132 195 65 196 132 196 63 196 63 196 132 196 134 196 63 250 134 250 61 250 61 250 134 250 136 250 61 251 136 251 58 251 58 251 136 251 138 251 58 252 138 252 59 252 59 252 138 252 140 252 59 253 140 253 60 253 60 254 140 254 141 254 60 255 141 255 109 255 109 207 141 207 142 207 109 208 142 208 110 208 110 208 142 208 144 208 110 256 144 256 111 256 111 256 144 256 145 256 111 257 145 257 112 257 112 257 145 257 146 257 112 258 146 258 113 258 113 258 146 258 147 258 113 259 147 259 114 259 114 260 147 260 148 260 114 261 148 261 95 261 95 262 148 262 149 262 95 220 149 220 96 220 96 220 149 220 151 220 96 263 151 263 97 263 97 264 151 264 152 264 97 265 152 265 115 265 115 266 152 266 153 266 115 267 153 267 116 267 116 267 153 267 154 267 116 268 154 268 117 268 117 268 154 268 155 268 117 269 155 269 92 269 92 269 155 269 156 269 92 270 156 270 89 270 89 270 156 270 176 270 89 271 176 271 84 271 84 272 176 272 171 272 84 273 171 273 81 273 81 274 171 274 168 274 81 275 168 275 79 275 79 275 168 275 166 275 79 276 166 276 77 276 77 276 166 276 164 276 77 277 164 277 75 277 75 277 164 277 162 277 75 278 162 278 73 278 73 278 162 278 160 278 73 279 160 279 71 279 71 279 160 279 126 279 238 280 3 280 239 280 239 281 3 281 107 281 239 280 107 280 236 280 236 282 225 282 239 282 224 283 223 283 240 283 240 284 223 284 106 284 240 285 106 285 105 285 223 286 237 286 106 286 106 287 237 287 107 287 107 288 237 288 236 288 1 289 241 289 105 289 105 290 241 290 242 290 105 291 242 291 240 291 1 292 243 292 241 292 243 293 1 293 244 293 244 294 1 294 11 294 244 295 11 295 245 295 245 296 11 296 246 296 228 297 226 297 245 297 245 298 226 298 244 298 101 299 247 299 102 299 102 300 247 300 248 300 102 301 248 301 249 301 102 302 249 302 103 302 103 303 249 303 250 303 103 304 250 304 104 304 104 305 250 305 11 305 11 306 250 306 246 306 251 307 247 307 100 307 100 308 247 308 101 308 10 309 252 309 98 309 98 310 252 310 253 310 98 311 253 311 99 311 99 312 253 312 254 312 99 313 254 313 100 313 100 314 254 314 251 314 252 315 10 315 255 315 255 316 10 316 13 316 255 317 13 317 195 317 195 318 235 318 255 318 43 319 143 319 47 319 47 320 143 320 187 320 47 321 187 321 49 321 49 322 187 322 189 322 49 323 189 323 51 323 51 324 189 324 191 324 51 325 191 325 53 325 53 326 191 326 193 326 53 327 193 327 13 327 13 328 193 328 195 328 150 329 143 329 94 329 94 329 143 329 43 329 40 330 139 330 57 330 57 331 139 331 137 331 57 332 137 332 62 332 62 333 137 333 135 333 62 334 135 334 64 334 64 334 135 334 133 334 64 335 133 335 66 335 66 336 133 336 131 336 66 337 131 337 68 337 68 338 131 338 129 338 68 339 129 339 70 339 70 339 129 339 127 339 70 340 127 340 72 340 72 341 127 341 159 341 72 342 159 342 74 342 74 343 159 343 161 343 74 344 161 344 76 344 76 345 161 345 163 345 76 346 163 346 78 346 78 347 163 347 165 347 78 348 165 348 80 348 80 349 165 349 167 349 80 350 167 350 82 350 82 351 167 351 169 351 82 352 169 352 83 352 83 353 169 353 170 353 83 354 170 354 85 354 85 355 170 355 172 355 85 356 172 356 86 356 86 357 172 357 173 357 86 358 173 358 87 358 87 359 173 359 174 359 87 360 174 360 88 360 88 360 174 360 175 360 88 361 175 361 90 361 90 361 175 361 177 361 90 362 177 362 91 362 91 362 177 362 158 362 91 363 158 363 93 363 93 363 158 363 157 363 93 364 157 364 94 364 94 364 157 364 150 364 180 365 139 365 33 365 33 365 139 365 40 365 20 366 210 366 24 366 24 367 210 367 216 367 24 368 216 368 27 368 27 368 216 368 215 368 27 369 215 369 28 369 28 370 215 370 214 370 28 371 214 371 30 371 30 372 214 372 219 372 30 373 219 373 31 373 31 374 219 374 218 374 31 375 218 375 33 375 33 375 218 375 180 375 207 376 210 376 16 376 16 377 210 377 20 377 204 378 207 378 12 378 12 379 207 379 16 379 7 380 125 380 8 380 8 380 125 380 234 380 8 381 234 381 9 381 9 381 234 381 205 381 9 382 205 382 12 382 12 382 205 382 204 382 256 383 2 383 257 383 257 384 2 384 108 384 257 385 108 385 4 385 3 386 238 386 4 386 4 386 238 386 258 386 4 385 258 385 257 385 239 387 225 387 259 387 259 388 225 388 260 388 260 389 225 389 261 389 261 390 225 390 123 390 261 391 123 391 262 391 262 392 123 392 263 392 263 393 123 393 264 393 264 394 123 394 121 394 121 395 120 395 264 395 264 396 120 396 265 396 265 397 120 397 119 397 265 398 119 398 118 398 266 399 240 399 267 399 267 400 240 400 242 400 267 401 242 401 241 401 241 402 243 402 267 402 267 403 243 403 244 403 267 404 244 404 268 404 268 405 244 405 269 405 268 406 269 406 270 406 270 407 271 407 268 407 268 408 271 408 245 408 268 409 245 409 246 409 246 410 250 410 268 410 268 411 250 411 249 411 268 412 249 412 248 412 247 413 272 413 248 413 248 414 272 414 273 414 248 415 273 415 274 415 247 416 251 416 272 416 272 417 251 417 254 417 272 418 254 418 253 418 272 419 253 419 275 419 275 420 253 420 252 420 275 421 252 421 255 421 276 422 277 422 272 422 272 423 277 423 278 423 272 424 278 424 279 424 279 425 280 425 272 425 272 426 280 426 273 426 274 427 268 427 248 427 256 428 257 428 267 428 267 429 257 429 281 429 267 430 281 430 282 430 257 431 258 431 281 431 281 432 258 432 283 432 283 433 258 433 238 433 283 0 238 0 259 0 259 0 238 0 239 0 282 434 284 434 267 434 267 435 284 435 285 435 267 436 285 436 266 436 286 437 287 437 288 437 288 438 287 438 289 438 288 439 289 439 290 439 291 386 292 386 290 386 290 440 292 440 293 440 290 441 293 441 288 441 262 442 294 442 261 442 261 443 294 443 295 443 261 444 295 444 296 444 297 445 298 445 262 445 262 445 298 445 299 445 262 446 299 446 294 446 294 447 299 447 300 447 294 448 300 448 301 448 301 449 300 449 302 449 302 0 300 0 303 0 303 0 300 0 304 0 304 0 300 0 305 0 305 0 300 0 306 0 299 450 307 450 300 450 300 451 307 451 308 451 308 452 307 452 309 452 308 453 309 453 310 453 311 0 312 0 310 0 310 0 312 0 313 0 310 454 313 454 308 454 308 455 313 455 314 455 308 456 314 456 315 456 316 0 317 0 311 0 311 0 317 0 318 0 311 0 318 0 312 0 319 457 320 457 316 457 316 0 320 0 321 0 316 0 321 0 317 0 319 458 322 458 320 458 320 459 322 459 323 459 320 460 323 460 324 460 324 461 323 461 325 461 324 462 325 462 326 462 324 463 326 463 327 463 327 464 326 464 328 464 327 465 328 465 329 465 329 466 328 466 330 466 330 467 328 467 331 467 331 468 328 468 332 468 332 469 328 469 333 469 333 0 328 0 334 0 334 470 328 470 335 470 334 471 335 471 336 471 336 472 335 472 337 472 337 473 335 473 338 473 337 474 338 474 339 474 339 475 338 475 340 475 340 476 338 476 341 476 341 477 338 477 342 477 341 478 342 478 343 478 343 479 342 479 344 479 343 480 344 480 345 480 345 481 344 481 346 481 345 482 346 482 347 482 347 483 346 483 348 483 347 484 348 484 349 484 349 485 348 485 350 485 349 486 350 486 351 486 351 487 350 487 308 487 351 488 308 488 352 488 352 489 308 489 353 489 353 490 308 490 354 490 354 491 308 491 315 491 355 492 356 492 335 492 335 493 356 493 357 493 335 494 357 494 358 494 356 495 355 495 359 495 359 496 355 496 360 496 359 497 360 497 361 497 361 498 360 498 362 498 361 499 362 499 363 499 363 500 362 500 364 500 363 501 364 501 365 501 365 502 364 502 366 502 365 503 366 503 367 503 367 504 366 504 368 504 367 505 368 505 369 505 369 506 368 506 370 506 369 507 370 507 371 507 371 508 370 508 372 508 371 509 372 509 373 509 373 510 372 510 374 510 373 511 374 511 375 511 375 512 374 512 376 512 375 513 376 513 377 513 377 514 376 514 378 514 377 515 378 515 379 515 379 516 378 516 380 516 379 517 380 517 381 517 379 518 381 518 382 518 382 519 381 519 383 519 382 520 383 520 384 520 384 521 385 521 382 521 382 522 385 522 386 522 382 523 386 523 387 523 387 524 386 524 388 524 387 525 388 525 389 525 387 526 389 526 390 526 390 527 389 527 391 527 390 528 391 528 392 528 338 529 393 529 392 529 392 65 393 65 394 65 392 66 394 66 395 66 350 530 396 530 308 530 296 531 397 531 261 531 261 532 397 532 398 532 358 533 399 533 335 533 335 534 399 534 338 534 399 535 400 535 338 535 338 536 400 536 401 536 338 537 401 537 402 537 402 538 403 538 338 538 338 539 403 539 404 539 338 540 404 540 393 540 395 76 405 76 392 76 392 77 405 77 406 77 392 78 406 78 407 78 407 79 390 79 392 79 334 541 408 541 333 541 333 541 408 541 409 541 333 542 409 542 332 542 332 542 409 542 410 542 332 543 410 543 331 543 331 544 410 544 411 544 331 545 411 545 330 545 330 546 411 546 412 546 330 547 412 547 329 547 329 548 412 548 413 548 329 549 413 549 327 549 327 549 413 549 414 549 327 550 414 550 324 550 324 551 414 551 415 551 324 552 415 552 320 552 320 553 415 553 416 553 320 554 416 554 321 554 321 555 416 555 417 555 321 556 417 556 317 556 317 556 417 556 418 556 317 557 418 557 318 557 318 558 418 558 419 558 318 559 419 559 312 559 312 560 419 560 420 560 312 561 420 561 313 561 313 561 420 561 421 561 313 562 421 562 314 562 314 562 421 562 422 562 314 563 422 563 315 563 315 564 422 564 423 564 315 220 423 220 354 220 354 220 423 220 424 220 354 565 424 565 353 565 353 566 424 566 425 566 353 567 425 567 352 567 352 567 425 567 426 567 352 568 426 568 351 568 351 569 426 569 427 569 351 570 427 570 349 570 349 571 427 571 428 571 349 572 428 572 347 572 347 269 428 269 429 269 347 270 429 270 345 270 345 573 429 573 430 573 345 574 430 574 343 574 343 575 430 575 431 575 343 576 431 576 341 576 341 576 431 576 432 576 341 577 432 577 340 577 340 578 432 578 433 578 340 579 433 579 339 579 339 580 433 580 434 580 339 581 434 581 337 581 337 582 434 582 435 582 337 583 435 583 336 583 336 584 435 584 436 584 336 585 436 585 334 585 334 585 436 585 408 585 369 586 437 586 367 586 367 246 437 246 438 246 367 249 438 249 365 249 365 587 438 587 439 587 365 588 439 588 363 588 363 588 439 588 440 588 363 589 440 589 361 589 361 590 440 590 441 590 361 591 441 591 359 591 359 591 441 591 442 591 359 592 442 592 356 592 356 592 442 592 443 592 356 593 443 593 357 593 357 593 443 593 444 593 357 594 444 594 358 594 358 595 444 595 445 595 358 596 445 596 399 596 399 597 445 597 446 597 399 598 446 598 400 598 400 598 446 598 447 598 400 599 447 599 401 599 401 600 447 600 448 600 401 601 448 601 402 601 402 602 448 602 449 602 402 603 449 603 403 603 403 603 449 603 450 603 403 604 450 604 404 604 404 605 450 605 451 605 404 606 451 606 393 606 393 607 451 607 452 607 393 220 452 220 394 220 394 220 452 220 453 220 394 608 453 608 395 608 395 609 453 609 454 609 395 610 454 610 405 610 405 611 454 611 455 611 405 612 455 612 406 612 406 613 455 613 456 613 406 614 456 614 407 614 407 614 456 614 457 614 407 615 457 615 390 615 390 616 457 616 458 616 390 617 458 617 387 617 387 618 458 618 459 618 387 619 459 619 382 619 382 620 459 620 460 620 382 621 460 621 379 621 379 622 460 622 461 622 379 623 461 623 377 623 377 623 461 623 462 623 377 624 462 624 375 624 375 625 462 625 463 625 375 626 463 626 373 626 373 626 463 626 464 626 373 627 464 627 371 627 371 627 464 627 465 627 371 628 465 628 369 628 369 628 465 628 437 628 291 280 261 280 292 280 292 629 261 629 466 629 466 280 261 280 398 280 398 288 397 288 466 288 466 630 397 630 467 630 467 631 397 631 296 631 467 632 296 632 295 632 467 633 295 633 468 633 468 634 295 634 469 634 468 635 469 635 470 635 471 292 472 292 470 292 470 636 472 636 468 636 471 293 294 293 472 293 472 637 294 637 473 637 473 638 294 638 301 638 473 639 301 639 474 639 473 640 474 640 475 640 475 641 474 641 476 641 475 642 476 642 477 642 475 643 477 643 478 643 478 644 477 644 479 644 478 645 479 645 480 645 480 646 479 646 481 646 481 647 479 647 482 647 482 648 483 648 481 648 481 649 483 649 484 649 484 650 483 650 485 650 485 651 483 651 486 651 485 652 486 652 487 652 487 652 486 652 488 652 487 653 488 653 489 653 489 654 488 654 490 654 490 655 396 655 489 655 489 656 396 656 491 656 491 657 396 657 350 657 491 658 350 658 492 658 492 659 350 659 348 659 492 660 348 660 493 660 493 661 348 661 346 661 493 662 346 662 494 662 494 663 346 663 344 663 494 664 344 664 495 664 495 664 344 664 342 664 495 319 342 319 496 319 496 319 342 319 338 319 497 665 498 665 499 665 499 666 498 666 500 666 499 667 500 667 501 667 501 668 500 668 502 668 501 669 502 669 262 669 262 670 502 670 297 670 297 671 502 671 503 671 297 672 503 672 298 672 298 93 503 93 299 93 504 382 310 382 505 382 505 673 310 673 309 673 505 674 309 674 506 674 506 381 309 381 307 381 506 380 307 380 503 380 503 380 307 380 299 380 311 378 310 378 507 378 507 378 310 378 504 378 316 377 311 377 508 377 508 377 311 377 507 377 509 675 328 675 510 675 510 676 328 676 326 676 510 677 326 677 511 677 511 678 326 678 325 678 511 679 325 679 512 679 512 679 325 679 323 679 512 680 323 680 513 680 513 680 323 680 322 680 513 681 322 681 514 681 514 682 322 682 319 682 514 366 319 366 508 366 508 366 319 366 316 366 335 683 328 683 515 683 515 684 328 684 509 684 516 685 392 685 517 685 517 686 392 686 391 686 517 687 391 687 518 687 518 687 391 687 389 687 518 688 389 688 519 688 519 689 389 689 388 689 519 690 388 690 520 690 520 691 388 691 386 691 520 692 386 692 521 692 521 693 386 693 385 693 521 694 385 694 522 694 522 694 385 694 384 694 522 695 384 695 523 695 523 695 384 695 383 695 523 696 383 696 524 696 524 697 383 697 381 697 524 698 381 698 525 698 525 698 381 698 380 698 525 699 380 699 526 699 526 699 380 699 378 699 526 700 378 700 527 700 527 701 378 701 376 701 527 702 376 702 528 702 528 703 376 703 374 703 528 704 374 704 529 704 529 705 374 705 372 705 529 706 372 706 530 706 530 707 372 707 370 707 530 708 370 708 531 708 531 709 370 709 368 709 531 710 368 710 532 710 532 711 368 711 366 711 532 712 366 712 533 712 533 713 366 713 364 713 533 714 364 714 534 714 534 714 364 714 362 714 534 715 362 715 535 715 535 715 362 715 360 715 535 716 360 716 536 716 536 716 360 716 355 716 536 717 355 717 515 717 515 718 355 718 335 718 338 329 392 329 496 329 496 719 392 719 516 719 286 94 472 94 498 94 498 94 472 94 506 94 498 94 506 94 503 94 288 720 293 720 286 720 286 721 293 721 292 721 286 722 292 722 472 722 472 723 292 723 468 723 468 724 292 724 467 724 467 725 292 725 466 725 472 726 473 726 506 726 506 727 473 727 489 727 506 728 489 728 505 728 505 729 489 729 504 729 504 730 489 730 491 730 504 731 491 731 424 731 424 732 491 732 425 732 425 733 491 733 426 733 426 734 491 734 427 734 427 735 491 735 428 735 428 736 491 736 492 736 428 737 492 737 429 737 429 738 492 738 493 738 429 739 493 739 430 739 430 740 493 740 494 740 430 741 494 741 431 741 431 742 494 742 495 742 431 743 495 743 432 743 432 744 495 744 496 744 432 745 496 745 433 745 433 746 496 746 434 746 434 747 496 747 435 747 435 748 496 748 515 748 435 749 515 749 436 749 436 750 515 750 408 750 408 751 515 751 509 751 408 752 509 752 409 752 409 753 509 753 410 753 410 754 509 754 411 754 411 755 509 755 412 755 412 756 509 756 413 756 413 757 509 757 414 757 414 758 509 758 510 758 414 164 510 164 415 164 415 165 510 165 511 165 415 759 511 759 512 759 489 760 473 760 481 760 481 94 473 94 475 94 481 94 475 94 478 94 478 94 480 94 481 94 481 761 484 761 489 761 489 762 484 762 485 762 489 762 485 762 487 762 516 763 452 763 496 763 496 764 452 764 451 764 496 765 451 765 450 765 517 766 458 766 516 766 516 767 458 767 457 767 516 768 457 768 456 768 517 94 518 94 458 94 458 769 518 769 459 769 459 770 518 770 519 770 459 771 519 771 520 771 459 772 520 772 460 772 460 773 520 773 521 773 460 774 521 774 522 774 522 775 523 775 460 775 460 130 523 130 524 130 460 129 524 129 461 129 461 776 524 776 525 776 461 777 525 777 526 777 461 778 526 778 462 778 462 779 526 779 527 779 462 780 527 780 463 780 463 781 527 781 528 781 463 94 528 94 464 94 464 94 528 94 529 94 464 782 529 782 465 782 465 783 529 783 530 783 465 784 530 784 437 784 437 785 530 785 531 785 437 786 531 786 438 786 438 94 531 94 532 94 438 94 532 94 439 94 439 787 532 787 533 787 439 788 533 788 440 788 440 789 533 789 534 789 440 94 534 94 441 94 441 94 534 94 535 94 441 94 535 94 442 94 442 94 535 94 536 94 442 94 536 94 443 94 443 790 536 790 515 790 443 791 515 791 444 791 444 792 515 792 445 792 445 793 515 793 446 793 446 794 515 794 496 794 446 795 496 795 447 795 447 796 496 796 448 796 448 797 496 797 449 797 449 798 496 798 450 798 415 799 512 799 416 799 416 800 512 800 513 800 416 801 513 801 514 801 514 802 508 802 416 802 416 803 508 803 417 803 417 804 508 804 418 804 418 805 508 805 507 805 418 806 507 806 419 806 419 807 507 807 420 807 420 808 507 808 421 808 421 809 507 809 504 809 421 810 504 810 422 810 422 811 504 811 423 811 423 812 504 812 424 812 503 813 502 813 498 813 498 813 502 813 500 813 456 94 455 94 516 94 516 94 455 94 454 94 516 94 454 94 453 94 453 94 452 94 516 94 287 814 286 814 537 814 537 815 286 815 538 815 538 816 286 816 539 816 539 817 286 817 540 817 540 818 286 818 541 818 540 819 541 819 542 819 542 820 541 820 543 820 543 821 541 821 544 821 544 822 541 822 545 822 545 823 541 823 546 823 498 824 547 824 286 824 286 825 547 825 548 825 286 826 548 826 549 826 497 827 550 827 498 827 498 828 550 828 547 828 286 829 549 829 551 829 551 830 549 830 552 830 551 831 552 831 553 831 553 832 554 832 551 832 551 387 554 387 555 387 551 833 555 833 556 833 551 834 541 834 286 834 497 835 499 835 550 835 550 836 499 836 501 836 550 837 501 837 263 837 263 838 501 838 262 838 557 839 558 839 559 839 559 839 558 839 560 839 559 840 560 840 561 840 561 840 560 840 562 840 561 841 562 841 563 841 563 841 562 841 564 841 563 842 564 842 565 842 565 842 564 842 566 842 565 843 566 843 567 843 567 843 566 843 568 843 567 844 568 844 569 844 569 844 568 844 570 844 569 845 570 845 571 845 571 845 570 845 572 845 571 846 572 846 573 846 573 846 572 846 574 846 557 847 267 847 558 847 558 847 267 847 537 847 558 847 537 847 575 847 575 847 537 847 538 847 267 848 268 848 537 848 537 848 268 848 576 848 256 849 267 849 2 849 2 850 267 850 557 850 2 851 557 851 559 851 559 852 561 852 2 852 2 853 561 853 573 853 2 854 573 854 577 854 561 830 563 830 573 830 573 831 563 831 565 831 573 832 565 832 567 832 567 387 569 387 573 387 573 387 569 387 571 387 578 387 579 387 577 387 577 387 579 387 580 387 577 387 580 387 581 387 581 387 582 387 577 387 577 387 582 387 583 387 577 855 583 855 2 855 2 856 583 856 584 856 2 857 584 857 585 857 2 858 585 858 0 858 0 859 585 859 265 859 0 860 265 860 118 860 586 861 585 861 587 861 587 862 585 862 584 862 587 863 584 863 588 863 588 863 584 863 583 863 588 864 583 864 589 864 589 864 583 864 582 864 589 865 582 865 590 865 590 865 582 865 581 865 590 866 581 866 591 866 591 866 581 866 580 866 591 867 580 867 592 867 592 867 580 867 579 867 592 868 579 868 593 868 593 868 579 868 578 868 593 869 578 869 594 869 594 869 578 869 577 869 585 870 586 870 265 870 265 220 586 220 550 220 265 220 550 220 263 220 586 871 595 871 550 871 550 870 595 870 547 870 263 220 264 220 265 220 547 872 595 872 548 872 548 873 595 873 596 873 548 874 596 874 549 874 549 874 596 874 597 874 549 875 597 875 552 875 552 876 597 876 598 876 552 877 598 877 553 877 553 878 598 878 599 878 553 879 599 879 554 879 554 880 599 880 600 880 554 881 600 881 555 881 555 882 600 882 601 882 555 883 601 883 556 883 556 884 601 884 602 884 556 885 602 885 551 885 551 886 602 886 603 886 575 887 538 887 604 887 604 888 538 888 539 888 604 889 539 889 605 889 605 890 539 890 540 890 605 891 540 891 606 891 606 892 540 892 542 892 606 893 542 893 607 893 607 893 542 893 543 893 607 894 543 894 608 894 608 895 543 895 544 895 608 896 544 896 609 896 609 897 544 897 545 897 609 898 545 898 610 898 610 899 545 899 546 899 610 900 546 900 611 900 611 900 546 900 541 900 272 901 612 901 276 901 276 902 612 902 613 902 276 903 613 903 277 903 277 904 613 904 614 904 277 905 614 905 278 905 278 906 614 906 615 906 278 907 615 907 279 907 279 907 615 907 616 907 279 908 616 908 280 908 280 908 616 908 617 908 280 909 617 909 273 909 273 909 617 909 618 909 273 910 618 910 274 910 274 910 618 910 619 910 274 911 619 911 268 911 268 912 619 912 576 912 290 913 620 913 291 913 291 914 620 914 260 914 291 915 260 915 261 915 620 916 290 916 621 916 621 917 290 917 289 917 621 918 289 918 537 918 537 919 289 919 287 919 576 920 294 920 537 920 537 921 294 921 471 921 537 922 471 922 470 922 619 923 479 923 576 923 576 924 479 924 477 924 576 925 477 925 476 925 619 926 618 926 479 926 479 927 618 927 612 927 479 928 612 928 482 928 482 929 612 929 483 929 483 930 612 930 486 930 486 931 612 931 488 931 488 932 612 932 622 932 488 933 622 933 490 933 490 934 622 934 396 934 618 94 617 94 612 94 612 94 617 94 616 94 612 94 616 94 615 94 615 935 614 935 612 935 612 935 614 935 613 935 476 936 474 936 576 936 576 937 474 937 301 937 576 938 301 938 623 938 623 939 624 939 576 939 576 940 624 940 625 940 576 941 625 941 294 941 470 942 469 942 537 942 537 943 469 943 295 943 537 944 295 944 626 944 626 945 627 945 537 945 537 946 627 946 628 946 537 947 628 947 629 947 629 948 621 948 537 948 573 949 574 949 577 949 577 950 574 950 594 950 551 94 603 94 541 94 541 94 603 94 611 94 630 387 631 387 632 387 632 387 631 387 633 387 632 387 633 387 634 387 634 387 633 387 635 387 634 387 635 387 636 387 636 387 635 387 637 387 636 387 637 387 638 387 636 951 638 951 639 951 639 952 638 952 640 952 639 953 640 953 641 953 641 954 640 954 642 954 641 955 642 955 643 955 641 387 643 387 644 387 644 956 643 956 645 956 644 957 645 957 646 957 646 958 645 958 647 958 646 959 647 959 648 959 646 960 648 960 649 960 649 387 648 387 650 387 649 387 650 387 651 387 651 387 650 387 652 387 651 387 652 387 653 387 651 387 653 387 654 387 654 387 653 387 655 387 654 387 655 387 656 387 656 387 655 387 657 387 656 387 657 387 658 387 656 387 658 387 659 387 659 387 658 387 660 387 659 387 660 387 661 387 661 387 660 387 662 387 661 387 662 387 663 387 661 961 663 961 664 961 664 962 663 962 665 962 664 963 665 963 666 963 666 964 665 964 667 964 666 387 667 387 668 387 666 387 668 387 669 387 669 965 668 965 670 965 669 953 670 953 671 953 671 954 670 954 672 954 671 966 672 966 673 966 671 967 673 967 674 967 674 968 673 968 675 968 674 969 675 969 676 969 676 387 675 387 677 387 676 387 677 387 678 387 676 387 678 387 679 387 679 970 678 970 680 970 679 971 680 971 681 971 681 972 680 972 682 972 681 387 682 387 683 387 681 387 683 387 684 387 684 387 683 387 685 387 684 387 685 387 686 387 686 387 685 387 687 387 686 387 687 387 688 387 686 387 688 387 689 387 689 387 688 387 630 387 689 387 630 387 632 387 690 973 633 973 691 973 691 973 633 973 631 973 691 974 631 974 692 974 692 975 631 975 630 975 692 976 630 976 693 976 693 976 630 976 688 976 693 977 688 977 694 977 694 977 688 977 687 977 694 978 687 978 695 978 695 979 687 979 685 979 695 980 685 980 696 980 696 981 685 981 683 981 696 982 683 982 697 982 697 982 683 982 682 982 697 983 682 983 698 983 698 984 682 984 680 984 698 985 680 985 699 985 699 986 680 986 678 986 699 987 678 987 700 987 700 988 678 988 677 988 700 989 677 989 701 989 701 990 677 990 675 990 701 991 675 991 702 991 702 991 675 991 673 991 702 992 673 992 703 992 703 992 673 992 672 992 703 993 672 993 704 993 704 993 672 993 670 993 704 994 670 994 705 994 705 995 670 995 668 995 705 996 668 996 706 996 706 997 668 997 667 997 706 998 667 998 707 998 707 999 667 999 665 999 707 1000 665 1000 708 1000 708 1000 665 1000 663 1000 708 1001 663 1001 709 1001 709 1002 663 1002 662 1002 709 1003 662 1003 710 1003 710 1003 662 1003 660 1003 710 1004 660 1004 711 1004 711 1004 660 1004 658 1004 711 1005 658 1005 712 1005 712 1006 658 1006 657 1006 712 1007 657 1007 713 1007 713 1008 657 1008 655 1008 713 1009 655 1009 714 1009 714 1010 655 1010 653 1010 714 1011 653 1011 715 1011 715 1012 653 1012 652 1012 715 1013 652 1013 716 1013 716 1013 652 1013 650 1013 716 1014 650 1014 717 1014 717 1014 650 1014 648 1014 717 1015 648 1015 718 1015 718 1015 648 1015 647 1015 718 1016 647 1016 719 1016 719 1016 647 1016 645 1016 719 1017 645 1017 720 1017 720 1017 645 1017 643 1017 720 1018 643 1018 721 1018 721 1019 643 1019 642 1019 721 1020 642 1020 722 1020 722 1020 642 1020 640 1020 722 1021 640 1021 723 1021 723 1021 640 1021 638 1021 723 1022 638 1022 724 1022 724 1023 638 1023 637 1023 724 1024 637 1024 725 1024 725 1025 637 1025 635 1025 725 1026 635 1026 690 1026 690 1027 635 1027 633 1027 726 1028 659 1028 727 1028 727 1029 659 1029 661 1029 727 1030 661 1030 728 1030 728 1031 661 1031 664 1031 728 1032 664 1032 729 1032 729 1032 664 1032 666 1032 729 1033 666 1033 730 1033 730 1033 666 1033 669 1033 730 1034 669 1034 731 1034 731 1035 669 1035 671 1035 731 1036 671 1036 732 1036 732 1037 671 1037 674 1037 732 1038 674 1038 733 1038 733 1039 674 1039 676 1039 733 1040 676 1040 734 1040 734 1040 676 1040 679 1040 734 1041 679 1041 735 1041 735 1042 679 1042 681 1042 735 1043 681 1043 736 1043 736 1044 681 1044 684 1044 736 1045 684 1045 737 1045 737 1046 684 1046 686 1046 737 1047 686 1047 738 1047 738 1048 686 1048 689 1048 738 1049 689 1049 739 1049 739 1050 689 1050 632 1050 739 1051 632 1051 740 1051 740 1052 632 1052 634 1052 740 1053 634 1053 741 1053 741 1054 634 1054 636 1054 741 1055 636 1055 742 1055 742 1055 636 1055 639 1055 742 1056 639 1056 743 1056 743 1056 639 1056 641 1056 743 1057 641 1057 744 1057 744 1058 641 1058 644 1058 744 1059 644 1059 745 1059 745 1059 644 1059 646 1059 745 1060 646 1060 746 1060 746 1061 646 1061 649 1061 746 1062 649 1062 747 1062 747 1063 649 1063 651 1063 747 1064 651 1064 748 1064 748 1065 651 1065 654 1065 748 1066 654 1066 749 1066 749 1067 654 1067 656 1067 749 1068 656 1068 726 1068 726 1068 656 1068 659 1068 750 387 751 387 752 387 752 387 751 387 753 387 752 961 753 961 754 961 754 962 753 962 755 962 754 963 755 963 756 963 756 1069 755 1069 757 1069 756 1070 757 1070 758 1070 756 387 758 387 759 387 759 965 758 965 760 965 759 953 760 953 761 953 761 954 760 954 762 954 761 966 762 966 763 966 761 967 763 967 764 967 764 968 763 968 765 968 764 957 765 957 766 957 766 958 765 958 767 958 766 959 767 959 768 959 766 960 768 960 769 960 769 387 768 387 770 387 769 387 770 387 771 387 771 387 770 387 772 387 771 387 772 387 773 387 771 387 773 387 774 387 774 387 773 387 775 387 774 387 775 387 776 387 776 387 775 387 777 387 776 387 777 387 778 387 776 387 778 387 779 387 779 387 778 387 780 387 779 387 780 387 781 387 781 387 780 387 782 387 781 387 782 387 783 387 781 961 783 961 784 961 784 962 783 962 785 962 784 963 785 963 786 963 786 1069 785 1069 787 1069 786 1070 787 1070 788 1070 786 387 788 387 789 387 789 965 788 965 790 965 789 953 790 953 791 953 791 954 790 954 792 954 791 966 792 966 793 966 791 967 793 967 794 967 794 968 793 968 795 968 794 969 795 969 796 969 796 387 795 387 797 387 796 387 797 387 798 387 796 387 798 387 799 387 799 387 798 387 800 387 799 387 800 387 801 387 801 387 800 387 802 387 801 387 802 387 803 387 801 387 803 387 804 387 804 387 803 387 805 387 804 387 805 387 806 387 806 387 805 387 807 387 806 387 807 387 808 387 806 387 808 387 809 387 809 387 808 387 750 387 809 387 750 387 752 387 810 1071 753 1071 811 1071 811 973 753 973 751 973 811 974 751 974 812 974 812 1072 751 1072 750 1072 812 1073 750 1073 813 1073 813 1074 750 1074 808 1074 813 1075 808 1075 814 1075 814 1076 808 1076 807 1076 814 1077 807 1077 815 1077 815 1077 807 1077 805 1077 815 1078 805 1078 816 1078 816 1078 805 1078 803 1078 816 1079 803 1079 817 1079 817 1079 803 1079 802 1079 817 1080 802 1080 818 1080 818 1080 802 1080 800 1080 818 1081 800 1081 819 1081 819 1081 800 1081 798 1081 819 1082 798 1082 820 1082 820 1082 798 1082 797 1082 820 1083 797 1083 821 1083 821 1083 797 1083 795 1083 821 1084 795 1084 822 1084 822 1084 795 1084 793 1084 822 1085 793 1085 823 1085 823 1085 793 1085 792 1085 823 1086 792 1086 824 1086 824 1086 792 1086 790 1086 824 1087 790 1087 825 1087 825 1087 790 1087 788 1087 825 1088 788 1088 826 1088 826 1088 788 1088 787 1088 826 999 787 999 827 999 827 999 787 999 785 999 827 1000 785 1000 828 1000 828 1089 785 1089 783 1089 828 1090 783 1090 829 1090 829 1002 783 1002 782 1002 829 1003 782 1003 830 1003 830 1003 782 1003 780 1003 830 1004 780 1004 831 1004 831 1091 780 1091 778 1091 831 1006 778 1006 832 1006 832 1005 778 1005 777 1005 832 1008 777 1008 833 1008 833 1008 777 1008 775 1008 833 1009 775 1009 834 1009 834 1009 775 1009 773 1009 834 1012 773 1012 835 1012 835 1092 773 1092 772 1092 835 1093 772 1093 836 1093 836 1013 772 1013 770 1013 836 1014 770 1014 837 1014 837 1014 770 1014 768 1014 837 1015 768 1015 838 1015 838 1015 768 1015 767 1015 838 1016 767 1016 839 1016 839 1016 767 1016 765 1016 839 1017 765 1017 840 1017 840 1094 765 1094 763 1094 840 1019 763 1019 841 1019 841 1019 763 1019 762 1019 841 1020 762 1020 842 1020 842 1020 762 1020 760 1020 842 1021 760 1021 843 1021 843 1021 760 1021 758 1021 843 1022 758 1022 844 1022 844 1023 758 1023 757 1023 844 1024 757 1024 845 1024 845 1024 757 1024 755 1024 845 1027 755 1027 810 1027 810 1026 755 1026 753 1026 846 1095 779 1095 847 1095 847 1096 779 1096 781 1096 847 1097 781 1097 848 1097 848 1098 781 1098 784 1098 848 1099 784 1099 849 1099 849 1100 784 1100 786 1100 849 1101 786 1101 850 1101 850 1101 786 1101 789 1101 850 1102 789 1102 851 1102 851 1103 789 1103 791 1103 851 1104 791 1104 852 1104 852 1105 791 1105 794 1105 852 1106 794 1106 853 1106 853 1106 794 1106 796 1106 853 1107 796 1107 854 1107 854 1107 796 1107 799 1107 854 1108 799 1108 855 1108 855 1109 799 1109 801 1109 855 1110 801 1110 856 1110 856 1044 801 1044 804 1044 856 1045 804 1045 857 1045 857 1046 804 1046 806 1046 857 1047 806 1047 858 1047 858 1111 806 1111 809 1111 858 1112 809 1112 859 1112 859 1050 809 1050 752 1050 859 1051 752 1051 860 1051 860 1113 752 1113 754 1113 860 1114 754 1114 861 1114 861 1054 754 1054 756 1054 861 1055 756 1055 862 1055 862 1115 756 1115 759 1115 862 1116 759 1116 863 1116 863 1117 759 1117 761 1117 863 1058 761 1058 864 1058 864 1118 761 1118 764 1118 864 1119 764 1119 865 1119 865 1120 764 1120 766 1120 865 1121 766 1121 866 1121 866 1121 766 1121 769 1121 866 1122 769 1122 867 1122 867 1123 769 1123 771 1123 867 1124 771 1124 868 1124 868 1125 771 1125 774 1125 868 1126 774 1126 869 1126 869 1127 774 1127 776 1127 869 1128 776 1128 846 1128 846 1129 776 1129 779 1129 626 1130 266 1130 870 1130 870 1131 266 1131 285 1131 870 1132 285 1132 871 1132 871 1132 285 1132 284 1132 871 1133 284 1133 872 1133 872 1134 284 1134 282 1134 872 1135 282 1135 873 1135 873 1135 282 1135 281 1135 873 1136 281 1136 874 1136 874 1137 281 1137 283 1137 874 1138 283 1138 259 1138 259 1139 260 1139 874 1139 874 1138 260 1138 620 1138 874 1137 620 1137 873 1137 873 1137 620 1137 621 1137 873 1140 621 1140 872 1140 872 1140 621 1140 629 1140 872 1133 629 1133 871 1133 871 1134 629 1134 628 1134 871 1141 628 1141 870 1141 870 1132 628 1132 627 1132 870 1131 627 1131 626 1131 240 220 266 220 224 220 224 220 266 220 626 220 224 220 626 220 295 220 295 220 294 220 224 220 224 220 294 220 226 220 226 220 294 220 625 220 226 220 625 220 269 220 269 220 244 220 226 220 245 1142 271 1142 228 1142 228 1143 271 1143 623 1143 228 1144 623 1144 875 1144 875 1145 623 1145 301 1145 875 1146 301 1146 302 1146 271 1147 270 1147 623 1147 623 1148 270 1148 624 1148 624 1149 270 1149 269 1149 624 1150 269 1150 625 1150 875 1151 302 1151 876 1151 876 1152 302 1152 303 1152 876 1153 303 1153 877 1153 877 1154 303 1154 304 1154 877 1155 304 1155 878 1155 878 1156 304 1156 305 1156 878 1157 305 1157 879 1157 879 1158 305 1158 306 1158 879 1159 306 1159 227 1159 227 1160 306 1160 300 1160 227 1161 233 1161 879 1161 879 1162 233 1162 232 1162 879 1163 232 1163 878 1163 878 1164 232 1164 231 1164 878 1165 231 1165 877 1165 877 1166 231 1166 230 1166 877 1167 230 1167 876 1167 876 1168 230 1168 229 1168 876 1169 229 1169 875 1169 875 1170 229 1170 228 1170 227 1171 852 1171 197 1171 197 1172 852 1172 853 1172 197 1173 853 1173 854 1173 300 1174 727 1174 227 1174 227 1175 727 1175 728 1175 227 1176 728 1176 729 1176 308 1177 744 1177 300 1177 300 1178 744 1178 745 1178 300 1179 745 1179 746 1179 197 1180 859 1180 308 1180 308 1181 859 1181 860 1181 308 1182 860 1182 861 1182 729 1183 730 1183 227 1183 227 1184 730 1184 731 1184 227 1185 731 1185 732 1185 732 1186 733 1186 227 1186 227 1187 733 1187 734 1187 227 1188 734 1188 852 1188 852 1189 734 1189 851 1189 851 1190 734 1190 735 1190 851 1191 735 1191 850 1191 850 1192 735 1192 736 1192 850 1193 736 1193 849 1193 849 1194 736 1194 737 1194 849 1195 737 1195 848 1195 848 1196 737 1196 738 1196 848 1197 738 1197 847 1197 847 1198 738 1198 739 1198 847 1199 739 1199 846 1199 846 1200 739 1200 740 1200 846 1201 740 1201 869 1201 869 1195 740 1195 741 1195 869 1194 741 1194 868 1194 868 1193 741 1193 742 1193 868 1192 742 1192 867 1192 867 1191 742 1191 743 1191 867 1202 743 1202 866 1202 866 1203 743 1203 744 1203 866 1204 744 1204 308 1204 746 1205 747 1205 300 1205 300 1206 747 1206 748 1206 300 1207 748 1207 749 1207 749 1208 726 1208 300 1208 300 1209 726 1209 727 1209 854 1210 855 1210 197 1210 197 1211 855 1211 856 1211 197 1212 856 1212 857 1212 857 1213 858 1213 197 1213 197 1214 858 1214 859 1214 861 1215 862 1215 308 1215 308 1216 862 1216 863 1216 308 1217 863 1217 864 1217 864 1218 865 1218 308 1218 308 1219 865 1219 866 1219 197 1220 396 1220 235 1220 235 1221 396 1221 622 1221 235 220 622 220 275 220 197 1222 308 1222 396 1222 275 220 255 220 235 220 272 1223 709 1223 612 1223 612 1224 709 1224 710 1224 612 1225 710 1225 711 1225 275 1226 700 1226 272 1226 272 1227 700 1227 701 1227 272 1228 701 1228 702 1228 622 1229 811 1229 275 1229 275 1230 811 1230 812 1230 275 1231 812 1231 813 1231 612 1232 718 1232 622 1232 622 1233 718 1233 838 1233 622 387 838 387 839 387 692 1234 828 1234 691 1234 691 1235 828 1235 829 1235 691 1236 829 1236 690 1236 690 387 829 387 830 387 690 387 830 387 725 387 725 387 830 387 831 387 725 387 831 387 724 387 724 387 831 387 832 387 724 387 832 387 723 387 723 387 832 387 833 387 723 1237 833 1237 722 1237 722 1238 833 1238 834 1238 722 1239 834 1239 721 1239 721 1240 834 1240 835 1240 721 1241 835 1241 720 1241 720 1242 835 1242 836 1242 720 1243 836 1243 719 1243 719 1244 836 1244 837 1244 719 1245 837 1245 718 1245 718 1246 837 1246 838 1246 828 387 692 387 827 387 827 387 692 387 693 387 827 387 693 387 826 387 826 387 693 387 694 387 826 1247 694 1247 825 1247 825 1248 694 1248 695 1248 825 1249 695 1249 824 1249 824 1238 695 1238 696 1238 824 1239 696 1239 823 1239 823 1240 696 1240 697 1240 823 1250 697 1250 822 1250 822 1251 697 1251 698 1251 822 1252 698 1252 821 1252 821 1253 698 1253 699 1253 821 1245 699 1245 820 1245 820 1246 699 1246 700 1246 820 1254 700 1254 275 1254 702 1255 703 1255 272 1255 272 1256 703 1256 704 1256 272 1257 704 1257 705 1257 705 1258 706 1258 272 1258 272 1259 706 1259 707 1259 272 1260 707 1260 708 1260 708 1261 709 1261 272 1261 711 1262 712 1262 612 1262 612 1263 712 1263 713 1263 612 1264 713 1264 714 1264 714 1265 715 1265 612 1265 612 1266 715 1266 716 1266 612 1267 716 1267 717 1267 717 1268 718 1268 612 1268 813 1269 814 1269 275 1269 275 1270 814 1270 815 1270 275 1271 815 1271 816 1271 816 1272 817 1272 275 1272 275 1273 817 1273 818 1273 275 1274 818 1274 819 1274 819 1275 820 1275 275 1275 839 387 840 387 622 387 622 387 840 387 841 387 622 387 841 387 842 387 842 1276 843 1276 622 1276 622 1277 843 1277 844 1277 622 1278 844 1278 845 1278 845 1279 810 1279 622 1279 622 1280 810 1280 811 1280 572 1281 570 1281 574 1281 574 1282 570 1282 568 1282 574 1283 568 1283 566 1283 566 1284 564 1284 574 1284 574 1285 564 1285 562 1285 574 1286 562 1286 560 1286 560 1287 558 1287 574 1287 574 1288 558 1288 586 1288 574 1289 586 1289 594 1289 594 1290 586 1290 587 1290 594 1290 587 1290 588 1290 586 1291 558 1291 595 1291 595 1291 558 1291 575 1291 595 1288 575 1288 603 1288 603 1289 575 1289 611 1289 611 1292 575 1292 604 1292 611 1293 604 1293 605 1293 605 1294 606 1294 611 1294 611 1295 606 1295 607 1295 611 1296 607 1296 608 1296 608 1297 609 1297 611 1297 611 1298 609 1298 610 1298 602 1299 601 1299 603 1299 603 1290 601 1290 600 1290 603 1300 600 1300 599 1300 599 1301 598 1301 603 1301 603 1302 598 1302 597 1302 603 1303 597 1303 596 1303 596 1304 595 1304 603 1304 588 1290 589 1290 594 1290 594 1305 589 1305 590 1305 594 1306 590 1306 591 1306 591 1290 592 1290 594 1290 594 1307 592 1307 593 1307</p>
        </triangles>
        <triangles count="1" material="mat_1">
          <input semantic="VERTEX" source="#vert_0" offset="0"/>
          <input semantic="NORMAL" source="#norm_0" offset="1"/>
          <p>0 0 1 0 2 0</p>
        </triangles>
      </mesh>
    </geometry>
  </library_geometries>
  <library_visual_scenes>
    <visual_scene id="DefaultScene">
      <node id="node_5380d425_5e82_42e2_bb2d_09cfc3dc34dc" type="NODE">
        <matrix>1 0 0 0 0 1 0 0 0 0 1 0 0 0 0 1</matrix>
        <node id="node_19b922c3_b143_4278_9afb_cff9298c7519" type="NODE">
          <matrix>1 0 0 0 0 1 0 0 0 0 1 0 0 0 0 1</matrix>
          <node id="node_19b922c3_b143_4278_9afb_cff9298c7519_mesh0" type="NODE">
            <matrix>1 0 0 0 0 1 0 0 0 0 1 0 0 0 0 1</matrix>
            <instance_geometry url="#geometry_1d562997_51bf_4ec2_b453_d322ab046a9d">
              <bind_material>
                <technique_common>
                  <instance_material symbol="mat_1" target="#mat_1"/>
                </technique_common>
              </bind_material>
            </instance_geometry>
          </node>
        </node>
      </node>
    </visual_scene>
  </library_visual_scenes>
  <scene>
    <instance_visual_scene url="#DefaultScene"/>
  </scene>
</COLLADA>
