<?xml version="1.0" encoding="UTF-8"?>
<COLLADA xmlns="http://www.collada.org/2005/11/COLLADASchema" version="1.4.1">
<!--
# File generated by ImageToStl.com - Free Image and 3D model conversion tools
-->
  <asset>
    <contributor>
      <author>ImageToStl.com</author>
      <authoring_tool>ImageToStl.com</authoring_tool>
    </contributor>
    <created>2026-07-30T08:20:10</created>
    <modified>2026-07-30T08:20:10</modified>
    <unit meter="0.001" name="millimeter" />
    <up_axis>Z_UP</up_axis>
  </asset>
  <library_effects>
    <effect id="effect_0">
        <profile_COMMON>
          <technique sid="common">
            <phong>
              <diffuse>
                <color>0.62745 0.62745 0.62745 1</color>
              </diffuse>
            </phong>
          </technique>
        </profile_COMMON>
    </effect>
    <effect id="effect_1">
        <profile_COMMON>
          <technique sid="common">
            <phong>
              <diffuse>
                <color>0.59608 0.59608 0.59608 1</color>
              </diffuse>
            </phong>
          </technique>
        </profile_COMMON>
    </effect>
  </library_effects>
  <library_materials>
    <material id="mat_0">
      <instance_effect url="#effect_0"/>
    </material>
    <material id="mat_1">
      <instance_effect url="#effect_1"/>
    </material>
  </library_materials>
  <library_geometries>
    <geometry id="geometry_b90d0d34_f4f9_4b21_a460_1250a60a208f">
      <mesh>
        <source id="pos_0">
          <float_array id="pos_0-array" count="576">12.39999962 3.4000001 116.5 13.89999962 3.4000001 115 15.39999962 3.4000001 120 18.60000038 3.4000001 115 18.60000038 3.4000001 122.59999847 15.39999962 3.4000001 122.59999847 12.39999962 3.4000001 120 15.39999962 -3.4000001 122.59999847 18.60000038 -3.4000001 122.59999847 18.60000038 -3.4000001 115 15.39999962 -3.4000001 120 13.89999962 -3.4000001 115 12.39999962 -3.4000001 116.5 12.39999962 -3.4000001 120 -18.60000038 -3.4000001 115 -18.60000038 3.4000001 115 -18.60000038 -3.4000001 122.59999847 -18.60000038 3.4000001 122.59999847 -12.39999962 -3.4000001 116.5 -13.89999962 -3.4000001 115 -15.39999962 -3.4000001 120 -15.39999962 -3.4000001 122.59999847 -12.39999962 -3.4000001 120 -15.39999962 3.4000001 120 -13.89999962 3.4000001 115 -12.39999962 3.4000001 116.5 -12.39999962 3.4000001 120 -15.39999962 3.4000001 122.59999847 12.39999962 -12.39999962 116.5 13.89999962 -13.89999962 115 12.39999962 12.39999962 116.5 13.89999962 13.89999962 115 12.39999962 -12.39999962 120 12.39999962 12.39999962 120 15.39999962 15.39999962 120 15.39999962 15.39999962 138 15.39999962 -15.39999962 138 15.39999962 -15.39999962 120 -12.39999962 -12.39999962 116.5 -13.89999962 -13.89999962 115 -12.39999962 -12.39999962 120 -15.39999962 -15.39999962 120 -15.39999962 15.39999962 120 -12.39999962 12.39999962 120 -13.89999962 13.89999962 115 -12.39999962 12.39999962 116.5 19.39999962 19.39999962 115 19.39999962 -19.39999962 115 -19.39999962 19.39999962 115 -19.39999962 -19.39999962 115 -29.69715881 -19.39999962 127.03649902 -29.69715881 -24.39999962 127.03649902 -29.75 -19.39999962 126.5 -29.75 -24.39999962 126.5 -29.69715881 -19.39999962 125.96350098 -29.69715881 -24.39999962 125.96350098 -29.54066849 -19.39999962 125.44762421 -29.54066849 -24.39999962 125.44762421 -29.28654099 -19.39999962 124.97218323 -29.28654099 -24.39999962 124.97218323 -28.94454384 -19.39999962 124.55545807 -28.94454384 -24.39999962 124.55545807 -28.52781868 -19.39999962 124.2134552 -28.52781868 -24.39999962 124.2134552 -28.05237961 -19.39999962 123.9593277 -28.05237961 -24.39999962 123.9593277 -27.53649902 -19.39999962 123.80284119 -27.53649902 -24.39999962 123.80284119 -27 -19.39999962 123.75 -27 -24.39999962 123.75 -26.46350098 -19.39999962 123.80284119 -26.46350098 -24.39999962 123.80284119 -25.94762039 -19.39999962 123.9593277 -25.94762039 -24.39999962 123.9593277 -25.47218132 -19.39999962 124.2134552 -25.47218132 -24.39999962 124.2134552 -25.05545616 -19.39999962 124.55545807 -25.05545616 -24.39999962 124.55545807 -24.71345901 -19.39999962 124.97218323 -24.71345901 -24.39999962 124.97218323 -24.45933151 -19.39999962 125.44762421 -24.45933151 -24.39999962 125.44762421 -24.30284119 -19.39999962 125.96350098 -24.30284119 -24.39999962 125.96350098 -24.25 -19.39999962 126.5 -24.25 -24.39999962 126.5 -24.30284119 -19.39999962 127.03649902 -24.30284119 -24.39999962 127.03649902 -24.45933151 -19.39999962 127.55237579 -24.45933151 -24.39999962 127.55237579 -24.71345901 -19.39999962 128.02781677 -24.71345901 -24.39999962 128.02781677 -25.05545616 -19.39999962 128.44454956 -25.05545616 -24.39999962 128.44454956 -25.47218132 -19.39999962 128.7865448 -25.47218132 -24.39999962 128.7865448 -25.94762039 -19.39999962 129.04066467 -25.94762039 -24.39999962 129.04066467 -26.46350098 -19.39999962 129.19715881 -26.46350098 -24.39999962 129.19715881 -27 -19.39999962 129.25 -27 -24.39999962 129.25 -27.53649902 -19.39999962 129.19715881 -27.53649902 -24.39999962 129.19715881 -28.05237961 -19.39999962 129.04066467 -28.05237961 -24.39999962 129.04066467 -28.52781868 -19.39999962 128.7865448 -28.52781868 -24.39999962 128.7865448 -28.94454384 -19.39999962 128.44454956 -28.94454384 -24.39999962 128.44454956 -29.28654099 -19.39999962 128.02781677 -29.28654099 -24.39999962 128.02781677 -29.54066849 -19.39999962 127.55237579 -29.54066849 -24.39999962 127.55237579 24.30284119 -19.39999962 127.03649902 24.30284119 -24.39999962 127.03649902 24.25 -19.39999962 126.5 24.25 -24.39999962 126.5 24.30284119 -19.39999962 125.96350098 24.30284119 -24.39999962 125.96350098 24.45933151 -19.39999962 125.44762421 24.45933151 -24.39999962 125.44762421 24.71345901 -19.39999962 124.97218323 24.71345901 -24.39999962 124.97218323 25.05545616 -19.39999962 124.55545807 25.05545616 -24.39999962 124.55545807 25.47218132 -19.39999962 124.2134552 25.47218132 -24.39999962 124.2134552 25.94762039 -19.39999962 123.9593277 25.94762039 -24.39999962 123.9593277 26.46350098 -19.39999962 123.80284119 26.46350098 -24.39999962 123.80284119 27 -19.39999962 123.75 27 -24.39999962 123.75 27.53649902 -19.39999962 123.80284119 27.53649902 -24.39999962 123.80284119 28.05237961 -19.39999962 123.9593277 28.05237961 -24.39999962 123.9593277 28.52781868 -19.39999962 124.2134552 28.52781868 -24.39999962 124.2134552 28.94454384 -19.39999962 124.55545807 28.94454384 -24.39999962 124.55545807 29.28654099 -19.39999962 124.97218323 29.28654099 -24.39999962 124.97218323 29.54066849 -19.39999962 125.44762421 29.54066849 -24.39999962 125.44762421 29.69715881 -19.39999962 125.96350098 29.69715881 -24.39999962 125.96350098 29.75 -19.39999962 126.5 29.75 -24.39999962 126.5 29.69715881 -19.39999962 127.03649902 29.69715881 -24.39999962 127.03649902 29.54066849 -19.39999962 127.55237579 29.54066849 -24.39999962 127.55237579 29.28654099 -19.39999962 128.02781677 29.28654099 -24.39999962 128.02781677 28.94454384 -19.39999962 128.44454956 28.94454384 -24.39999962 128.44454956 28.52781868 -19.39999962 128.7865448 28.52781868 -24.39999962 128.7865448 28.05237961 -19.39999962 129.04066467 28.05237961 -24.39999962 129.04066467 27.53649902 -19.39999962 129.19715881 27.53649902 -24.39999962 129.19715881 27 -19.39999962 129.25 27 -24.39999962 129.25 26.46350098 -19.39999962 129.19715881 26.46350098 -24.39999962 129.19715881 25.94762039 -19.39999962 129.04066467 25.94762039 -24.39999962 129.04066467 25.47218132 -19.39999962 128.7865448 25.47218132 -24.39999962 128.7865448 25.05545616 -19.39999962 128.44454956 25.05545616 -24.39999962 128.44454956 24.71345901 -19.39999962 128.02781677 24.71345901 -24.39999962 128.02781677 24.45933151 -19.39999962 127.55237579 24.45933151 -24.39999962 127.55237579 -30 -19.39999962 104 -30 -19.39999962 149 -19.39999962 -19.39999962 138 19.39999962 -19.39999962 138 30 -19.39999962 149 30 -19.39999962 104 30 -24.39999962 149 -30 -24.39999962 149 30 -24.39999962 104 -30 -24.39999962 104 -15.39999962 15.39999962 138 -15.39999962 -15.39999962 138 19.39999962 19.39999962 138 -19.39999962 19.39999962 138</float_array>
          <technique_common>
            <accessor source="#pos_0-array" count="576" stride="3">
              <param name="X" type="float"/>
              <param name="Y" type="float"/>
              <param name="Z" type="float"/>
            </accessor>
          </technique_common>
        </source>
        <source id="norm_0">
          <float_array id="norm_0-array" count="180">0 -1 0 -0 -1 0 -0 -1 0 -0 -1 -0 0 0 -1 -1 0 0 -0 1 0 0 1 0 0 1 0 0 1 0 0 1 -0 1 0 0 0 1 0 0 1 0 0 1 0 0 -1 0 0 -1 0 -0 -1 0 0 -1 0 -0.70711 -0 -0.70711 0.70711 0 -0.70711 -0 0 1 0 0.70711 -0.70711 0 -0.70711 -0.70711 0.99518 0 -0.09802 0.99518 0 0.09802 0.95694 0 0.29028 0.88192 0 0.4714 0.77301 0 0.63439 0.63439 0 0.77301 0.4714 0 0.88192 0.4714 -0 0.88192 0.29028 -0 0.95694 0.29028 0 0.95694 0.09802 0 0.99518 -0.09802 0 0.99518 -0.29028 0 0.95694 -0.4714 0 0.88192 -0.63439 0 0.77301 -0.77301 0 0.63439 -0.88192 0 0.4714 -0.95694 0 0.29028 -0.99518 0 0.09802 -0.99518 -0 -0.09802 -0.95694 -0 -0.29028 -0.88192 -0 -0.4714 -0.77301 -0 -0.63439 -0.63439 -0 -0.77301 -0.4714 -0 -0.88192 -0.29028 -0 -0.95694 -0.09802 -0 -0.99518 0.09802 0 -0.99518 0.29028 0 -0.95694 0.29028 0 -0.95694 0.4714 0 -0.88192 0.4714 0 -0.88192 0.63439 0 -0.77301 0.77301 0 -0.63439 0.88192 0 -0.4714 0.95694 0 -0.29028</float_array>
          <technique_common>
            <accessor source="#norm_0-array" count="180" stride="3">
              <param name="X" type="float"/>
              <param name="Y" type="float"/>
              <param name="Z" type="float"/>
            </accessor>
          </technique_common>
        </source>
        <vertices id="vert_0">
          <input semantic="POSITION" source="#pos_0"/>
        </vertices>
        <triangles count="391">
          <input semantic="VERTEX" source="#vert_0" offset="0"/>
          <input semantic="NORMAL" source="#norm_0" offset="1"/>
          <p>2 1 1 1 3 1 2 2 3 2 4 2 4 3 5 3 2 3 2 0 6 0 0 0 5 4 4 4 7 4 7 4 4 4 8 4 3 5 9 5 4 5 4 5 9 5 8 5 8 6 9 6 10 6 10 7 9 7 11 7 10 8 11 8 12 8 12 9 13 9 10 9 10 10 7 10 8 10 14 11 15 11 16 11 16 11 15 11 17 11 18 12 19 12 20 12 20 13 19 13 14 13 20 14 14 14 16 14 16 10 21 10 20 10 20 12 22 12 18 12 17 15 15 15 23 15 23 16 15 16 24 16 23 17 24 17 25 17 25 18 26 18 23 18 23 3 27 3 17 3 21 4 16 4 27 4 27 4 16 4 17 4 12 19 11 19 28 19 28 19 11 19 29 19 0 19 30 19 1 19 1 19 30 19 31 19 12 5 28 5 13 5 13 5 28 5 32 5 6 5 33 5 0 5 0 5 33 5 30 5 2 5 5 5 34 5 34 5 5 5 35 5 35 5 5 5 7 5 35 5 7 5 36 5 36 5 7 5 37 5 37 5 7 5 10 5 18 20 38 20 19 20 19 20 38 20 39 20 22 11 40 11 18 11 18 11 40 11 38 11 13 21 32 21 10 21 10 21 32 21 37 21 37 21 32 21 40 21 37 21 40 21 41 21 41 21 40 21 20 21 20 21 40 21 22 21 6 21 2 21 33 21 33 21 2 21 34 21 33 21 34 21 42 21 33 21 42 21 43 21 43 21 42 21 23 21 43 21 23 21 26 21 29 22 39 22 28 22 28 22 39 22 38 22 44 23 31 23 45 23 45 23 31 23 30 23 25 20 24 20 45 20 45 20 24 20 44 20 25 11 45 11 26 11 26 11 45 11 43 11 45 0 30 0 43 0 43 0 30 0 33 0 1 4 31 4 3 4 3 4 31 4 46 4 3 4 46 4 47 4 31 4 44 4 46 4 46 4 44 4 48 4 48 4 44 4 15 4 48 4 15 4 49 4 49 4 15 4 14 4 49 4 14 4 39 4 39 4 14 4 19 4 44 4 24 4 15 4 39 4 29 4 49 4 49 4 29 4 47 4 47 4 29 4 9 4 47 4 9 4 3 4 29 4 11 4 9 4 50 24 51 24 52 24 52 24 51 24 53 24 52 25 53 25 54 25 54 25 53 25 55 25 54 26 55 26 56 26 56 26 55 26 57 26 56 27 57 27 58 27 58 27 57 27 59 27 58 28 59 28 60 28 60 28 59 28 61 28 60 29 61 29 62 29 62 29 61 29 63 29 62 30 63 30 64 30 64 31 63 31 65 31 64 32 65 32 66 32 66 33 65 33 67 33 66 34 67 34 68 34 68 34 67 34 69 34 68 35 69 35 70 35 70 35 69 35 71 35 70 36 71 36 72 36 72 36 71 36 73 36 72 37 73 37 74 37 74 37 73 37 75 37 74 38 75 38 76 38 76 38 75 38 77 38 76 39 77 39 78 39 78 39 77 39 79 39 78 40 79 40 80 40 80 40 79 40 81 40 80 41 81 41 82 41 82 41 81 41 83 41 82 42 83 42 84 42 84 42 83 42 85 42 84 43 85 43 86 43 86 43 85 43 87 43 86 44 87 44 88 44 88 44 87 44 89 44 88 45 89 45 90 45 90 45 89 45 91 45 90 46 91 46 92 46 92 46 91 46 93 46 92 47 93 47 94 47 94 47 93 47 95 47 94 48 95 48 96 48 96 48 95 48 97 48 96 49 97 49 98 49 98 49 97 49 99 49 98 50 99 50 100 50 100 50 99 50 101 50 100 51 101 51 102 51 102 51 101 51 103 51 102 52 103 52 104 52 104 53 103 53 105 53 104 54 105 54 106 54 106 55 105 55 107 55 106 56 107 56 108 56 108 56 107 56 109 56 108 57 109 57 110 57 110 57 109 57 111 57 110 58 111 58 112 58 112 58 111 58 113 58 112 59 113 59 50 59 50 59 113 59 51 59 114 24 115 24 116 24 116 24 115 24 117 24 116 25 117 25 118 25 118 25 117 25 119 25 118 26 119 26 120 26 120 26 119 26 121 26 120 27 121 27 122 27 122 27 121 27 123 27 122 28 123 28 124 28 124 28 123 28 125 28 124 29 125 29 126 29 126 29 125 29 127 29 126 30 127 30 128 30 128 31 127 31 129 31 128 32 129 32 130 32 130 33 129 33 131 33 130 34 131 34 132 34 132 34 131 34 133 34 132 35 133 35 134 35 134 35 133 35 135 35 134 36 135 36 136 36 136 36 135 36 137 36 136 37 137 37 138 37 138 37 137 37 139 37 138 38 139 38 140 38 140 38 139 38 141 38 140 39 141 39 142 39 142 39 141 39 143 39 142 40 143 40 144 40 144 40 143 40 145 40 144 41 145 41 146 41 146 41 145 41 147 41 146 42 147 42 148 42 148 42 147 42 149 42 148 43 149 43 150 43 150 43 149 43 151 43 150 44 151 44 152 44 152 44 151 44 153 44 152 45 153 45 154 45 154 45 153 45 155 45 154 46 155 46 156 46 156 46 155 46 157 46 156 47 157 47 158 47 158 47 157 47 159 47 158 48 159 48 160 48 160 48 159 48 161 48 160 49 161 49 162 49 162 49 161 49 163 49 162 50 163 50 164 50 164 50 163 50 165 50 164 51 165 51 166 51 166 51 165 51 167 51 166 52 167 52 168 52 168 53 167 53 169 53 168 54 169 54 170 54 170 55 169 55 171 55 170 56 171 56 172 56 172 56 171 56 173 56 172 57 173 57 174 57 174 57 173 57 175 57 174 58 175 58 176 58 176 58 175 58 177 58 176 59 177 59 114 59 114 59 177 59 115 59 54 12 178 12 52 12 52 12 178 12 179 12 52 12 179 12 50 12 50 12 179 12 112 12 112 12 179 12 110 12 110 12 179 12 108 12 108 12 179 12 106 12 106 12 179 12 104 12 104 12 179 12 180 12 104 12 180 12 102 12 102 12 180 12 100 12 100 12 180 12 98 12 98 12 180 12 96 12 96 12 180 12 94 12 94 12 180 12 92 12 92 12 180 12 90 12 90 12 180 12 88 12 88 12 180 12 86 12 86 12 180 12 84 12 84 12 180 12 49 12 84 12 49 12 82 12 82 12 49 12 80 12 80 12 49 12 78 12 78 12 49 12 76 12 76 12 49 12 74 12 74 12 49 12 72 12 72 12 49 12 70 12 70 12 49 12 68 12 68 12 49 12 66 12 66 12 49 12 64 12 64 12 49 12 178 12 64 12 178 12 62 12 62 12 178 12 60 12 60 12 178 12 58 12 58 12 178 12 56 12 56 12 178 12 54 12 118 12 47 12 116 12 116 12 47 12 181 12 116 12 181 12 114 12 114 12 181 12 176 12 176 12 181 12 174 12 174 12 181 12 172 12 172 12 181 12 170 12 170 12 181 12 168 12 168 12 181 12 166 12 166 12 181 12 164 12 164 12 181 12 162 12 162 12 181 12 160 12 160 12 181 12 182 12 160 12 182 12 158 12 158 12 182 12 156 12 156 12 182 12 154 12 154 12 182 12 152 12 152 12 182 12 150 12 150 12 182 12 148 12 148 12 182 12 183 12 148 12 183 12 146 12 146 12 183 12 144 12 144 12 183 12 142 12 142 12 183 12 140 12 140 12 183 12 138 12 138 12 183 12 136 12 136 12 183 12 47 12 136 12 47 12 134 12 134 12 47 12 132 12 132 12 47 12 130 12 130 12 47 12 128 12 128 12 47 12 126 12 126 12 47 12 124 12 124 12 47 12 122 12 122 12 47 12 120 12 120 12 47 12 118 12 179 12 182 12 180 12 180 12 182 12 181 12 183 12 178 12 47 12 47 12 178 12 49 12 182 21 179 21 184 21 184 21 179 21 185 21 183 11 182 11 186 11 186 11 182 11 184 11 178 4 183 4 187 4 187 4 183 4 186 4 179 5 178 5 185 5 185 5 178 5 187 5 51 0 185 0 53 0 53 0 185 0 187 0 53 0 187 0 55 0 55 0 187 0 57 0 57 0 187 0 59 0 59 0 187 0 61 0 61 0 187 0 63 0 63 0 187 0 65 0 65 0 187 0 67 0 67 0 187 0 69 0 69 0 187 0 71 0 71 0 187 0 73 0 73 0 187 0 75 0 75 0 187 0 77 0 77 0 187 0 125 0 77 0 125 0 79 0 79 0 125 0 123 0 79 0 123 0 81 0 81 0 123 0 121 0 81 0 121 0 83 0 83 0 121 0 119 0 83 0 119 0 117 0 51 0 113 0 185 0 185 0 113 0 111 0 185 0 111 0 109 0 109 0 107 0 185 0 185 0 107 0 105 0 185 0 105 0 103 0 103 0 101 0 185 0 185 0 101 0 99 0 185 0 99 0 97 0 97 0 95 0 185 0 185 0 95 0 93 0 185 0 93 0 173 0 173 0 93 0 91 0 173 0 91 0 175 0 175 0 91 0 89 0 175 0 89 0 177 0 177 0 89 0 87 0 177 0 87 0 115 0 115 0 87 0 117 0 117 0 87 0 85 0 117 0 85 0 83 0 185 0 173 0 184 0 184 0 173 0 171 0 184 0 171 0 169 0 169 0 167 0 184 0 184 0 167 0 165 0 184 0 165 0 163 0 163 0 161 0 184 0 184 0 161 0 159 0 184 0 159 0 157 0 157 0 155 0 184 0 184 0 155 0 153 0 184 0 153 0 151 0 151 0 149 0 184 0 184 0 149 0 186 0 186 0 149 0 147 0 186 0 147 0 145 0 145 0 143 0 186 0 186 0 143 0 141 0 186 0 141 0 139 0 139 0 137 0 186 0 186 0 137 0 135 0 186 0 135 0 133 0 133 0 131 0 186 0 186 0 131 0 129 0 186 0 129 0 127 0 127 0 125 0 186 0 186 0 125 0 187 0 42 0 34 0 188 0 188 0 34 0 35 0 37 12 41 12 36 12 36 12 41 12 189 12 23 11 42 11 27 11 27 11 42 11 188 11 27 11 188 11 189 11 27 11 189 11 21 11 21 11 189 11 41 11 21 11 41 11 20 11 28 12 38 12 32 12 32 12 38 12 40 12 46 12 48 12 190 12 190 12 48 12 191 12 47 11 46 11 181 11 181 11 46 11 190 11 48 5 49 5 191 5 191 5 49 5 180 5 35 21 191 21 188 21 188 21 191 21 180 21 188 21 180 21 189 21 189 21 180 21 181 21 189 21 181 21 36 21 36 21 181 21 35 21 35 21 181 21 190 21 35 21 190 21 191 21</p>
        </triangles>
        <triangles count="1" material="mat_1">
          <input semantic="VERTEX" source="#vert_0" offset="0"/>
          <input semantic="NORMAL" source="#norm_0" offset="1"/>
          <p>0 0 1 0 2 0</p>
        </triangles>
      </mesh>
    </geometry>
  </library_geometries>
  <library_visual_scenes>
    <visual_scene id="DefaultScene">
      <node id="node_edf84418_33a1_4b12_930b_6aa182855590" type="NODE">
        <matrix>1 0 0 0 0 1 0 0 0 0 1 0 0 0 0 1</matrix>
        <node id="node_29af4728_263d_4c68_94ac_f5e62528c5fb" type="NODE">
          <matrix>1 0 0 0 0 1 0 0 0 0 1 0 0 0 0 1</matrix>
          <node id="node_29af4728_263d_4c68_94ac_f5e62528c5fb_mesh0" type="NODE">
            <matrix>1 0 0 0 0 1 0 0 0 0 1 0 0 0 0 1</matrix>
            <instance_geometry url="#geometry_b90d0d34_f4f9_4b21_a460_1250a60a208f">
              <bind_material>
                <technique_common>
                  <instance_material symbol="mat_1" target="#mat_1"/>
                </technique_common>
              </bind_material>
            </instance_geometry>
          </node>
        </node>
      </node>
    </visual_scene>
  </library_visual_scenes>
  <scene>
    <instance_visual_scene url="#DefaultScene"/>
  </scene>
</COLLADA>
