<?xml version="1.0" encoding="UTF-8"?>
<COLLADA xmlns="http://www.collada.org/2005/11/COLLADASchema" version="1.4.1">
<!--
# File generated by ImageToStl.com - Free Image and 3D model conversion tools
-->
  <asset>
    <contributor>
      <author>ImageToStl.com</author>
      <authoring_tool>ImageToStl.com</authoring_tool>
    </contributor>
    <created>2026-07-29T08:22:18</created>
    <modified>2026-07-29T08:22:18</modified>
    <unit meter="0.001" name="millimeter" />
    <up_axis>Z_UP</up_axis>
  </asset>
  <library_effects>
    <effect id="effect_0">
        <profile_COMMON>
          <technique sid="common">
            <phong>
              <diffuse>
                <color>0.62745 0.62745 0.62745 1</color>
              </diffuse>
            </phong>
          </technique>
        </profile_COMMON>
    </effect>
    <effect id="effect_1">
        <profile_COMMON>
          <technique sid="common">
            <phong>
              <diffuse>
                <color>0.59608 0.59608 0.59608 1</color>
              </diffuse>
            </phong>
          </technique>
        </profile_COMMON>
    </effect>
  </library_effects>
  <library_materials>
    <material id="mat_0">
      <instance_effect url="#effect_0"/>
    </material>
    <material id="mat_1">
      <instance_effect url="#effect_1"/>
    </material>
  </library_materials>
  <library_geometries>
    <geometry id="geometry_456b515d_0bcb_44b9_9d22_9c0a4d8ad6e9">
      <mesh>
        <source id="pos_0">
          <float_array id="pos_0-array" count="672">-29.65629578 10 0.71175236 -29.65629578 0 0.71175236 -29.75 10 -0 -29.75 0 0 -29.65629578 10 -0.71175236 -29.65629578 0 -0.71175236 -29.38156891 10 -1.375 -29.38156891 0 -1.375 -28.94454384 10 -1.9445436 -28.94454384 0 -1.9445436 -28.375 10 -2.38156986 -28.375 0 -2.38156986 -27.71175194 10 -2.65629601 -27.71175194 0 -2.65629601 -27 10 -2.75 -27 0 -2.75 -26.28824806 10 -2.65629601 -26.28824806 0 -2.65629601 -25.625 10 -2.38156986 -25.625 0 -2.38156986 -25.05545616 10 -1.9445436 -25.05545616 0 -1.9445436 -24.61843109 10 -1.375 -24.61843109 0 -1.375 -24.34370422 10 -0.71175236 -24.34370422 0 -0.71175236 -24.25 10 0 -24.25 0 0 -24.34370422 10 0.71175236 -24.34370422 0 0.71175236 -24.61843109 10 1.375 -24.61843109 0 1.375 -25.05545616 10 1.9445436 -25.05545616 0 1.9445436 -25.625 10 2.38156986 -25.625 0 2.38156986 -26.28824806 10 2.65629601 -26.28824806 0 2.65629601 -27 10 2.75 -27 0 2.75 -27.71175194 10 2.65629601 -27.71175194 0 2.65629601 -28.375 10 2.38156986 -28.375 0 2.38156986 -28.94454384 10 1.9445436 -28.94454384 0 1.9445436 -29.38156891 10 1.375 -29.38156891 0 1.375 24.34370422 10 0.71175236 24.34370422 0 0.71175236 24.25 10 -0 24.25 0 0 24.34370422 10 -0.71175236 24.34370422 0 -0.71175236 24.61843109 10 -1.375 24.61843109 0 -1.375 25.05545616 10 -1.9445436 25.05545616 0 -1.9445436 25.625 10 -2.38156986 25.625 0 -2.38156986 26.28824806 10 -2.65629601 26.28824806 0 -2.65629601 27 10 -2.75 27 0 -2.75 27.71175194 10 -2.65629601 27.71175194 0 -2.65629601 28.375 10 -2.38156986 28.375 0 -2.38156986 28.94454384 10 -1.9445436 28.94454384 0 -1.9445436 29.38156891 10 -1.375 29.38156891 0 -1.375 29.65629578 10 -0.71175236 29.65629578 0 -0.71175236 29.75 10 0 29.75 0 0 29.65629578 10 0.71175236 29.65629578 0 0.71175236 29.38156891 10 1.375 29.38156891 0 1.375 28.94454384 10 1.9445436 28.94454384 0 1.9445436 28.375 10 2.38156986 28.375 0 2.38156986 27.71175194 10 2.65629601 27.71175194 0 2.65629601 27 10 2.75 27 0 2.75 26.28824806 10 2.65629601 26.28824806 0 2.65629601 25.625 10 2.38156986 25.625 0 2.38156986 25.05545616 10 1.9445436 25.05545616 0 1.9445436 24.61843109 10 1.375 24.61843109 0 1.375 -18 113 39 -22 109 43 -18 107 45 -22 107 45 -18 146 39 18 146 39 -18 150 39 18 150 39 -18 118 39 -22 150 43 -18 114 39 22 150 43 18 118 39 22 109 43 18 114 39 18 113 39 18 107 45 22 107 45 18 146 8 18 118 8 -18 146 8 18 114 0 -18 114 0 -18 10 45 -18 10 -30 -18 150 0 -22 10 45 -22 10 -30 -22 150 0 -9.88830853 131.50958252 8 -9.88830853 131.50958252 0 -10 133 8 -10 133 0 -9.88830853 134.49041748 8 -9.88830853 134.49041748 0 -9.55572796 135.94755554 8 -9.55572796 135.94755554 0 -9.00968838 137.33883667 8 -9.00968838 137.33883667 0 -8.26238728 138.63319397 8 -8.26238728 138.63319397 0 -7.33051872 139.80172729 8 -7.33051872 139.80172729 0 -6.23489809 140.8183136 8 -6.23489809 140.8183136 0 -5 141.6602478 8 -5 141.6602478 0 -3.6534102 142.30873108 8 -3.6534102 142.30873108 0 -2.22520924 142.74928284 8 -2.22520924 142.74928284 0 -0.74730092 142.97203064 8 -0.74730092 142.97203064 0 0.74730092 142.97203064 8 0.74730092 142.97203064 0 2.22520924 142.74928284 8 2.22520924 142.74928284 0 3.6534102 142.30873108 8 3.6534102 142.30873108 0 5 141.6602478 8 5 141.6602478 0 6.23489809 140.8183136 8 6.23489809 140.8183136 0 7.33051872 139.80172729 8 7.33051872 139.80172729 0 8.26238728 138.63319397 8 8.26238728 138.63319397 0 9.00968838 137.33883667 8 9.00968838 137.33883667 0 9.55572796 135.94755554 8 9.55572796 135.94755554 0 9.88830853 134.49041748 8 9.88830853 134.49041748 0 10 133 8 10 133 0 9.88830853 131.50958252 8 9.88830853 131.50958252 0 9.55572796 130.05244446 8 9.55572796 130.05244446 0 9.00968838 128.66116333 8 9.00968838 128.66116333 0 8.26238728 127.3667984 8 8.26238728 127.3667984 0 7.33051872 126.19827271 8 7.33051872 126.19827271 0 6.23489809 125.1816864 8 6.23489809 125.1816864 0 5 124.33974457 8 5 124.33974457 0 3.6534102 123.69126129 8 3.6534102 123.69126129 0 2.22520924 123.25071716 8 2.22520924 123.25071716 0 0.74730092 123.02796173 8 0.74730092 123.02796173 0 -0.74730092 123.02796173 8 -0.74730092 123.02796173 0 -2.22520924 123.25071716 8 -2.22520924 123.25071716 0 -3.6534102 123.69126129 8 -3.6534102 123.69126129 0 -5 124.33974457 8 -5 124.33974457 0 -6.23489809 125.1816864 8 -6.23489809 125.1816864 0 -7.33051872 126.19827271 8 -7.33051872 126.19827271 0 -8.26238728 127.3667984 8 -8.26238728 127.3667984 0 -9.00968838 128.66116333 8 -9.00968838 128.66116333 0 -9.55572796 130.05244446 8 -9.55572796 130.05244446 0 22 10 45 22 10 -30 22 150 0 -18 118 8 18 10 45 35 0 45 -35 0 45 -35 10 45 35 10 45 18 150 0 18 10 -30 35 10 -30 -35 10 -30 35 0 -30 -35 0 -30</float_array>
          <technique_common>
            <accessor source="#pos_0-array" count="672" stride="3">
              <param name="X" type="float"/>
              <param name="Y" type="float"/>
              <param name="Z" type="float"/>
            </accessor>
          </technique_common>
        </source>
        <source id="norm_0">
          <float_array id="norm_0-array" count="408">0.99144 0 -0.13053 0.99144 -0 -0.13053 0.99144 0 0.13053 0.99144 -0 0.13053 0.92388 -0 0.38268 0.92388 -0 0.38268 0.79335 -0 0.60876 0.79335 0 0.60876 0.60876 0 0.79335 0.60876 0 0.79335 0.38268 0 0.92388 0.38268 0 0.92388 0.13053 0 0.99144 -0.13053 0 0.99144 -0.13053 0 0.99144 -0.38268 0 0.92388 -0.38268 -0 0.92388 -0.60876 -0 0.79335 -0.60876 0 0.79335 -0.79335 0 0.60876 -0.92388 0 0.38268 -0.92388 0 0.38268 -0.99144 0 0.13053 -0.99144 0 0.13053 -0.99144 -0 -0.13053 -0.99144 -0 -0.13053 -0.92388 -0 -0.38268 -0.92388 -0 -0.38268 -0.79335 -0 -0.60876 -0.60876 -0 -0.79335 -0.60876 0 -0.79335 -0.38268 0 -0.92388 -0.38268 -0 -0.92388 -0.13053 -0 -0.99144 -0.13053 -0 -0.99144 0.13053 0 -0.99144 0.38268 0 -0.92388 0.38268 -0 -0.92388 0.60876 -0 -0.79335 0.60876 0 -0.79335 0.79335 0 -0.60876 0.79335 0 -0.60876 0.92388 0 -0.38268 0.92388 0 -0.38268 -0 0.70711 0.70711 0 0.70711 0.70711 0 0 1 0.70711 -0 0.70711 0.70711 0 0.70711 0.70711 0 0.70711 0.70711 -0 0.70711 -0.70711 0 0.70711 0 0.70711 0.70711 -1 -0 -0 -0 -1 -0 -0 -1 -0 1 0 0 1 -0 -0 1 0 0 1 0 0 0.9972 0.07473 0 0.9972 -0.07473 0 0.97493 -0.22252 0 0.93087 -0.36534 0 0.86603 -0.5 0 0.86603 -0.5 -0 0.78183 -0.62349 -0 0.78183 -0.62349 -0 0.68017 -0.73305 -0 0.68017 -0.73305 0 0.56332 -0.82624 0 0.56332 -0.82624 -0 0.43388 -0.90097 -0 0.43388 -0.90097 -0 0.29476 -0.95557 -0 0.29476 -0.95557 0 0.14904 -0.98883 0 0.14904 -0.98883 -0 -0.14904 -0.98883 0 -0.14904 -0.98883 -0 -0.29476 -0.95557 -0 -0.29476 -0.95557 0 -0.43388 -0.90097 0 -0.43388 -0.90097 0 -0.56332 -0.82624 0 -0.56332 -0.82624 -0 -0.68017 -0.73305 -0 -0.68017 -0.73305 0 -0.78183 -0.62349 0 -0.78183 -0.62349 0 -0.86603 -0.5 0 -0.86603 -0.5 -0 -0.93087 -0.36534 -0 -0.93087 -0.36534 0 -0.97493 -0.22252 0 -0.97493 -0.22252 -0 -0.9972 -0.07473 -0 -0.9972 0.07473 0 -0.97493 0.22252 0 -0.97493 0.22252 -0 -0.93087 0.36534 -0 -0.93087 0.36534 0 -0.86603 0.5 0 -0.86603 0.5 -0 -0.78183 0.62349 -0 -0.78183 0.62349 -0 -0.68017 0.73305 -0 -0.68017 0.73305 0 -0.56332 0.82624 0 -0.56332 0.82624 -0 -0.43388 0.90097 -0 -0.43388 0.90097 -0 -0.29476 0.95557 -0 -0.29476 0.95557 0 -0.14904 0.98883 0 -0.14904 0.98883 -0 0 1 0 0.14904 0.98883 0 0.14904 0.98883 0 0.29476 0.95557 0 0.29476 0.95557 0 0.43388 0.90097 0 0.43388 0.90097 0 0.56332 0.82624 0 0.56332 0.82624 0 0.68017 0.73305 0 0.68017 0.73305 -0 0.78183 0.62349 -0 0.78183 0.62349 0 0.86603 0.5 0 0.86603 0.5 0 0.93087 0.36534 0 0.97493 0.22252 0 1 0 -0 -0 0 -1 0 0.20953 -0.9778</float_array>
          <technique_common>
            <accessor source="#norm_0-array" count="408" stride="3">
              <param name="X" type="float"/>
              <param name="Y" type="float"/>
              <param name="Z" type="float"/>
            </accessor>
          </technique_common>
        </source>
        <vertices id="vert_0">
          <input semantic="POSITION" source="#pos_0"/>
        </vertices>
        <triangles count="459">
          <input semantic="VERTEX" source="#vert_0" offset="0"/>
          <input semantic="NORMAL" source="#norm_0" offset="1"/>
          <p>2 1 1 1 3 1 2 2 3 2 4 2 4 3 3 3 5 3 4 4 5 4 6 4 6 5 5 5 7 5 6 6 7 6 8 6 8 7 7 7 9 7 8 8 9 8 10 8 10 9 9 9 11 9 10 10 11 10 12 10 12 11 11 11 13 11 12 12 13 12 14 12 14 12 13 12 15 12 14 13 15 13 16 13 16 14 15 14 17 14 16 15 17 15 18 15 18 16 17 16 19 16 18 17 19 17 20 17 20 18 19 18 21 18 20 19 21 19 22 19 22 19 21 19 23 19 22 20 23 20 24 20 24 21 23 21 25 21 24 22 25 22 26 22 26 23 25 23 27 23 26 24 27 24 28 24 28 25 27 25 29 25 28 26 29 26 30 26 30 27 29 27 31 27 30 28 31 28 32 28 32 28 31 28 33 28 32 29 33 29 34 29 34 30 33 30 35 30 34 31 35 31 36 31 36 32 35 32 37 32 36 33 37 33 38 33 38 34 37 34 39 34 38 35 39 35 40 35 40 35 39 35 41 35 40 36 41 36 42 36 42 37 41 37 43 37 42 38 43 38 44 38 44 39 43 39 45 39 44 40 45 40 46 40 46 41 45 41 47 41 46 42 47 42 0 42 0 43 47 43 1 43 48 0 49 0 50 0 50 1 49 1 51 1 50 2 51 2 52 2 52 3 51 3 53 3 52 4 53 4 54 4 54 5 53 5 55 5 54 6 55 6 56 6 56 7 55 7 57 7 56 8 57 8 58 8 58 9 57 9 59 9 58 10 59 10 60 10 60 11 59 11 61 11 60 12 61 12 62 12 62 12 61 12 63 12 62 13 63 13 64 13 64 14 63 14 65 14 64 15 65 15 66 15 66 16 65 16 67 16 66 17 67 17 68 17 68 18 67 18 69 18 68 19 69 19 70 19 70 19 69 19 71 19 70 20 71 20 72 20 72 21 71 21 73 21 72 22 73 22 74 22 74 23 73 23 75 23 74 24 75 24 76 24 76 25 75 25 77 25 76 26 77 26 78 26 78 27 77 27 79 27 78 28 79 28 80 28 80 28 79 28 81 28 80 29 81 29 82 29 82 30 81 30 83 30 82 31 83 31 84 31 84 32 83 32 85 32 84 33 85 33 86 33 86 34 85 34 87 34 86 35 87 35 88 35 88 35 87 35 89 35 88 36 89 36 90 36 90 37 89 37 91 37 90 38 91 38 92 38 92 39 91 39 93 39 92 40 93 40 94 40 94 41 93 41 95 41 94 42 95 42 48 42 48 43 95 43 49 43 96 44 97 44 98 44 98 45 97 45 99 45 100 46 101 46 102 46 102 46 101 46 103 46 97 47 104 47 105 47 105 48 104 48 100 48 105 48 100 48 102 48 96 49 106 49 97 49 97 50 106 50 104 50 107 51 108 51 109 51 109 51 108 51 110 51 109 51 110 51 111 51 103 51 101 51 107 51 107 51 101 51 108 51 111 52 112 52 109 52 109 45 112 45 113 45 108 46 104 46 110 46 110 46 104 46 106 46 101 53 114 53 108 53 108 53 114 53 115 53 101 54 100 54 114 54 114 54 100 54 116 54 110 55 106 55 117 55 117 55 106 55 118 55 106 56 96 56 118 56 118 57 96 57 119 57 118 58 119 58 120 58 96 59 98 59 119 59 120 58 121 58 118 58 99 53 97 53 122 53 122 53 97 53 123 53 123 53 97 53 124 53 124 53 97 53 105 53 125 60 126 60 127 60 127 60 126 60 128 60 127 61 128 61 129 61 129 61 128 61 130 61 129 62 130 62 131 62 131 62 130 62 132 62 131 63 132 63 133 63 133 63 132 63 134 63 133 64 134 64 135 64 135 65 134 65 136 65 135 66 136 66 137 66 137 67 136 67 138 67 137 68 138 68 139 68 139 69 138 69 140 69 139 70 140 70 141 70 141 71 140 71 142 71 141 72 142 72 143 72 143 73 142 73 144 73 143 74 144 74 145 74 145 75 144 75 146 75 145 76 146 76 147 76 147 77 146 77 148 77 147 54 148 54 149 54 149 54 148 54 150 54 149 78 150 78 151 78 151 79 150 79 152 79 151 80 152 80 153 80 153 81 152 81 154 81 153 82 154 82 155 82 155 83 154 83 156 83 155 84 156 84 157 84 157 85 156 85 158 85 157 86 158 86 159 86 159 87 158 87 160 87 159 88 160 88 161 88 161 89 160 89 162 89 161 90 162 90 163 90 163 91 162 91 164 91 163 92 164 92 165 92 165 93 164 93 166 93 165 94 166 94 167 94 167 95 166 95 168 95 167 96 168 96 169 96 169 96 168 96 170 96 169 97 170 97 171 97 171 97 170 97 172 97 171 98 172 98 173 98 173 99 172 99 174 99 173 100 174 100 175 100 175 101 174 101 176 101 175 102 176 102 177 102 177 103 176 103 178 103 177 104 178 104 179 104 179 105 178 105 180 105 179 106 180 106 181 106 181 107 180 107 182 107 181 108 182 108 183 108 183 109 182 109 184 109 183 110 184 110 185 110 185 111 184 111 186 111 185 112 186 112 187 112 187 113 186 113 188 113 187 114 188 114 189 114 189 115 188 115 190 115 189 116 190 116 191 116 191 116 190 116 192 116 191 117 192 117 193 117 193 118 192 118 194 118 193 119 194 119 195 119 195 120 194 120 196 120 195 121 196 121 197 121 197 122 196 122 198 122 197 123 198 123 199 123 199 124 198 124 200 124 199 125 200 125 201 125 201 126 200 126 202 126 201 127 202 127 203 127 203 128 202 128 204 128 203 129 204 129 205 129 205 130 204 130 206 130 205 131 206 131 207 131 207 131 206 131 208 131 207 132 208 132 125 132 125 132 208 132 126 132 113 58 209 58 109 58 109 58 209 58 210 58 109 58 210 58 211 58 211 58 107 58 109 58 129 46 116 46 127 46 127 46 116 46 212 46 127 46 212 46 125 46 125 46 212 46 207 46 207 46 212 46 205 46 205 46 212 46 203 46 203 46 212 46 201 46 201 46 212 46 199 46 199 46 212 46 197 46 197 46 212 46 195 46 195 46 212 46 193 46 193 46 212 46 191 46 191 46 212 46 115 46 191 46 115 46 189 46 189 46 115 46 187 46 187 46 115 46 185 46 185 46 115 46 183 46 183 46 115 46 181 46 181 46 115 46 179 46 179 46 115 46 177 46 177 46 115 46 175 46 175 46 115 46 173 46 173 46 115 46 171 46 171 46 115 46 169 46 169 46 115 46 114 46 169 46 114 46 167 46 167 46 114 46 165 46 165 46 114 46 163 46 163 46 114 46 161 46 161 46 114 46 159 46 159 46 114 46 157 46 157 46 114 46 155 46 155 46 114 46 153 46 153 46 114 46 151 46 151 46 114 46 149 46 149 46 114 46 116 46 149 46 116 46 147 46 147 46 116 46 145 46 145 46 116 46 143 46 143 46 116 46 141 46 141 46 116 46 139 46 139 46 116 46 137 46 137 46 116 46 135 46 135 46 116 46 133 46 133 46 116 46 131 46 131 46 116 46 129 46 104 133 212 133 100 133 100 133 212 133 116 133 113 46 112 46 209 46 209 46 112 46 213 46 209 46 213 46 214 46 214 46 213 46 119 46 214 46 119 46 215 46 215 46 119 46 122 46 215 46 122 46 216 46 98 46 99 46 119 46 119 46 99 46 122 46 214 46 217 46 209 46 104 116 108 116 212 116 212 116 108 116 115 116 110 53 117 53 111 53 111 53 117 53 213 53 111 53 213 53 112 53 218 53 219 53 117 53 117 53 219 53 213 53 126 134 118 134 128 134 128 134 118 134 121 134 128 134 121 134 130 134 130 134 121 134 132 134 132 134 121 134 134 134 134 134 121 134 136 134 136 134 121 134 138 134 138 134 121 134 140 134 140 134 121 134 142 134 142 134 121 134 144 134 144 134 121 134 146 134 146 134 121 134 148 134 148 134 121 134 218 134 148 134 218 134 150 134 150 134 218 134 152 134 152 134 218 134 154 134 154 134 218 134 156 134 156 134 218 134 158 134 158 134 218 134 160 134 160 134 218 134 162 134 162 134 218 134 164 134 164 134 218 134 166 134 166 134 218 134 168 134 168 134 218 134 170 134 170 134 218 134 117 134 170 134 117 134 172 134 172 134 117 134 174 134 174 134 117 134 176 134 176 134 117 134 178 134 178 134 117 134 180 134 180 134 117 134 182 134 182 134 117 134 184 134 184 134 117 134 186 134 186 134 117 134 188 134 188 134 117 134 190 134 190 134 117 134 118 134 190 134 118 134 192 134 192 134 118 134 194 134 194 134 118 134 196 134 196 134 118 134 198 134 198 134 118 134 200 134 200 134 118 134 202 134 202 134 118 134 204 134 204 134 118 134 206 134 206 134 118 134 208 134 208 134 118 134 126 134 107 116 211 116 103 116 103 116 211 116 218 116 103 116 218 116 102 116 102 116 218 116 121 116 102 116 121 116 124 116 124 116 105 116 102 116 219 135 218 135 210 135 210 135 218 135 211 135 52 116 210 116 50 116 50 116 210 116 209 116 50 116 209 116 48 116 48 116 209 116 94 116 94 116 209 116 92 116 92 116 209 116 90 116 90 116 209 116 88 116 88 116 209 116 86 116 86 116 209 116 84 116 84 116 209 116 217 116 84 116 217 116 82 116 82 116 217 116 80 116 80 116 217 116 78 116 78 116 217 116 76 116 76 116 217 116 74 116 74 116 217 116 220 116 74 116 220 116 72 116 72 116 220 116 70 116 70 116 220 116 68 116 68 116 220 116 66 116 66 116 220 116 64 116 64 116 220 116 210 116 64 116 210 116 62 116 62 116 210 116 60 116 60 116 210 116 58 116 58 116 210 116 56 116 56 116 210 116 54 116 54 116 210 116 52 116 219 116 120 116 213 116 213 116 120 116 119 116 123 135 124 135 120 135 120 135 124 135 121 135 4 116 221 116 2 116 2 116 221 116 216 116 2 116 216 116 0 116 0 116 216 116 46 116 46 116 216 116 44 116 44 116 216 116 42 116 42 116 216 116 40 116 40 116 216 116 122 116 40 116 122 116 38 116 38 116 122 116 36 116 36 116 122 116 34 116 34 116 122 116 32 116 32 116 122 116 30 116 30 116 122 116 28 116 28 116 122 116 26 116 26 116 122 116 123 116 26 116 123 116 24 116 24 116 123 116 22 116 22 116 123 116 20 116 20 116 123 116 18 116 18 116 123 116 16 116 16 116 123 116 14 116 14 116 123 116 12 116 12 116 123 116 221 116 12 116 221 116 10 116 10 116 221 116 8 116 8 116 221 116 6 116 6 116 221 116 4 116 222 58 220 58 214 58 214 58 220 58 217 58 1 54 215 54 3 54 3 54 215 54 223 54 3 54 223 54 5 54 5 54 223 54 7 54 7 54 223 54 9 54 9 54 223 54 11 54 11 54 223 54 13 54 13 54 223 54 15 54 15 54 223 54 17 54 17 54 223 54 19 54 19 54 223 54 21 54 21 54 223 54 222 54 21 54 222 54 57 54 57 54 222 54 59 54 59 54 222 54 61 54 61 54 222 54 63 54 63 54 222 54 65 54 65 54 222 54 67 54 67 54 222 54 69 54 69 54 222 54 71 54 71 54 222 54 73 54 73 54 222 54 75 54 75 54 222 54 214 54 75 54 214 54 77 54 77 54 214 54 79 54 79 54 214 54 81 54 81 54 214 54 83 54 83 54 214 54 85 54 85 54 214 54 87 54 87 54 214 54 89 54 89 54 214 54 91 54 91 54 214 54 93 54 93 54 214 54 215 54 93 54 215 54 33 54 33 54 215 54 35 54 35 54 215 54 37 54 37 54 215 54 39 54 39 54 215 54 41 54 41 54 215 54 43 54 43 54 215 54 45 54 45 54 215 54 47 54 47 54 215 54 1 54 93 54 33 54 95 54 95 54 33 54 31 54 95 54 31 54 49 54 49 54 31 54 29 54 49 54 29 54 51 54 51 54 29 54 27 54 51 54 27 54 53 54 53 54 27 54 25 54 53 54 25 54 55 54 55 54 25 54 23 54 55 54 23 54 57 54 57 54 23 54 21 54 221 53 223 53 216 53 216 53 223 53 215 53 221 134 123 134 223 134 223 134 123 134 120 134 223 134 120 134 219 134 223 134 219 134 222 134 222 134 219 134 210 134 222 134 210 134 220 134</p>
        </triangles>
        <triangles count="1" material="mat_1">
          <input semantic="VERTEX" source="#vert_0" offset="0"/>
          <input semantic="NORMAL" source="#norm_0" offset="1"/>
          <p>0 0 1 0 2 0</p>
        </triangles>
      </mesh>
    </geometry>
  </library_geometries>
  <library_visual_scenes>
    <visual_scene id="DefaultScene">
      <node id="node_da65c6a9_6fce_4794_bce4_856f20c8efaf" type="NODE">
        <matrix>1 0 0 0 0 1 0 0 0 0 1 0 0 0 0 1</matrix>
        <node id="node_a3b687f5_19e5_4ec9_8897_4f32f889a493" type="NODE">
          <matrix>1 0 0 0 0 1 0 0 0 0 1 0 0 0 0 1</matrix>
          <node id="node_a3b687f5_19e5_4ec9_8897_4f32f889a493_mesh0" type="NODE">
            <matrix>1 0 0 0 0 1 0 0 0 0 1 0 0 0 0 1</matrix>
            <instance_geometry url="#geometry_456b515d_0bcb_44b9_9d22_9c0a4d8ad6e9">
              <bind_material>
                <technique_common>
                  <instance_material symbol="mat_1" target="#mat_1"/>
                </technique_common>
              </bind_material>
            </instance_geometry>
          </node>
        </node>
      </node>
    </visual_scene>
  </library_visual_scenes>
  <scene>
    <instance_visual_scene url="#DefaultScene"/>
  </scene>
</COLLADA>

