<?xml version="1.0" encoding="utf-8"?>
<COLLADA xmlns="http://www.collada.org/2005/11/COLLADASchema" version="1.4.1">
  <asset>
    <contributor><author>make_clip_holder.py</author></contributor>
    <unit meter="0.001" name="millimeter" />
    <up_axis>Z_UP</up_axis>
  </asset>
  <library_geometries>
    <geometry id="clip_holder" name="clip_holder">
      <mesh>
        <source id="pos">
          <float_array id="pos-a" count="1485">-24.2500 0.0000 0.0000 -24.3437 0.0000 0.7118 -24.3437 10.0000 0.7118 -24.2500 10.0000 0.0000 -24.6184 0.0000 1.3750 -24.6184 10.0000 1.3750 -25.0555 0.0000 1.9445 -25.0555 10.0000 1.9445 -25.6250 0.0000 2.3816 -25.6250 10.0000 2.3816 -26.2882 0.0000 2.6563 -26.2882 10.0000 2.6563 -27.0000 0.0000 2.7500 -27.0000 10.0000 2.7500 -27.7118 0.0000 2.6563 -27.7118 10.0000 2.6563 -28.3750 0.0000 2.3816 -28.3750 10.0000 2.3816 -28.9445 0.0000 1.9445 -28.9445 10.0000 1.9445 -29.3816 0.0000 1.3750 -29.3816 10.0000 1.3750 -29.6563 0.0000 0.7118 -29.6563 10.0000 0.7118 -29.7500 0.0000 0.0000 -29.7500 10.0000 0.0000 -29.6563 0.0000 -0.7118 -29.6563 10.0000 -0.7118 -29.3816 0.0000 -1.3750 -29.3816 10.0000 -1.3750 -28.9445 0.0000 -1.9445 -28.9445 10.0000 -1.9445 -28.3750 0.0000 -2.3816 -28.3750 10.0000 -2.3816 -27.7118 0.0000 -2.6563 -27.7118 10.0000 -2.6563 -27.0000 0.0000 -2.7500 -27.0000 10.0000 -2.7500 -26.2882 0.0000 -2.6563 -26.2882 10.0000 -2.6563 -25.6250 0.0000 -2.3816 -25.6250 10.0000 -2.3816 -25.0555 0.0000 -1.9445 -25.0555 10.0000 -1.9445 -24.6184 0.0000 -1.3750 -24.6184 10.0000 -1.3750 -24.3437 0.0000 -0.7118 -24.3437 10.0000 -0.7118 -17.0000 0.0000 -10.0000 -17.0000 0.0000 -6.6667 -17.0000 0.0000 -3.3333 -17.0000 0.0000 0.0000 -17.0000 0.0000 3.3333 -17.0000 0.0000 6.6667 -17.0000 0.0000 10.0000 -20.3333 0.0000 10.0000 -23.6667 0.0000 10.0000 -27.0000 0.0000 10.0000 -30.3333 0.0000 10.0000 -33.6667 0.0000 10.0000 -37.0000 0.0000 10.0000 -37.0000 0.0000 6.6667 -37.0000 0.0000 3.3333 -37.0000 0.0000 0.0000 -37.0000 0.0000 -3.3333 -37.0000 0.0000 -6.6667 -37.0000 0.0000 -10.0000 -33.6667 0.0000 -10.0000 -30.3333 0.0000 -10.0000 -27.0000 0.0000 -10.0000 -23.6667 0.0000 -10.0000 -20.3333 0.0000 -10.0000 -17.0000 10.0000 -6.6667 -17.0000 10.0000 -10.0000 -17.0000 10.0000 -3.3333 -17.0000 10.0000 0.0000 -17.0000 10.0000 3.3333 -17.0000 10.0000 6.6667 -17.0000 10.0000 10.0000 -20.3333 10.0000 10.0000 -23.6667 10.0000 10.0000 -27.0000 10.0000 10.0000 -30.3333 10.0000 10.0000 -33.6667 10.0000 10.0000 -37.0000 10.0000 10.0000 -37.0000 10.0000 6.6667 -37.0000 10.0000 3.3333 -37.0000 10.0000 0.0000 -37.0000 10.0000 -3.3333 -37.0000 10.0000 -6.6667 -37.0000 10.0000 -10.0000 -33.6667 10.0000 -10.0000 -30.3333 10.0000 -10.0000 -27.0000 10.0000 -10.0000 -23.6667 10.0000 -10.0000 -20.3333 10.0000 -10.0000 29.7500 0.0000 0.0000 29.6563 0.0000 0.7118 29.6563 10.0000 0.7118 29.7500 10.0000 0.0000 29.3816 0.0000 1.3750 29.3816 10.0000 1.3750 28.9445 0.0000 1.9445 28.9445 10.0000 1.9445 28.3750 0.0000 2.3816 28.3750 10.0000 2.3816 27.7118 0.0000 2.6563 27.7118 10.0000 2.6563 27.0000 0.0000 2.7500 27.0000 10.0000 2.7500 26.2882 0.0000 2.6563 26.2882 10.0000 2.6563 25.6250 0.0000 2.3816 25.6250 10.0000 2.3816 25.0555 0.0000 1.9445 25.0555 10.0000 1.9445 24.6184 0.0000 1.3750 24.6184 10.0000 1.3750 24.3437 0.0000 0.7118 24.3437 10.0000 0.7118 24.2500 0.0000 0.0000 24.2500 10.0000 0.0000 24.3437 0.0000 -0.7118 24.3437 10.0000 -0.7118 24.6184 0.0000 -1.3750 24.6184 10.0000 -1.3750 25.0555 0.0000 -1.9445 25.0555 10.0000 -1.9445 25.6250 0.0000 -2.3816 25.6250 10.0000 -2.3816 26.2882 0.0000 -2.6563 26.2882 10.0000 -2.6563 27.0000 0.0000 -2.7500 27.0000 10.0000 -2.7500 27.7118 0.0000 -2.6563 27.7118 10.0000 -2.6563 28.3750 0.0000 -2.3816 28.3750 10.0000 -2.3816 28.9445 0.0000 -1.9445 28.9445 10.0000 -1.9445 29.3816 0.0000 -1.3750 29.3816 10.0000 -1.3750 29.6563 0.0000 -0.7118 29.6563 10.0000 -0.7118 37.0000 0.0000 -10.0000 37.0000 0.0000 -6.6667 37.0000 0.0000 -3.3333 37.0000 0.0000 0.0000 37.0000 0.0000 3.3333 37.0000 0.0000 6.6667 37.0000 0.0000 10.0000 33.6667 0.0000 10.0000 30.3333 0.0000 10.0000 27.0000 0.0000 10.0000 23.6667 0.0000 10.0000 20.3333 0.0000 10.0000 17.0000 0.0000 10.0000 17.0000 0.0000 6.6667 17.0000 0.0000 3.3333 17.0000 0.0000 0.0000 17.0000 0.0000 -3.3333 17.0000 0.0000 -6.6667 17.0000 0.0000 -10.0000 20.3333 0.0000 -10.0000 23.6667 0.0000 -10.0000 27.0000 0.0000 -10.0000 30.3333 0.0000 -10.0000 33.6667 0.0000 -10.0000 37.0000 10.0000 -6.6667 37.0000 10.0000 -10.0000 37.0000 10.0000 -3.3333 37.0000 10.0000 0.0000 37.0000 10.0000 3.3333 37.0000 10.0000 6.6667 37.0000 10.0000 10.0000 33.6667 10.0000 10.0000 30.3333 10.0000 10.0000 27.0000 10.0000 10.0000 23.6667 10.0000 10.0000 20.3333 10.0000 10.0000 17.0000 10.0000 10.0000 17.0000 10.0000 6.6667 17.0000 10.0000 3.3333 17.0000 10.0000 0.0000 17.0000 10.0000 -3.3333 17.0000 10.0000 -6.6667 17.0000 10.0000 -10.0000 20.3333 10.0000 -10.0000 23.6667 10.0000 -10.0000 27.0000 10.0000 -10.0000 30.3333 10.0000 -10.0000 33.6667 10.0000 -10.0000 -35.0000 0.0000 -20.0000 35.0000 0.0000 -20.0000 35.0000 0.0000 -10.0000 -35.0000 0.0000 -10.0000 -35.0000 0.0000 10.0000 35.0000 0.0000 10.0000 35.0000 0.0000 20.0000 -35.0000 0.0000 20.0000 -35.0000 10.0000 -20.0000 35.0000 10.0000 -20.0000 35.0000 10.0000 -10.0000 -35.0000 10.0000 -10.0000 -35.0000 10.0000 10.0000 35.0000 10.0000 10.0000 35.0000 10.0000 20.0000 -35.0000 10.0000 20.0000 -22.5000 10.0000 -20.0000 -22.5000 120.7500 -20.0000 22.5000 120.7500 -20.0000 22.5000 10.0000 -20.0000 -22.5000 10.0000 20.0000 22.5000 10.0000 20.0000 22.5000 120.7500 20.0000 -22.5000 120.7500 20.0000 -7.0000 139.0467 -20.0000 -7.6432 138.2099 -20.0000 -11.7747 141.0261 -20.0000 -10.7838 142.3152 -20.0000 -7.0000 139.0467 20.0000 -10.7838 142.3152 20.0000 -11.7747 141.0261 20.0000 -7.6432 138.2099 20.0000 -8.1870 137.3053 -20.0000 -12.6124 139.6325 -20.0000 -12.6124 139.6325 20.0000 -8.1870 137.3053 20.0000 -8.6241 136.3447 -20.0000 -13.2858 138.1526 -20.0000 -13.2858 138.1526 20.0000 -8.6241 136.3447 20.0000 -8.9490 135.3405 -20.0000 -13.7863 136.6056 -20.0000 -13.7863 136.6056 20.0000 -8.9490 135.3405 20.0000 -9.1574 134.3058 -20.0000 -14.1073 135.0117 -20.0000 -14.1073 135.0117 20.0000 -9.1574 134.3058 20.0000 -9.2465 133.2542 -20.0000 -14.2446 133.3916 -20.0000 -14.2446 133.3916 20.0000 -9.2465 133.2542 20.0000 -9.2153 132.1992 -20.0000 -14.1965 131.7664 -20.0000 -14.1965 131.7664 20.0000 -9.2153 132.1992 20.0000 -9.0641 131.1547 -20.0000 -13.9636 130.1572 -20.0000 -13.9636 130.1572 20.0000 -9.0641 131.1547 20.0000 -8.7948 130.1341 -20.0000 -13.5488 128.5850 -20.0000 -13.5488 128.5850 20.0000 -8.7948 130.1341 20.0000 -8.4111 129.1509 -20.0000 -12.9577 127.0704 -20.0000 -12.9577 127.0704 20.0000 -8.4111 129.1509 20.0000 -7.9179 128.2178 -20.0000 -12.1979 125.6329 -20.0000 -12.1979 125.6329 20.0000 -7.9179 128.2178 20.0000 -7.3216 127.3470 -20.0000 -11.2792 124.2913 -20.0000 -11.2792 124.2913 20.0000 -7.3216 127.3470 20.0000 -6.6300 126.5498 -20.0000 -10.2138 123.0631 -20.0000 -10.2138 123.0631 20.0000 -6.6300 126.5498 20.0000 -5.8521 125.8365 -20.0000 -9.0153 121.9643 -20.0000 -9.0153 121.9643 20.0000 -5.8521 125.8365 20.0000 -4.9979 125.7500 -20.0000 -7.6995 121.0092 -20.0000 -7.6995 121.0092 20.0000 -4.9979 125.7500 20.0000 -4.0787 125.7500 -20.0000 -6.2835 120.2101 -20.0000 -6.2835 120.2101 20.0000 -4.0787 125.7500 20.0000 -3.1064 125.7500 -20.0000 -4.7856 119.5776 -20.0000 -4.7856 119.5776 20.0000 -3.1064 125.7500 20.0000 -2.0937 125.7500 -20.0000 -3.2254 119.1198 -20.0000 -3.2254 119.1198 20.0000 -2.0937 125.7500 20.0000 -1.0537 125.7500 -20.0000 -1.6233 118.8428 -20.0000 -1.6233 118.8428 20.0000 -1.0537 125.7500 20.0000 -0.0000 125.7500 -20.0000 -0.0000 118.7500 -20.0000 -0.0000 118.7500 20.0000 -0.0000 125.7500 20.0000 1.0537 125.7500 -20.0000 1.6233 118.8428 -20.0000 1.6233 118.8428 20.0000 1.0537 125.7500 20.0000 2.0937 125.7500 -20.0000 3.2254 119.1198 -20.0000 3.2254 119.1198 20.0000 2.0937 125.7500 20.0000 3.1064 125.7500 -20.0000 4.7856 119.5776 -20.0000 4.7856 119.5776 20.0000 3.1064 125.7500 20.0000 4.0787 125.7500 -20.0000 6.2835 120.2101 -20.0000 6.2835 120.2101 20.0000 4.0787 125.7500 20.0000 4.9979 125.7500 -20.0000 7.6995 121.0092 -20.0000 7.6995 121.0092 20.0000 4.9979 125.7500 20.0000 5.8521 125.8365 -20.0000 9.0153 121.9643 -20.0000 9.0153 121.9643 20.0000 5.8521 125.8365 20.0000 6.6300 126.5498 -20.0000 10.2138 123.0631 -20.0000 10.2138 123.0631 20.0000 6.6300 126.5498 20.0000 7.3216 127.3470 -20.0000 11.2792 124.2913 -20.0000 11.2792 124.2913 20.0000 7.3216 127.3470 20.0000 7.9179 128.2178 -20.0000 12.1979 125.6329 -20.0000 12.1979 125.6329 20.0000 7.9179 128.2178 20.0000 8.4111 129.1509 -20.0000 12.9577 127.0704 -20.0000 12.9577 127.0704 20.0000 8.4111 129.1509 20.0000 8.7948 130.1341 -20.0000 13.5488 128.5850 -20.0000 13.5488 128.5850 20.0000 8.7948 130.1341 20.0000 9.0641 131.1547 -20.0000 13.9636 130.1572 -20.0000 13.9636 130.1572 20.0000 9.0641 131.1547 20.0000 9.2153 132.1992 -20.0000 14.1965 131.7664 -20.0000 14.1965 131.7664 20.0000 9.2153 132.1992 20.0000 9.2465 133.2542 -20.0000 14.2446 133.3916 -20.0000 14.2446 133.3916 20.0000 9.2465 133.2542 20.0000 9.1574 134.3058 -20.0000 14.1073 135.0117 -20.0000 14.1073 135.0117 20.0000 9.1574 134.3058 20.0000 8.9490 135.3405 -20.0000 13.7863 136.6056 -20.0000 13.7863 136.6056 20.0000 8.9490 135.3405 20.0000 8.6241 136.3447 -20.0000 13.2858 138.1526 -20.0000 13.2858 138.1526 20.0000 8.6241 136.3447 20.0000 8.1870 137.3053 -20.0000 12.6124 139.6325 -20.0000 12.6124 139.6325 20.0000 8.1870 137.3053 20.0000 7.6432 138.2099 -20.0000 11.7747 141.0261 -20.0000 11.7747 141.0261 20.0000 7.6432 138.2099 20.0000 7.0000 139.0467 -20.0000 10.7838 142.3152 -20.0000 10.7838 142.3152 20.0000 7.0000 139.0467 20.0000 -12.0000 144.0467 -20.0000 -12.0000 144.0467 20.0000 12.0000 144.0467 -20.0000 12.0000 144.0467 20.0000 0.0000 140.5000 -24.0000 -1.6689 140.3120 -24.0000 -3.1709 146.8927 -24.0000 0.0000 147.2500 -24.0000 0.0000 140.5000 -20.0000 0.0000 147.2500 -20.0000 -3.1709 146.8927 -20.0000 -1.6689 140.3120 -20.0000 -3.2541 139.7573 -24.0000 -6.1828 145.8388 -24.0000 -6.1828 145.8388 -20.0000 -3.2541 139.7573 -20.0000 -4.6762 138.8637 -24.0000 -8.8847 144.1411 -24.0000 -8.8847 144.1411 -20.0000 -4.6762 138.8637 -20.0000 -5.8637 137.6762 -24.0000 -11.1411 141.8847 -24.0000 -11.1411 141.8847 -20.0000 -5.8637 137.6762 -20.0000 -6.7573 136.2541 -24.0000 -12.8388 139.1828 -24.0000 -12.8388 139.1828 -20.0000 -6.7573 136.2541 -20.0000 -7.3120 134.6689 -24.0000 -13.8927 136.1709 -24.0000 -13.8927 136.1709 -20.0000 -7.3120 134.6689 -20.0000 -7.5000 133.0000 -24.0000 -14.2500 133.0000 -24.0000 -14.2500 133.0000 -20.0000 -7.5000 133.0000 -20.0000 -7.3120 131.3311 -24.0000 -13.8927 129.8291 -24.0000 -13.8927 129.8291 -20.0000 -7.3120 131.3311 -20.0000 -6.7573 129.7459 -24.0000 -12.8388 126.8172 -24.0000 -12.8388 126.8172 -20.0000 -6.7573 129.7459 -20.0000 -5.8637 128.3238 -24.0000 -11.1411 124.1153 -24.0000 -11.1411 124.1153 -20.0000 -5.8637 128.3238 -20.0000 -4.6762 127.1363 -24.0000 -8.8847 121.8589 -24.0000 -8.8847 121.8589 -20.0000 -4.6762 127.1363 -20.0000 -3.2541 126.2427 -24.0000 -6.1828 120.1612 -24.0000 -6.1828 120.1612 -20.0000 -3.2541 126.2427 -20.0000 -1.6689 125.6880 -24.0000 -3.1709 119.1073 -24.0000 -3.1709 119.1073 -20.0000 -1.6689 125.6880 -20.0000 -0.0000 125.5000 -24.0000 -0.0000 118.7500 -24.0000 -0.0000 125.5000 -20.0000 1.6689 125.6880 -24.0000 3.1709 119.1073 -24.0000 3.1709 119.1073 -20.0000 1.6689 125.6880 -20.0000 3.2541 126.2427 -24.0000 6.1828 120.1612 -24.0000 6.1828 120.1612 -20.0000 3.2541 126.2427 -20.0000 4.6762 127.1363 -24.0000 8.8847 121.8589 -24.0000 8.8847 121.8589 -20.0000 4.6762 127.1363 -20.0000 5.8637 128.3238 -24.0000 11.1411 124.1153 -24.0000 11.1411 124.1153 -20.0000 5.8637 128.3238 -20.0000 6.7573 129.7459 -24.0000 12.8388 126.8172 -24.0000 12.8388 126.8172 -20.0000 6.7573 129.7459 -20.0000 7.3120 131.3311 -24.0000 13.8927 129.8291 -24.0000 13.8927 129.8291 -20.0000 7.3120 131.3311 -20.0000 7.5000 133.0000 -24.0000 14.2500 133.0000 -24.0000 14.2500 133.0000 -20.0000 7.5000 133.0000 -20.0000 7.3120 134.6689 -24.0000 13.8927 136.1709 -24.0000 13.8927 136.1709 -20.0000 7.3120 134.6689 -20.0000 6.7573 136.2541 -24.0000 12.8388 139.1828 -24.0000 12.8388 139.1828 -20.0000 6.7573 136.2541 -20.0000 5.8637 137.6762 -24.0000 11.1411 141.8847 -24.0000 11.1411 141.8847 -20.0000 5.8637 137.6762 -20.0000 4.6762 138.8637 -24.0000 8.8847 144.1411 -24.0000 8.8847 144.1411 -20.0000 4.6762 138.8637 -20.0000 3.2541 139.7573 -24.0000 6.1828 145.8388 -24.0000 6.1828 145.8388 -20.0000 3.2541 139.7573 -20.0000 1.6689 140.3120 -24.0000 3.1709 146.8927 -24.0000 3.1709 146.8927 -20.0000 1.6689 140.3120 -20.0000</float_array>
          <technique_common>
            <accessor source="#pos-a" count="495" stride="3">
              <param name="X" type="float"/><param name="Y" type="float"/><param name="Z" type="float"/>
            </accessor>
          </technique_common>
        </source>
        <vertices id="verts"><input semantic="POSITION" source="#pos"/></vertices>
        <triangles count="1148">
          <input semantic="VERTEX" source="#verts" offset="0"/>
          <p>0 1 2 0 2 3 1 4 5 1 5 2 4 6 7 4 7 5 6 8 9 6 9 7 8 10 11 8 11 9 10 12 13 10 13 11 12 14 15 12 15 13 14 16 17 14 17 15 16 18 19 16 19 17 18 20 21 18 21 19 20 22 23 20 23 21 22 24 25 22 25 23 24 26 27 24 27 25 26 28 29 26 29 27 28 30 31 28 31 29 30 32 33 30 33 31 32 34 35 32 35 33 34 36 37 34 37 35 36 38 39 36 39 37 38 40 41 38 41 39 40 42 43 40 43 41 42 44 45 42 45 43 44 46 47 44 47 45 46 0 3 46 3 47 0 48 49 0 49 1 1 49 50 1 50 4 4 50 51 4 51 6 6 51 52 6 52 8 8 52 53 8 53 10 10 53 54 10 54 12 12 54 55 12 55 14 14 55 56 14 56 16 16 56 57 16 57 18 18 57 58 18 58 20 20 58 59 20 59 22 22 59 60 22 60 24 24 60 61 24 61 26 26 61 62 26 62 28 28 62 63 28 63 30 30 63 64 30 64 32 32 64 65 32 65 34 34 65 66 34 66 36 36 66 67 36 67 38 38 67 68 38 68 40 40 68 69 40 69 42 42 69 70 42 70 44 44 70 71 44 71 46 46 71 48 46 48 0 3 2 72 3 72 73 2 5 74 2 74 72 5 7 75 5 75 74 7 9 76 7 76 75 9 11 77 9 77 76 11 13 78 11 78 77 13 15 79 13 79 78 15 17 80 15 80 79 17 19 81 17 81 80 19 21 82 19 82 81 21 23 83 21 83 82 23 25 84 23 84 83 25 27 85 25 85 84 27 29 86 27 86 85 29 31 87 29 87 86 31 33 88 31 88 87 33 35 89 33 89 88 35 37 90 35 90 89 37 39 91 37 91 90 39 41 92 39 92 91 41 43 93 41 93 92 43 45 94 43 94 93 45 47 95 45 95 94 47 3 73 47 73 95 96 97 98 96 98 99 97 100 101 97 101 98 100 102 103 100 103 101 102 104 105 102 105 103 104 106 107 104 107 105 106 108 109 106 109 107 108 110 111 108 111 109 110 112 113 110 113 111 112 114 115 112 115 113 114 116 117 114 117 115 116 118 119 116 119 117 118 120 121 118 121 119 120 122 123 120 123 121 122 124 125 122 125 123 124 126 127 124 127 125 126 128 129 126 129 127 128 130 131 128 131 129 130 132 133 130 133 131 132 134 135 132 135 133 134 136 137 134 137 135 136 138 139 136 139 137 138 140 141 138 141 139 140 142 143 140 143 141 142 96 99 142 99 143 96 144 145 96 145 97 97 145 146 97 146 100 100 146 147 100 147 102 102 147 148 102 148 104 104 148 149 104 149 106 106 149 150 106 150 108 108 150 151 108 151 110 110 151 152 110 152 112 112 152 153 112 153 114 114 153 154 114 154 116 116 154 155 116 155 118 118 155 156 118 156 120 120 156 157 120 157 122 122 157 158 122 158 124 124 158 159 124 159 126 126 159 160 126 160 128 128 160 161 128 161 130 130 161 162 130 162 132 132 162 163 132 163 134 134 163 164 134 164 136 136 164 165 136 165 138 138 165 166 138 166 140 140 166 167 140 167 142 142 167 144 142 144 96 99 98 168 99 168 169 98 101 170 98 170 168 101 103 171 101 171 170 103 105 172 103 172 171 105 107 173 105 173 172 107 109 174 107 174 173 109 111 175 109 175 174 111 113 176 111 176 175 113 115 177 113 177 176 115 117 178 115 178 177 117 119 179 117 179 178 119 121 180 119 180 179 121 123 181 121 181 180 123 125 182 123 182 181 125 127 183 125 183 182 127 129 184 127 184 183 129 131 185 129 185 184 131 133 186 131 186 185 133 135 187 133 187 186 135 137 188 135 188 187 137 139 189 137 189 188 139 141 190 139 190 189 141 143 191 141 191 190 143 99 169 143 169 191 192 193 194 192 194 195 196 197 198 196 198 199 195 66 60 195 60 196 48 162 156 48 156 54 144 194 197 144 197 150 200 201 202 200 202 203 204 205 206 204 206 207 203 90 84 203 84 204 73 186 180 73 180 78 169 202 205 169 205 174 192 200 201 192 201 193 199 198 206 199 206 207 192 199 207 192 207 200 193 201 206 193 206 198 208 209 210 208 210 211 212 213 214 212 214 215 208 211 213 208 213 212 210 209 215 210 215 214 211 210 214 211 214 213 209 208 212 209 212 215 216 217 218 216 218 219 220 221 222 220 222 223 216 219 221 216 221 220 217 223 222 217 222 218 217 224 225 217 225 218 223 222 226 223 226 227 217 218 222 217 222 223 224 227 226 224 226 225 224 228 229 224 229 225 227 226 230 227 230 231 224 225 226 224 226 227 228 231 230 228 230 229 228 232 233 228 233 229 231 230 234 231 234 235 228 229 230 228 230 231 232 235 234 232 234 233 232 236 237 232 237 233 235 234 238 235 238 239 232 233 234 232 234 235 236 239 238 236 238 237 236 240 241 236 241 237 239 238 242 239 242 243 236 237 238 236 238 239 240 243 242 240 242 241 240 244 245 240 245 241 243 242 246 243 246 247 240 241 242 240 242 243 244 247 246 244 246 245 244 248 249 244 249 245 247 246 250 247 250 251 244 245 246 244 246 247 248 251 250 248 250 249 248 252 253 248 253 249 251 250 254 251 254 255 248 249 250 248 250 251 252 255 254 252 254 253 252 256 257 252 257 253 255 254 258 255 258 259 252 253 254 252 254 255 256 259 258 256 258 257 256 260 261 256 261 257 259 258 262 259 262 263 256 257 258 256 258 259 260 263 262 260 262 261 260 264 265 260 265 261 263 262 266 263 266 267 260 261 262 260 262 263 264 267 266 264 266 265 264 268 269 264 269 265 267 266 270 267 270 271 264 265 266 264 266 267 268 271 270 268 270 269 268 272 273 268 273 269 271 270 274 271 274 275 268 269 270 268 270 271 272 275 274 272 274 273 272 276 277 272 277 273 275 274 278 275 278 279 272 273 274 272 274 275 276 279 278 276 278 277 276 280 281 276 281 277 279 278 282 279 282 283 276 277 278 276 278 279 280 283 282 280 282 281 280 284 285 280 285 281 283 282 286 283 286 287 280 281 282 280 282 283 284 287 286 284 286 285 284 288 289 284 289 285 287 286 290 287 290 291 284 285 286 284 286 287 288 291 290 288 290 289 288 292 293 288 293 289 291 290 294 291 294 295 288 289 290 288 290 291 292 295 294 292 294 293 292 296 297 292 297 293 295 294 298 295 298 299 292 293 294 292 294 295 296 299 298 296 298 297 296 300 301 296 301 297 299 298 302 299 302 303 296 297 298 296 298 299 300 303 302 300 302 301 300 304 305 300 305 301 303 302 306 303 306 307 300 301 302 300 302 303 304 307 306 304 306 305 304 308 309 304 309 305 307 306 310 307 310 311 304 305 306 304 306 307 308 311 310 308 310 309 308 312 313 308 313 309 311 310 314 311 314 315 308 309 310 308 310 311 312 315 314 312 314 313 312 316 317 312 317 313 315 314 318 315 318 319 312 313 314 312 314 315 316 319 318 316 318 317 316 320 321 316 321 317 319 318 322 319 322 323 316 317 318 316 318 319 320 323 322 320 322 321 320 324 325 320 325 321 323 322 326 323 326 327 320 321 322 320 322 323 324 327 326 324 326 325 324 328 329 324 329 325 327 326 330 327 330 331 324 325 326 324 326 327 328 331 330 328 330 329 328 332 333 328 333 329 331 330 334 331 334 335 328 329 330 328 330 331 332 335 334 332 334 333 332 336 337 332 337 333 335 334 338 335 338 339 332 333 334 332 334 335 336 339 338 336 338 337 336 340 341 336 341 337 339 338 342 339 342 343 336 337 338 336 338 339 340 343 342 340 342 341 340 344 345 340 345 341 343 342 346 343 346 347 340 341 342 340 342 343 344 347 346 344 346 345 344 348 349 344 349 345 347 346 350 347 350 351 344 345 346 344 346 347 348 351 350 348 350 349 348 352 353 348 353 349 351 350 354 351 354 355 348 349 350 348 350 351 352 355 354 352 354 353 352 356 357 352 357 353 355 354 358 355 358 359 352 353 354 352 354 355 356 359 358 356 358 357 356 360 361 356 361 357 359 358 362 359 362 363 356 357 358 356 358 359 360 363 362 360 362 361 360 364 365 360 365 361 363 362 366 363 366 367 360 361 362 360 362 363 364 367 366 364 366 365 364 368 369 364 369 365 367 366 370 367 370 371 364 365 366 364 366 367 368 371 370 368 370 369 368 372 373 368 373 369 371 370 374 371 374 375 368 369 370 368 370 371 372 375 374 372 374 373 372 376 377 372 377 373 375 374 378 375 378 379 372 373 374 372 374 375 376 379 378 376 378 377 216 220 223 216 223 217 217 223 227 217 227 224 224 227 231 224 231 228 228 231 235 228 235 232 232 235 239 232 239 236 236 239 243 236 243 240 240 243 247 240 247 244 244 247 251 244 251 248 248 251 255 248 255 252 252 255 259 252 259 256 256 259 263 256 263 260 260 263 267 260 267 264 264 267 271 264 271 268 268 271 275 268 275 272 272 275 279 272 279 276 276 279 283 276 283 280 280 283 287 280 287 284 284 287 291 284 291 288 288 291 295 288 295 292 292 295 299 292 299 296 296 299 303 296 303 300 300 303 307 300 307 304 304 307 311 304 311 308 308 311 315 308 315 312 312 315 319 312 319 316 316 319 323 316 323 320 320 323 327 320 327 324 324 327 331 324 331 328 328 331 335 328 335 332 332 335 339 332 339 336 336 339 343 336 343 340 340 343 347 340 347 344 344 347 351 344 351 348 348 351 355 348 355 352 352 355 359 352 359 356 356 359 363 356 363 360 360 363 367 360 367 364 364 367 371 364 371 368 368 371 375 368 375 372 372 375 379 372 379 376 219 221 222 219 222 218 218 222 226 218 226 225 225 226 230 225 230 229 229 230 234 229 234 233 233 234 238 233 238 237 237 238 242 237 242 241 241 242 246 241 246 245 245 246 250 245 250 249 249 250 254 249 254 253 253 254 258 253 258 257 257 258 262 257 262 261 261 262 266 261 266 265 265 266 270 265 270 269 269 270 274 269 274 273 273 274 278 273 278 277 277 278 282 277 282 281 281 282 286 281 286 285 285 286 290 285 290 289 289 290 294 289 294 293 293 294 298 293 298 297 297 298 302 297 302 301 301 302 306 301 306 305 305 306 310 305 310 309 309 310 314 309 314 313 313 314 318 313 318 317 317 318 322 317 322 321 321 322 326 321 326 325 325 326 330 325 330 329 329 330 334 329 334 333 333 334 338 333 338 337 337 338 342 337 342 341 341 342 346 341 346 345 345 346 350 345 350 349 349 350 354 349 354 353 353 354 358 353 358 357 357 358 362 357 362 361 361 362 366 361 366 365 365 366 370 365 370 369 369 370 374 369 374 373 373 374 378 373 378 377 216 380 381 216 381 220 376 382 383 376 383 379 384 385 386 384 386 387 388 389 390 388 390 391 384 387 389 384 389 388 385 391 390 385 390 386 385 392 393 385 393 386 391 390 394 391 394 395 385 386 390 385 390 391 392 395 394 392 394 393 392 396 397 392 397 393 395 394 398 395 398 399 392 393 394 392 394 395 396 399 398 396 398 397 396 400 401 396 401 397 399 398 402 399 402 403 396 397 398 396 398 399 400 403 402 400 402 401 400 404 405 400 405 401 403 402 406 403 406 407 400 401 402 400 402 403 404 407 406 404 406 405 404 408 409 404 409 405 407 406 410 407 410 411 404 405 406 404 406 407 408 411 410 408 410 409 408 412 413 408 413 409 411 410 414 411 414 415 408 409 410 408 410 411 412 415 414 412 414 413 412 416 417 412 417 413 415 414 418 415 418 419 412 413 414 412 414 415 416 419 418 416 418 417 416 420 421 416 421 417 419 418 422 419 422 423 416 417 418 416 418 419 420 423 422 420 422 421 420 424 425 420 425 421 423 422 426 423 426 427 420 421 422 420 422 423 424 427 426 424 426 425 424 428 429 424 429 425 427 426 430 427 430 431 424 425 426 424 426 427 428 431 430 428 430 429 428 432 433 428 433 429 431 430 434 431 434 435 428 429 430 428 430 431 432 435 434 432 434 433 432 436 437 432 437 433 435 434 438 435 438 439 432 433 434 432 434 435 436 439 438 436 438 437 436 440 441 436 441 437 439 438 297 439 297 442 436 437 438 436 438 439 440 442 297 440 297 441 440 443 444 440 444 441 442 297 445 442 445 446 440 441 297 440 297 442 443 446 445 443 445 444 443 447 448 443 448 444 446 445 449 446 449 450 443 444 445 443 445 446 447 450 449 447 449 448 447 451 452 447 452 448 450 449 453 450 453 454 447 448 449 447 449 450 451 454 453 451 453 452 451 455 456 451 456 452 454 453 457 454 457 458 451 452 453 451 453 454 455 458 457 455 457 456 455 459 460 455 460 456 458 457 461 458 461 462 455 456 457 455 457 458 459 462 461 459 461 460 459 463 464 459 464 460 462 461 465 462 465 466 459 460 461 459 461 462 463 466 465 463 465 464 463 467 468 463 468 464 466 465 469 466 469 470 463 464 465 463 465 466 467 470 469 467 469 468 467 471 472 467 472 468 470 469 473 470 473 474 467 468 469 467 469 470 471 474 473 471 473 472 471 475 476 471 476 472 474 473 477 474 477 478 471 472 473 471 473 474 475 478 477 475 477 476 475 479 480 475 480 476 478 477 481 478 481 482 475 476 477 475 477 478 479 482 481 479 481 480 479 483 484 479 484 480 482 481 485 482 485 486 479 480 481 479 481 482 483 486 485 483 485 484 483 487 488 483 488 484 486 485 489 486 489 490 483 484 485 483 485 486 487 490 489 487 489 488 487 491 492 487 492 488 490 489 493 490 493 494 487 488 489 487 489 490 491 494 493 491 493 492 491 384 387 491 387 492 494 493 389 494 389 388 491 492 493 491 493 494 384 388 389 384 389 387 384 388 391 384 391 385 385 391 395 385 395 392 392 395 399 392 399 396 396 399 403 396 403 400 400 403 407 400 407 404 404 407 411 404 411 408 408 411 415 408 415 412 412 415 419 412 419 416 416 419 423 416 423 420 420 423 427 420 427 424 424 427 431 424 431 428 428 431 435 428 435 432 432 435 439 432 439 436 436 439 442 436 442 440 440 442 446 440 446 443 443 446 450 443 450 447 447 450 454 447 454 451 451 454 458 451 458 455 455 458 462 455 462 459 459 462 466 459 466 463 463 466 470 463 470 467 467 470 474 467 474 471 471 474 478 471 478 475 475 478 482 475 482 479 479 482 486 479 486 483 483 486 490 483 490 487 487 490 494 487 494 491 491 494 388 491 388 384 387 389 390 387 390 386 386 390 394 386 394 393 393 394 398 393 398 397 397 398 402 397 402 401 401 402 406 401 406 405 405 406 410 405 410 409 409 410 414 409 414 413 413 414 418 413 418 417 417 418 422 417 422 421 421 422 426 421 426 425 425 426 430 425 430 429 429 430 434 429 434 433 433 434 438 433 438 437 437 438 297 437 297 441 441 297 445 441 445 444 444 445 449 444 449 448 448 449 453 448 453 452 452 453 457 452 457 456 456 457 461 456 461 460 460 461 465 460 465 464 464 465 469 464 469 468 468 469 473 468 473 472 472 473 477 472 477 476 476 477 481 476 481 480 480 481 485 480 485 484 484 485 489 484 489 488 488 489 493 488 493 492 492 493 389 492 389 387</p>
        </triangles>
      </mesh>
    </geometry>
  </library_geometries>
  <library_visual_scenes>
    <visual_scene id="scene">
      <node id="holder"><instance_geometry url="#clip_holder"/></node>
    </visual_scene>
  </library_visual_scenes>
  <scene><instance_visual_scene url="#scene"/></scene>
</COLLADA>
