<?xml version="1.0" encoding="utf-8"?>
<COLLADA xmlns="http://www.collada.org/2005/11/COLLADASchema" version="1.4.1">
  <asset><contributor><author>make_station_rail.py</author></contributor>
    <unit meter="0.001" name="millimeter" /><up_axis>Z_UP</up_axis></asset>
  <library_geometries><geometry id="rail" name="rail"><mesh>
    <source id="pos"><float_array id="pos-a" count="1212">-147.0000 0.0000 -22.0000 -147.0000 8.0000 -22.0000 147.0000 8.0000 -22.0000 147.0000 0.0000 -22.0000 -147.0000 0.0000 22.0000 147.0000 0.0000 22.0000 147.0000 8.0000 22.0000 -147.0000 8.0000 22.0000 -139.2500 0.0000 0.0000 -139.3437 0.0000 0.7118 -139.3437 8.0000 0.7118 -139.2500 8.0000 0.0000 -139.6184 0.0000 1.3750 -139.6184 8.0000 1.3750 -140.0555 0.0000 1.9445 -140.0555 8.0000 1.9445 -140.6250 0.0000 2.3816 -140.6250 8.0000 2.3816 -141.2882 0.0000 2.6563 -141.2882 8.0000 2.6563 -142.0000 0.0000 2.7500 -142.0000 8.0000 2.7500 -142.7118 0.0000 2.6563 -142.7118 8.0000 2.6563 -143.3750 0.0000 2.3816 -143.3750 8.0000 2.3816 -143.9445 0.0000 1.9445 -143.9445 8.0000 1.9445 -144.3816 0.0000 1.3750 -144.3816 8.0000 1.3750 -144.6563 0.0000 0.7118 -144.6563 8.0000 0.7118 -144.7500 0.0000 0.0000 -144.7500 8.0000 0.0000 -144.6563 0.0000 -0.7118 -144.6563 8.0000 -0.7118 -144.3816 0.0000 -1.3750 -144.3816 8.0000 -1.3750 -143.9445 0.0000 -1.9445 -143.9445 8.0000 -1.9445 -143.3750 0.0000 -2.3816 -143.3750 8.0000 -2.3816 -142.7118 0.0000 -2.6563 -142.7118 8.0000 -2.6563 -142.0000 0.0000 -2.7500 -142.0000 8.0000 -2.7500 -141.2882 0.0000 -2.6563 -141.2882 8.0000 -2.6563 -140.6250 0.0000 -2.3816 -140.6250 8.0000 -2.3816 -140.0555 0.0000 -1.9445 -140.0555 8.0000 -1.9445 -139.6184 0.0000 -1.3750 -139.6184 8.0000 -1.3750 -139.3437 0.0000 -0.7118 -139.3437 8.0000 -0.7118 -85.2500 0.0000 0.0000 -85.3437 0.0000 0.7118 -85.3437 8.0000 0.7118 -85.2500 8.0000 0.0000 -85.6184 0.0000 1.3750 -85.6184 8.0000 1.3750 -86.0555 0.0000 1.9445 -86.0555 8.0000 1.9445 -86.6250 0.0000 2.3816 -86.6250 8.0000 2.3816 -87.2882 0.0000 2.6563 -87.2882 8.0000 2.6563 -88.0000 0.0000 2.7500 -88.0000 8.0000 2.7500 -88.7118 0.0000 2.6563 -88.7118 8.0000 2.6563 -89.3750 0.0000 2.3816 -89.3750 8.0000 2.3816 -89.9445 0.0000 1.9445 -89.9445 8.0000 1.9445 -90.3816 0.0000 1.3750 -90.3816 8.0000 1.3750 -90.6563 0.0000 0.7118 -90.6563 8.0000 0.7118 -90.7500 0.0000 0.0000 -90.7500 8.0000 0.0000 -90.6563 0.0000 -0.7118 -90.6563 8.0000 -0.7118 -90.3816 0.0000 -1.3750 -90.3816 8.0000 -1.3750 -89.9445 0.0000 -1.9445 -89.9445 8.0000 -1.9445 -89.3750 0.0000 -2.3816 -89.3750 8.0000 -2.3816 -88.7118 0.0000 -2.6563 -88.7118 8.0000 -2.6563 -88.0000 0.0000 -2.7500 -88.0000 8.0000 -2.7500 -87.2882 0.0000 -2.6563 -87.2882 8.0000 -2.6563 -86.6250 0.0000 -2.3816 -86.6250 8.0000 -2.3816 -86.0555 0.0000 -1.9445 -86.0555 8.0000 -1.9445 -85.6184 0.0000 -1.3750 -85.6184 8.0000 -1.3750 -85.3437 0.0000 -0.7118 -85.3437 8.0000 -0.7118 -24.2500 0.0000 0.0000 -24.3437 0.0000 0.7118 -24.3437 8.0000 0.7118 -24.2500 8.0000 0.0000 -24.6184 0.0000 1.3750 -24.6184 8.0000 1.3750 -25.0555 0.0000 1.9445 -25.0555 8.0000 1.9445 -25.6250 0.0000 2.3816 -25.6250 8.0000 2.3816 -26.2882 0.0000 2.6563 -26.2882 8.0000 2.6563 -27.0000 0.0000 2.7500 -27.0000 8.0000 2.7500 -27.7118 0.0000 2.6563 -27.7118 8.0000 2.6563 -28.3750 0.0000 2.3816 -28.3750 8.0000 2.3816 -28.9445 0.0000 1.9445 -28.9445 8.0000 1.9445 -29.3816 0.0000 1.3750 -29.3816 8.0000 1.3750 -29.6563 0.0000 0.7118 -29.6563 8.0000 0.7118 -29.7500 0.0000 0.0000 -29.7500 8.0000 0.0000 -29.6563 0.0000 -0.7118 -29.6563 8.0000 -0.7118 -29.3816 0.0000 -1.3750 -29.3816 8.0000 -1.3750 -28.9445 0.0000 -1.9445 -28.9445 8.0000 -1.9445 -28.3750 0.0000 -2.3816 -28.3750 8.0000 -2.3816 -27.7118 0.0000 -2.6563 -27.7118 8.0000 -2.6563 -27.0000 0.0000 -2.7500 -27.0000 8.0000 -2.7500 -26.2882 0.0000 -2.6563 -26.2882 8.0000 -2.6563 -25.6250 0.0000 -2.3816 -25.6250 8.0000 -2.3816 -25.0555 0.0000 -1.9445 -25.0555 8.0000 -1.9445 -24.6184 0.0000 -1.3750 -24.6184 8.0000 -1.3750 -24.3437 0.0000 -0.7118 -24.3437 8.0000 -0.7118 29.7500 0.0000 0.0000 29.6563 0.0000 0.7118 29.6563 8.0000 0.7118 29.7500 8.0000 0.0000 29.3816 0.0000 1.3750 29.3816 8.0000 1.3750 28.9445 0.0000 1.9445 28.9445 8.0000 1.9445 28.3750 0.0000 2.3816 28.3750 8.0000 2.3816 27.7118 0.0000 2.6563 27.7118 8.0000 2.6563 27.0000 0.0000 2.7500 27.0000 8.0000 2.7500 26.2882 0.0000 2.6563 26.2882 8.0000 2.6563 25.6250 0.0000 2.3816 25.6250 8.0000 2.3816 25.0555 0.0000 1.9445 25.0555 8.0000 1.9445 24.6184 0.0000 1.3750 24.6184 8.0000 1.3750 24.3437 0.0000 0.7118 24.3437 8.0000 0.7118 24.2500 0.0000 0.0000 24.2500 8.0000 0.0000 24.3437 0.0000 -0.7118 24.3437 8.0000 -0.7118 24.6184 0.0000 -1.3750 24.6184 8.0000 -1.3750 25.0555 0.0000 -1.9445 25.0555 8.0000 -1.9445 25.6250 0.0000 -2.3816 25.6250 8.0000 -2.3816 26.2882 0.0000 -2.6563 26.2882 8.0000 -2.6563 27.0000 0.0000 -2.7500 27.0000 8.0000 -2.7500 27.7118 0.0000 -2.6563 27.7118 8.0000 -2.6563 28.3750 0.0000 -2.3816 28.3750 8.0000 -2.3816 28.9445 0.0000 -1.9445 28.9445 8.0000 -1.9445 29.3816 0.0000 -1.3750 29.3816 8.0000 -1.3750 29.6563 0.0000 -0.7118 29.6563 8.0000 -0.7118 90.7500 0.0000 0.0000 90.6563 0.0000 0.7118 90.6563 8.0000 0.7118 90.7500 8.0000 0.0000 90.3816 0.0000 1.3750 90.3816 8.0000 1.3750 89.9445 0.0000 1.9445 89.9445 8.0000 1.9445 89.3750 0.0000 2.3816 89.3750 8.0000 2.3816 88.7118 0.0000 2.6563 88.7118 8.0000 2.6563 88.0000 0.0000 2.7500 88.0000 8.0000 2.7500 87.2882 0.0000 2.6563 87.2882 8.0000 2.6563 86.6250 0.0000 2.3816 86.6250 8.0000 2.3816 86.0555 0.0000 1.9445 86.0555 8.0000 1.9445 85.6184 0.0000 1.3750 85.6184 8.0000 1.3750 85.3437 0.0000 0.7118 85.3437 8.0000 0.7118 85.2500 0.0000 0.0000 85.2500 8.0000 0.0000 85.3437 0.0000 -0.7118 85.3437 8.0000 -0.7118 85.6184 0.0000 -1.3750 85.6184 8.0000 -1.3750 86.0555 0.0000 -1.9445 86.0555 8.0000 -1.9445 86.6250 0.0000 -2.3816 86.6250 8.0000 -2.3816 87.2882 0.0000 -2.6563 87.2882 8.0000 -2.6563 88.0000 0.0000 -2.7500 88.0000 8.0000 -2.7500 88.7118 0.0000 -2.6563 88.7118 8.0000 -2.6563 89.3750 0.0000 -2.3816 89.3750 8.0000 -2.3816 89.9445 0.0000 -1.9445 89.9445 8.0000 -1.9445 90.3816 0.0000 -1.3750 90.3816 8.0000 -1.3750 90.6563 0.0000 -0.7118 90.6563 8.0000 -0.7118 144.7500 0.0000 0.0000 144.6563 0.0000 0.7118 144.6563 8.0000 0.7118 144.7500 8.0000 0.0000 144.3816 0.0000 1.3750 144.3816 8.0000 1.3750 143.9445 0.0000 1.9445 143.9445 8.0000 1.9445 143.3750 0.0000 2.3816 143.3750 8.0000 2.3816 142.7118 0.0000 2.6563 142.7118 8.0000 2.6563 142.0000 0.0000 2.7500 142.0000 8.0000 2.7500 141.2882 0.0000 2.6563 141.2882 8.0000 2.6563 140.6250 0.0000 2.3816 140.6250 8.0000 2.3816 140.0555 0.0000 1.9445 140.0555 8.0000 1.9445 139.6184 0.0000 1.3750 139.6184 8.0000 1.3750 139.3437 0.0000 0.7118 139.3437 8.0000 0.7118 139.2500 0.0000 0.0000 139.2500 8.0000 0.0000 139.3437 0.0000 -0.7118 139.3437 8.0000 -0.7118 139.6184 0.0000 -1.3750 139.6184 8.0000 -1.3750 140.0555 0.0000 -1.9445 140.0555 8.0000 -1.9445 140.6250 0.0000 -2.3816 140.6250 8.0000 -2.3816 141.2882 0.0000 -2.6563 141.2882 8.0000 -2.6563 142.0000 0.0000 -2.7500 142.0000 8.0000 -2.7500 142.7118 0.0000 -2.6563 142.7118 8.0000 -2.6563 143.3750 0.0000 -2.3816 143.3750 8.0000 -2.3816 143.9445 0.0000 -1.9445 143.9445 8.0000 -1.9445 144.3816 0.0000 -1.3750 144.3816 8.0000 -1.3750 144.6563 0.0000 -0.7118 144.6563 8.0000 -0.7118 -32.0000 8.0000 -22.0000 -32.0000 108.6000 -22.0000 32.0000 108.6000 -22.0000 32.0000 8.0000 -22.0000 -32.0000 8.0000 22.0000 32.0000 8.0000 22.0000 32.0000 108.6000 22.0000 -32.0000 108.6000 22.0000 -24.2500 108.6000 0.0000 -24.3437 108.6000 0.7118 -24.3437 116.6000 0.7118 -24.2500 116.6000 0.0000 -24.6184 108.6000 1.3750 -24.6184 116.6000 1.3750 -25.0555 108.6000 1.9445 -25.0555 116.6000 1.9445 -25.6250 108.6000 2.3816 -25.6250 116.6000 2.3816 -26.2882 108.6000 2.6563 -26.2882 116.6000 2.6563 -27.0000 108.6000 2.7500 -27.0000 116.6000 2.7500 -27.7118 108.6000 2.6563 -27.7118 116.6000 2.6563 -28.3750 108.6000 2.3816 -28.3750 116.6000 2.3816 -28.9445 108.6000 1.9445 -28.9445 116.6000 1.9445 -29.3816 108.6000 1.3750 -29.3816 116.6000 1.3750 -29.6563 108.6000 0.7118 -29.6563 116.6000 0.7118 -29.7500 108.6000 0.0000 -29.7500 116.6000 0.0000 -29.6563 108.6000 -0.7118 -29.6563 116.6000 -0.7118 -29.3816 108.6000 -1.3750 -29.3816 116.6000 -1.3750 -28.9445 108.6000 -1.9445 -28.9445 116.6000 -1.9445 -28.3750 108.6000 -2.3816 -28.3750 116.6000 -2.3816 -27.7118 108.6000 -2.6563 -27.7118 116.6000 -2.6563 -27.0000 108.6000 -2.7500 -27.0000 116.6000 -2.7500 -26.2882 108.6000 -2.6563 -26.2882 116.6000 -2.6563 -25.6250 108.6000 -2.3816 -25.6250 116.6000 -2.3816 -25.0555 108.6000 -1.9445 -25.0555 116.6000 -1.9445 -24.6184 108.6000 -1.3750 -24.6184 116.6000 -1.3750 -24.3437 108.6000 -0.7118 -24.3437 116.6000 -0.7118 29.7500 108.6000 0.0000 29.6563 108.6000 0.7118 29.6563 116.6000 0.7118 29.7500 116.6000 0.0000 29.3816 108.6000 1.3750 29.3816 116.6000 1.3750 28.9445 108.6000 1.9445 28.9445 116.6000 1.9445 28.3750 108.6000 2.3816 28.3750 116.6000 2.3816 27.7118 108.6000 2.6563 27.7118 116.6000 2.6563 27.0000 108.6000 2.7500 27.0000 116.6000 2.7500 26.2882 108.6000 2.6563 26.2882 116.6000 2.6563 25.6250 108.6000 2.3816 25.6250 116.6000 2.3816 25.0555 108.6000 1.9445 25.0555 116.6000 1.9445 24.6184 108.6000 1.3750 24.6184 116.6000 1.3750 24.3437 108.6000 0.7118 24.3437 116.6000 0.7118 24.2500 108.6000 0.0000 24.2500 116.6000 0.0000 24.3437 108.6000 -0.7118 24.3437 116.6000 -0.7118 24.6184 108.6000 -1.3750 24.6184 116.6000 -1.3750 25.0555 108.6000 -1.9445 25.0555 116.6000 -1.9445 25.6250 108.6000 -2.3816 25.6250 116.6000 -2.3816 26.2882 108.6000 -2.6563 26.2882 116.6000 -2.6563 27.0000 108.6000 -2.7500 27.0000 116.6000 -2.7500 27.7118 108.6000 -2.6563 27.7118 116.6000 -2.6563 28.3750 108.6000 -2.3816 28.3750 116.6000 -2.3816 28.9445 108.6000 -1.9445 28.9445 116.6000 -1.9445 29.3816 108.6000 -1.3750 29.3816 116.6000 -1.3750 29.6563 108.6000 -0.7118 29.6563 116.6000 -0.7118 -32.0000 116.6000 -22.0000 32.0000 116.6000 -22.0000 32.0000 116.6000 22.0000 -32.0000 116.6000 22.0000</float_array>
      <technique_common><accessor source="#pos-a" count="404" stride="3">
        <param name="X" type="float"/><param name="Y" type="float"/><param name="Z" type="float"/>
      </accessor></technique_common></source>
    <vertices id="verts"><input semantic="POSITION" source="#pos"/></vertices>
    <triangles count="424"><input semantic="VERTEX" source="#verts" offset="0"/><p>0 1 2 0 2 3 4 5 6 4 6 7 0 3 5 0 5 4 2 1 7 2 7 6 3 2 6 3 6 5 1 0 4 1 4 7 8 9 10 8 10 11 9 12 13 9 13 10 12 14 15 12 15 13 14 16 17 14 17 15 16 18 19 16 19 17 18 20 21 18 21 19 20 22 23 20 23 21 22 24 25 22 25 23 24 26 27 24 27 25 26 28 29 26 29 27 28 30 31 28 31 29 30 32 33 30 33 31 32 34 35 32 35 33 34 36 37 34 37 35 36 38 39 36 39 37 38 40 41 38 41 39 40 42 43 40 43 41 42 44 45 42 45 43 44 46 47 44 47 45 46 48 49 46 49 47 48 50 51 48 51 49 50 52 53 50 53 51 52 54 55 52 55 53 54 8 11 54 11 55 56 57 58 56 58 59 57 60 61 57 61 58 60 62 63 60 63 61 62 64 65 62 65 63 64 66 67 64 67 65 66 68 69 66 69 67 68 70 71 68 71 69 70 72 73 70 73 71 72 74 75 72 75 73 74 76 77 74 77 75 76 78 79 76 79 77 78 80 81 78 81 79 80 82 83 80 83 81 82 84 85 82 85 83 84 86 87 84 87 85 86 88 89 86 89 87 88 90 91 88 91 89 90 92 93 90 93 91 92 94 95 92 95 93 94 96 97 94 97 95 96 98 99 96 99 97 98 100 101 98 101 99 100 102 103 100 103 101 102 56 59 102 59 103 104 105 106 104 106 107 105 108 109 105 109 106 108 110 111 108 111 109 110 112 113 110 113 111 112 114 115 112 115 113 114 116 117 114 117 115 116 118 119 116 119 117 118 120 121 118 121 119 120 122 123 120 123 121 122 124 125 122 125 123 124 126 127 124 127 125 126 128 129 126 129 127 128 130 131 128 131 129 130 132 133 130 133 131 132 134 135 132 135 133 134 136 137 134 137 135 136 138 139 136 139 137 138 140 141 138 141 139 140 142 143 140 143 141 142 144 145 142 145 143 144 146 147 144 147 145 146 148 149 146 149 147 148 150 151 148 151 149 150 104 107 150 107 151 152 153 154 152 154 155 153 156 157 153 157 154 156 158 159 156 159 157 158 160 161 158 161 159 160 162 163 160 163 161 162 164 165 162 165 163 164 166 167 164 167 165 166 168 169 166 169 167 168 170 171 168 171 169 170 172 173 170 173 171 172 174 175 172 175 173 174 176 177 174 177 175 176 178 179 176 179 177 178 180 181 178 181 179 180 182 183 180 183 181 182 184 185 182 185 183 184 186 187 184 187 185 186 188 189 186 189 187 188 190 191 188 191 189 190 192 193 190 193 191 192 194 195 192 195 193 194 196 197 194 197 195 196 198 199 196 199 197 198 152 155 198 155 199 200 201 202 200 202 203 201 204 205 201 205 202 204 206 207 204 207 205 206 208 209 206 209 207 208 210 211 208 211 209 210 212 213 210 213 211 212 214 215 212 215 213 214 216 217 214 217 215 216 218 219 216 219 217 218 220 221 218 221 219 220 222 223 220 223 221 222 224 225 222 225 223 224 226 227 224 227 225 226 228 229 226 229 227 228 230 231 228 231 229 230 232 233 230 233 231 232 234 235 232 235 233 234 236 237 234 237 235 236 238 239 236 239 237 238 240 241 238 241 239 240 242 243 240 243 241 242 244 245 242 245 243 244 246 247 244 247 245 246 200 203 246 203 247 248 249 250 248 250 251 249 252 253 249 253 250 252 254 255 252 255 253 254 256 257 254 257 255 256 258 259 256 259 257 258 260 261 258 261 259 260 262 263 260 263 261 262 264 265 262 265 263 264 266 267 264 267 265 266 268 269 266 269 267 268 270 271 268 271 269 270 272 273 270 273 271 272 274 275 272 275 273 274 276 277 274 277 275 276 278 279 276 279 277 278 280 281 278 281 279 280 282 283 280 283 281 282 284 285 282 285 283 284 286 287 284 287 285 286 288 289 286 289 287 288 290 291 288 291 289 290 292 293 290 293 291 292 294 295 292 295 293 294 248 251 294 251 295 296 297 298 296 298 299 300 301 302 300 302 303 296 299 301 296 301 300 298 297 303 298 303 302 299 298 302 299 302 301 297 296 300 297 300 303 304 305 306 304 306 307 305 308 309 305 309 306 308 310 311 308 311 309 310 312 313 310 313 311 312 314 315 312 315 313 314 316 317 314 317 315 316 318 319 316 319 317 318 320 321 318 321 319 320 322 323 320 323 321 322 324 325 322 325 323 324 326 327 324 327 325 326 328 329 326 329 327 328 330 331 328 331 329 330 332 333 330 333 331 332 334 335 332 335 333 334 336 337 334 337 335 336 338 339 336 339 337 338 340 341 338 341 339 340 342 343 340 343 341 342 344 345 342 345 343 344 346 347 344 347 345 346 348 349 346 349 347 348 350 351 348 351 349 350 304 307 350 307 351 352 353 354 352 354 355 353 356 357 353 357 354 356 358 359 356 359 357 358 360 361 358 361 359 360 362 363 360 363 361 362 364 365 362 365 363 364 366 367 364 367 365 366 368 369 366 369 367 368 370 371 368 371 369 370 372 373 370 373 371 372 374 375 372 375 373 374 376 377 374 377 375 376 378 379 376 379 377 378 380 381 378 381 379 380 382 383 380 383 381 382 384 385 382 385 383 384 386 387 384 387 385 386 388 389 386 389 387 388 390 391 388 391 389 390 392 393 390 393 391 392 394 395 392 395 393 394 396 397 394 397 395 396 398 399 396 399 397 398 352 355 398 355 399 297 400 401 297 401 298 303 302 402 303 402 403 297 298 302 297 302 303 401 400 403 401 403 402 298 401 402 298 402 302 400 297 303 400 303 403 296 297 303 296 303 300 299 298 302 299 302 301</p></triangles>
  </mesh></geometry></library_geometries>
  <library_visual_scenes><visual_scene id="scene">
    <node id="rail"><instance_geometry url="#rail"/></node></visual_scene></library_visual_scenes>
  <scene><instance_visual_scene url="#scene"/></scene>
</COLLADA>
