<?xml version="1.0" encoding="UTF-8"?>
<COLLADA xmlns="http://www.collada.org/2005/11/COLLADASchema" version="1.4.1">
<!--
# File generated by ImageToStl.com - Free Image and 3D model conversion tools
-->
  <asset>
    <contributor>
      <author>ImageToStl.com</author>
      <authoring_tool>ImageToStl.com</authoring_tool>
    </contributor>
    <created>2026-07-29T07:03:58</created>
    <modified>2026-07-29T07:03:58</modified>
    <up_axis>Z_UP</up_axis>
  </asset>
  <library_effects>
    <effect id="effect_0">
        <profile_COMMON>
          <technique sid="common">
            <phong>
              <diffuse>
                <color>0.62745 0.62745 0.62745 1</color>
              </diffuse>
            </phong>
          </technique>
        </profile_COMMON>
    </effect>
    <effect id="effect_1">
        <profile_COMMON>
          <technique sid="common">
            <phong>
              <diffuse>
                <color>0.59608 0.59608 0.59608 1</color>
              </diffuse>
            </phong>
          </technique>
        </profile_COMMON>
    </effect>
  </library_effects>
  <library_materials>
    <material id="mat_0">
      <instance_effect url="#effect_0"/>
    </material>
    <material id="mat_1">
      <instance_effect url="#effect_1"/>
    </material>
  </library_materials>
  <library_geometries>
    <geometry id="geometry_9eb029e9_7287_4c3d_b6fc_4ecd94c84925">
      <mesh>
        <source id="pos_0">
          <float_array id="pos_0-array" count="1584">-14.13000011 -5.59149456 519 -10.47000027 -3.72649455 519 -14.13000011 -0.72149462 519 -10.125 -3.38149452 519 -13.13000011 0.27850541 519 -8.26000023 0.27850541 519 -8.26000023 -2.4014945 519 -11.44999981 -5.59149456 519 -8.625 -5.02149439 519 -8.82999992 -5.22649479 519 -4.13000011 -6.72149467 519 -7.13000011 -9.72149467 519 -1.13 -9.72149467 519 -4.13000011 -12.72149467 519 0.56999999 -14.21649456 519 0.36500001 -14.42149448 519 2.21000004 -15.71649456 519 1.86500001 -16.06149483 519 5.86999989 -18.72149467 519 4.86999989 -19.72149467 519 0 -19.72149467 519 0 -17.04149437 519 -8.82999992 -14.21649456 519 -8.625 -14.42149448 519 -10.47000027 -15.71649456 519 -10.125 -16.06149483 519 -14.13000011 -18.72149467 519 -13.13000011 -19.72149467 519 -11.44999981 -13.85149479 519 -14.13000011 -13.85149479 519 -8.26000023 -19.72149467 519 -8.26000023 -17.04149437 519 5.86999989 -13.85149479 519 3.19000006 -13.85149479 519 0.56999999 -5.22649479 519 0.36500001 -5.02149439 519 2.21000004 -3.72649455 519 1.86500001 -3.38149452 519 5.86999989 -0.72149462 519 4.86999989 0.27850541 519 3.19000006 -5.59149456 519 5.86999989 -5.59149456 519 0 0.27850541 519 0 -2.4014945 519 -13.13000011 0.27850541 19 -14.13000011 -0.72149462 19 -8.26000023 0.27850541 19 -8.26000023 -2.4014945 19 -10.125 -3.38149452 19 -8.625 -5.02149439 19 -4.13000011 -6.72149467 19 0.36500001 -5.02149439 19 1.86500001 -3.38149452 19 0 -2.4014945 19 0 0.27850541 19 4.86999989 0.27850541 19 5.86999989 -0.72149462 19 5.86999989 -5.59149456 19 3.19000006 -5.59149456 19 2.21000004 -3.72649455 19 0.56999999 -5.22649479 19 -1.13 -9.72149467 19 0.56999999 -14.21649456 19 2.21000004 -15.71649456 19 3.19000006 -13.85149479 19 5.86999989 -13.85149479 19 5.86999989 -18.72149467 19 4.86999989 -19.72149467 19 0 -19.72149467 19 0 -17.04149437 19 1.86500001 -16.06149483 19 0.36500001 -14.42149448 19 -4.13000011 -12.72149467 19 -8.625 -14.42149448 19 -10.125 -16.06149483 19 -8.26000023 -17.04149437 19 -8.26000023 -19.72149467 19 -13.13000011 -19.72149467 19 -14.13000011 -18.72149467 19 -14.13000011 -13.85149479 19 -11.44999981 -13.85149479 19 -10.47000027 -15.71649456 19 -8.82999992 -14.21649456 19 -7.13000011 -9.72149467 19 -8.82999992 -5.22649479 19 -10.47000027 -3.72649455 19 -11.44999981 -5.59149456 19 -14.13000011 -5.59149456 19 -14.13000011 -524.35766602 519 -10.47000027 -522.49267578 519 -14.13000011 -519.4876709 519 -10.125 -522.14764404 519 -13.13000011 -518.4876709 519 -8.26000023 -518.4876709 519 -8.26000023 -521.16766357 519 -11.44999981 -524.35766602 519 -8.625 -523.78765869 519 -8.82999992 -523.99267578 519 -4.13000011 -525.4876709 519 -7.13000011 -528.4876709 519 -1.13 -528.4876709 519 -4.13000011 -531.4876709 519 0.56999999 -532.98266602 519 0.36500001 -533.18768311 519 2.21000004 -534.48266602 519 1.86500001 -534.82769775 519 5.86999989 -537.4876709 519 4.86999989 -538.4876709 519 0 -538.4876709 519 0 -535.80767822 519 -8.82999992 -532.98266602 519 -8.625 -533.18768311 519 -10.47000027 -534.48266602 519 -10.125 -534.82769775 519 -14.13000011 -537.4876709 519 -13.13000011 -538.4876709 519 -11.44999981 -532.61767578 519 -14.13000011 -532.61767578 519 -8.26000023 -538.4876709 519 -8.26000023 -535.80767822 519 5.86999989 -532.61767578 519 3.19000006 -532.61767578 519 0.56999999 -523.99267578 519 0.36500001 -523.78765869 519 2.21000004 -522.49267578 519 1.86500001 -522.14764404 519 5.86999989 -519.4876709 519 4.86999989 -518.4876709 519 3.19000006 -524.35766602 519 5.86999989 -524.35766602 519 0 -518.4876709 519 0 -521.16766357 519 -13.13000011 -518.4876709 19 -14.13000011 -519.4876709 19 -8.26000023 -518.4876709 19 -8.26000023 -521.16766357 19 -10.125 -522.14764404 19 -8.625 -523.78765869 19 -4.13000011 -525.4876709 19 0.36500001 -523.78765869 19 1.86500001 -522.14764404 19 0 -521.16766357 19 0 -518.4876709 19 4.86999989 -518.4876709 19 5.86999989 -519.4876709 19 5.86999989 -524.35766602 19 3.19000006 -524.35766602 19 2.21000004 -522.49267578 19 0.56999999 -523.99267578 19 -1.13 -528.4876709 19 0.56999999 -532.98266602 19 2.21000004 -534.48266602 19 3.19000006 -532.61767578 19 5.86999989 -532.61767578 19 5.86999989 -537.4876709 19 4.86999989 -538.4876709 19 0 -538.4876709 19 0 -535.80767822 19 1.86500001 -534.82769775 19 0.36500001 -533.18768311 19 -4.13000011 -531.4876709 19 -8.625 -533.18768311 19 -10.125 -534.82769775 19 -8.26000023 -535.80767822 19 -8.26000023 -538.4876709 19 -13.13000011 -538.4876709 19 -14.13000011 -537.4876709 19 -14.13000011 -532.61767578 19 -11.44999981 -532.61767578 19 -10.47000027 -534.48266602 19 -8.82999992 -532.98266602 19 -7.13000011 -528.4876709 19 -8.82999992 -523.99267578 19 -10.47000027 -522.49267578 19 -11.44999981 -524.35766602 19 -14.13000011 -524.35766602 19 -14.13000011 -519.72149658 481.13000488 -10.47000027 -519.72149658 482.99499512 -14.13000011 -519.72149658 486 -10.125 -519.72149658 483.33999634 -13.13000011 -519.72149658 487 -8.26000023 -519.72149658 487 -8.26000023 -519.72149658 484.32000732 -11.44999981 -519.72149658 481.13000488 -8.625 -519.72149658 481.70001221 -8.82999992 -519.72149658 481.49499512 -4.13000011 -519.72149658 480 -7.13000011 -519.72149658 477 -1.13 -519.72149658 477 -4.13000011 -519.72149658 474 0.56999999 -519.72149658 472.50500488 0.36500001 -519.72149658 472.30001831 2.21000004 -519.72149658 471.00500488 1.86500001 -519.72149658 470.66000366 5.86999989 -519.72149658 468 4.86999989 -519.72149658 467 0 -519.72149658 467 0 -519.72149658 469.67999268 -8.82999992 -519.72149658 472.50500488 -8.625 -519.72149658 472.30001831 -10.47000027 -519.72149658 471.00500488 -10.125 -519.72149658 470.66000366 -14.13000011 -519.72149658 468 -13.13000011 -519.72149658 467 -11.44999981 -519.72149658 472.86999512 -14.13000011 -519.72149658 472.86999512 -8.26000023 -519.72149658 467 -8.26000023 -519.72149658 469.67999268 5.86999989 -519.72149658 472.86999512 3.19000006 -519.72149658 472.86999512 0.56999999 -519.72149658 481.49499512 0.36500001 -519.72149658 481.70001221 2.21000004 -519.72149658 482.99499512 1.86500001 -519.72149658 483.33999634 5.86999989 -519.72149658 486 4.86999989 -519.72149658 487 3.19000006 -519.72149658 481.13000488 5.86999989 -519.72149658 481.13000488 0 -519.72149658 487 0 -519.72149658 484.32000732 -13.13000011 -19.72149467 487 -14.13000011 -19.72149467 486 -8.26000023 -19.72149467 487 -8.26000023 -19.72149467 484.32000732 -10.125 -19.72149467 483.33999634 -8.625 -19.72149467 481.70001221 -4.13000011 -19.72149467 480 0.36500001 -19.72149467 481.70001221 1.86500001 -19.72149467 483.33999634 0 -19.72149467 484.32000732 0 -19.72149467 487 4.86999989 -19.72149467 487 5.86999989 -19.72149467 486 5.86999989 -19.72149467 481.13000488 3.19000006 -19.72149467 481.13000488 2.21000004 -19.72149467 482.99499512 0.56999999 -19.72149467 481.49499512 -1.13 -19.72149467 477 0.56999999 -19.72149467 472.50500488 2.21000004 -19.72149467 471.00500488 3.19000006 -19.72149467 472.86999512 5.86999989 -19.72149467 472.86999512 5.86999989 -19.72149467 468 4.86999989 -19.72149467 467 0 -19.72149467 467 0 -19.72149467 469.67999268 1.86500001 -19.72149467 470.66000366 0.36500001 -19.72149467 472.30001831 -4.13000011 -19.72149467 474 -8.625 -19.72149467 472.30001831 -10.125 -19.72149467 470.66000366 -8.26000023 -19.72149467 469.67999268 -8.26000023 -19.72149467 467 -13.13000011 -19.72149467 467 -14.13000011 -19.72149467 468 -14.13000011 -19.72149467 472.86999512 -11.44999981 -19.72149467 472.86999512 -10.47000027 -19.72149467 471.00500488 -8.82999992 -19.72149467 472.50500488 -7.13000011 -19.72149467 477 -8.82999992 -19.72149467 481.49499512 -10.47000027 -19.72149467 482.99499512 -11.44999981 -19.72149467 481.13000488 -14.13000011 -19.72149467 481.13000488 -14.13000011 -519.72149658 184.13000488 -10.47000027 -519.72149658 185.99501038 -14.13000011 -519.72149658 189 -10.125 -519.72149658 186.3400116 -13.13000011 -519.72149658 190 -8.26000023 -519.72149658 190 -8.26000023 -519.72149658 187.32000732 -11.44999981 -519.72149658 184.13000488 -8.625 -519.72149658 184.70001221 -8.82999992 -519.72149658 184.49501038 -4.13000011 -519.72149658 183 -7.13000011 -519.72149658 180 -1.13 -519.72149658 180 -4.13000011 -519.72149658 177 0.56999999 -519.72149658 175.50500488 0.36500001 -519.72149658 175.30000305 2.21000004 -519.72149658 174.00500488 1.86500001 -519.72149658 173.66000366 5.86999989 -519.72149658 171 4.86999989 -519.72149658 170 0 -519.72149658 170 0 -519.72149658 172.68000793 -8.82999992 -519.72149658 175.50500488 -8.625 -519.72149658 175.30000305 -10.47000027 -519.72149658 174.00500488 -10.125 -519.72149658 173.66000366 -14.13000011 -519.72149658 171 -13.13000011 -519.72149658 170 -11.44999981 -519.72149658 175.87001038 -14.13000011 -519.72149658 175.87001038 -8.26000023 -519.72149658 170 -8.26000023 -519.72149658 172.68000793 5.86999989 -519.72149658 175.87001038 3.19000006 -519.72149658 175.87001038 0.56999999 -519.72149658 184.49501038 0.36500001 -519.72149658 184.70001221 2.21000004 -519.72149658 185.99501038 1.86500001 -519.72149658 186.3400116 5.86999989 -519.72149658 189 4.86999989 -519.72149658 190 3.19000006 -519.72149658 184.13000488 5.86999989 -519.72149658 184.13000488 0 -519.72149658 190 0 -519.72149658 187.32000732 -13.13000011 -19.72149467 190 -14.13000011 -19.72149467 189 -8.26000023 -19.72149467 190 -8.26000023 -19.72149467 187.32000732 -10.125 -19.72149467 186.3400116 -8.625 -19.72149467 184.70001221 -4.13000011 -19.72149467 183 0.36500001 -19.72149467 184.70001221 1.86500001 -19.72149467 186.3400116 0 -19.72149467 187.32000732 0 -19.72149467 190 4.86999989 -19.72149467 190 5.86999989 -19.72149467 189 5.86999989 -19.72149467 184.13000488 3.19000006 -19.72149467 184.13000488 2.21000004 -19.72149467 185.99501038 0.56999999 -19.72149467 184.49501038 -1.13 -19.72149467 180 0.56999999 -19.72149467 175.50500488 2.21000004 -19.72149467 174.00500488 3.19000006 -19.72149467 175.87001038 5.86999989 -19.72149467 175.87001038 5.86999989 -19.72149467 171 4.86999989 -19.72149467 170 0 -19.72149467 170 0 -19.72149467 172.68000793 1.86500001 -19.72149467 173.66000366 0.36500001 -19.72149467 175.30000305 -4.13000011 -19.72149467 177 -8.625 -19.72149467 175.30000305 -10.125 -19.72149467 173.66000366 -8.26000023 -19.72149467 172.68000793 -8.26000023 -19.72149467 170 -13.13000011 -19.72149467 170 -14.13000011 -19.72149467 171 -14.13000011 -19.72149467 175.87001038 -11.44999981 -19.72149467 175.87001038 -10.47000027 -19.72149467 174.00500488 -8.82999992 -19.72149467 175.50500488 -7.13000011 -19.72149467 180 -8.82999992 -19.72149467 184.49501038 -10.47000027 -19.72149467 185.99501038 -11.44999981 -19.72149467 184.13000488 -14.13000011 -19.72149467 184.13000488 250 -5.86999989 19 250 -4.00500011 15.34000015 250 -1 19 250 -3.66000009 14.99499989 250 0 18 250 0 13.13000011 250 -2.68000007 13.13000011 250 -5.86999989 16.31999969 250 -5.30000019 13.49499989 250 -5.50500011 13.69999981 250 -7 9 250 -10 12 250 -10 6 250 -13 9 250 -14.49499989 4.30000019 250 -14.69999981 4.50500011 250 -15.99499989 2.66000009 250 -16.34000015 3.00500011 250 -19 -1 250 -20 -0 250 -20 4.86999989 250 -17.31999969 4.86999989 250 -14.49499989 13.69999981 250 -14.69999981 13.49499989 250 -15.99499989 15.34000015 250 -16.34000015 14.99499989 250 -19 19 250 -20 18 250 -14.13000011 16.31999969 250 -14.13000011 19 250 -20 13.13000011 250 -17.31999969 13.13000011 250 -14.13000011 -1 250 -14.13000011 1.67999995 250 -5.50500011 4.30000019 250 -5.30000019 4.50500011 250 -4.00500011 2.66000009 250 -3.66000009 3.00500011 250 -1 -1 250 0 -0 250 -5.86999989 1.67999995 250 -5.86999989 -1 250 0 4.86999989 250 -2.68000007 4.86999989 -250 0 18 -250 -1 19 -250 0 13.13000011 -250 -2.68000007 13.13000011 -250 -3.66000009 14.99499989 -250 -5.30000019 13.49499989 -250 -7 9 -250 -5.30000019 4.50500011 -250 -3.66000009 3.00500011 -250 -2.68000007 4.86999989 -250 0 4.86999989 -250 0 0 -250 -1 -1 -250 -5.86999989 -1 -250 -5.86999989 1.67999995 -250 -4.00500011 2.66000009 -250 -5.50500011 4.30000019 -250 -10 6 -250 -14.49499989 4.30000019 -250 -15.99499989 2.66000009 -250 -14.13000011 1.67999995 -250 -14.13000011 -1 -250 -19 -1 -250 -20 0 -250 -20 4.86999989 -250 -17.31999969 4.86999989 -250 -16.34000015 3.00500011 -250 -14.69999981 4.50500011 -250 -13 9 -250 -14.69999981 13.49499989 -250 -16.34000015 14.99499989 -250 -17.31999969 13.13000011 -250 -20 13.13000011 -250 -20 18 -250 -19 19 -250 -14.13000011 19 -250 -14.13000011 16.31999969 -250 -15.99499989 15.34000015 -250 -14.49499989 13.69999981 -250 -10 12 -250 -5.50500011 13.69999981 -250 -4.00500011 15.34000015 -250 -5.86999989 16.31999969 -250 -5.86999989 19 250 -524.52929688 19 250 -522.66430664 15.34000015 250 -519.65930176 19 250 -522.3192749 14.99499989 250 -518.65930176 18 250 -518.65930176 13.13000011 250 -521.33929443 13.13000011 250 -524.52929688 16.31999969 250 -523.95928955 13.49499989 250 -524.16430664 13.69999981 250 -525.65930176 9 250 -528.65930176 12 250 -528.65930176 6 250 -531.65930176 9 250 -533.15429688 4.30000019 250 -533.35925293 4.50500011 250 -534.65429688 2.66000009 250 -534.99926758 3.00500011 250 -537.65930176 -1 250 -538.65930176 -0 250 -538.65930176 4.86999989 250 -535.97930908 4.86999989 250 -533.15429688 13.69999981 250 -533.35925293 13.49499989 250 -534.65429688 15.34000015 250 -534.99926758 14.99499989 250 -537.65930176 19 250 -538.65930176 18 250 -532.78930664 16.31999969 250 -532.78930664 19 250 -538.65930176 13.13000011 250 -535.97930908 13.13000011 250 -532.78930664 -1 250 -532.78930664 1.67999995 250 -524.16430664 4.30000019 250 -523.95928955 4.50500011 250 -522.66430664 2.66000009 250 -522.3192749 3.00500011 250 -519.65930176 -1 250 -518.65930176 -0 250 -524.52929688 1.67999995 250 -524.52929688 -1 250 -518.65930176 4.86999989 250 -521.33929443 4.86999989 -250 -518.65930176 18 -250 -519.65930176 19 -250 -518.65930176 13.13000011 -250 -521.33929443 13.13000011 -250 -522.3192749 14.99499989 -250 -523.95928955 13.49499989 -250 -525.65930176 9 -250 -523.95928955 4.50500011 -250 -522.3192749 3.00500011 -250 -521.33929443 4.86999989 -250 -518.65930176 4.86999989 -250 -518.65930176 0 -250 -519.65930176 -1 -250 -524.52929688 -1 -250 -524.52929688 1.67999995 -250 -522.66430664 2.66000009 -250 -524.16430664 4.30000019 -250 -528.65930176 6 -250 -533.15429688 4.30000019 -250 -534.65429688 2.66000009 -250 -532.78930664 1.67999995 -250 -532.78930664 -1 -250 -537.65930176 -1 -250 -538.65930176 0 -250 -538.65930176 4.86999989 -250 -535.97930908 4.86999989 -250 -534.99926758 3.00500011 -250 -533.35925293 4.50500011 -250 -531.65930176 9 -250 -533.35925293 13.49499989 -250 -534.99926758 14.99499989 -250 -535.97930908 13.13000011 -250 -538.65930176 13.13000011 -250 -538.65930176 18 -250 -537.65930176 19 -250 -532.78930664 19 -250 -532.78930664 16.31999969 -250 -534.65429688 15.34000015 -250 -533.15429688 13.69999981 -250 -528.65930176 12 -250 -524.16430664 13.69999981 -250 -522.66430664 15.34000015 -250 -524.52929688 16.31999969 -250 -524.52929688 19</float_array>
          <technique_common>
            <accessor source="#pos_0-array" count="1584" stride="3">
              <param name="X" type="float"/>
              <param name="Y" type="float"/>
              <param name="Z" type="float"/>
            </accessor>
          </technique_common>
        </source>
        <source id="norm_0">
          <float_array id="norm_0-array" count="624">0 0 1 -0.70711 0.70711 0 0 1 -0 1 0 0 0.46516 -0.88523 0 0.7379 0.67491 -0 0.35374 0.93534 0 0.35374 0.93534 0 -0.35374 0.93534 0 -0.35374 0.93534 0 -0.7379 0.67491 0 -0.46516 -0.88523 0 -1 0 0 0.70711 0.70711 -0 0 -1 0 -0.88523 -0.46516 0 0.67491 -0.7379 0 0.93534 -0.35374 0 0.93534 0.35374 -0 0.67491 0.7379 -0 -0.88523 0.46516 -0 -0.88523 0.46516 0 0 1 -0 0.70711 -0.70711 0 -0.46516 0.88523 0 -0.46516 0.88523 -0 -0.7379 -0.67491 0 -0.7379 -0.67491 0 -0.35374 -0.93534 0 -0.35374 -0.93534 0 0.35374 -0.93534 0 0.35374 -0.93534 0 0.7379 -0.67491 0 0.7379 -0.67491 0 0.46516 0.88523 -0 0.46516 0.88523 0 -0.70711 -0.70711 0 0.88523 0.46516 -0 0.88523 0.46516 0 -0.67491 0.7379 0 -0.67491 0.7379 -0 -0.93534 0.35374 0 -0.93534 0.35374 0 -0.93534 -0.35374 0 -0.93534 -0.35374 -0 -0.67491 -0.7379 0 0.88523 -0.46516 0 0 -1 0 -0 0 -1 -0.35374 -0.93534 0 0.35374 -0.93534 0 -0.70711 0 0.70711 0.46516 0 -0.88523 0.46516 0 -0.88523 0.7379 0 0.67491 0.7379 -0 0.67491 0.35374 -0 0.93534 0.35374 0 0.93534 -0.35374 0 0.93534 -0.35374 -0 0.93534 -0.7379 -0 0.67491 -0.7379 0 0.67491 -0.46516 -0 -0.88523 -0.46516 0 -0.88523 0.70711 0 0.70711 0 0 -1 -0.88523 -0 -0.46516 -0.88523 0 -0.46516 0.67491 0 -0.7379 0.93534 0 -0.35374 0.93534 0 0.35374 0.67491 -0 0.7379 0.67491 0 0.7379 -0.88523 -0 0.46516 -0.88523 -0 0.46516 0 -0 1 0.70711 0 -0.70711 0.70711 0 -0.70711 -0.46516 -0 0.88523 -0.46516 0 0.88523 -0.7379 -0 -0.67491 -0.7379 0 -0.67491 -0.35374 0 -0.93534 -0.35374 0 -0.93534 0.35374 0 -0.93534 0.35374 0 -0.93534 0.7379 0 -0.67491 0.7379 0 -0.67491 0.46516 0 0.88523 0.46516 -0 0.88523 -0.70711 0 -0.70711 -0.70711 0 -0.70711 0.88523 -0 0.46516 0.88523 -0 0.46516 -0.67491 0 0.7379 -0.67491 -0 0.7379 -0.93534 0 0.35374 -0.93534 -0 -0.35374 -0.67491 -0 -0.7379 0.88523 0 -0.46516 0.88523 0 -0.46516 -0.70711 -0 0.70711 -0.70711 -0 0.70711 0 -0 1 0.46516 0 -0.88523 0.46516 0 -0.88523 0.7379 -0 0.67491 0.35374 -0 0.93534 0.35374 -0 0.93534 -0.35374 -0 0.93534 -0.35374 -0 0.93534 -0.7379 -0 0.67491 -0.7379 -0 0.67491 -0.46516 0 -0.88523 -0.46516 0 -0.88523 0.70711 -0 0.70711 0.70711 -0 0.70711 0 0 -1 -0.88523 0 -0.46516 -0.88523 0 -0.46516 0.67491 0 -0.7379 0.67491 0 -0.7379 0.93534 0 -0.35374 0.93534 -0 0.35374 0.67491 -0 0.7379 0.67491 -0 0.7379 -0.88523 -0 0.46516 -0.88523 -0 0.46516 0.70711 0 -0.70711 0.70711 0 -0.70711 -0.46516 -0 0.88523 -0.46516 -0 0.88523 -0.7379 0 -0.67491 -0.35374 0 -0.93534 -0.35374 0 -0.93534 0.35374 0 -0.93534 0.35374 0 -0.93534 0.7379 0 -0.67491 0.46516 -0 0.88523 0.46516 -0 0.88523 -0.70711 0 -0.70711 -0.70711 0 -0.70711 0.88523 -0 0.46516 0.88523 -0 0.46516 -0.67491 -0 0.7379 -0.67491 -0 0.7379 -0.93534 -0 0.35374 -0.93534 0 -0.35374 -0.67491 0 -0.7379 -0.67491 0 -0.7379 0.88523 0 -0.46516 0.88523 0 -0.46516 0 0.70711 0.70711 -0 0 -1 -0 -0.88523 -0.46516 -0 -0.88523 -0.46516 -0 0.67491 -0.7379 -0 0.67491 -0.7379 -0 0.93534 -0.35374 -0 0.93534 -0.35374 0 0.93534 0.35374 0 0.93534 0.35374 0 0.67491 0.7379 0 0.67491 0.7379 0 -0.88523 0.46516 0 -0.88523 0.46516 0 0 1 -0 0.70711 -0.70711 -0 0 -1 0 -0.46516 0.88523 0 -0.46516 0.88523 -0 -0.7379 -0.67491 -0 -0.35374 -0.93534 -0 -0.35374 -0.93534 -0 0.35374 -0.93534 -0 0.35374 -0.93534 -0 0.7379 -0.67491 0 0.46516 0.88523 0 0.46516 0.88523 -0 -0.70711 -0.70711 0 0.88523 0.46516 0 0.88523 0.46516 0 -0.67491 0.7379 0 -0.67491 0.7379 0 -0.93534 0.35374 -0 -0.93534 -0.35374 -0 -0.67491 -0.7379 -0 -0.67491 -0.7379 -0 0.88523 -0.46516 -0 0.88523 -0.46516 0 -0.70711 0.70711 0 -0.70711 0.70711 0 0 1 -0 0.46516 -0.88523 -0 0.46516 -0.88523 0 0.7379 0.67491 0 0.35374 0.93534 0 0.35374 0.93534 0 -0.35374 0.93534 0 -0.35374 0.93534 0 -0.7379 0.67491 -0 -0.46516 -0.88523 -0 -0.46516 -0.88523 0 -0.88523 0.46516 -0 -0.35374 -0.93534 0 0.35374 0.93534 0 0.35374 0.93534 0 -0.35374 0.93534</float_array>
          <technique_common>
            <accessor source="#norm_0-array" count="624" stride="3">
              <param name="X" type="float"/>
              <param name="Y" type="float"/>
              <param name="Z" type="float"/>
            </accessor>
          </technique_common>
        </source>
        <vertices id="vert_0">
          <input semantic="POSITION" source="#pos_0"/>
        </vertices>
        <triangles count="1031">
          <input semantic="VERTEX" source="#vert_0" offset="0"/>
          <input semantic="NORMAL" source="#norm_0" offset="1"/>
          <p>2 0 1 0 3 0 2 0 3 0 4 0 4 0 3 0 5 0 5 0 3 0 6 0 0 0 7 0 1 0 3 0 1 0 8 0 8 0 1 0 9 0 8 0 9 0 10 0 10 0 9 0 11 0 10 0 11 0 12 0 12 0 11 0 13 0 12 0 13 0 14 0 14 0 13 0 15 0 14 0 15 0 16 0 16 0 15 0 17 0 16 0 17 0 18 0 18 0 17 0 19 0 19 0 17 0 20 0 20 0 17 0 21 0 11 0 22 0 13 0 13 0 22 0 23 0 23 0 22 0 24 0 23 0 24 0 25 0 25 0 24 0 26 0 25 0 26 0 27 0 28 0 29 0 24 0 24 0 29 0 26 0 27 0 30 0 25 0 25 0 30 0 31 0 18 0 32 0 16 0 16 0 32 0 33 0 12 0 34 0 10 0 10 0 34 0 35 0 35 0 34 0 36 0 35 0 36 0 37 0 37 0 36 0 38 0 37 0 38 0 39 0 40 0 41 0 36 0 36 0 41 0 38 0 39 0 42 0 37 0 37 0 42 0 43 0 44 1 45 1 4 1 4 1 45 1 2 1 46 2 44 2 5 2 5 2 44 2 4 2 47 3 46 3 6 3 6 3 46 3 5 3 48 4 47 4 3 4 3 4 47 4 6 4 49 5 48 5 8 5 8 5 48 5 3 5 50 6 49 6 10 6 10 7 49 7 8 7 51 8 50 8 35 8 35 9 50 9 10 9 52 10 51 10 37 10 37 10 51 10 35 10 53 11 52 11 43 11 43 11 52 11 37 11 54 12 53 12 42 12 42 12 53 12 43 12 55 2 54 2 39 2 39 2 54 2 42 2 56 13 55 13 38 13 38 13 55 13 39 13 57 3 56 3 41 3 41 3 56 3 38 3 58 14 57 14 40 14 40 14 57 14 41 14 59 15 58 15 36 15 36 15 58 15 40 15 60 16 59 16 34 16 34 16 59 16 36 16 61 17 60 17 12 17 12 17 60 17 34 17 62 18 61 18 14 18 14 18 61 18 12 18 63 19 62 19 16 19 16 19 62 19 14 19 64 20 63 20 33 20 33 21 63 21 16 21 65 22 64 22 32 22 32 22 64 22 33 22 66 3 65 3 18 3 18 3 65 3 32 3 67 23 66 23 19 23 19 23 66 23 18 23 68 14 67 14 20 14 20 14 67 14 19 14 69 12 68 12 21 12 21 12 68 12 20 12 70 24 69 24 17 24 17 25 69 25 21 25 71 26 70 26 15 26 15 27 70 27 17 27 72 28 71 28 13 28 13 29 71 29 15 29 73 30 72 30 23 30 23 31 72 31 13 31 74 32 73 32 25 32 25 33 73 33 23 33 75 34 74 34 31 34 31 35 74 35 25 35 76 3 75 3 30 3 30 3 75 3 31 3 77 14 76 14 27 14 27 14 76 14 30 14 78 36 77 36 26 36 26 36 77 36 27 36 79 12 78 12 29 12 29 12 78 12 26 12 80 2 79 2 28 2 28 2 79 2 29 2 81 37 80 37 24 37 24 38 80 38 28 38 82 39 81 39 22 39 22 40 81 40 24 40 83 41 82 41 11 41 11 42 82 42 22 42 84 43 83 43 9 43 9 44 83 44 11 44 85 45 84 45 1 45 1 45 84 45 9 45 86 46 85 46 7 46 7 46 85 46 1 46 87 47 86 47 0 47 0 47 86 47 7 47 45 12 87 12 2 12 2 12 87 12 0 12 86 48 87 48 85 48 85 48 87 48 45 48 85 48 45 48 48 48 48 48 45 48 44 48 48 48 44 48 46 48 46 48 47 48 48 48 48 48 49 48 85 48 85 48 49 48 84 48 84 48 49 48 50 48 84 48 50 48 83 48 83 48 50 48 61 48 83 48 61 48 72 48 72 48 61 48 62 48 72 48 62 48 71 48 71 48 62 48 63 48 71 48 63 48 70 48 70 48 63 48 66 48 70 48 66 48 67 48 61 48 50 48 60 48 60 48 50 48 51 48 60 48 51 48 59 48 59 48 51 48 52 48 59 48 52 48 56 48 56 48 52 48 55 48 55 48 52 48 54 48 54 48 52 48 53 48 56 48 57 48 59 48 59 48 57 48 58 48 64 48 65 48 63 48 63 48 65 48 66 48 67 48 68 48 70 48 70 48 68 48 69 48 83 48 72 48 82 48 82 48 72 48 73 48 82 48 73 48 81 48 81 48 73 48 74 48 81 48 74 48 78 48 78 48 74 48 77 48 77 48 74 48 76 48 76 48 74 48 75 48 78 48 79 48 81 48 81 48 79 48 80 48 88 0 89 0 90 0 90 0 89 0 91 0 90 0 91 0 92 0 92 0 91 0 93 0 93 0 91 0 94 0 88 0 95 0 89 0 91 0 89 0 96 0 96 0 89 0 97 0 96 0 97 0 98 0 98 0 97 0 99 0 98 0 99 0 100 0 100 0 99 0 101 0 100 0 101 0 102 0 102 0 101 0 103 0 102 0 103 0 104 0 104 0 103 0 105 0 104 0 105 0 106 0 106 0 105 0 107 0 107 0 105 0 108 0 108 0 105 0 109 0 99 0 110 0 101 0 101 0 110 0 111 0 111 0 110 0 112 0 111 0 112 0 113 0 113 0 112 0 114 0 113 0 114 0 115 0 116 0 117 0 112 0 112 0 117 0 114 0 115 0 118 0 113 0 113 0 118 0 119 0 106 0 120 0 104 0 104 0 120 0 121 0 100 0 122 0 98 0 98 0 122 0 123 0 123 0 122 0 124 0 123 0 124 0 125 0 125 0 124 0 126 0 125 0 126 0 127 0 128 0 129 0 124 0 124 0 129 0 126 0 127 0 130 0 125 0 125 0 130 0 131 0 132 1 133 1 92 1 92 1 133 1 90 1 134 2 132 2 93 2 93 2 132 2 92 2 135 3 134 3 94 3 94 3 134 3 93 3 136 4 135 4 91 4 91 4 135 4 94 4 137 5 136 5 96 5 96 5 136 5 91 5 138 7 137 7 98 7 98 7 137 7 96 7 139 8 138 8 123 8 123 8 138 8 98 8 140 10 139 10 125 10 125 10 139 10 123 10 141 11 140 11 131 11 131 11 140 11 125 11 142 12 141 12 130 12 130 12 141 12 131 12 143 2 142 2 127 2 127 2 142 2 130 2 144 13 143 13 126 13 126 13 143 13 127 13 145 3 144 3 129 3 129 3 144 3 126 3 146 14 145 14 128 14 128 14 145 14 129 14 147 15 146 15 124 15 124 15 146 15 128 15 148 16 147 16 122 16 122 16 147 16 124 16 149 17 148 17 100 17 100 17 148 17 122 17 150 18 149 18 102 18 102 18 149 18 100 18 151 19 150 19 104 19 104 19 150 19 102 19 152 21 151 21 121 21 121 21 151 21 104 21 153 2 152 2 120 2 120 2 152 2 121 2 154 3 153 3 106 3 106 3 153 3 120 3 155 23 154 23 107 23 107 23 154 23 106 23 156 14 155 14 108 14 108 14 155 14 107 14 157 12 156 12 109 12 109 12 156 12 108 12 158 24 157 24 105 24 105 24 157 24 109 24 159 27 158 27 103 27 103 27 158 27 105 27 160 49 159 49 101 49 101 49 159 49 103 49 161 30 160 30 111 30 111 50 160 50 101 50 162 32 161 32 113 32 113 33 161 33 111 33 163 35 162 35 119 35 119 35 162 35 113 35 164 3 163 3 118 3 118 3 163 3 119 3 165 14 164 14 115 14 115 14 164 14 118 14 166 36 165 36 114 36 114 36 165 36 115 36 167 12 166 12 117 12 117 12 166 12 114 12 168 2 167 2 116 2 116 2 167 2 117 2 169 38 168 38 112 38 112 38 168 38 116 38 170 39 169 39 110 39 110 39 169 39 112 39 171 42 170 42 99 42 99 42 170 42 110 42 172 43 171 43 97 43 97 43 171 43 99 43 173 45 172 45 89 45 89 45 172 45 97 45 174 46 173 46 95 46 95 46 173 46 89 46 175 14 174 14 88 14 88 14 174 14 95 14 133 12 175 12 90 12 90 12 175 12 88 12 174 48 175 48 173 48 173 48 175 48 133 48 173 48 133 48 136 48 136 48 133 48 132 48 136 48 132 48 134 48 134 48 135 48 136 48 136 48 137 48 173 48 173 48 137 48 172 48 172 48 137 48 138 48 172 48 138 48 171 48 171 48 138 48 149 48 171 48 149 48 160 48 160 48 149 48 150 48 160 48 150 48 159 48 159 48 150 48 151 48 159 48 151 48 158 48 158 48 151 48 154 48 158 48 154 48 155 48 149 48 138 48 148 48 148 48 138 48 139 48 148 48 139 48 147 48 147 48 139 48 140 48 147 48 140 48 144 48 144 48 140 48 143 48 143 48 140 48 142 48 142 48 140 48 141 48 144 48 145 48 147 48 147 48 145 48 146 48 152 48 153 48 151 48 151 48 153 48 154 48 155 48 156 48 158 48 158 48 156 48 157 48 171 48 160 48 170 48 170 48 160 48 161 48 170 48 161 48 169 48 169 48 161 48 162 48 169 48 162 48 166 48 166 48 162 48 165 48 165 48 162 48 164 48 164 48 162 48 163 48 166 48 167 48 169 48 169 48 167 48 168 48 176 14 177 14 178 14 178 14 177 14 179 14 178 14 179 14 180 14 180 14 179 14 181 14 181 14 179 14 182 14 176 14 183 14 177 14 179 14 177 14 184 14 184 14 177 14 185 14 184 14 185 14 186 14 186 14 185 14 187 14 186 14 187 14 188 14 188 14 187 14 189 14 188 14 189 14 190 14 190 14 189 14 191 14 190 14 191 14 192 14 192 14 191 14 193 14 192 14 193 14 194 14 194 14 193 14 195 14 195 14 193 14 196 14 196 14 193 14 197 14 187 14 198 14 189 14 189 14 198 14 199 14 199 14 198 14 200 14 199 14 200 14 201 14 201 14 200 14 202 14 201 14 202 14 203 14 204 14 205 14 200 14 200 14 205 14 202 14 203 14 206 14 201 14 201 14 206 14 207 14 194 14 208 14 192 14 192 14 208 14 209 14 188 14 210 14 186 14 186 14 210 14 211 14 211 14 210 14 212 14 211 14 212 14 213 14 213 14 212 14 214 14 213 14 214 14 215 14 216 14 217 14 212 14 212 14 217 14 214 14 215 14 218 14 213 14 213 14 218 14 219 14 220 51 221 51 180 51 180 51 221 51 178 51 222 0 220 0 181 0 181 0 220 0 180 0 223 3 222 3 182 3 182 3 222 3 181 3 224 52 223 52 179 52 179 53 223 53 182 53 225 54 224 54 184 54 184 55 224 55 179 55 226 56 225 56 186 56 186 57 225 57 184 57 227 58 226 58 211 58 211 59 226 59 186 59 228 60 227 60 213 60 213 61 227 61 211 61 229 62 228 62 219 62 219 63 228 63 213 63 230 12 229 12 218 12 218 12 229 12 219 12 231 0 230 0 215 0 215 0 230 0 218 0 232 64 231 64 214 64 214 64 231 64 215 64 233 3 232 3 217 3 217 3 232 3 214 3 234 65 233 65 216 65 216 65 233 65 217 65 235 66 234 66 212 66 212 67 234 67 216 67 236 68 235 68 210 68 210 68 235 68 212 68 237 69 236 69 188 69 188 69 236 69 210 69 238 70 237 70 190 70 190 70 237 70 188 70 239 71 238 71 192 71 192 72 238 72 190 72 240 73 239 73 209 73 209 74 239 74 192 74 241 75 240 75 208 75 208 75 240 75 209 75 242 3 241 3 194 3 194 3 241 3 208 3 243 76 242 76 195 76 195 77 242 77 194 77 244 48 243 48 196 48 196 48 243 48 195 48 245 12 244 12 197 12 197 12 244 12 196 12 246 78 245 78 193 78 193 79 245 79 197 79 247 80 246 80 191 80 191 81 246 81 193 81 248 82 247 82 189 82 189 83 247 83 191 83 249 84 248 84 199 84 199 85 248 85 189 85 250 86 249 86 201 86 201 87 249 87 199 87 251 88 250 88 207 88 207 89 250 89 201 89 252 3 251 3 206 3 206 3 251 3 207 3 253 48 252 48 203 48 203 48 252 48 206 48 254 90 253 90 202 90 202 91 253 91 203 91 255 12 254 12 205 12 205 12 254 12 202 12 256 75 255 75 204 75 204 75 255 75 205 75 257 92 256 92 200 92 200 93 256 93 204 93 258 94 257 94 198 94 198 95 257 95 200 95 259 96 258 96 187 96 187 96 258 96 198 96 260 97 259 97 185 97 185 97 259 97 187 97 261 98 260 98 177 98 177 98 260 98 185 98 262 99 261 99 183 99 183 100 261 100 177 100 263 65 262 65 176 65 176 65 262 65 183 65 221 12 263 12 178 12 178 12 263 12 176 12 262 2 263 2 261 2 261 2 263 2 221 2 261 2 221 2 224 2 224 2 221 2 220 2 224 2 220 2 222 2 222 2 223 2 224 2 224 2 225 2 261 2 261 2 225 2 260 2 260 2 225 2 226 2 260 2 226 2 259 2 259 2 226 2 237 2 259 2 237 2 248 2 248 2 237 2 238 2 248 2 238 2 247 2 247 2 238 2 239 2 247 2 239 2 246 2 246 2 239 2 242 2 246 2 242 2 243 2 237 2 226 2 236 2 236 2 226 2 227 2 236 2 227 2 235 2 235 2 227 2 228 2 235 2 228 2 232 2 232 2 228 2 231 2 231 2 228 2 230 2 230 2 228 2 229 2 232 2 233 2 235 2 235 2 233 2 234 2 240 2 241 2 239 2 239 2 241 2 242 2 243 2 244 2 246 2 246 2 244 2 245 2 259 2 248 2 258 2 258 2 248 2 249 2 258 2 249 2 257 2 257 2 249 2 250 2 257 2 250 2 254 2 254 2 250 2 253 2 253 2 250 2 252 2 252 2 250 2 251 2 254 2 255 2 257 2 257 2 255 2 256 2 264 14 265 14 266 14 266 14 265 14 267 14 266 14 267 14 268 14 268 14 267 14 269 14 269 14 267 14 270 14 264 14 271 14 265 14 267 14 265 14 272 14 272 14 265 14 273 14 272 14 273 14 274 14 274 14 273 14 275 14 274 14 275 14 276 14 276 14 275 14 277 14 276 14 277 14 278 14 278 14 277 14 279 14 278 14 279 14 280 14 280 14 279 14 281 14 280 14 281 14 282 14 282 14 281 14 283 14 283 14 281 14 284 14 284 14 281 14 285 14 275 14 286 14 277 14 277 14 286 14 287 14 287 14 286 14 288 14 287 14 288 14 289 14 289 14 288 14 290 14 289 14 290 14 291 14 292 14 293 14 288 14 288 14 293 14 290 14 291 14 294 14 289 14 289 14 294 14 295 14 282 14 296 14 280 14 280 14 296 14 297 14 276 14 298 14 274 14 274 14 298 14 299 14 299 14 298 14 300 14 299 14 300 14 301 14 301 14 300 14 302 14 301 14 302 14 303 14 304 14 305 14 300 14 300 14 305 14 302 14 303 14 306 14 301 14 301 14 306 14 307 14 308 101 309 101 268 101 268 102 309 102 266 102 310 103 308 103 269 103 269 103 308 103 268 103 311 3 310 3 270 3 270 3 310 3 269 3 312 104 311 104 267 104 267 105 311 105 270 105 313 106 312 106 272 106 272 106 312 106 267 106 314 107 313 107 274 107 274 108 313 108 272 108 315 109 314 109 299 109 299 110 314 110 274 110 316 111 315 111 301 111 301 112 315 112 299 112 317 113 316 113 307 113 307 114 316 114 301 114 318 12 317 12 306 12 306 12 317 12 307 12 319 103 318 103 303 103 303 103 318 103 306 103 320 115 319 115 302 115 302 116 319 116 303 116 321 3 320 3 305 3 305 3 320 3 302 3 322 117 321 117 304 117 304 117 321 117 305 117 323 118 322 118 300 118 300 119 322 119 304 119 324 120 323 120 298 120 298 121 323 121 300 121 325 122 324 122 276 122 276 122 324 122 298 122 326 123 325 123 278 123 278 123 325 123 276 123 327 124 326 124 280 124 280 125 326 125 278 125 328 126 327 126 297 126 297 127 327 127 280 127 329 103 328 103 296 103 296 103 328 103 297 103 330 3 329 3 282 3 282 3 329 3 296 3 331 128 330 128 283 128 283 129 330 129 282 129 332 117 331 117 284 117 284 117 331 117 283 117 333 12 332 12 285 12 285 12 332 12 284 12 334 130 333 130 281 130 281 131 333 131 285 131 335 132 334 132 279 132 279 132 334 132 281 132 336 133 335 133 277 133 277 134 335 134 279 134 337 135 336 135 287 135 287 136 336 136 277 136 338 137 337 137 289 137 289 137 337 137 287 137 339 138 338 138 295 138 295 139 338 139 289 139 340 3 339 3 294 3 294 3 339 3 295 3 341 117 340 117 291 117 291 117 340 117 294 117 342 140 341 140 290 140 290 141 341 141 291 141 343 12 342 12 293 12 293 12 342 12 290 12 344 103 343 103 292 103 292 103 343 103 293 103 345 142 344 142 288 142 288 143 344 143 292 143 346 144 345 144 286 144 286 145 345 145 288 145 347 146 346 146 275 146 275 146 346 146 286 146 348 147 347 147 273 147 273 147 347 147 275 147 349 148 348 148 265 148 265 149 348 149 273 149 350 150 349 150 271 150 271 151 349 151 265 151 351 117 350 117 264 117 264 117 350 117 271 117 309 12 351 12 266 12 266 12 351 12 264 12 350 2 351 2 349 2 349 2 351 2 309 2 349 2 309 2 312 2 312 2 309 2 308 2 312 2 308 2 310 2 310 2 311 2 312 2 312 2 313 2 349 2 349 2 313 2 348 2 348 2 313 2 314 2 348 2 314 2 347 2 347 2 314 2 325 2 347 2 325 2 336 2 336 2 325 2 326 2 336 2 326 2 335 2 335 2 326 2 327 2 335 2 327 2 334 2 334 2 327 2 330 2 334 2 330 2 331 2 325 2 314 2 324 2 324 2 314 2 315 2 324 2 315 2 323 2 323 2 315 2 316 2 323 2 316 2 320 2 320 2 316 2 319 2 319 2 316 2 318 2 318 2 316 2 317 2 320 2 321 2 323 2 323 2 321 2 322 2 328 2 329 2 327 2 327 2 329 2 330 2 331 2 332 2 334 2 334 2 332 2 333 2 347 2 336 2 346 2 346 2 336 2 337 2 346 2 337 2 345 2 345 2 337 2 338 2 345 2 338 2 342 2 342 2 338 2 341 2 341 2 338 2 340 2 340 2 338 2 339 2 342 2 343 2 345 2 345 2 343 2 344 2 352 3 353 3 354 3 354 3 353 3 355 3 354 3 355 3 356 3 356 3 355 3 357 3 357 3 355 3 358 3 352 3 359 3 353 3 355 3 353 3 360 3 360 3 353 3 361 3 360 3 361 3 362 3 362 3 361 3 363 3 362 3 363 3 364 3 364 3 363 3 365 3 364 3 365 3 366 3 366 3 365 3 367 3 366 3 367 3 368 3 368 3 367 3 369 3 368 3 369 3 370 3 370 3 369 3 371 3 371 3 369 3 372 3 372 3 369 3 373 3 363 3 374 3 365 3 365 3 374 3 375 3 375 3 374 3 376 3 375 3 376 3 377 3 377 3 376 3 378 3 377 3 378 3 379 3 380 3 381 3 376 3 376 3 381 3 378 3 379 3 382 3 377 3 377 3 382 3 383 3 370 3 384 3 368 3 368 3 384 3 385 3 364 3 386 3 362 3 362 3 386 3 387 3 387 3 386 3 388 3 387 3 388 3 389 3 389 3 388 3 390 3 389 3 390 3 391 3 392 3 393 3 388 3 388 3 393 3 390 3 391 3 394 3 389 3 389 3 394 3 395 3 396 152 397 152 356 152 356 152 397 152 354 152 398 2 396 2 357 2 357 2 396 2 356 2 399 153 398 153 358 153 358 153 398 153 357 153 400 154 399 154 355 154 355 155 399 155 358 155 401 156 400 156 360 156 360 157 400 157 355 157 402 158 401 158 362 158 362 159 401 159 360 159 403 160 402 160 387 160 387 161 402 161 362 161 404 162 403 162 389 162 389 163 403 163 387 163 405 164 404 164 395 164 395 165 404 165 389 165 406 166 405 166 394 166 394 166 405 166 395 166 407 2 406 2 391 2 391 2 406 2 394 2 408 167 407 167 390 167 390 167 407 167 391 167 409 168 408 168 393 168 393 168 408 168 390 168 410 14 409 14 392 14 392 14 409 14 393 14 411 169 410 169 388 169 388 170 410 170 392 170 412 171 411 171 386 171 386 171 411 171 388 171 413 172 412 172 364 172 364 173 412 173 386 173 414 174 413 174 366 174 366 175 413 175 364 175 415 176 414 176 368 176 368 176 414 176 366 176 416 177 415 177 385 177 385 178 415 178 368 178 417 2 416 2 384 2 384 2 416 2 385 2 418 168 417 168 370 168 370 168 417 168 384 168 419 179 418 179 371 179 371 179 418 179 370 179 420 14 419 14 372 14 372 14 419 14 371 14 421 166 420 166 373 166 373 166 420 166 372 166 422 180 421 180 369 180 369 181 421 181 373 181 423 182 422 182 367 182 367 183 422 183 369 183 424 184 423 184 365 184 365 184 423 184 367 184 425 185 424 185 375 185 375 185 424 185 365 185 426 186 425 186 377 186 377 187 425 187 375 187 427 188 426 188 383 188 383 189 426 189 377 189 428 153 427 153 382 153 382 153 427 153 383 153 429 14 428 14 379 14 379 14 428 14 382 14 430 190 429 190 378 190 378 191 429 191 379 191 431 192 430 192 381 192 381 192 430 192 378 192 432 2 431 2 380 2 380 2 431 2 381 2 433 193 432 193 376 193 376 194 432 194 380 194 434 195 433 195 374 195 374 195 433 195 376 195 435 196 434 196 363 196 363 197 434 197 374 197 436 198 435 198 361 198 361 199 435 199 363 199 437 200 436 200 353 200 353 200 436 200 361 200 438 201 437 201 359 201 359 202 437 202 353 202 439 14 438 14 352 14 352 14 438 14 359 14 397 192 439 192 354 192 354 192 439 192 352 192 438 12 439 12 437 12 437 12 439 12 397 12 437 12 397 12 400 12 400 12 397 12 396 12 400 12 396 12 398 12 398 12 399 12 400 12 400 12 401 12 437 12 437 12 401 12 436 12 436 12 401 12 402 12 436 12 402 12 435 12 435 12 402 12 413 12 435 12 413 12 424 12 424 12 413 12 414 12 424 12 414 12 423 12 423 12 414 12 415 12 423 12 415 12 422 12 422 12 415 12 418 12 422 12 418 12 419 12 413 12 402 12 412 12 412 12 402 12 403 12 412 12 403 12 411 12 411 12 403 12 404 12 411 12 404 12 408 12 408 12 404 12 407 12 407 12 404 12 406 12 406 12 404 12 405 12 408 12 409 12 411 12 411 12 409 12 410 12 416 12 417 12 415 12 415 12 417 12 418 12 419 12 420 12 422 12 422 12 420 12 421 12 435 12 424 12 434 12 434 12 424 12 425 12 434 12 425 12 433 12 433 12 425 12 426 12 433 12 426 12 430 12 430 12 426 12 429 12 429 12 426 12 428 12 428 12 426 12 427 12 430 12 431 12 433 12 433 12 431 12 432 12 440 3 441 3 442 3 442 3 441 3 443 3 442 3 443 3 444 3 444 3 443 3 445 3 445 3 443 3 446 3 440 3 447 3 441 3 443 3 441 3 448 3 448 3 441 3 449 3 448 3 449 3 450 3 450 3 449 3 451 3 450 3 451 3 452 3 452 3 451 3 453 3 452 3 453 3 454 3 454 3 453 3 455 3 454 3 455 3 456 3 456 3 455 3 457 3 456 3 457 3 458 3 458 3 457 3 459 3 459 3 457 3 460 3 460 3 457 3 461 3 451 3 462 3 453 3 453 3 462 3 463 3 463 3 462 3 464 3 463 3 464 3 465 3 465 3 464 3 466 3 465 3 466 3 467 3 468 3 469 3 464 3 464 3 469 3 466 3 467 3 470 3 465 3 465 3 470 3 471 3 458 3 472 3 456 3 456 3 472 3 473 3 452 3 474 3 450 3 450 3 474 3 475 3 475 3 474 3 476 3 475 3 476 3 477 3 477 3 476 3 478 3 477 3 478 3 479 3 480 3 481 3 476 3 476 3 481 3 478 3 479 3 482 3 477 3 477 3 482 3 483 3 484 152 485 152 444 152 444 152 485 152 442 152 486 2 484 2 445 2 445 2 484 2 444 2 487 153 486 153 446 153 446 153 486 153 445 153 488 154 487 154 443 154 443 155 487 155 446 155 489 156 488 156 448 156 448 157 488 157 443 157 490 159 489 159 450 159 450 159 489 159 448 159 491 160 490 160 475 160 475 160 490 160 450 160 492 162 491 162 477 162 477 163 491 163 475 163 493 164 492 164 483 164 483 203 492 203 477 203 494 166 493 166 482 166 482 166 493 166 483 166 495 2 494 2 479 2 479 2 494 2 482 2 496 167 495 167 478 167 478 167 495 167 479 167 497 168 496 168 481 168 481 168 496 168 478 168 498 14 497 14 480 14 480 14 497 14 481 14 499 169 498 169 476 169 476 170 498 170 480 170 500 171 499 171 474 171 474 171 499 171 476 171 501 172 500 172 452 172 452 204 500 204 474 204 502 174 501 174 454 174 454 175 501 175 452 175 503 176 502 176 456 176 456 176 502 176 454 176 504 177 503 177 473 177 473 178 503 178 456 178 505 2 504 2 472 2 472 2 504 2 473 2 506 168 505 168 458 168 458 168 505 168 472 168 507 179 506 179 459 179 459 179 506 179 458 179 508 14 507 14 460 14 460 14 507 14 459 14 509 166 508 166 461 166 461 166 508 166 460 166 510 180 509 180 457 180 457 181 509 181 461 181 511 182 510 182 455 182 455 183 510 183 457 183 512 184 511 184 453 184 453 184 511 184 455 184 513 185 512 185 463 185 463 185 512 185 453 185 514 186 513 186 465 186 465 187 513 187 463 187 515 188 514 188 471 188 471 189 514 189 465 189 516 153 515 153 470 153 470 153 515 153 471 153 517 14 516 14 467 14 467 14 516 14 470 14 518 191 517 191 466 191 466 191 517 191 467 191 519 192 518 192 469 192 469 192 518 192 466 192 520 2 519 2 468 2 468 2 519 2 469 2 521 193 520 193 464 193 464 194 520 194 468 194 522 195 521 195 462 195 462 195 521 195 464 195 523 205 522 205 451 205 451 206 522 206 462 206 524 198 523 198 449 198 449 207 523 207 451 207 525 200 524 200 441 200 441 200 524 200 449 200 526 201 525 201 447 201 447 202 525 202 441 202 527 14 526 14 440 14 440 14 526 14 447 14 485 192 527 192 442 192 442 192 527 192 440 192 526 12 527 12 525 12 525 12 527 12 485 12 525 12 485 12 488 12 488 12 485 12 484 12 488 12 484 12 486 12 486 12 487 12 488 12 488 12 489 12 525 12 525 12 489 12 524 12 524 12 489 12 490 12 524 12 490 12 523 12 523 12 490 12 501 12 523 12 501 12 512 12 512 12 501 12 502 12 512 12 502 12 511 12 511 12 502 12 503 12 511 12 503 12 510 12 510 12 503 12 506 12 510 12 506 12 507 12 501 12 490 12 500 12 500 12 490 12 491 12 500 12 491 12 499 12 499 12 491 12 492 12 499 12 492 12 496 12 496 12 492 12 495 12 495 12 492 12 494 12 494 12 492 12 493 12 496 12 497 12 499 12 499 12 497 12 498 12 504 12 505 12 503 12 503 12 505 12 506 12 507 12 508 12 510 12 510 12 508 12 509 12 523 12 512 12 522 12 522 12 512 12 513 12 522 12 513 12 521 12 521 12 513 12 514 12 521 12 514 12 518 12 518 12 514 12 517 12 517 12 514 12 516 12 516 12 514 12 515 12 518 12 519 12 521 12 521 12 519 12 520 12</p>
        </triangles>
        <triangles count="1" material="mat_1">
          <input semantic="VERTEX" source="#vert_0" offset="0"/>
          <input semantic="NORMAL" source="#norm_0" offset="1"/>
          <p>0 0 1 0 2 0</p>
        </triangles>
      </mesh>
    </geometry>
  </library_geometries>
  <library_visual_scenes>
    <visual_scene id="DefaultScene">
      <node id="node_f4de7975_1622_4a93_87fe_1f08bc5b1431" type="NODE">
        <matrix>1 0 0 0 0 1 0 0 0 0 1 0 0 0 0 1</matrix>
        <node id="node_41a552c1_0279_431e_8dbb_e42c3c1430e8" type="NODE">
          <matrix>1 0 0 0 0 1 0 0 0 0 1 0 0 0 0 1</matrix>
          <node id="node_41a552c1_0279_431e_8dbb_e42c3c1430e8_mesh0" type="NODE">
            <matrix>1 0 0 0 0 1 0 0 0 0 1 0 0 0 0 1</matrix>
            <instance_geometry url="#geometry_9eb029e9_7287_4c3d_b6fc_4ecd94c84925">
              <bind_material>
                <technique_common>
                  <instance_material symbol="mat_1" target="#mat_1"/>
                </technique_common>
              </bind_material>
            </instance_geometry>
          </node>
        </node>
      </node>
    </visual_scene>
  </library_visual_scenes>
  <scene>
    <instance_visual_scene url="#DefaultScene"/>
  </scene>
</COLLADA>
