<?xml version="1.0" encoding="UTF-8"?>
<COLLADA xmlns="http://www.collada.org/2005/11/COLLADASchema" version="1.4.1">
<!--
# File generated by ImageToStl.com - Free Image and 3D model conversion tools
-->
  <asset>
    <contributor>
      <author>ImageToStl.com</author>
      <authoring_tool>ImageToStl.com</authoring_tool>
    </contributor>
    <created>2026-07-29T02:58:51</created>
    <modified>2026-07-29T02:58:51</modified>
    <up_axis>Z_UP</up_axis>
  </asset>
  <library_effects>
    <effect id="effect_0">
        <profile_COMMON>
          <technique sid="common">
            <phong>
              <diffuse>
                <color>0.62745 0.62745 0.62745 1</color>
              </diffuse>
            </phong>
          </technique>
        </profile_COMMON>
    </effect>
    <effect id="effect_1">
        <profile_COMMON>
          <technique sid="common">
            <phong>
              <diffuse>
                <color>0.59608 0.59608 0.59608 1</color>
              </diffuse>
            </phong>
          </technique>
        </profile_COMMON>
    </effect>
  </library_effects>
  <library_materials>
    <material id="mat_0">
      <instance_effect url="#effect_0"/>
    </material>
    <material id="mat_1">
      <instance_effect url="#effect_1"/>
    </material>
  </library_materials>
  <library_geometries>
    <geometry id="geometry_8eea16aa_4be1_4773_a28e_70f52687cdd0">
      <mesh>
        <source id="pos_0">
          <float_array id="pos_0-array" count="3030">52.98834991 -6.92124987 -11.10999966 52.98834991 -9.22124958 -11.10999966 52.95141602 -6.92124987 -11.57930374 52.95141602 -9.22124958 -11.57930374 52.8415184 -6.92124987 -12.0370512 52.8415184 -9.22124958 -12.0370512 52.66136932 -6.92124987 -12.47197151 52.66136932 -9.22124958 -12.47197151 52.41540146 -6.92124987 -12.87335587 52.41540146 -9.22124958 -12.87335587 52.10966873 -6.92124987 -13.23132038 52.10966873 -9.22124958 -13.23132038 51.75170517 -6.92124987 -13.5370512 51.75170517 -9.22124958 -13.5370512 51.35032272 -6.92124987 -13.78302002 51.35032272 -9.22124958 -13.78302002 50.91540146 -6.92124987 -13.9631691 50.91540146 -9.22124958 -13.9631691 50.45765305 -6.92124987 -14.0730648 50.45765305 -9.22124958 -14.0730648 49.98834991 -6.92124987 -14.10999966 49.98834991 -9.22124958 -14.10999966 52.98834991 -6.92124987 -4.11000013 52.98834991 -6.92124987 3.8900001 52.98834991 -9.22124958 10.89000034 52.98834991 -6.92124987 10.89000034 52.98834991 3.42230773 -4.11000013 52.98834991 3.42230773 3.8900001 8.02528477 -6.92124987 -11.57930374 7.98834991 -6.92124987 -11.10999966 7.98834991 -6.92124987 -4.11000013 8.13518047 -6.92124987 -12.0370512 10.98834991 -6.92124987 -14.10999966 10.51904678 -6.92124987 -14.0730648 10.06129932 -6.92124987 -13.9631691 9.62637806 -6.92124987 -13.78302002 9.22499466 -6.92124987 -13.5370512 8.86702919 -6.92124987 -13.23132038 8.56129932 -6.92124987 -12.87335587 8.31533051 -6.92124987 -12.47197151 7.98834991 -9.22124958 -11.10999966 8.02528477 -9.22124958 -11.57930374 8.13518047 -9.22124958 -12.0370512 8.31533051 -9.22124958 -12.47197151 8.56129932 -9.22124958 -12.87335587 8.86702919 -9.22124958 -13.23132038 9.22499466 -9.22124958 -13.5370512 9.62637806 -9.22124958 -13.78302002 10.06129932 -9.22124958 -13.9631691 10.51904678 -9.22124958 -14.0730648 10.98834991 -9.22124958 -14.10999966 7.98834991 -6.92124987 3.8900001 7.98834991 -6.22125006 3.8900001 7.98834991 -9.22124958 10.89000034 7.98834991 -6.92124987 10.89000034 7.98834991 -6.22125006 -4.11000013 8.02528477 -6.92124987 11.35930347 8.02528477 -9.22124958 11.35930347 8.13518047 -6.92124987 11.81705093 8.13518047 -9.22124958 11.81705093 8.31533051 -6.92124987 12.25197124 8.31533051 -9.22124958 12.25197124 8.56129932 -6.92124987 12.6533556 8.56129932 -9.22124958 12.6533556 8.86702919 -6.92124987 13.01132011 8.86702919 -9.22124958 13.01132011 9.22499466 -6.92124987 13.31705093 9.22499466 -9.22124958 13.31705093 9.62637806 -6.92124987 13.56301975 9.62637806 -9.22124958 13.56301975 10.06129932 -6.92124987 13.74316978 10.06129932 -9.22124958 13.74316978 10.51904678 -6.92124987 13.85306549 10.51904678 -9.22124958 13.85306549 10.98834991 -6.92124987 13.89000034 10.98834991 -9.22124958 13.89000034 52.95141602 -6.92124987 11.35930347 52.8415184 -6.92124987 11.81705093 49.98834991 -6.92124987 13.89000034 50.45765305 -6.92124987 13.85306549 50.91540146 -6.92124987 13.74316978 51.35032272 -6.92124987 13.56301975 51.75170517 -6.92124987 13.31705093 52.10966873 -6.92124987 13.01132011 52.41540146 -6.92124987 12.6533556 52.66136932 -6.92124987 12.25197124 52.95141602 -9.22124958 11.35930347 52.8415184 -9.22124958 11.81705093 52.66136932 -9.22124958 12.25197124 52.41540146 -9.22124958 12.6533556 52.10966873 -9.22124958 13.01132011 51.75170517 -9.22124958 13.31705093 51.35032272 -9.22124958 13.56301975 50.91540146 -9.22124958 13.74316978 50.45765305 -9.22124958 13.85306549 49.98834991 -9.22124958 13.89000034 49.98834991 6.42230749 -4.11000013 49.98834991 6.42230749 3.8900001 50.45765305 6.38537264 -4.11000013 50.45765305 6.38537264 3.8900001 50.91540146 6.27547693 -4.11000013 50.91540146 6.27547693 3.8900001 51.35032272 6.09532738 -4.11000013 51.35032272 6.09532738 3.8900001 51.75170517 5.84935856 -4.11000013 51.75170517 5.84935856 3.8900001 52.10966873 5.54362774 -4.11000013 52.10966873 5.54362774 3.8900001 52.41540146 5.18566322 -4.11000013 52.41540146 5.18566322 3.8900001 52.66136932 4.78427935 -4.11000013 52.66136932 4.78427935 3.8900001 52.8415184 4.34935856 -4.11000013 52.8415184 4.34935856 3.8900001 52.95141602 3.8916111 -4.11000013 52.95141602 3.8916111 3.8900001 30.24716949 0.74467582 3.8900001 30.48834991 0.64477539 3.8900001 30.69545746 0.48585677 3.8900001 29.98834991 0.77875 3.8900001 7.98834991 6.42230749 3.8900001 7.98834991 0.77875 3.8900001 30.85437584 0.27875 3.8900001 30.95427513 0.03756905 3.8900001 30.98834991 -0.22125 3.8900001 30.98834991 -5.22125006 3.8900001 30.95427513 -5.48006916 3.8900001 30.85437584 -5.72125006 3.8900001 30.69545746 -5.92835665 3.8900001 30.48834991 -6.08727551 3.8900001 30.24716949 -6.18717575 3.8900001 29.98834991 -6.22125006 3.8900001 20.67753792 5.42230749 -0.65791208 20.63834953 5.42230749 -0.10999994 22.98834991 5.42230749 -0.10999994 20.67753792 5.42230749 0.4379122 23.02595901 5.42230749 0.22378147 20.79430199 5.42230749 0.97467041 23.13689613 5.42230749 0.54082566 20.98626709 5.42230749 1.48934782 21.24952316 5.42230749 1.97146726 23.31560326 5.42230749 0.82523477 21.57871437 5.42230749 2.41121387 23.55311584 5.42230749 1.06274724 21.96713638 5.42230749 2.79963589 22.40688324 5.42230749 3.12882614 23.83752441 5.42230749 1.24145341 22.88900185 5.42230749 3.39208317 23.40367889 5.42230749 3.58404803 24.15456772 5.42230749 1.35239196 23.94043732 5.42230749 3.70081258 24.48834991 5.42230749 1.3900001 24.48834991 5.42230749 3.74000001 25.03626251 5.42230749 3.70081258 24.82213211 5.42230749 1.35239196 25.57302094 5.42230749 3.58404803 25.13917542 5.42230749 1.24145341 26.08769798 5.42230749 3.39208317 26.56981659 5.42230749 3.12882614 25.42358398 5.42230749 1.06274724 27.00956345 5.42230749 2.79963589 27.39798546 5.42230749 2.41121387 25.66109657 5.42230749 0.82523477 27.72717667 5.42230749 1.97146726 25.8398037 5.42230749 0.54082566 27.99043274 5.42230749 1.48934782 28.18239784 5.42230749 0.97467041 25.95074272 5.42230749 0.22378147 28.29916191 5.42230749 0.4379122 25.98834991 5.42230749 -0.10999994 28.3383503 5.42230749 -0.10999994 28.29916191 5.42230749 -0.65791208 25.95074272 5.42230749 -0.44378135 28.18239784 5.42230749 -1.19467032 25.8398037 5.42230749 -0.76082557 27.99043274 5.42230749 -1.70934772 27.72717667 5.42230749 -2.19146705 25.66109657 5.42230749 -1.04523468 27.39798546 5.42230749 -2.63121367 25.42358398 5.42230749 -1.28274715 27.00956345 5.42230749 -3.01963592 26.56981659 5.42230749 -3.34882593 25.13917542 5.42230749 -1.4614532 26.08769798 5.42230749 -3.6120832 25.57302094 5.42230749 -3.80404782 24.82213211 5.42230749 -1.57239187 25.03626251 5.42230749 -3.92081261 24.48834991 5.42230749 -1.6099999 24.48834991 5.42230749 -3.96000004 23.94043732 5.42230749 -3.92081261 24.15456772 5.42230749 -1.57239187 23.40367889 5.42230749 -3.80404782 23.83752441 5.42230749 -1.4614532 22.88900185 5.42230749 -3.6120832 22.40688324 5.42230749 -3.34882593 23.55311584 5.42230749 -1.28274715 21.96713638 5.42230749 -3.01963592 21.57871437 5.42230749 -2.63121367 23.31560326 5.42230749 -1.04523468 21.24952316 5.42230749 -2.19146705 23.13689613 5.42230749 -0.76082557 20.98626709 5.42230749 -1.70934772 20.79430199 5.42230749 -1.19467032 23.02595901 5.42230749 -0.44378135 20.67753792 6.42230749 0.4379122 20.63834953 6.42230749 -0.10999994 20.67753792 6.42230749 -0.65791208 20.79430199 6.42230749 -1.19467032 20.98626709 6.42230749 -1.70934772 21.24952316 6.42230749 -2.19146705 21.57871437 6.42230749 -2.63121367 21.96713638 6.42230749 -3.01963592 22.40688324 6.42230749 -3.34882593 22.88900185 6.42230749 -3.6120832 23.40367889 6.42230749 -3.80404782 23.94043732 6.42230749 -3.92081261 24.48834991 6.42230749 -3.96000004 25.03626251 6.42230749 -3.92081261 25.57302094 6.42230749 -3.80404782 26.08769798 6.42230749 -3.6120832 26.56981659 6.42230749 -3.34882593 27.00956345 6.42230749 -3.01963592 27.39798546 6.42230749 -2.63121367 27.72717667 6.42230749 -2.19146705 27.99043274 6.42230749 -1.70934772 28.18239784 6.42230749 -1.19467032 28.29916191 6.42230749 -0.65791208 28.3383503 6.42230749 -0.10999994 28.29916191 6.42230749 0.4379122 28.18239784 6.42230749 0.97467041 27.99043274 6.42230749 1.48934782 27.72717667 6.42230749 1.97146726 27.39798546 6.42230749 2.41121387 27.00956345 6.42230749 2.79963589 26.56981659 6.42230749 3.12882614 26.08769798 6.42230749 3.39208317 25.57302094 6.42230749 3.58404803 25.03626251 6.42230749 3.70081258 24.48834991 6.42230749 3.74000001 23.94043732 6.42230749 3.70081258 23.40367889 6.42230749 3.58404803 22.88900185 6.42230749 3.39208317 22.40688324 6.42230749 3.12882614 21.96713638 6.42230749 2.79963589 21.57871437 6.42230749 2.41121387 21.24952316 6.42230749 1.97146726 20.98626709 6.42230749 1.48934782 20.79430199 6.42230749 0.97467041 25.95074272 0.77875 0.22378147 25.98834991 0.77875 -0.10999994 25.95074272 0.77875 -0.44378135 25.8398037 0.77875 0.54082566 25.66109657 0.77875 0.82523477 25.42358398 0.77875 1.06274724 25.13917542 0.77875 1.24145341 24.82213211 0.77875 1.35239196 24.48834991 0.77875 1.3900001 24.15456772 0.77875 1.35239196 23.83752441 0.77875 1.24145341 23.55311584 0.77875 1.06274724 23.31560326 0.77875 0.82523477 23.13689613 0.77875 0.54082566 23.02595901 0.77875 0.22378147 22.98834991 0.77875 -0.10999994 23.02595901 0.77875 -0.44378135 23.13689613 0.77875 -0.76082557 23.31560326 0.77875 -1.04523468 23.55311584 0.77875 -1.28274715 23.83752441 0.77875 -1.4614532 24.15456772 0.77875 -1.57239187 24.48834991 0.77875 -1.6099999 24.82213211 0.77875 -1.57239187 25.13917542 0.77875 -1.4614532 25.42358398 0.77875 -1.28274715 25.66109657 0.77875 -1.04523468 25.8398037 0.77875 -0.76082557 9.67753792 5.42230749 -0.65791208 9.63834953 5.42230749 -0.10999994 11.98834991 5.42230749 -0.10999994 9.67753792 5.42230749 0.4379122 12.02595806 5.42230749 0.22378147 9.79430199 5.42230749 0.97467041 12.13689709 5.42230749 0.54082566 9.98626709 5.42230749 1.48934782 10.24952412 5.42230749 1.97146726 12.3156023 5.42230749 0.82523477 10.57871437 5.42230749 2.41121387 12.55311489 5.42230749 1.06274724 10.96713638 5.42230749 2.79963589 11.40688324 5.42230749 3.12882614 12.83752441 5.42230749 1.24145341 11.88900185 5.42230749 3.39208317 12.40367985 5.42230749 3.58404803 13.15456867 5.42230749 1.35239196 12.94043827 5.42230749 3.70081258 13.48834991 5.42230749 1.3900001 13.48834991 5.42230749 3.74000001 14.03626251 5.42230749 3.70081258 13.82213116 5.42230749 1.35239196 14.57301998 5.42230749 3.58404803 14.13917542 5.42230749 1.24145341 15.08769798 5.42230749 3.39208317 15.56981754 5.42230749 3.12882614 14.42358494 5.42230749 1.06274724 16.00956345 5.42230749 2.79963589 16.39798546 5.42230749 2.41121387 14.66109753 5.42230749 0.82523477 16.72717667 5.42230749 1.97146726 14.8398037 5.42230749 0.54082566 16.99043274 5.42230749 1.48934782 17.18239784 5.42230749 0.97467041 14.95074177 5.42230749 0.22378147 17.29916191 5.42230749 0.4379122 14.98834991 5.42230749 -0.10999994 17.3383503 5.42230749 -0.10999994 17.29916191 5.42230749 -0.65791208 14.95074177 5.42230749 -0.44378135 17.18239784 5.42230749 -1.19467032 14.8398037 5.42230749 -0.76082557 16.99043274 5.42230749 -1.70934772 16.72717667 5.42230749 -2.19146705 14.66109753 5.42230749 -1.04523468 16.39798546 5.42230749 -2.63121367 14.42358494 5.42230749 -1.28274715 16.00956345 5.42230749 -3.01963592 15.56981754 5.42230749 -3.34882593 14.13917542 5.42230749 -1.4614532 15.08769798 5.42230749 -3.6120832 14.57301998 5.42230749 -3.80404782 13.82213116 5.42230749 -1.57239187 14.03626251 5.42230749 -3.92081261 13.48834991 5.42230749 -1.6099999 13.48834991 5.42230749 -3.96000004 12.94043827 5.42230749 -3.92081261 13.15456867 5.42230749 -1.57239187 12.40367985 5.42230749 -3.80404782 12.83752441 5.42230749 -1.4614532 11.88900185 5.42230749 -3.6120832 11.40688324 5.42230749 -3.34882593 12.55311489 5.42230749 -1.28274715 10.96713638 5.42230749 -3.01963592 10.57871437 5.42230749 -2.63121367 12.3156023 5.42230749 -1.04523468 10.24952412 5.42230749 -2.19146705 12.13689709 5.42230749 -0.76082557 9.98626709 5.42230749 -1.70934772 9.79430199 5.42230749 -1.19467032 12.02595806 5.42230749 -0.44378135 9.67753792 6.42230749 0.4379122 9.63834953 6.42230749 -0.10999994 9.67753792 6.42230749 -0.65791208 9.79430199 6.42230749 -1.19467032 9.98626709 6.42230749 -1.70934772 10.24952412 6.42230749 -2.19146705 10.57871437 6.42230749 -2.63121367 10.96713638 6.42230749 -3.01963592 11.40688324 6.42230749 -3.34882593 11.88900185 6.42230749 -3.6120832 12.40367985 6.42230749 -3.80404782 12.94043827 6.42230749 -3.92081261 13.48834991 6.42230749 -3.96000004 14.03626251 6.42230749 -3.92081261 14.57301998 6.42230749 -3.80404782 15.08769798 6.42230749 -3.6120832 15.56981754 6.42230749 -3.34882593 16.00956345 6.42230749 -3.01963592 16.39798546 6.42230749 -2.63121367 16.72717667 6.42230749 -2.19146705 16.99043274 6.42230749 -1.70934772 17.18239784 6.42230749 -1.19467032 17.29916191 6.42230749 -0.65791208 17.3383503 6.42230749 -0.10999994 17.29916191 6.42230749 0.4379122 17.18239784 6.42230749 0.97467041 16.99043274 6.42230749 1.48934782 16.72717667 6.42230749 1.97146726 16.39798546 6.42230749 2.41121387 16.00956345 6.42230749 2.79963589 15.56981754 6.42230749 3.12882614 15.08769798 6.42230749 3.39208317 14.57301998 6.42230749 3.58404803 14.03626251 6.42230749 3.70081258 13.48834991 6.42230749 3.74000001 12.94043827 6.42230749 3.70081258 12.40367985 6.42230749 3.58404803 11.88900185 6.42230749 3.39208317 11.40688324 6.42230749 3.12882614 10.96713638 6.42230749 2.79963589 10.57871437 6.42230749 2.41121387 10.24952412 6.42230749 1.97146726 9.98626709 6.42230749 1.48934782 9.79430199 6.42230749 0.97467041 14.95074177 0.77875 0.22378147 14.98834991 0.77875 -0.10999994 14.95074177 0.77875 -0.44378135 14.8398037 0.77875 0.54082566 14.66109753 0.77875 0.82523477 14.42358494 0.77875 1.06274724 14.13917542 0.77875 1.24145341 13.82213116 0.77875 1.35239196 13.48834991 0.77875 1.3900001 13.15456867 0.77875 1.35239196 12.83752441 0.77875 1.24145341 12.55311489 0.77875 1.06274724 12.3156023 0.77875 0.82523477 12.13689709 0.77875 0.54082566 12.02595806 0.77875 0.22378147 11.98834991 0.77875 -0.10999994 12.02595806 0.77875 -0.44378135 12.13689709 0.77875 -0.76082557 12.3156023 0.77875 -1.04523468 12.55311489 0.77875 -1.28274715 12.83752441 0.77875 -1.4614532 13.15456867 0.77875 -1.57239187 13.48834991 0.77875 -1.6099999 13.82213116 0.77875 -1.57239187 14.13917542 0.77875 -1.4614532 14.42358494 0.77875 -1.28274715 14.66109753 0.77875 -1.04523468 14.8398037 0.77875 -0.76082557 29.98834991 -6.22125006 -4.11000013 30.98834991 -5.22125006 -4.11000013 30.95427513 -5.48006916 -0.11 30.95427513 -5.48006916 -4.11000013 30.85437584 -5.72125006 -0.11 30.85437584 -5.72125006 -4.11000013 30.69545746 -5.92835665 -0.11 30.69545746 -5.92835665 -4.11000013 30.48834991 -6.08727551 -0.11 30.48834991 -6.08727551 -4.11000013 30.24716949 -6.18717575 -0.11 30.24716949 -6.18717575 -4.11000013 30.98834991 -0.22125 -4.11000013 29.98834991 0.77875 -4.11000013 30.24716949 0.74467582 -0.11 30.24716949 0.74467582 -4.11000013 30.48834991 0.64477539 -0.11 30.48834991 0.64477539 -4.11000013 30.69545746 0.48585677 -0.11 30.69545746 0.48585677 -4.11000013 30.85437584 0.27875 -0.11 30.85437584 0.27875 -4.11000013 30.95427513 0.03756905 -0.11 30.95427513 0.03756905 -4.11000013 7.98834991 0.77875 -4.11000013 7.98834991 6.42230749 -4.11000013 -2.45982409 0.44639224 3.8900001 -2.45982409 0.44639224 7.5999999 -2.5 -0 3.8900001 -2.5 0 7.5999999 -2.45982409 -0.44639224 3.8900001 -2.45982409 -0.44639224 7.5999999 -2.34058714 -0.87843704 3.8900001 -2.34058714 -0.87843704 7.5999999 -2.14612198 -1.28224814 3.8900001 -2.14612198 -1.28224814 7.5999999 -1.88267863 -1.6448468 3.8900001 -1.88267863 -1.6448468 7.5999999 -1.55872452 -1.95457876 3.8900001 -1.55872452 -1.95457876 7.5999999 -1.18467164 -2.20148873 3.8900001 -1.18467164 -2.20148873 7.5999999 -0.77254248 -2.3776412 3.8900001 -0.77254248 -2.3776412 7.5999999 -0.33558315 -2.47737432 3.8900001 -0.33558315 -2.47737432 7.5999999 0.11216208 -2.49748278 3.8900001 0.11216208 -2.49748278 7.5999999 0.55630231 -2.43731976 3.8900001 0.55630231 -2.43731976 7.5999999 0.9825626 -2.29881954 3.8900001 0.9825626 -2.29881954 7.5999999 1.37724245 -2.08643317 3.8900001 1.37724245 -2.08643317 7.5999999 1.7276566 -1.80698717 3.8900001 1.7276566 -1.80698717 7.5999999 2.02254248 -1.46946311 3.8900001 2.02254248 -1.46946311 7.5999999 2.25242209 -1.08470941 3.8900001 2.25242209 -1.08470941 7.5999999 2.4099071 -0.66509211 3.8900001 2.4099071 -0.66509211 7.5999999 2.48993564 -0.22409827 3.8900001 2.48993564 -0.22409827 7.5999999 2.48993564 0.22409827 3.8900001 2.48993564 0.22409827 7.5999999 2.4099071 0.66509211 3.8900001 2.4099071 0.66509211 7.5999999 2.25242209 1.08470941 3.8900001 2.25242209 1.08470941 7.5999999 2.02254248 1.46946311 3.8900001 2.02254248 1.46946311 7.5999999 1.7276566 1.80698717 3.8900001 1.7276566 1.80698717 7.5999999 1.37724245 2.08643317 3.8900001 1.37724245 2.08643317 7.5999999 0.9825626 2.29881954 3.8900001 0.9825626 2.29881954 7.5999999 0.55630231 2.43731976 3.8900001 0.55630231 2.43731976 7.5999999 0.11216208 2.49748278 3.8900001 0.11216208 2.49748278 7.5999999 -0.33558315 2.47737432 3.8900001 -0.33558315 2.47737432 7.5999999 -0.77254248 2.3776412 3.8900001 -0.77254248 2.3776412 7.5999999 -1.18467164 2.20148873 3.8900001 -1.18467164 2.20148873 7.5999999 -1.55872452 1.95457876 3.8900001 -1.55872452 1.95457876 7.5999999 -1.88267863 1.6448468 3.8900001 -1.88267863 1.6448468 7.5999999 -2.14612198 1.28224814 3.8900001 -2.14612198 1.28224814 7.5999999 -2.34058714 0.87843704 3.8900001 -2.34058714 0.87843704 7.5999999 -24.77582359 26.48139191 3.8900001 -24.77582359 26.48139191 7.5999999 -24.81599998 26.03499985 3.8900001 -24.81599998 26.03499985 7.5999999 -24.77582359 25.58860779 3.8900001 -24.77582359 25.58860779 7.5999999 -24.6565876 25.15656281 3.8900001 -24.6565876 25.15656281 7.5999999 -24.46212196 24.7527523 3.8900001 -24.46212196 24.7527523 7.5999999 -24.19867897 24.39015388 3.8900001 -24.19867897 24.39015388 7.5999999 -23.87472534 24.08042145 3.8900001 -23.87472534 24.08042145 7.5999999 -23.50067139 23.83351135 3.8900001 -23.50067139 23.83351135 7.5999999 -23.08854294 23.65735817 3.8900001 -23.08854294 23.65735817 7.5999999 -22.65158272 23.55762482 3.8900001 -22.65158272 23.55762482 7.5999999 -22.20383835 23.53751755 3.8900001 -22.20383835 23.53751755 7.5999999 -21.75969696 23.59768105 3.8900001 -21.75969696 23.59768105 7.5999999 -21.33343697 23.73618126 3.8900001 -21.33343697 23.73618126 7.5999999 -20.93875694 23.94856644 3.8900001 -20.93875694 23.94856644 7.5999999 -20.58834267 24.22801208 3.8900001 -20.58834267 24.22801208 7.5999999 -20.29345703 24.5655365 3.8900001 -20.29345703 24.5655365 7.5999999 -20.06357765 24.95029068 3.8900001 -20.06357765 24.95029068 7.5999999 -19.9060936 25.36990738 3.8900001 -19.9060936 25.36990738 7.5999999 -19.82606506 25.81090164 3.8900001 -19.82606506 25.81090164 7.5999999 -19.82606506 26.25909805 3.8900001 -19.82606506 26.25909805 7.5999999 -19.9060936 26.70009232 3.8900001 -19.9060936 26.70009232 7.5999999 -20.06357765 27.11970901 3.8900001 -20.06357765 27.11970901 7.5999999 -20.29345703 27.5044632 3.8900001 -20.29345703 27.5044632 7.5999999 -20.58834267 27.84198761 3.8900001 -20.58834267 27.84198761 7.5999999 -20.93875694 28.12143326 3.8900001 -20.93875694 28.12143326 7.5999999 -21.33343697 28.33382034 3.8900001 -21.33343697 28.33382034 7.5999999 -21.75969696 28.47232056 3.8900001 -21.75969696 28.47232056 7.5999999 -22.20383835 28.53248215 3.8900001 -22.20383835 28.53248215 7.5999999 -22.65158272 28.51237488 3.8900001 -22.65158272 28.51237488 7.5999999 -23.08854294 28.41264153 3.8900001 -23.08854294 28.41264153 7.5999999 -23.50067139 28.23648834 3.8900001 -23.50067139 28.23648834 7.5999999 -23.87472534 27.98957825 3.8900001 -23.87472534 27.98957825 7.5999999 -24.19867897 27.67984772 3.8900001 -24.19867897 27.67984772 7.5999999 -24.46212196 27.31724739 3.8900001 -24.46212196 27.31724739 7.5999999 -24.6565876 26.91343689 3.8900001 -24.6565876 26.91343689 7.5999999 -3.51740003 -3.55410004 3.8900001 -3.03495431 -3.96942782 3.8900001 -2.50511932 -4.32231045 3.8900001 -1.93592978 -4.6073966 3.8900001 -1.33601642 -4.82036352 3.8900001 -0.71447617 -4.95798206 3.8900001 -0.08073409 -5.01816511 3.8900001 0.55559999 -5 3.8900001 3.22939992 -4.99959993 3.8900001 8.78139973 -5.01779985 3.8900001 4.11210012 5.02440023 3.8900001 3.4835844 5.12696505 3.8900001 2.87316012 5.30844069 3.8900001 2.29069233 5.5658946 3.8900001 1.7455945 5.89516592 3.8900001 1.24667597 6.29093313 3.8900001 0.80199999 6.74679995 3.8900001 -25.7887001 22.40410042 3.8900001 -26.21689796 22.87176895 3.8900001 -26.58262444 23.38975906 3.8900001 -26.88002396 23.9497776 3.8900001 -27.10433578 24.54286575 3.8900001 -27.2519722 25.15952682 3.8900001 -27.32056808 25.7898941 3.8900001 -27.30902672 26.42387772 3.8900001 -27.21753311 27.05133057 3.8900001 -27.04755211 27.66221237 3.8900001 -26.80180168 28.24674225 3.8900001 -26.4842186 28.79556656 3.8900001 -26.09988213 29.29990196 3.8900001 -25.65494537 29.75167656 3.8900001 -25.15653038 30.14365959 3.8900001 -24.61261368 30.46957779 3.8900001 -18.75519943 29.54570007 3.8900001 -19.22934532 29.96671677 3.8900001 -19.75285149 30.32449913 3.8900001 -20.31734276 30.61332321 3.8900001 -20.91378212 30.82856369 3.8900001 -21.53262329 30.9667778 3.8900001 -22.16396332 31.02575302 3.8900001 -22.79769707 31.0045433 3.8900001 -23.42368317 30.90349197 3.8900001 -24.0318985 30.72421265 3.8900001 26.84149933 5.00470018 3.8900001 9.09958172 -5.15980339 3.8900001 9.3907938 -5.35111523 3.8900001 12.38129997 -6.99790001 3.8900001 9.64745903 -5.58675766 3.8900001 9.86289978 -5.86059999 3.8900001 10.21121979 -6.25841904 3.8900001 10.60276699 -6.61377478 3.8900001 11.92956352 -7.03879261 3.8900001 11.47669697 -7.01331043 3.8900001 27.16702843 5.05449104 3.8900001 27.49617958 5.0441227 3.8900001 27.81792831 4.97394228 3.8900001 28.12150002 4.84630013 3.8900001 30.00749969 2.99690008 3.8900001 30.3270874 2.76700759 3.8900001 30.60062218 2.48387241 3.8900001 30.81935692 2.15654802 3.8900001 30.97629929 1.79550004 3.8900001 31.00040054 -4.23799992 3.8900001 28.74749947 -6.98199987 3.8900001 29.41309929 -6.58260012 3.8900001 29.22375488 -6.76552725 3.8900001 30.9990387 -4.54589987 3.8900001 30.94228745 -4.84852695 3.8900001 30.83200073 -5.13600016 3.8900001 28.99800301 -6.90099144 3.8900001 11.03240013 -6.92199993 3.8900001 28.74749947 -6.98199987 7.5999999 28.99800301 -6.90099144 7.5999999 29.22375488 -6.76552725 7.5999999 29.41309929 -6.58260012 7.5999999 30.83200073 -5.13600016 7.5999999 30.94228745 -4.84852695 7.5999999 30.9990387 -4.54589987 7.5999999 31.00040054 -4.23799992 7.5999999 30.97629929 1.79550004 7.5999999 30.81935692 2.15654802 7.5999999 30.60062218 2.48387241 7.5999999 30.3270874 2.76700759 7.5999999 30.00749969 2.99690008 7.5999999 28.12150002 4.84630013 7.5999999 27.81792831 4.97394228 7.5999999 27.49617958 5.0441227 7.5999999 27.16702843 5.05449104 7.5999999 26.84149933 5.00470018 7.5999999 4.11210012 5.02440023 7.5999999 3.4835844 5.12696505 7.5999999 2.87316012 5.30844069 7.5999999 2.29069233 5.5658946 7.5999999 1.7455945 5.89516592 7.5999999 1.24667597 6.29093313 7.5999999 0.80199999 6.74679995 7.5999999 12.38129997 -6.99790001 7.5999999 11.03240013 -6.92199993 7.5999999 11.47669697 -7.01331043 7.5999999 11.92956352 -7.03879261 7.5999999 9.86289978 -5.86059999 7.5999999 10.21121979 -6.25841904 7.5999999 10.60276699 -6.61377478 7.5999999 8.78139973 -5.01779985 7.5999999 9.09958172 -5.15980339 7.5999999 9.3907938 -5.35111523 7.5999999 9.64745903 -5.58675766 7.5999999 3.22939992 -4.99959993 7.5999999 0.55559999 -5 7.5999999 -3.51740003 -3.55410004 7.5999999 -3.03495431 -3.96942782 7.5999999 -2.50511932 -4.32231045 7.5999999 -1.93592978 -4.6073966 7.5999999 -1.33601642 -4.82036352 7.5999999 -0.71447617 -4.95798206 7.5999999 -0.08073409 -5.01816511 7.5999999 -25.7887001 22.40410042 7.5999999 -18.75519943 29.54570007 7.5999999 -19.22934532 29.96671677 7.5999999 -19.75285149 30.32449913 7.5999999 -20.31734276 30.61332321 7.5999999 -20.91378212 30.82856369 7.5999999 -21.53262329 30.9667778 7.5999999 -22.16396332 31.02575302 7.5999999 -22.79769707 31.0045433 7.5999999 -23.42368317 30.90349197 7.5999999 -24.0318985 30.72421265 7.5999999 -24.61261368 30.46957779 7.5999999 -25.15653038 30.14365959 7.5999999 -25.65494537 29.75167656 7.5999999 -26.09988213 29.29990196 7.5999999 -26.4842186 28.79556656 7.5999999 -26.80180168 28.24674225 7.5999999 -27.04755211 27.66221237 7.5999999 -27.21753311 27.05133057 7.5999999 -27.30902672 26.42387772 7.5999999 -27.32056808 25.7898941 7.5999999 -27.2519722 25.15952682 7.5999999 -27.10433578 24.54286575 7.5999999 -26.88002396 23.9497776 7.5999999 -26.58262444 23.38975906 7.5999999 -26.21689796 22.87176895 7.5999999 -2.45982409 0.44639224 -7.4000001 -2.45982409 0.44639224 -4.05999994 -2.5 -0 -7.4000001 -2.5 0 -4.05999994 -2.45982409 -0.44639224 -7.4000001 -2.45982409 -0.44639224 -4.05999994 -2.34058714 -0.87843704 -7.4000001 -2.34058714 -0.87843704 -4.05999994 -2.14612198 -1.28224814 -7.4000001 -2.14612198 -1.28224814 -4.05999994 -1.88267863 -1.6448468 -7.4000001 -1.88267863 -1.6448468 -4.05999994 -1.55872452 -1.95457876 -7.4000001 -1.55872452 -1.95457876 -4.05999994 -1.18467164 -2.20148873 -7.4000001 -1.18467164 -2.20148873 -4.05999994 -0.77254248 -2.3776412 -7.4000001 -0.77254248 -2.3776412 -4.05999994 -0.33558315 -2.47737432 -7.4000001 -0.33558315 -2.47737432 -4.05999994 0.11216208 -2.49748278 -7.4000001 0.11216208 -2.49748278 -4.05999994 0.55630231 -2.43731976 -7.4000001 0.55630231 -2.43731976 -4.05999994 0.9825626 -2.29881954 -7.4000001 0.9825626 -2.29881954 -4.05999994 1.37724245 -2.08643317 -7.4000001 1.37724245 -2.08643317 -4.05999994 1.7276566 -1.80698717 -7.4000001 1.7276566 -1.80698717 -4.05999994 2.02254248 -1.46946311 -7.4000001 2.02254248 -1.46946311 -4.05999994 2.25242209 -1.08470941 -7.4000001 2.25242209 -1.08470941 -4.05999994 2.4099071 -0.66509211 -7.4000001 2.4099071 -0.66509211 -4.05999994 2.48993564 -0.22409827 -7.4000001 2.48993564 -0.22409827 -4.05999994 2.48993564 0.22409827 -7.4000001 2.48993564 0.22409827 -4.05999994 2.4099071 0.66509211 -7.4000001 2.4099071 0.66509211 -4.05999994 2.25242209 1.08470941 -7.4000001 2.25242209 1.08470941 -4.05999994 2.02254248 1.46946311 -7.4000001 2.02254248 1.46946311 -4.05999994 1.7276566 1.80698717 -7.4000001 1.7276566 1.80698717 -4.05999994 1.37724245 2.08643317 -7.4000001 1.37724245 2.08643317 -4.05999994 0.9825626 2.29881954 -7.4000001 0.9825626 2.29881954 -4.05999994 0.55630231 2.43731976 -7.4000001 0.55630231 2.43731976 -4.05999994 0.11216208 2.49748278 -7.4000001 0.11216208 2.49748278 -4.05999994 -0.33558315 2.47737432 -7.4000001 -0.33558315 2.47737432 -4.05999994 -0.77254248 2.3776412 -7.4000001 -0.77254248 2.3776412 -4.05999994 -1.18467164 2.20148873 -7.4000001 -1.18467164 2.20148873 -4.05999994 -1.55872452 1.95457876 -7.4000001 -1.55872452 1.95457876 -4.05999994 -1.88267863 1.6448468 -7.4000001 -1.88267863 1.6448468 -4.05999994 -2.14612198 1.28224814 -7.4000001 -2.14612198 1.28224814 -4.05999994 -2.34058714 0.87843704 -7.4000001 -2.34058714 0.87843704 -4.05999994 -24.77582359 26.48139191 -7.4000001 -24.77582359 26.48139191 -4.05999994 -24.81599998 26.03499985 -7.4000001 -24.81599998 26.03499985 -4.05999994 -24.77582359 25.58860779 -7.4000001 -24.77582359 25.58860779 -4.05999994 -24.6565876 25.15656281 -7.4000001 -24.6565876 25.15656281 -4.05999994 -24.46212196 24.7527523 -7.4000001 -24.46212196 24.7527523 -4.05999994 -24.19867897 24.39015388 -7.4000001 -24.19867897 24.39015388 -4.05999994 -23.87472534 24.08042145 -7.4000001 -23.87472534 24.08042145 -4.05999994 -23.50067139 23.83351135 -7.4000001 -23.50067139 23.83351135 -4.05999994 -23.08854294 23.65735817 -7.4000001 -23.08854294 23.65735817 -4.05999994 -22.65158272 23.55762482 -7.4000001 -22.65158272 23.55762482 -4.05999994 -22.20383835 23.53751755 -7.4000001 -22.20383835 23.53751755 -4.05999994 -21.75969696 23.59768105 -7.4000001 -21.75969696 23.59768105 -4.05999994 -21.33343697 23.73618126 -7.4000001 -21.33343697 23.73618126 -4.05999994 -20.93875694 23.94856644 -7.4000001 -20.93875694 23.94856644 -4.05999994 -20.58834267 24.22801208 -7.4000001 -20.58834267 24.22801208 -4.05999994 -20.29345703 24.5655365 -7.4000001 -20.29345703 24.5655365 -4.05999994 -20.06357765 24.95029068 -7.4000001 -20.06357765 24.95029068 -4.05999994 -19.9060936 25.36990738 -7.4000001 -19.9060936 25.36990738 -4.05999994 -19.82606506 25.81090164 -7.4000001 -19.82606506 25.81090164 -4.05999994 -19.82606506 26.25909805 -7.4000001 -19.82606506 26.25909805 -4.05999994 -19.9060936 26.70009232 -7.4000001 -19.9060936 26.70009232 -4.05999994 -20.06357765 27.11970901 -7.4000001 -20.06357765 27.11970901 -4.05999994 -20.29345703 27.5044632 -7.4000001 -20.29345703 27.5044632 -4.05999994 -20.58834267 27.84198761 -7.4000001 -20.58834267 27.84198761 -4.05999994 -20.93875694 28.12143326 -7.4000001 -20.93875694 28.12143326 -4.05999994 -21.33343697 28.33382034 -7.4000001 -21.33343697 28.33382034 -4.05999994 -21.75969696 28.47232056 -7.4000001 -21.75969696 28.47232056 -4.05999994 -22.20383835 28.53248215 -7.4000001 -22.20383835 28.53248215 -4.05999994 -22.65158272 28.51237488 -7.4000001 -22.65158272 28.51237488 -4.05999994 -23.08854294 28.41264153 -7.4000001 -23.08854294 28.41264153 -4.05999994 -23.50067139 28.23648834 -7.4000001 -23.50067139 28.23648834 -4.05999994 -23.87472534 27.98957825 -7.4000001 -23.87472534 27.98957825 -4.05999994 -24.19867897 27.67984772 -7.4000001 -24.19867897 27.67984772 -4.05999994 -24.46212196 27.31724739 -7.4000001 -24.46212196 27.31724739 -4.05999994 -24.6565876 26.91343689 -7.4000001 -24.6565876 26.91343689 -4.05999994 -3.51740003 -3.55410004 -7.4000001 -3.03495431 -3.96942782 -7.4000001 -2.50511932 -4.32231045 -7.4000001 -1.93592978 -4.6073966 -7.4000001 -1.33601642 -4.82036352 -7.4000001 -0.71447617 -4.95798206 -7.4000001 -0.08073409 -5.01816511 -7.4000001 0.55559999 -5 -7.4000001 3.22939992 -4.99959993 -7.4000001 8.78139973 -5.01779985 -7.4000001 4.11210012 5.02440023 -7.4000001 3.4835844 5.12696505 -7.4000001 2.87316012 5.30844069 -7.4000001 2.29069233 5.5658946 -7.4000001 1.7455945 5.89516592 -7.4000001 1.24667597 6.29093313 -7.4000001 0.80199999 6.74679995 -7.4000001 -25.7887001 22.40410042 -7.4000001 -26.21689796 22.87176895 -7.4000001 -26.58262444 23.38975906 -7.4000001 -26.88002396 23.9497776 -7.4000001 -27.10433578 24.54286575 -7.4000001 -27.2519722 25.15952682 -7.4000001 -27.32056808 25.7898941 -7.4000001 -27.30902672 26.42387772 -7.4000001 -27.21753311 27.05133057 -7.4000001 -27.04755211 27.66221237 -7.4000001 -26.80180168 28.24674225 -7.4000001 -26.4842186 28.79556656 -7.4000001 -26.09988213 29.29990196 -7.4000001 -25.65494537 29.75167656 -7.4000001 -25.15653038 30.14365959 -7.4000001 -24.61261368 30.46957779 -7.4000001 -18.75519943 29.54570007 -7.4000001 -19.22934532 29.96671677 -7.4000001 -19.75285149 30.32449913 -7.4000001 -20.31734276 30.61332321 -7.4000001 -20.91378212 30.82856369 -7.4000001 -21.53262329 30.9667778 -7.4000001 -22.16396332 31.02575302 -7.4000001 -22.79769707 31.0045433 -7.4000001 -23.42368317 30.90349197 -7.4000001 -24.0318985 30.72421265 -7.4000001 26.84149933 5.00470018 -7.4000001 9.09958172 -5.15980339 -7.4000001 9.3907938 -5.35111523 -7.4000001 12.38129997 -6.99790001 -7.4000001 9.64745903 -5.58675766 -7.4000001 9.86289978 -5.86059999 -7.4000001 10.21121979 -6.25841904 -7.4000001 10.60276699 -6.61377478 -7.4000001 11.92956352 -7.03879261 -7.4000001 11.47669697 -7.01331043 -7.4000001 27.16702843 5.05449104 -7.4000001 27.49617958 5.0441227 -7.4000001 27.81792831 4.97394228 -7.4000001 28.12150002 4.84630013 -7.4000001 30.00749969 2.99690008 -7.4000001 30.3270874 2.76700759 -7.4000001 30.60062218 2.48387241 -7.4000001 30.81935692 2.15654802 -7.4000001 30.97629929 1.79550004 -7.4000001 31.00040054 -4.23799992 -7.4000001 28.74749947 -6.98199987 -7.4000001 29.41309929 -6.58260012 -7.4000001 29.22375488 -6.76552725 -7.4000001 30.9990387 -4.54589987 -7.4000001 30.94228745 -4.84852695 -7.4000001 30.83200073 -5.13600016 -7.4000001 28.99800301 -6.90099144 -7.4000001 11.03240013 -6.92199993 -7.4000001 30.83200073 -5.13600016 -4.05999994 29.41309929 -6.58260012 -4.05999994 31.00040054 -4.23799992 -4.05999994 30.9990387 -4.54589987 -4.05999994 30.94228745 -4.84852695 -4.05999994 30.97629929 1.79550004 -4.05999994 30.00749969 2.99690008 -4.05999994 30.3270874 2.76700759 -4.05999994 30.60062218 2.48387241 -4.05999994 30.81935692 2.15654802 -4.05999994 28.12150002 4.84630013 -4.05999994 26.84149933 5.00470018 -4.05999994 27.16702843 5.05449104 -4.05999994 27.49617958 5.0441227 -4.05999994 27.81792831 4.97394228 -4.05999994 4.11210012 5.02440023 -4.05999994 0.80199999 6.74679995 -4.05999994 1.24667597 6.29093313 -4.05999994 1.7455945 5.89516592 -4.05999994 2.29069233 5.5658946 -4.05999994 2.87316012 5.30844069 -4.05999994 3.4835844 5.12696505 -4.05999994 -18.75519943 29.54570007 -4.05999994 -25.7887001 22.40410042 -4.05999994 -26.21689796 22.87176895 -4.05999994 -26.58262444 23.38975906 -4.05999994 -26.88002396 23.9497776 -4.05999994 -27.10433578 24.54286575 -4.05999994 -27.2519722 25.15952682 -4.05999994 -27.32056808 25.7898941 -4.05999994 -27.30902672 26.42387772 -4.05999994 -27.21753311 27.05133057 -4.05999994 -27.04755211 27.66221237 -4.05999994 -26.80180168 28.24674225 -4.05999994 -26.4842186 28.79556656 -4.05999994 -26.09988213 29.29990196 -4.05999994 -25.65494537 29.75167656 -4.05999994 -25.15653038 30.14365959 -4.05999994 -24.61261368 30.46957779 -4.05999994 -24.0318985 30.72421265 -4.05999994 -23.42368317 30.90349197 -4.05999994 -22.79769707 31.0045433 -4.05999994 -22.16396332 31.02575302 -4.05999994 -21.53262329 30.9667778 -4.05999994 -20.91378212 30.82856369 -4.05999994 -20.31734276 30.61332321 -4.05999994 -19.75285149 30.32449913 -4.05999994 -19.22934532 29.96671677 -4.05999994 -3.51740003 -3.55410004 -4.05999994 0.55559999 -5 -4.05999994 -0.08073409 -5.01816511 -4.05999994 -0.71447617 -4.95798206 -4.05999994 -1.33601642 -4.82036352 -4.05999994 -1.93592978 -4.6073966 -4.05999994 -2.50511932 -4.32231045 -4.05999994 -3.03495431 -3.96942782 -4.05999994 3.22939992 -4.99959993 -4.05999994 8.78139973 -5.01779985 -4.05999994 9.86289978 -5.86059999 -4.05999994 9.64745903 -5.58675766 -4.05999994 9.3907938 -5.35111523 -4.05999994 9.09958172 -5.15980339 -4.05999994 11.03240013 -6.92199993 -4.05999994 10.60276699 -6.61377478 -4.05999994 10.21121979 -6.25841904 -4.05999994 12.38129997 -6.99790001 -4.05999994 11.92956352 -7.03879261 -4.05999994 11.47669697 -7.01331043 -4.05999994 28.74749947 -6.98199987 -4.05999994 29.22375488 -6.76552725 -4.05999994 28.99800301 -6.90099144 -4.05999994</float_array>
          <technique_common>
            <accessor source="#pos_0-array" count="3030" stride="3">
              <param name="X" type="float"/>
              <param name="Y" type="float"/>
              <param name="Z" type="float"/>
            </accessor>
          </technique_common>
        </source>
        <source id="norm_0">
          <float_array id="norm_0-array" count="3105">0.99692 0 -0.07846 0.97237 0 -0.23345 0.97237 0 -0.23345 0.92388 0 -0.38268 0.85264 0 -0.5225 0.76041 0 -0.64945 0.64945 0 -0.76041 0.5225 0 -0.85264 0.38268 0 -0.92388 0.38268 0 -0.92388 0.23345 0 -0.97237 0.07846 0 -0.99692 1 0 0 1 0 0 1 0 0 -0 1 0 -0 1 -0 -0 1 0 -0 1 -0 -0 1 0 -0 1 0 -0 1 0 0 1 0 0 1 0 -0 1 -0 -0 1 -0 0 1 0 -0 1 -0 -0 1 -0 -0 1 -0 -0.99692 -0 -0.07846 -0.97237 -0 -0.23345 -0.92388 -0 -0.38268 -0.85264 -0 -0.5225 -0.85264 0 -0.5225 -0.76041 0 -0.64945 -0.64945 0 -0.76041 -0.5225 0 -0.85264 -0.38268 0 -0.92388 -0.38268 0 -0.92388 -0.23345 0 -0.97237 -0.23345 0 -0.97237 -0.07846 0 -0.99692 -1 -0 -0 -1 -0 -0 -1 0 0 -1 -0 0 -1 -0 0 -1 -0 0 -0.99692 -0 0.07846 -0.97237 -0 0.23345 -0.92388 -0 0.38268 -0.85264 -0 0.5225 -0.85264 -0 0.5225 -0.76041 -0 0.64945 -0.76041 -0 0.64945 -0.64945 -0 0.76041 -0.5225 -0 0.85264 -0.38268 -0 0.92388 -0.38268 0 0.92388 -0.23345 0 0.97237 -0.23345 0 0.97237 -0.07846 0 0.99692 -0 1 0 -0 1 -0 -0 1 0 -0 1 -0 -0 1 0 -0 1 0 -0 1 0 -0 1 0 -0 1 0 0 1 -0 -0 1 0 -0 1 0 -0 1 0 0 1 -0 0 1 0 0.99692 -0 0.07846 0.97237 -0 0.23345 0.92388 -0 0.38268 0.85264 -0 0.5225 0.76041 -0 0.64945 0.64945 -0 0.76041 0.5225 -0 0.85264 0.38268 -0 0.92388 0.23345 -0 0.97237 0.07846 -0 0.99692 0.07846 0.99692 0 0.23345 0.97237 0 0.38268 0.92388 0 0.5225 0.85264 0 0.64945 0.76041 0 0.64945 0.76041 0 0.76041 0.64945 0 0.76041 0.64945 0 0.85264 0.5225 0 0.85264 0.5225 0 0.92388 0.38268 0 0.97237 0.23345 0 0.97237 0.23345 0 0.99692 0.07846 0 0.99692 0.07846 0 -0 -0 1 -0 -0 1 -0 -0 1 -0 -0 1 -0 -0 1 -0 -0 1 -0 -0 1 -0 -0 1 0 0 1 -0 -0 1 0 0 1 -0 -0 1 0 -0 1 -0 -0 1 -0 -0 1 -0 -0 1 -0 -0 1 -0 0 1 0 -0 -1 0 0 -1 -0 0 1 -0 1 -0 -0 1 0 -0 1 0 -0 1 0 -0 1 0 -0 1 0 -0 1 0 0 1 0 -0 1 0 -0 1 0 -0 1 -0 -0 1 -0 -0 1 0 -0 1 0 -0 1 0 -0 1 0 -0 1 0 -0 1 0 0 1 0 0 1 0 -0 1 0 -0 1 0 -0 1 -0 -0 1 -0 -0 1 0 -0 1 0 -0 1 -0 -0 1 0 -0 1 0 -0 1 0 -0 1 0 -0 1 0 -0 1 0 -0 1 0 -0 1 -0 -0 1 0 0 1 0 0 1 0 0 1 0 -0 1 0 -0 1 0 -0 1 -0 -0 1 -0 -0 1 -0 0.99745 0 -0.07134 0.99745 0 0.07134 0.97715 0 0.21257 0.93695 0 0.34946 0.93695 -0 0.34946 0.87768 -0 0.47925 0.87768 0 0.47925 0.80054 0 0.59928 0.80054 -0 0.59928 0.70711 -0 0.70711 0.70711 -0 0.70711 0.59928 -0 0.80054 0.59928 -0 0.80054 0.47925 -0 0.87768 0.47925 -0 0.87768 0.34946 -0 0.93695 0.21257 -0 0.97715 0.07134 -0 0.99745 -0.07134 -0 0.99745 -0.21257 -0 0.97715 -0.34946 -0 0.93695 -0.47925 -0 0.87768 -0.59928 -0 0.80054 -0.59928 0 0.80054 -0.70711 0 0.70711 -0.70711 -0 0.70711 -0.80054 -0 0.59928 -0.80054 0 0.59928 -0.87768 0 0.47925 -0.93695 0 0.34946 -0.93695 -0 0.34946 -0.97715 -0 0.21257 -0.99745 -0 0.07134 -0.99745 -0 0.07134 -0.99745 0 -0.07134 -0.99745 -0 -0.07134 -0.97715 -0 -0.21257 -0.93695 -0 -0.34946 -0.87768 -0 -0.47925 -0.80054 -0 -0.59928 -0.70711 -0 -0.70711 -0.59928 -0 -0.80054 -0.47925 -0 -0.87768 -0.34946 -0 -0.93695 -0.21257 -0 -0.97715 -0.07134 -0 -0.99745 -0.07134 0 -0.99745 0.07134 0 -0.99745 0.07134 0 -0.99745 0.21257 0 -0.97715 0.34946 0 -0.93695 0.34946 0 -0.93695 0.47925 0 -0.87768 0.59928 0 -0.80054 0.70711 0 -0.70711 0.80054 0 -0.59928 0.87768 0 -0.47925 0.87768 0 -0.47925 0.93695 0 -0.34946 0.97715 0 -0.21257 0.97715 0 -0.21257 -0.99371 -0 -0.11196 -0.99371 -0 -0.11196 -0.99371 -0 0.11196 -0.99371 -0 0.11196 -0.94388 -0 0.33028 -0.94388 -0 -0.33028 -0.94388 -0 -0.33028 -0.84672 -0 -0.53203 -0.84672 -0 -0.53203 -0.70711 -0 -0.70711 -0.70711 -0 -0.70711 -0.53203 -0 -0.84672 -0.53203 0 -0.84672 -0.33028 0 -0.94388 -0.33028 -0 -0.94388 -0.11196 0 -0.99371 -0.11196 0 -0.99371 0.11196 0 -0.99371 0.11196 0 -0.99371 0.33028 0 -0.94388 0.33028 0 -0.94388 0.53203 0 -0.84672 0.53203 0 -0.84672 0.70711 0 -0.70711 0.70711 0 -0.70711 0.84672 0 -0.53203 0.84672 0 -0.53203 0.94388 0 -0.33028 0.94388 0 -0.33028 0.99371 0 -0.11196 0.99371 0 -0.11196 0.99371 0 0.11196 0.99371 0 0.11196 0.94388 0 0.33028 0.94388 0 0.33028 0.84672 0 0.53203 0.84672 0 0.53203 0.70711 0 0.70711 0.70711 0 0.70711 0.53203 0 0.84672 0.53203 0 0.84672 0.33028 -0 0.94388 0.33028 -0 0.94388 0.11196 -0 0.99371 0.11196 -0 0.99371 -0.11196 -0 0.99371 -0.11196 -0 0.99371 -0.33028 -0 0.94388 -0.33028 -0 0.94388 -0.53203 -0 0.84672 -0.53203 -0 0.84672 -0.70711 -0 0.70711 -0.70711 -0 0.70711 -0.84672 -0 0.53203 -0.84672 -0 0.53203 -0.94388 -0 0.33028 -0 1 -0 -0 1 -0 -0 1 0 -0 1 0 0 1 0 -0 1 -0 0.99745 0 -0.07134 0.99745 0 -0.07134 0.99745 -0 0.07134 0.99745 0 0.07134 0.97715 0 0.21257 0.93695 0 0.34946 0.93695 -0 0.34946 0.87768 -0 0.47925 0.80054 0 0.59928 0.70711 0 0.70711 0.59928 0 0.80054 0.47925 0 0.87768 0.34946 0 0.93695 0.21257 -0 0.97715 0.07134 -0 0.99745 -0.07134 -0 0.99745 -0.07134 -0 0.99745 -0.21257 -0 0.97715 -0.21257 -0 0.97715 -0.34946 -0 0.93695 -0.34946 -0 0.93695 -0.47925 -0 0.87768 -0.47925 -0 0.87768 -0.59928 -0 0.80054 -0.59928 -0 0.80054 -0.70711 -0 0.70711 -0.80054 -0 0.59928 -0.87768 -0 0.47925 -0.87768 -0 0.47925 -0.93695 -0 0.34946 -0.97715 -0 0.21257 -0.99745 -0 0.07134 -0.99745 -0 0.07134 -0.99745 -0 -0.07134 -0.99745 -0 -0.07134 -0.97715 -0 -0.21257 -0.93695 -0 -0.34946 -0.93695 0 -0.34946 -0.87768 0 -0.47925 -0.87768 -0 -0.47925 -0.80054 -0 -0.59928 -0.80054 0 -0.59928 -0.70711 0 -0.70711 -0.70711 -0 -0.70711 -0.59928 -0 -0.80054 -0.59928 -0 -0.80054 -0.47925 -0 -0.87768 -0.34946 -0 -0.93695 -0.21257 -0 -0.97715 -0.07134 -0 -0.99745 0.07134 0 -0.99745 0.21257 0 -0.97715 0.34946 0 -0.93695 0.34946 0 -0.93695 0.47925 0 -0.87768 0.47925 0 -0.87768 0.59928 0 -0.80054 0.59928 0 -0.80054 0.70711 0 -0.70711 0.70711 0 -0.70711 0.80054 0 -0.59928 0.87768 0 -0.47925 0.93695 0 -0.34946 0.93695 0 -0.34946 0.97715 0 -0.21257 0.97715 0 -0.21257 -0.99371 -0 -0.11196 -0.99371 -0 -0.11196 -0.99371 -0 0.11196 -0.99371 -0 0.11196 -0.94388 -0 -0.33028 -0.84672 -0 -0.53203 -0.70711 -0 -0.70711 -0.70711 -0 -0.70711 -0.53203 0 -0.84672 -0.33028 0 -0.94388 -0.11196 0 -0.99371 -0.11196 0 -0.99371 0.11196 0 -0.99371 0.53203 0 -0.84672 0.70711 0 -0.70711 0.70711 0 -0.70711 0.84672 0 -0.53203 0.84672 0 -0.53203 0.94388 0 -0.33028 0.94388 0 -0.33028 0.99371 0 -0.11196 0.99371 0 -0.11196 0.99371 0 0.11196 0.99371 0 0.11196 0.94388 0 0.33028 0.94388 0 0.33028 0.84672 0 0.53203 0.70711 0 0.70711 0.53203 0 0.84672 0.53203 0 0.84672 -0.11196 -0 0.99371 -0.33028 -0 0.94388 -0.33028 -0 0.94388 -0.53203 -0 0.84672 -0.70711 -0 0.70711 -0 1 0 -0 1 0 -0.99144 0.13053 0 -0.92388 0.38268 0 -0.79335 0.60876 0 -0.60876 0.79335 0 -0.38268 0.92388 0 -0.13053 0.99144 0 -1 -0 -0 -1 -0 -0 -0.13053 -0.99144 -0 -0.13053 -0.99144 -0 -0.38268 -0.92388 -0 -0.38268 -0.92388 -0 -0.60876 -0.79335 -0 -0.60876 -0.79335 -0 -0.79335 -0.60876 -0 -0.79335 -0.60876 -0 -0.92388 -0.38268 -0 -0.92388 -0.38268 -0 -0.99144 -0.13053 -0 -0.99144 -0.13053 -0 -0.99144 -0.13053 -0 -0.92388 -0.38268 -0 -0.92388 -0.38268 -0 -0.79335 -0.60876 -0 -0.79335 -0.60876 -0 -0.60876 -0.79335 -0 -0.60876 -0.79335 -0 -0.38268 -0.92388 -0 -0.13053 -0.99144 -0 0 -1 -0 0 -1 -0 0 -1 -0 0 -1 -0 0 -1 -0 0 -1 -0 0 -1 -0 0 -1 -0 0 -1 0 0 -1 0 0 -1 -0 0 -1 -0 0 -1 -0 0 -1 -0 0 -1 -0 0 -1 -0 0 -1 -0 0 -1 -0 0 -1 -0 0 -1 -0 0 -1 -0 0 -1 -0 0 -1 -0 0 -1 -0 0 -1 -0 0 -1 -0 0 -1 -0 0 -1 -0 0 -1 -0 0 -1 -0 0 -1 -0 0 -1 -0 0 -1 -0 0 -1 -0 0 -1 -0 0 -1 -0 0 -1 -0 0 -1 -0 0 -1 -0 0 -1 -0 0 -1 0 0 -1 0 0 -1 -0 0 -1 -0 0 -1 -0 0 -1 -0 0 -1 -0 0 -1 -0 0 -1 -0 0 -1 -0 0 -1 0 0 -1 -0 0 -1 -0 0 -1 -0 0 -1 -0 0 -1 -0 0 -1 -0 0 -1 -0 0 -1 0 -1 -0 -0 -1 -0 0 -0 1 0 -0 1 -0 -0 1 -0 -0 1 -0 -0 1 0 -0 1 0 -0 1 0 -0 1 0 -0 1 -0 -0 1 0 -0 1 0 -0 1 0 -0 1 -0 -0 1 0 -0 1 -0 -0 1 0 -0 1 -0 -0 1 0 -0 1 0 -0 1 0 -0 1 -0 -0 1 0 -0 1 -0 -0 1 0 -0 1 -0 -0 1 0 -0 1 0 -0 1 -0 -0 1 -0 -0 1 0 -0 1 -0 -0 1 0 -0 1 0 -0 1 0 -0 1 -0 -0 1 0 -0 1 -0 -0 1 0 -0 1 -0 -0 1 0 -0 1 0 -0 1 -0 -0 1 0 -0 1 -0 -0 1 0 -0 1 0 -0 1 -0 -0 1 -0 -0 1 0 -0 1 0 -0 1 -0 -0 1 0 -0 1 0 -0 1 0 -0 1 -0 -0 1 0 -0 1 0 -0 1 0 -0 1 -0 -0 1 -0 -0 1 -0 -0 1 0 -0 1 -0 -0 1 0 -0 1 -0 -0 1 -0 -0 1 -0 -0 1 0 -0 1 0 -0 1 -0 -0 1 -0 -0 1 -0 -0 1 -0 -0 1 -0 -0 1 0 -0 1 0 -0 1 0 -0 1 0 -0 1 0 -0 1 0 -0 1 0 -0 1 0 -0 1 0 -0 1 0 -0 -1 0 -0 -1 0 0 -1 -0 0 -1 -0 0 -1 -0 0 -1 -0 0 -1 -0 0 -1 -0 0 -1 -0 0 -1 -0 0 -1 0 0 -1 0 0 -1 0 0 -1 0 0 -1 0 0 -1 -0 0 -1 -0 0 -1 -0 0 -1 -0 0 -1 -0 0 -1 -0 -0 -1 0 0 -1 0 0 -1 0 0 -1 0 0 -1 0 0 -1 0 0 -1 0 -0 -1 -0 -0 -1 -0 -0 -1 -0 0 0 -1 -0 -0 -1 0 0 -1 0 0 -1 0 0 -1 0 0 -1 0 0 -1 0 0 -1 0 0 -1 0 0 -1 -0 0 -1 0 0 -1 0 0 -1 0 0 -1 0 -0 -1 0 -0 -1 0 -0 -1 0 0 -1 0 0 -1 0 0 -1 0 0 -1 0.99597 -0.08964 0 0.99597 -0.08964 0 0.99597 0.08964 -0 0.99597 0.08964 -0 0.96396 0.26604 -0 0.90097 0.43388 -0 0.80902 0.58779 -0 0.69106 0.72279 -0 0.5509 0.83457 -0 0.39303 0.91953 -0 0.22252 0.97493 -0 0.04486 0.99899 -0 -0.13423 0.99095 0 -0.30902 0.95106 0 -0.47387 0.8806 0 -0.62349 0.78183 0 -0.75307 0.65794 0 -0.85845 0.5129 0 -0.93623 0.35137 0 -0.98393 0.17856 0 -0.98393 -0.17856 0 -0.93623 -0.35137 0 -0.85845 -0.5129 0 -0.75307 -0.65794 0 -0.62349 -0.78183 0 -0.47387 -0.8806 0 -0.30902 -0.95106 0 -0.13423 -0.99095 0 0.04486 -0.99899 0 0.22252 -0.97493 0 0.39303 -0.91953 0 0.5509 -0.83457 0 0.69106 -0.72279 0 0.80902 -0.58779 0 0.90097 -0.43388 0 0.96396 -0.26604 0 -0 0 -1 -0 -0 -1 -0 -0 -1 -0 -0 -1 -0 -0 -1 -0 -0 -1 -0 -0 -1 0 -0 -1 -0 -0 -1 -0 -0 -1 -0 -0 -1 -0 -0 -1 -0 -0 -1 -0 -0 -1 -0 -0 -1 -0 -0 -1 -0 -0 -1 0 -0 -1 0 -0 -1 0 -0 -1 0 -0 -1 0 -0 -1 0 -0 -1 -0 -0 -1 0 -0 -1 0 -0 -1 0 -0 -1 0 0 -1 0 0 -1 0 0 -1 0 0 -1 0 0 -1 0 0 -1 0 0 -1 -0 0 -1 0 0 -1 0 0 -1 0 0 -1 0 0 -1 0 0 -1 0 0 -1 -0 0 -1 0 0 -1 -0 0 -1 0 -0 -1 -0 0 -1 -0 0 -1 -0 0 -1 0 0 -1 -0 -0 -1 0 -0 -1 -0 -0 -1 -0 -0 -1 -0 -0 -1 -0 0 -1 -0 -0 -1 -0 -0 -1 -0 -0 -1 -0 -0 -1 -0 -0 -1 -0 -0 -1 -0 -0 -1 -0 -0 -1 -0 -0 -1 -0 -0 -1 -0 -0 -1 -0 0 -1 -0 0 -1 -0 0 -1 -0 0 -1 -0 0 -1 -0 0 -1 -0 0 -1 -0 0 -1 -0 0 -1 -0 0 -1 -0 0 -1 -0 0 -1 -0 0 -1 -0 0 -1 -0 0 -1 -0 0 -1 -0 0 -1 -0 0 -1 -0 0 -1 -0 -0 -1 0 -0 -1 0 -0 -1 0 -0 -1 0 -0 -1 0 -0 -1 0 -0 -1 0 -0 -1 0 0 -1 0 0 -1 0 0 -1 0 0 -1 0 0 -1 0 0 -1 0 0 -1 0 0 -1 -0 0 -1 0 0 -1 0 0 -1 0 0 -1 0 0 -1 0 0 -1 0 0 -1 0 0 -1 -0 0 -1 -0 0 -1 -0 0 -1 -0 0 -1 -0 0 -1 -0 0 -1 0 -0 -1 -0 -0 -1 -0 0 -1 -0 -0 -1 0 0 -1 -0 -0 -1 -0 -0 -1 -0 -0 -1 0 0 -1 0 0 -1 0 0 -1 0 0 -1 0 0 -1 0 0 -1 0 -0 -1 0 -0 -1 0 -0 -1 -0 0 -1 0 0 -1 0.3077 -0.95148 0 0.51453 -0.85747 0 0.69481 -0.71919 0 0.71391 -0.70024 0 0.93365 -0.35819 0 0.98287 -0.18431 0 0.98287 -0.18431 -0 0.99999 -0.00442 -0 0.99999 -0.00442 0 0.99999 0.00399 -0 0.9171 0.39865 0 0.83144 0.55561 0 0.71919 0.69481 0 0.58395 0.81179 0 0.70014 0.714 -0 0.3876 0.92183 0 0.21311 0.97703 0 0.03148 0.9995 0 -0.1512 0.9885 0 0.00087 1 -0 0.16106 0.98695 0 0.28497 0.95854 0 0.40427 0.91464 0 0.51705 0.85596 0 0.62147 0.78344 0 0.71584 0.69827 0 0.00097 -1 0 -0.20131 -0.97953 -0 -0.05618 -0.99842 -0 0.09015 -0.99593 0 -0.75236 -0.65875 -0 -0.67205 -0.7405 -0 -0.67205 -0.7405 0 -0.58292 -0.81253 0 -0.58292 -0.81253 -0 -0.40755 -0.91318 -0 -0.40755 -0.91318 -0 -0.54907 -0.83578 -0 -0.6763 -0.73663 -0 -0.78593 -0.61832 -0 -0.78593 -0.61832 -0 -0.00328 -0.99999 0 0.00015 -1 0 -0.65242 -0.75786 -0 -0.65242 -0.75786 0 -0.55433 -0.8323 0 -0.55433 -0.8323 -0 -0.44783 -0.89412 -0 -0.44783 -0.89412 0 -0.33454 -0.94238 0 -0.21618 -0.97635 0 -0.21618 -0.97635 -0 -0.09454 -0.99552 -0 -0.09454 -0.99552 -0 0.02853 -0.99959 0 0.02853 -0.99959 0 -0.75895 -0.65115 0 0.66397 0.74776 0 0.56425 0.82561 0 0.45549 0.89024 0 0.33945 0.94062 0 0.21797 0.97595 0 0.09301 0.99567 0 -0.03345 0.99944 0 -0.15937 0.98722 0 -0.28273 0.9592 0 -0.40158 0.91583 0 -0.51399 0.85779 0 -0.61818 0.78603 0 -0.71248 0.70169 0 -0.79537 0.60612 0 -0.86553 0.50085 0 -0.92184 0.38756 0 -0.9634 0.26807 0 -0.98954 0.14429 0 -0.99983 0.0182 0 -0.99413 -0.10818 -0 -0.97252 -0.23283 -0 -0.93534 -0.35376 -0 -0.88319 -0.46902 -0 -0.8169 -0.57677 -0 -0.73754 -0.6753 -0 0.75901 0.65108 -0 -0 -0 1 -0 0 1 -0 -0 1 -0 0 1 -0 0 1 -0 0 1 0 0 1 -0 -0 1 0 -0 1 0 -0 1 0 -0 1 0 -0 1 0 -0 1 0 -0 1 0 -0 1 0 0 1 0 -0 1 0 0 1 0 0 1 0 0 1 0 0 1 0 0 1 0 0 1 0 0 1 0 0 1 -0 0 1 -0 0 1 -0 0 1 0 0 1 -0 0 1 0 0 1 -0 0 1 0 0 1 0 0 1 0 0 1 0 0 1 0 0 1 0 0 1 0 0 1 0 0 1 0 0 1 0 0 1 0 0 1 0 0 1 0 0 1 0 0 1 0 -0 1 0 -0 1 0 -0 1 -0 -0 1 0 -0 1 0 -0 1 0 -0 1 0 -0 1 0 -0 1 0 -0 1 -0 -0 1 -0 -0 1 0 -0 1 -0 -0 1 -0 -0 1 -0 -0 1 -0 -0 1 -0 -0 1 -0 -0 1 -0 -0 1 -0 -0 1 -0 -0 1 -0 -0 1 -0 -0 1 -0 0 1 -0 0 1 -0 -0 1 -0 -0 1 -0 -0 1 -0 -0 1 -0 -0 1 -0 -0 1 -0 -0 1 -0 -0 1 -0 -0 1 -0 -0 1 -0 -0 1 -0 -0 1 -0 -0 1 -0 -0 1 -0 -0 1 0 -0 1 -0 0 1 -0 0 1 -0 0 1 -0 0 1 -0 0 1 -0 0 1 -0 0 1 -0 0 1 -0 0 1 -0 0 1 -0 0 1 -0 0 1 -0 0 1 -0 0 1 -0 0 1 -0 0 1 -0 0 1 -0 0 1 -0 0 1 -0 0 1 0 0 1 0 0 1 0 0 1 0 0 1 0 0 1 0 0 1 -0 -0 1 0.99597 -0.08964 0 0.99597 0.08964 -0 0.99999 -0.00442 0 0.98287 -0.18431 0 0.71584 0.69827 0 0.62147 0.78344 0 0.62147 0.78344 -0 0.51705 0.85596 -0 -0.8169 -0.57677 0 -0.88319 -0.46902 0 -0.93534 -0.35376 0 -0.97252 -0.23283 0 -0.99413 -0.10818 0 -0.99983 0.0182 0 -0.98954 0.14429 0 -0.98954 0.14429 0 -0.9634 0.26807 0 -0.86553 0.50085 0 -0.79537 0.60612 0 -0.79537 0.60612 0 -0.71248 0.70169 0 -0.51399 0.85779 0 -0.40158 0.91583 0 -0.40158 0.91583 0 -0.28273 0.9592 0 -0.28273 0.9592 0 -0.15937 0.98722 0 -0.03345 0.99944 -0 0.09301 0.99567 0 0.09301 0.99567 0 0.21797 0.97595 0 0.21797 0.97595 0 0.33945 0.94062 0 0.33945 0.94062 0 0.45549 0.89024 0 0.45549 0.89024 -0 0.56425 0.82561 -0 0.66397 0.74776 -0 -0.09454 -0.99552 0 -0.21618 -0.97635 0 -0.33454 -0.94238 0 -0.44783 -0.89412 0 -0.55433 -0.8323 0 -0.6763 -0.73663 0 -0.54907 -0.83578 0 -0.58292 -0.81253 -0 -0.67205 -0.7405 -0</float_array>
          <technique_common>
            <accessor source="#norm_0-array" count="3105" stride="3">
              <param name="X" type="float"/>
              <param name="Y" type="float"/>
              <param name="Z" type="float"/>
            </accessor>
          </technique_common>
        </source>
        <vertices id="vert_0">
          <input semantic="POSITION" source="#pos_0"/>
        </vertices>
        <triangles count="2031">
          <input semantic="VERTEX" source="#vert_0" offset="0"/>
          <input semantic="NORMAL" source="#norm_0" offset="1"/>
          <p>2 0 1 0 3 0 2 1 3 1 4 1 4 2 3 2 5 2 4 3 5 3 6 3 6 3 5 3 7 3 6 4 7 4 8 4 8 4 7 4 9 4 8 5 9 5 10 5 10 5 9 5 11 5 10 6 11 6 12 6 12 6 11 6 13 6 12 7 13 7 14 7 14 7 13 7 15 7 14 8 15 8 16 8 16 9 15 9 17 9 16 10 17 10 18 10 18 10 17 10 19 10 18 11 19 11 20 11 20 11 19 11 21 11 0 12 22 12 1 12 1 12 22 12 23 12 1 12 23 12 24 12 24 12 23 12 25 12 22 13 26 13 23 13 23 14 26 14 27 14 2 15 28 15 0 15 0 16 28 16 29 16 0 17 29 17 22 17 22 17 29 17 30 17 28 18 2 18 31 18 31 19 2 19 4 19 31 20 4 20 32 20 32 21 4 21 20 21 20 22 4 22 6 22 20 22 6 22 8 22 8 22 10 22 20 22 20 22 10 22 12 22 20 22 12 22 14 22 14 22 16 22 20 22 20 22 16 22 18 22 33 23 34 23 32 23 32 24 34 24 35 24 32 25 35 25 36 25 36 26 37 26 32 26 32 27 37 27 38 27 32 28 38 28 39 28 39 29 31 29 32 29 40 30 29 30 41 30 41 30 29 30 28 30 41 31 28 31 42 31 42 31 28 31 31 31 42 32 31 32 43 32 43 32 31 32 39 32 43 33 39 33 44 33 44 34 39 34 38 34 44 35 38 35 45 35 45 35 38 35 37 35 45 36 37 36 46 36 46 36 37 36 36 36 46 37 36 37 47 37 47 37 36 37 35 37 47 38 35 38 48 38 48 39 35 39 34 39 48 40 34 40 49 40 49 41 34 41 33 41 49 42 33 42 50 42 50 42 33 42 32 42 29 43 40 43 30 43 30 44 40 44 51 44 30 45 51 45 52 45 40 46 53 46 51 46 51 47 53 47 54 47 52 48 55 48 30 48 54 49 53 49 56 49 56 49 53 49 57 49 56 50 57 50 58 50 58 50 57 50 59 50 58 51 59 51 60 51 60 51 59 51 61 51 60 52 61 52 62 52 62 53 61 53 63 53 62 54 63 54 64 54 64 55 63 55 65 55 64 56 65 56 66 56 66 56 65 56 67 56 66 57 67 57 68 57 68 57 67 57 69 57 68 58 69 58 70 58 70 59 69 59 71 59 70 60 71 60 72 60 72 61 71 61 73 61 72 62 73 62 74 62 74 62 73 62 75 62 56 63 76 63 54 63 54 64 76 64 25 64 54 65 25 65 51 65 51 65 25 65 23 65 76 66 56 66 77 66 77 67 56 67 58 67 77 68 58 68 78 68 78 69 58 69 74 69 74 70 58 70 60 70 74 71 60 71 62 71 62 72 64 72 74 72 74 73 64 73 66 73 74 74 66 74 68 74 68 75 70 75 74 75 74 76 70 76 72 76 79 22 80 22 78 22 78 22 80 22 81 22 78 22 81 22 82 22 82 77 83 77 78 77 78 27 83 27 84 27 78 28 84 28 85 28 85 29 77 29 78 29 24 78 25 78 86 78 86 78 25 78 76 78 86 79 76 79 87 79 87 79 76 79 77 79 87 80 77 80 88 80 88 80 77 80 85 80 88 81 85 81 89 81 89 81 85 81 84 81 89 82 84 82 90 82 90 82 84 82 83 82 90 83 83 83 91 83 91 83 83 83 82 83 91 84 82 84 92 84 92 84 82 84 81 84 92 85 81 85 93 85 93 85 81 85 80 85 93 86 80 86 94 86 94 86 80 86 79 86 94 87 79 87 95 87 95 87 79 87 78 87 96 88 97 88 98 88 98 88 97 88 99 88 98 89 99 89 100 89 100 89 99 89 101 89 100 90 101 90 102 90 102 90 101 90 103 90 102 91 103 91 104 91 104 91 103 91 105 91 104 92 105 92 106 92 106 93 105 93 107 93 106 94 107 94 108 94 108 95 107 95 109 95 108 96 109 96 110 96 110 97 109 97 111 97 110 98 111 98 112 98 112 98 111 98 113 98 112 99 113 99 114 99 114 100 113 100 115 100 114 101 115 101 26 101 26 102 115 102 27 102 115 103 116 103 27 103 27 104 116 104 117 104 27 105 117 105 118 105 115 106 113 106 116 106 116 107 113 107 97 107 116 108 97 108 119 108 119 109 97 109 120 109 119 110 120 110 121 110 113 111 111 111 97 111 97 112 111 112 109 112 97 113 109 113 107 113 107 113 105 113 97 113 97 113 105 113 103 113 97 113 103 113 101 113 101 113 99 113 97 113 118 114 122 114 27 114 27 115 122 115 123 115 27 116 123 116 124 116 27 117 124 117 23 117 23 118 124 118 125 118 23 113 125 113 126 113 126 113 127 113 23 113 23 113 127 113 128 113 23 113 128 113 129 113 129 113 130 113 23 113 23 113 130 113 131 113 23 119 131 119 51 119 51 120 131 120 52 120 20 121 21 121 32 121 32 122 21 122 50 122 74 123 75 123 78 123 78 123 75 123 95 123 132 124 133 124 134 124 134 125 133 125 135 125 134 126 135 126 136 126 136 127 135 127 137 127 136 128 137 128 138 128 138 129 137 129 139 129 138 130 139 130 140 130 138 131 140 131 141 131 141 132 140 132 142 132 141 133 142 133 143 133 143 133 142 133 144 133 143 134 144 134 145 134 143 135 145 135 146 135 146 136 145 136 147 136 146 137 147 137 148 137 146 138 148 138 149 138 149 139 148 139 150 139 149 140 150 140 151 140 151 141 150 141 152 141 151 142 152 142 153 142 151 143 153 143 154 143 154 144 153 144 155 144 154 22 155 22 156 22 156 22 155 22 157 22 156 22 157 22 158 22 156 22 158 22 159 22 159 145 158 145 160 145 159 146 160 146 161 146 159 146 161 146 162 146 162 147 161 147 163 147 162 148 163 148 164 148 164 22 163 22 165 22 164 22 165 22 166 22 164 22 166 22 167 22 167 149 166 149 168 149 167 150 168 150 169 150 169 124 168 124 170 124 169 125 170 125 171 125 169 126 171 126 172 126 172 151 171 151 173 151 172 152 173 152 174 152 174 153 173 153 175 153 174 154 175 154 176 154 174 155 176 155 177 155 177 132 176 132 178 132 177 133 178 133 179 133 179 133 178 133 180 133 179 156 180 156 181 156 179 157 181 157 182 157 182 136 181 136 183 136 182 137 183 137 184 137 182 138 184 138 185 138 185 158 184 158 186 158 185 22 186 22 187 22 187 22 186 22 188 22 187 22 188 22 189 22 187 159 189 159 190 159 190 160 189 160 191 160 190 161 191 161 192 161 192 162 191 162 193 162 192 163 193 163 194 163 192 22 194 22 195 22 195 22 194 22 196 22 195 22 196 22 197 22 195 22 197 22 198 22 198 22 197 22 199 22 198 22 199 22 200 22 200 164 199 164 201 164 200 165 201 165 202 165 200 166 202 166 203 166 203 167 202 167 132 167 203 150 132 150 134 150 204 168 135 168 205 168 205 168 135 168 133 168 205 169 133 169 206 169 206 169 133 169 132 169 206 170 132 170 207 170 207 170 132 170 202 170 207 171 202 171 208 171 208 172 202 172 201 172 208 173 201 173 209 173 209 174 201 174 199 174 209 175 199 175 210 175 210 176 199 176 197 176 210 177 197 177 211 177 211 178 197 178 196 178 211 179 196 179 212 179 212 180 196 180 194 180 212 181 194 181 213 181 213 182 194 182 193 182 213 183 193 183 214 183 214 183 193 183 191 183 214 184 191 184 215 184 215 184 191 184 189 184 215 185 189 185 216 185 216 185 189 185 188 185 216 186 188 186 217 186 217 186 188 186 186 186 217 187 186 187 218 187 218 187 186 187 184 187 218 188 184 188 219 188 219 188 184 188 183 188 219 189 183 189 220 189 220 189 183 189 181 189 220 190 181 190 221 190 221 191 181 191 180 191 221 192 180 192 222 192 222 193 180 193 178 193 222 194 178 194 223 194 223 195 178 195 176 195 223 196 176 196 224 196 224 196 176 196 175 196 224 197 175 197 225 197 225 198 175 198 173 198 225 199 173 199 226 199 226 199 173 199 171 199 226 200 171 200 227 200 227 201 171 201 170 201 227 202 170 202 228 202 228 203 170 203 168 203 228 204 168 204 229 204 229 204 168 204 166 204 229 205 166 205 230 205 230 205 166 205 165 205 230 206 165 206 231 206 231 206 165 206 163 206 231 207 163 207 232 207 232 207 163 207 161 207 232 208 161 208 233 208 233 208 161 208 160 208 233 209 160 209 234 209 234 209 160 209 158 209 234 210 158 210 235 210 235 210 158 210 157 210 235 211 157 211 236 211 236 211 157 211 155 211 236 212 155 212 237 212 237 212 155 212 153 212 237 213 153 213 238 213 238 214 153 214 152 214 238 215 152 215 239 215 239 216 152 216 150 216 239 217 150 217 240 217 240 217 150 217 148 217 240 218 148 218 241 218 241 219 148 219 147 219 241 220 147 220 242 220 242 220 147 220 145 220 242 221 145 221 243 221 243 221 145 221 144 221 243 222 144 222 244 222 244 222 144 222 142 222 244 223 142 223 245 223 245 223 142 223 140 223 245 224 140 224 246 224 246 225 140 225 139 225 246 226 139 226 247 226 247 226 139 226 137 226 247 227 137 227 204 227 204 228 137 228 135 228 248 229 167 229 249 229 249 230 167 230 169 230 249 231 169 231 250 231 250 232 169 232 172 232 250 233 172 233 174 233 248 234 251 234 167 234 167 235 251 235 164 235 164 236 251 236 252 236 164 237 252 237 162 237 162 238 252 238 253 238 162 239 253 239 159 239 159 240 253 240 254 240 159 241 254 241 156 241 156 242 254 242 255 242 156 243 255 243 154 243 154 244 255 244 256 244 154 245 256 245 151 245 151 246 256 246 257 246 151 247 257 247 149 247 149 248 257 248 258 248 149 249 258 249 146 249 146 250 258 250 259 250 146 251 259 251 143 251 143 252 259 252 260 252 143 253 260 253 141 253 141 254 260 254 261 254 141 255 261 255 138 255 138 256 261 256 262 256 138 257 262 257 136 257 136 258 262 258 263 258 136 259 263 259 134 259 134 260 263 260 264 260 134 261 264 261 203 261 203 262 264 262 265 262 203 263 265 263 200 263 200 264 265 264 266 264 200 265 266 265 198 265 198 266 266 266 267 266 198 267 267 267 195 267 195 268 267 268 268 268 195 269 268 269 192 269 192 270 268 270 269 270 192 271 269 271 190 271 190 272 269 272 270 272 190 273 270 273 187 273 187 274 270 274 271 274 187 275 271 275 185 275 185 276 271 276 272 276 185 277 272 277 182 277 182 278 272 278 273 278 182 279 273 279 179 279 179 280 273 280 274 280 179 281 274 281 177 281 177 282 274 282 275 282 177 283 275 283 174 283 174 284 275 284 250 284 276 124 277 124 278 124 278 125 277 125 279 125 278 126 279 126 280 126 280 151 279 151 281 151 280 152 281 152 282 152 282 153 281 153 283 153 282 154 283 154 284 154 282 155 284 155 285 155 285 132 284 132 286 132 285 133 286 133 287 133 287 133 286 133 288 133 287 156 288 156 289 156 287 157 289 157 290 157 290 136 289 136 291 136 290 285 291 285 292 285 290 22 292 22 293 22 293 22 292 22 294 22 293 286 294 286 295 286 295 141 294 141 296 141 295 142 296 142 297 142 295 143 297 143 298 143 298 160 297 160 299 160 298 161 299 161 300 161 300 287 299 287 301 287 300 22 301 22 302 22 300 22 302 22 303 22 303 22 302 22 304 22 303 288 304 288 305 288 303 146 305 146 306 146 306 147 305 147 307 147 306 148 307 148 308 148 308 22 307 22 309 22 308 22 309 22 310 22 308 22 310 22 311 22 311 149 310 149 312 149 311 150 312 150 313 150 313 124 312 124 314 124 313 125 314 125 315 125 313 126 315 126 316 126 316 151 315 151 317 151 316 152 317 152 318 152 318 153 317 153 319 153 318 154 319 154 320 154 318 155 320 155 321 155 321 132 320 132 322 132 321 133 322 133 323 133 323 133 322 133 324 133 323 134 324 134 325 134 323 22 325 22 326 22 326 289 325 289 327 289 326 285 327 285 328 285 326 290 328 290 329 290 329 139 328 139 330 139 329 140 330 140 331 140 331 141 330 141 332 141 331 142 332 142 333 142 331 143 333 143 334 143 334 160 333 160 335 160 334 161 335 161 336 161 336 287 335 287 337 287 336 22 337 22 338 22 336 22 338 22 339 22 339 22 338 22 340 22 339 288 340 288 341 288 339 146 341 146 342 146 342 147 341 147 343 147 342 148 343 148 344 148 344 22 343 22 345 22 344 22 345 22 346 22 344 22 346 22 347 22 347 149 346 149 276 149 347 150 276 150 278 150 348 291 279 291 349 291 349 292 279 292 277 292 349 293 277 293 350 293 350 294 277 294 276 294 350 295 276 295 351 295 351 295 276 295 346 295 351 296 346 296 352 296 352 297 346 297 345 297 352 298 345 298 353 298 353 173 345 173 343 173 353 176 343 176 354 176 354 299 343 299 341 299 354 300 341 300 355 300 355 300 341 300 340 300 355 301 340 301 356 301 356 179 340 179 338 179 356 182 338 182 357 182 357 302 338 302 337 302 357 303 337 303 358 303 358 303 337 303 335 303 358 304 335 304 359 304 359 304 335 304 333 304 359 305 333 305 360 305 360 305 333 305 332 305 360 306 332 306 361 306 361 307 332 307 330 307 361 308 330 308 362 308 362 309 330 309 328 309 362 310 328 310 363 310 363 311 328 311 327 311 363 312 327 312 364 312 364 313 327 313 325 313 364 314 325 314 365 314 365 315 325 315 324 315 365 316 324 316 366 316 366 192 324 192 322 192 366 195 322 195 367 195 367 317 322 317 320 317 367 318 320 318 368 318 368 319 320 319 319 319 368 198 319 198 369 198 369 320 319 320 317 320 369 321 317 321 370 321 370 321 317 321 315 321 370 322 315 322 371 322 371 323 315 323 314 323 371 324 314 324 372 324 372 325 314 325 312 325 372 326 312 326 373 326 373 326 312 326 310 326 373 327 310 327 374 327 374 328 310 328 309 328 374 329 309 329 375 329 375 330 309 330 307 330 375 331 307 331 376 331 376 332 307 332 305 332 376 333 305 333 377 333 377 334 305 334 304 334 377 335 304 335 378 335 378 336 304 336 302 336 378 337 302 337 379 337 379 210 302 210 301 210 379 211 301 211 380 211 380 338 301 338 299 338 380 339 299 339 381 339 381 339 299 339 297 339 381 340 297 340 382 340 382 213 297 213 296 213 382 341 296 341 383 341 383 341 296 341 294 341 383 342 294 342 384 342 384 342 294 342 292 342 384 343 292 343 385 343 385 344 292 344 291 344 385 345 291 345 386 345 386 346 291 346 289 346 386 347 289 347 387 347 387 348 289 348 288 348 387 349 288 349 388 349 388 350 288 350 286 350 388 351 286 351 389 351 389 351 286 351 284 351 389 352 284 352 390 352 390 352 284 352 283 352 390 353 283 353 391 353 391 354 283 354 281 354 391 355 281 355 348 355 348 356 281 356 279 356 392 357 311 357 393 357 393 358 311 358 313 358 393 359 313 359 394 359 394 360 313 360 316 360 394 284 316 284 318 284 392 361 395 361 311 361 311 235 395 235 308 235 308 236 395 236 396 236 308 362 396 362 306 362 306 363 396 363 397 363 306 364 397 364 303 364 303 365 397 365 398 365 303 241 398 241 300 241 300 242 398 242 399 242 300 366 399 366 298 366 298 367 399 367 400 367 298 368 400 368 295 368 295 369 400 369 401 369 295 247 401 247 293 247 293 248 401 248 402 248 293 249 402 249 290 249 290 250 402 250 403 250 290 370 403 370 287 370 287 371 403 371 404 371 287 372 404 372 285 372 285 373 404 373 405 373 285 374 405 374 282 374 282 375 405 375 406 375 282 376 406 376 280 376 280 377 406 377 407 377 280 378 407 378 278 378 278 379 407 379 408 379 278 380 408 380 347 380 347 381 408 381 409 381 347 382 409 382 344 382 344 383 409 383 410 383 344 265 410 265 342 265 342 266 410 266 411 266 342 384 411 384 339 384 339 385 411 385 412 385 339 386 412 386 336 386 336 270 412 270 413 270 336 271 413 271 334 271 334 272 413 272 414 272 334 273 414 273 331 273 331 274 414 274 415 274 331 387 415 387 329 387 329 388 415 388 416 388 329 389 416 389 326 389 326 278 416 278 417 278 326 390 417 390 323 390 323 391 417 391 418 391 323 281 418 281 321 281 321 282 418 282 419 282 321 283 419 283 318 283 318 284 419 284 394 284 420 392 55 392 131 392 131 393 55 393 52 393 125 394 421 394 422 394 422 394 421 394 423 394 422 395 423 395 424 395 424 395 423 395 425 395 424 396 425 396 426 396 426 396 425 396 427 396 426 397 427 397 428 397 428 397 427 397 429 397 428 398 429 398 430 398 430 398 429 398 431 398 430 399 431 399 420 399 420 399 131 399 430 399 430 399 131 399 130 399 430 398 130 398 428 398 428 398 130 398 129 398 428 397 129 397 426 397 426 397 129 397 128 397 426 396 128 396 424 396 424 396 128 396 127 396 424 395 127 395 422 395 422 395 127 395 126 395 422 394 126 394 125 394 432 400 421 400 124 400 124 401 421 401 125 401 119 402 433 402 434 402 434 403 433 403 435 403 434 404 435 404 436 404 436 405 435 405 437 405 436 406 437 406 438 406 438 407 437 407 439 407 438 408 439 408 440 408 440 409 439 409 441 409 440 410 441 410 442 410 442 411 441 411 443 411 442 412 443 412 432 412 432 413 124 413 442 413 442 414 124 414 123 414 442 415 123 415 440 415 440 416 123 416 122 416 440 417 122 417 438 417 438 418 122 418 118 418 438 419 118 419 436 419 436 420 118 420 117 420 436 421 117 421 434 421 434 421 117 421 116 421 434 422 116 422 119 422 250 423 433 423 249 423 249 424 433 424 119 424 249 425 119 425 248 425 248 426 119 426 251 426 251 427 119 427 252 427 252 428 119 428 253 428 253 429 119 429 254 429 254 430 119 430 255 430 255 431 119 431 256 431 256 432 119 432 257 432 257 433 119 433 121 433 257 434 121 434 399 434 399 435 121 435 400 435 400 436 121 436 401 436 401 437 121 437 402 437 402 438 121 438 403 438 403 439 121 439 404 439 404 440 121 440 405 440 405 441 121 441 406 441 406 442 121 442 407 442 407 443 121 443 444 443 407 444 444 444 408 444 408 445 444 445 409 445 409 446 444 446 410 446 410 447 444 447 411 447 411 448 444 448 412 448 412 449 444 449 413 449 413 450 444 450 414 450 414 451 444 451 415 451 415 452 444 452 433 452 415 453 433 453 269 453 269 454 433 454 270 454 270 455 433 455 271 455 271 456 433 456 272 456 272 457 433 457 273 457 273 458 433 458 274 458 274 459 433 459 275 459 275 460 433 460 250 460 415 461 269 461 416 461 416 462 269 462 268 462 416 463 268 463 417 463 417 464 268 464 267 464 417 465 267 465 418 465 418 466 267 466 266 466 418 467 266 467 419 467 419 468 266 468 265 468 419 469 265 469 394 469 394 470 265 470 264 470 394 471 264 471 393 471 393 472 264 472 263 472 393 473 263 473 392 473 392 474 263 474 262 474 392 470 262 470 395 470 395 475 262 475 261 475 395 476 261 476 396 476 396 467 261 467 260 467 396 466 260 466 397 466 397 477 260 477 259 477 397 478 259 478 398 478 398 479 259 479 258 479 398 480 258 480 399 480 399 481 258 481 257 481 445 482 444 482 120 482 120 483 444 483 121 483 96 484 227 484 97 484 97 485 227 485 228 485 97 486 228 486 229 486 445 487 216 487 96 487 96 488 216 488 217 488 96 489 217 489 218 489 120 490 349 490 445 490 445 22 349 22 350 22 445 22 350 22 351 22 97 491 238 491 120 491 120 492 238 492 382 492 120 493 382 493 383 493 206 494 370 494 205 494 205 495 370 495 371 495 205 495 371 495 204 495 204 496 371 496 372 496 204 497 372 497 247 497 247 498 372 498 373 498 247 499 373 499 246 499 246 500 373 500 374 500 246 501 374 501 245 501 245 502 374 502 375 502 245 503 375 503 244 503 244 504 375 504 376 504 244 505 376 505 243 505 243 506 376 506 377 506 243 507 377 507 242 507 242 508 377 508 378 508 242 509 378 509 241 509 241 510 378 510 379 510 241 511 379 511 240 511 240 512 379 512 380 512 240 513 380 513 239 513 239 514 380 514 381 514 239 515 381 515 238 515 238 516 381 516 382 516 370 517 206 517 369 517 369 518 206 518 207 518 369 519 207 519 368 519 368 520 207 520 208 520 368 521 208 521 367 521 367 522 208 522 209 522 367 503 209 503 366 503 366 504 209 504 210 504 366 505 210 505 365 505 365 523 210 523 211 523 365 524 211 524 364 524 364 525 211 525 212 525 364 526 212 526 363 526 363 527 212 527 213 527 363 528 213 528 362 528 362 529 213 529 214 529 362 513 214 513 361 513 361 514 214 514 215 514 361 530 215 530 360 530 360 531 215 531 216 531 360 532 216 532 445 532 218 533 219 533 96 533 96 534 219 534 220 534 96 535 220 535 221 535 221 536 222 536 96 536 96 537 222 537 223 537 96 538 223 538 224 538 224 539 225 539 96 539 96 540 225 540 226 540 96 541 226 541 227 541 229 542 230 542 97 542 97 543 230 543 231 543 97 544 231 544 232 544 232 545 233 545 97 545 97 546 233 546 234 546 97 547 234 547 235 547 235 548 236 548 97 548 97 549 236 549 237 549 97 550 237 550 238 550 351 22 352 22 445 22 445 22 352 22 353 22 445 551 353 551 354 551 354 552 355 552 445 552 445 553 355 553 356 553 445 554 356 554 357 554 357 555 358 555 445 555 445 556 358 556 359 556 445 557 359 557 360 557 383 558 384 558 120 558 120 559 384 559 385 559 120 560 385 560 386 560 386 561 387 561 120 561 120 562 387 562 388 562 120 563 388 563 389 563 389 564 390 564 120 564 120 565 390 565 391 565 120 566 391 566 348 566 348 567 349 567 120 567 19 568 17 568 21 568 21 569 17 569 15 569 21 570 15 570 13 570 13 571 11 571 21 571 21 572 11 572 9 572 21 573 9 573 7 573 7 574 5 574 21 574 21 568 5 568 3 568 21 568 3 568 1 568 24 575 53 575 1 575 1 575 53 575 40 575 1 576 40 576 21 576 21 577 40 577 50 577 50 578 40 578 41 578 50 579 41 579 42 579 86 580 95 580 24 580 24 581 95 581 75 581 24 582 75 582 53 582 53 583 75 583 57 583 57 584 75 584 59 584 59 585 75 585 61 585 61 586 75 586 63 586 63 587 75 587 65 587 65 588 75 588 67 588 67 589 75 589 69 589 69 568 75 568 71 568 71 568 75 568 73 568 86 590 87 590 95 590 95 591 87 591 88 591 95 592 88 592 89 592 89 593 90 593 95 593 95 594 90 594 91 594 95 595 91 595 92 595 92 596 93 596 95 596 95 568 93 568 94 568 42 597 43 597 50 597 50 592 43 592 44 592 50 593 44 593 45 593 45 594 46 594 50 594 50 598 46 598 47 598 50 568 47 568 48 568 48 568 49 568 50 568 98 121 100 121 96 121 96 121 100 121 102 121 96 121 102 121 104 121 104 121 106 121 96 121 96 121 106 121 108 121 96 599 108 599 110 599 110 600 112 600 96 600 96 601 112 601 435 601 96 602 435 602 433 602 112 603 114 603 435 603 435 604 114 604 26 604 435 605 26 605 437 605 437 606 26 606 439 606 439 607 26 607 441 607 441 608 26 608 443 608 443 609 26 609 432 609 432 610 26 610 22 610 432 611 22 611 421 611 421 121 22 121 423 121 423 121 22 121 425 121 425 612 22 612 427 612 427 613 22 613 429 613 429 614 22 614 431 614 431 615 22 615 420 615 420 616 22 616 30 616 420 617 30 617 55 617 444 618 445 618 433 618 433 619 445 619 96 619 446 620 447 620 448 620 448 621 447 621 449 621 448 622 449 622 450 622 450 623 449 623 451 623 450 624 451 624 452 624 452 624 451 624 453 624 452 625 453 625 454 625 454 625 453 625 455 625 454 626 455 626 456 626 456 626 455 626 457 626 456 627 457 627 458 627 458 627 457 627 459 627 458 628 459 628 460 628 460 628 459 628 461 628 460 629 461 629 462 629 462 629 461 629 463 629 462 630 463 630 464 630 464 630 463 630 465 630 464 631 465 631 466 631 466 631 465 631 467 631 466 632 467 632 468 632 468 632 467 632 469 632 468 633 469 633 470 633 470 633 469 633 471 633 470 634 471 634 472 634 472 634 471 634 473 634 472 635 473 635 474 635 474 635 473 635 475 635 474 636 475 636 476 636 476 636 475 636 477 636 476 637 477 637 478 637 478 637 477 637 479 637 478 638 479 638 480 638 480 638 479 638 481 638 480 639 481 639 482 639 482 639 481 639 483 639 482 45 483 45 484 45 484 45 483 45 485 45 484 640 485 640 486 640 486 640 485 640 487 640 486 641 487 641 488 641 488 641 487 641 489 641 488 642 489 642 490 642 490 642 489 642 491 642 490 643 491 643 492 643 492 643 491 643 493 643 492 644 493 644 494 644 494 644 493 644 495 644 494 645 495 645 496 645 496 645 495 645 497 645 496 646 497 646 498 646 498 646 497 646 499 646 498 647 499 647 500 647 500 647 499 647 501 647 500 648 501 648 502 648 502 648 501 648 503 648 502 649 503 649 504 649 504 649 503 649 505 649 504 650 505 650 506 650 506 650 505 650 507 650 506 651 507 651 508 651 508 651 507 651 509 651 508 652 509 652 510 652 510 652 509 652 511 652 510 653 511 653 512 653 512 653 511 653 513 653 512 654 513 654 514 654 514 654 513 654 515 654 514 655 515 655 446 655 446 655 515 655 447 655 516 620 517 620 518 620 518 620 517 620 519 620 518 623 519 623 520 623 520 623 519 623 521 623 520 624 521 624 522 624 522 624 521 624 523 624 522 625 523 625 524 625 524 625 523 625 525 625 524 626 525 626 526 626 526 626 525 626 527 626 526 627 527 627 528 627 528 627 527 627 529 627 528 628 529 628 530 628 530 628 529 628 531 628 530 629 531 629 532 629 532 629 531 629 533 629 532 630 533 630 534 630 534 630 533 630 535 630 534 631 535 631 536 631 536 631 535 631 537 631 536 632 537 632 538 632 538 632 537 632 539 632 538 633 539 633 540 633 540 633 539 633 541 633 540 634 541 634 542 634 542 634 541 634 543 634 542 635 543 635 544 635 544 635 543 635 545 635 544 636 545 636 546 636 546 636 545 636 547 636 546 637 547 637 548 637 548 637 547 637 549 637 548 638 549 638 550 638 550 638 549 638 551 638 550 639 551 639 552 639 552 639 551 639 553 639 552 45 553 45 554 45 554 45 553 45 555 45 554 640 555 640 556 640 556 640 555 640 557 640 556 641 557 641 558 641 558 641 557 641 559 641 558 642 559 642 560 642 560 642 559 642 561 642 560 643 561 643 562 643 562 643 561 643 563 643 562 644 563 644 564 644 564 644 563 644 565 644 564 645 565 645 566 645 566 645 565 645 567 645 566 646 567 646 568 646 568 646 567 646 569 646 568 647 569 647 570 647 570 647 569 647 571 647 570 648 571 648 572 648 572 648 571 648 573 648 572 649 573 649 574 649 574 649 573 649 575 649 574 650 575 650 576 650 576 650 575 650 577 650 576 651 577 651 578 651 578 651 577 651 579 651 578 652 579 652 580 652 580 652 579 652 581 652 580 653 581 653 582 653 582 653 581 653 583 653 582 654 583 654 584 654 584 654 583 654 585 654 584 655 585 655 516 655 516 655 585 655 517 655 446 656 448 656 586 656 586 657 448 657 450 657 586 658 450 658 452 658 452 659 454 659 586 659 586 660 454 660 456 660 586 661 456 661 458 661 458 662 460 662 586 662 586 663 460 663 587 663 587 664 460 664 462 664 587 665 462 665 588 665 588 666 462 666 464 666 588 667 464 667 589 667 589 668 464 668 590 668 590 669 464 669 591 669 591 670 464 670 466 670 591 671 466 671 592 671 592 672 466 672 593 672 593 673 466 673 468 673 593 674 468 674 470 674 593 675 470 675 594 675 594 676 470 676 472 676 594 677 472 677 474 677 474 678 476 678 594 678 594 679 476 679 595 679 595 680 476 680 478 680 595 681 478 681 480 681 480 682 482 682 595 682 595 683 482 683 484 683 595 684 484 684 486 684 595 685 486 685 596 685 596 686 486 686 488 686 596 687 488 687 490 687 490 688 492 688 596 688 596 689 492 689 494 689 596 690 494 690 597 690 597 691 494 691 496 691 597 692 496 692 598 692 598 693 496 693 498 693 598 694 498 694 599 694 599 695 498 695 500 695 599 696 500 696 600 696 600 697 500 697 502 697 600 698 502 698 601 698 601 699 502 699 504 699 601 700 504 700 602 700 602 701 504 701 506 701 602 702 506 702 508 702 508 703 510 703 602 703 602 704 510 704 603 704 602 705 603 705 538 705 538 706 603 706 536 706 536 707 603 707 534 707 534 708 603 708 532 708 532 709 603 709 530 709 530 710 603 710 604 710 530 711 604 711 528 711 528 712 604 712 605 712 528 713 605 713 526 713 526 714 605 714 606 714 526 715 606 715 524 715 524 716 606 716 607 716 524 717 607 717 522 717 522 718 607 718 608 718 522 719 608 719 520 719 520 720 608 720 609 720 520 721 609 721 518 721 518 722 609 722 610 722 518 723 610 723 516 723 516 724 610 724 611 724 516 725 611 725 584 725 584 726 611 726 612 726 584 727 612 727 582 727 582 728 612 728 613 728 582 729 613 729 580 729 580 730 613 730 614 730 580 731 614 731 578 731 578 732 614 732 615 732 578 733 615 733 576 733 576 734 615 734 616 734 576 735 616 735 574 735 574 736 616 736 617 736 574 737 617 737 618 737 510 738 512 738 603 738 603 739 512 739 514 739 603 740 514 740 446 740 603 741 446 741 586 741 538 742 540 742 602 742 602 743 540 743 542 743 602 744 542 744 544 744 544 745 546 745 602 745 602 746 546 746 548 746 602 747 548 747 550 747 550 748 552 748 602 748 602 749 552 749 619 749 619 750 552 750 554 750 619 751 554 751 556 751 556 752 558 752 619 752 619 753 558 753 560 753 619 754 560 754 562 754 562 755 564 755 619 755 619 756 564 756 566 756 619 757 566 757 620 757 620 758 566 758 621 758 621 759 566 759 568 759 621 760 568 760 622 760 622 761 568 761 623 761 623 762 568 762 570 762 623 763 570 763 624 763 624 764 570 764 625 764 625 765 570 765 626 765 626 766 570 766 572 766 626 767 572 767 627 767 627 768 572 768 628 768 628 769 572 769 618 769 618 770 572 770 574 770 596 121 629 121 595 121 595 771 629 771 630 771 630 772 629 772 631 772 631 773 629 773 632 773 631 774 632 774 633 774 633 775 632 775 634 775 634 776 632 776 635 776 635 777 632 777 636 777 636 778 632 778 637 778 636 121 637 121 638 121 639 779 640 779 629 779 629 780 640 780 641 780 629 781 641 781 642 781 642 121 643 121 629 121 629 121 643 121 632 121 644 782 645 782 643 782 643 783 645 783 646 783 643 784 646 784 647 784 643 121 647 121 632 121 632 121 647 121 648 121 632 121 648 121 649 121 649 121 648 121 650 121 649 785 650 785 651 785 648 786 652 786 650 786 650 787 652 787 653 787 650 788 653 788 654 788 651 785 655 785 649 785 638 789 656 789 636 789 657 790 649 790 658 790 658 790 649 790 655 790 658 791 655 791 659 791 659 791 655 791 651 791 659 792 651 792 660 792 660 792 651 792 650 792 650 793 654 793 660 793 660 793 654 793 661 793 661 794 654 794 662 794 662 794 654 794 653 794 662 795 653 795 663 795 663 796 653 796 652 796 663 797 652 797 664 797 664 798 652 798 648 798 648 799 647 799 664 799 664 799 647 799 665 799 665 800 647 800 666 800 666 800 647 800 646 800 666 801 646 801 667 801 667 801 646 801 645 801 667 802 645 802 668 802 668 802 645 802 644 802 668 803 644 803 669 803 669 803 644 803 643 803 643 804 642 804 669 804 669 804 642 804 670 804 670 805 642 805 671 805 671 805 642 805 641 805 671 806 641 806 672 806 672 806 641 806 640 806 672 807 640 807 673 807 673 807 640 807 639 807 673 808 639 808 674 808 674 808 639 808 629 808 629 809 596 809 674 809 674 809 596 809 675 809 675 810 596 810 676 810 676 810 596 810 597 810 676 811 597 811 677 811 677 811 597 811 598 811 677 812 598 812 678 812 678 812 598 812 599 812 678 813 599 813 679 813 679 813 599 813 600 813 679 814 600 814 680 814 680 814 600 814 601 814 680 815 601 815 681 815 681 815 601 815 602 815 632 816 649 816 682 816 682 816 649 816 657 816 683 817 656 817 684 817 684 817 656 817 638 817 684 818 638 818 685 818 685 818 638 818 637 818 685 819 637 819 682 819 682 819 637 819 632 819 686 820 634 820 687 820 687 820 634 820 635 820 687 821 635 821 688 821 688 822 635 822 636 822 688 823 636 823 683 823 683 824 636 824 656 824 689 825 595 825 690 825 690 826 595 826 630 826 690 827 630 827 691 827 691 827 630 827 631 827 691 828 631 828 692 828 692 828 631 828 633 828 692 829 633 829 686 829 686 830 633 830 634 830 594 831 595 831 693 831 693 831 595 831 689 831 593 832 594 832 694 832 694 832 594 832 693 832 695 833 586 833 696 833 696 834 586 834 587 834 696 835 587 835 697 835 697 836 587 836 588 836 697 837 588 837 698 837 698 838 588 838 589 838 698 839 589 839 699 839 699 839 589 839 590 839 699 840 590 840 700 840 700 841 590 841 591 841 700 842 591 842 701 842 701 843 591 843 592 843 701 844 592 844 694 844 694 845 592 845 593 845 603 846 586 846 702 846 702 846 586 846 695 846 703 847 619 847 704 847 704 847 619 847 620 847 704 848 620 848 705 848 705 848 620 848 621 848 705 849 621 849 706 849 706 849 621 849 622 849 706 850 622 850 707 850 707 850 622 850 623 850 707 851 623 851 708 851 708 851 623 851 624 851 708 852 624 852 709 852 709 852 624 852 625 852 709 853 625 853 710 853 710 853 625 853 626 853 710 854 626 854 711 854 711 854 626 854 627 854 711 855 627 855 712 855 712 855 627 855 628 855 712 856 628 856 713 856 713 856 628 856 618 856 713 857 618 857 714 857 714 857 618 857 617 857 714 858 617 858 715 858 715 858 617 858 616 858 715 859 616 859 716 859 716 859 616 859 615 859 716 860 615 860 717 860 717 860 615 860 614 860 717 861 614 861 718 861 718 861 614 861 613 861 718 862 613 862 719 862 719 862 613 862 612 862 719 863 612 863 720 863 720 863 612 863 611 863 720 864 611 864 721 864 721 864 611 864 610 864 721 865 610 865 722 865 722 865 610 865 609 865 722 866 609 866 723 866 723 866 609 866 608 866 723 867 608 867 724 867 724 867 608 867 607 867 724 868 607 868 725 868 725 868 607 868 606 868 725 869 606 869 726 869 726 869 606 869 605 869 726 870 605 870 727 870 727 870 605 870 604 870 727 871 604 871 702 871 702 871 604 871 603 871 602 872 619 872 681 872 681 872 619 872 703 872 451 873 449 873 695 873 695 874 449 874 447 874 695 875 447 875 702 875 702 876 447 876 515 876 702 877 515 877 513 877 513 878 511 878 702 878 702 879 511 879 681 879 702 880 681 880 539 880 539 881 681 881 541 881 541 882 681 882 543 882 543 883 681 883 545 883 545 884 681 884 547 884 547 885 681 885 549 885 549 886 681 886 551 886 551 887 681 887 553 887 553 888 681 888 703 888 553 889 703 889 555 889 555 890 703 890 557 890 557 891 703 891 559 891 559 892 703 892 561 892 561 893 703 893 563 893 563 894 703 894 565 894 565 895 703 895 567 895 567 896 703 896 704 896 567 897 704 897 705 897 511 898 509 898 681 898 681 899 509 899 507 899 681 900 507 900 505 900 681 901 505 901 680 901 680 902 505 902 503 902 680 903 503 903 679 903 679 904 503 904 501 904 679 905 501 905 678 905 678 906 501 906 499 906 678 907 499 907 677 907 677 908 499 908 497 908 677 909 497 909 676 909 676 910 497 910 495 910 676 911 495 911 675 911 675 912 495 912 493 912 675 913 493 913 491 913 491 914 489 914 675 914 675 915 489 915 487 915 675 916 487 916 689 916 689 917 487 917 485 917 689 918 485 918 483 918 483 919 481 919 689 919 689 920 481 920 479 920 689 921 479 921 477 921 689 922 477 922 693 922 693 923 477 923 475 923 693 924 475 924 473 924 473 925 471 925 693 925 693 926 471 926 694 926 694 927 471 927 469 927 694 928 469 928 467 928 465 929 700 929 467 929 467 930 700 930 701 930 467 931 701 931 694 931 463 932 697 932 465 932 465 933 697 933 698 933 465 934 698 934 699 934 697 935 463 935 696 935 696 936 463 936 461 936 696 937 461 937 695 937 695 938 461 938 459 938 695 939 459 939 457 939 457 940 455 940 695 940 695 941 455 941 453 941 695 942 453 942 451 942 517 943 721 943 519 943 519 944 721 944 722 944 519 945 722 945 521 945 521 946 722 946 723 946 521 947 723 947 523 947 523 948 723 948 724 948 523 949 724 949 525 949 525 950 724 950 725 950 525 951 725 951 527 951 527 952 725 952 726 952 527 953 726 953 529 953 529 954 726 954 727 954 529 955 727 955 531 955 531 956 727 956 702 956 531 957 702 957 533 957 533 958 702 958 535 958 535 959 702 959 537 959 537 960 702 960 539 960 721 961 517 961 720 961 720 962 517 962 585 962 720 963 585 963 719 963 719 964 585 964 583 964 719 965 583 965 718 965 718 966 583 966 581 966 718 967 581 967 717 967 717 968 581 968 579 968 717 969 579 969 716 969 716 970 579 970 577 970 716 971 577 971 715 971 715 972 577 972 575 972 715 973 575 973 714 973 714 974 575 974 713 974 713 975 575 975 573 975 713 976 573 976 712 976 712 977 573 977 711 977 711 978 573 978 710 978 710 979 573 979 571 979 710 980 571 980 709 980 709 981 571 981 708 981 708 982 571 982 707 982 707 983 571 983 569 983 707 984 569 984 706 984 706 985 569 985 705 985 705 986 569 986 567 986 699 987 700 987 465 987 675 113 689 113 674 113 674 113 689 113 690 113 674 113 690 113 691 113 674 113 691 113 682 113 682 113 691 113 692 113 682 113 692 113 686 113 686 113 687 113 682 113 682 113 687 113 688 113 682 113 688 113 685 113 685 113 688 113 684 113 684 113 688 113 683 113 657 113 664 113 682 113 682 113 664 113 665 113 682 113 665 113 669 113 669 113 665 113 666 113 669 113 666 113 667 113 658 113 659 113 657 113 657 113 659 113 660 113 657 113 660 113 664 113 664 113 660 113 663 113 663 113 660 113 662 113 662 113 660 113 661 113 667 113 668 113 669 113 682 113 669 113 674 113 674 113 669 113 670 113 674 113 670 113 671 113 671 113 672 113 674 113 674 113 672 113 673 113 728 620 729 620 730 620 730 988 729 988 731 988 730 989 731 989 732 989 732 623 731 623 733 623 732 624 733 624 734 624 734 624 733 624 735 624 734 625 735 625 736 625 736 625 735 625 737 625 736 626 737 626 738 626 738 626 737 626 739 626 738 627 739 627 740 627 740 627 739 627 741 627 740 628 741 628 742 628 742 628 741 628 743 628 742 629 743 629 744 629 744 629 743 629 745 629 744 630 745 630 746 630 746 630 745 630 747 630 746 631 747 631 748 631 748 631 747 631 749 631 748 632 749 632 750 632 750 632 749 632 751 632 750 633 751 633 752 633 752 633 751 633 753 633 752 634 753 634 754 634 754 634 753 634 755 634 754 635 755 635 756 635 756 635 755 635 757 635 756 636 757 636 758 636 758 636 757 636 759 636 758 637 759 637 760 637 760 637 759 637 761 637 760 638 761 638 762 638 762 638 761 638 763 638 762 639 763 639 764 639 764 639 763 639 765 639 764 45 765 45 766 45 766 45 765 45 767 45 766 640 767 640 768 640 768 640 767 640 769 640 768 641 769 641 770 641 770 641 769 641 771 641 770 642 771 642 772 642 772 642 771 642 773 642 772 643 773 643 774 643 774 643 773 643 775 643 774 644 775 644 776 644 776 644 775 644 777 644 776 645 777 645 778 645 778 645 777 645 779 645 778 646 779 646 780 646 780 646 779 646 781 646 780 647 781 647 782 647 782 647 781 647 783 647 782 648 783 648 784 648 784 648 783 648 785 648 784 649 785 649 786 649 786 649 785 649 787 649 786 650 787 650 788 650 788 650 787 650 789 650 788 651 789 651 790 651 790 651 789 651 791 651 790 652 791 652 792 652 792 652 791 652 793 652 792 653 793 653 794 653 794 653 793 653 795 653 794 654 795 654 796 654 796 654 795 654 797 654 796 655 797 655 728 655 728 655 797 655 729 655 798 620 799 620 800 620 800 620 799 620 801 620 800 623 801 623 802 623 802 623 801 623 803 623 802 624 803 624 804 624 804 624 803 624 805 624 804 625 805 625 806 625 806 625 805 625 807 625 806 626 807 626 808 626 808 626 807 626 809 626 808 627 809 627 810 627 810 627 809 627 811 627 810 628 811 628 812 628 812 628 811 628 813 628 812 629 813 629 814 629 814 629 813 629 815 629 814 630 815 630 816 630 816 630 815 630 817 630 816 631 817 631 818 631 818 631 817 631 819 631 818 632 819 632 820 632 820 632 819 632 821 632 820 633 821 633 822 633 822 633 821 633 823 633 822 634 823 634 824 634 824 634 823 634 825 634 824 635 825 635 826 635 826 635 825 635 827 635 826 636 827 636 828 636 828 636 827 636 829 636 828 637 829 637 830 637 830 637 829 637 831 637 830 638 831 638 832 638 832 638 831 638 833 638 832 639 833 639 834 639 834 639 833 639 835 639 834 45 835 45 836 45 836 45 835 45 837 45 836 640 837 640 838 640 838 640 837 640 839 640 838 641 839 641 840 641 840 641 839 641 841 641 840 642 841 642 842 642 842 642 841 642 843 642 842 643 843 643 844 643 844 643 843 643 845 643 844 644 845 644 846 644 846 644 845 644 847 644 846 645 847 645 848 645 848 645 847 645 849 645 848 646 849 646 850 646 850 646 849 646 851 646 850 647 851 647 852 647 852 647 851 647 853 647 852 648 853 648 854 648 854 648 853 648 855 648 854 649 855 649 856 649 856 649 855 649 857 649 856 650 857 650 858 650 858 650 857 650 859 650 858 651 859 651 860 651 860 651 859 651 861 651 860 652 861 652 862 652 862 652 861 652 863 652 862 653 863 653 864 653 864 653 863 653 865 653 864 654 865 654 866 654 866 654 865 654 867 654 866 655 867 655 798 655 798 655 867 655 799 655 728 121 730 121 868 121 868 121 730 121 732 121 868 121 732 121 734 121 734 121 736 121 868 121 868 121 736 121 738 121 868 121 738 121 740 121 740 121 742 121 868 121 868 121 742 121 869 121 869 121 742 121 744 121 869 121 744 121 870 121 870 121 744 121 746 121 870 121 746 121 871 121 871 121 746 121 872 121 872 121 746 121 873 121 873 121 746 121 748 121 873 121 748 121 874 121 874 121 748 121 875 121 875 121 748 121 750 121 875 121 750 121 752 121 875 121 752 121 876 121 876 121 752 121 754 121 876 121 754 121 756 121 756 121 758 121 876 121 876 121 758 121 877 121 877 121 758 121 760 121 877 121 760 121 762 121 762 121 764 121 877 121 877 121 764 121 766 121 877 121 766 121 768 121 877 121 768 121 878 121 878 121 768 121 770 121 878 121 770 121 772 121 772 121 774 121 878 121 878 121 774 121 776 121 878 121 776 121 879 121 879 121 776 121 778 121 879 121 778 121 880 121 880 121 778 121 780 121 880 121 780 121 881 121 881 121 780 121 782 121 881 121 782 121 882 121 882 121 782 121 784 121 882 121 784 121 883 121 883 121 784 121 786 121 883 121 786 121 884 121 884 121 786 121 788 121 884 121 788 121 790 121 790 121 792 121 884 121 884 121 792 121 885 121 884 121 885 121 820 121 820 121 885 121 818 121 818 121 885 121 816 121 816 121 885 121 814 121 814 121 885 121 812 121 812 121 885 121 886 121 812 121 886 121 810 121 810 121 886 121 887 121 810 121 887 121 808 121 808 121 887 121 888 121 808 121 888 121 806 121 806 121 888 121 889 121 806 121 889 121 804 121 804 121 889 121 890 121 804 121 890 121 802 121 802 121 890 121 891 121 802 121 891 121 800 121 800 121 891 121 892 121 800 121 892 121 798 121 798 121 892 121 893 121 798 121 893 121 866 121 866 121 893 121 894 121 866 121 894 121 864 121 864 121 894 121 895 121 864 121 895 121 862 121 862 121 895 121 896 121 862 121 896 121 860 121 860 121 896 121 897 121 860 121 897 121 858 121 858 121 897 121 898 121 858 121 898 121 856 121 856 121 898 121 899 121 856 121 899 121 900 121 792 121 794 121 885 121 885 121 794 121 796 121 885 121 796 121 728 121 885 121 728 121 868 121 820 121 822 121 884 121 884 121 822 121 824 121 884 121 824 121 826 121 826 121 828 121 884 121 884 121 828 121 830 121 884 121 830 121 832 121 832 121 834 121 884 121 884 121 834 121 901 121 901 121 834 121 836 121 901 121 836 121 838 121 838 121 840 121 901 121 901 121 840 121 842 121 901 121 842 121 844 121 844 121 846 121 901 121 901 121 846 121 848 121 901 121 848 121 902 121 902 121 848 121 903 121 903 121 848 121 850 121 903 121 850 121 904 121 904 121 850 121 905 121 905 121 850 121 852 121 905 121 852 121 906 121 906 121 852 121 907 121 907 121 852 121 908 121 908 121 852 121 854 121 908 121 854 121 909 121 909 121 854 121 910 121 910 121 854 121 900 121 900 121 854 121 856 121 878 121 911 121 877 121 877 121 911 121 912 121 912 121 911 121 913 121 913 121 911 121 914 121 913 121 914 121 915 121 915 121 914 121 916 121 916 121 914 121 917 121 917 121 914 121 918 121 918 121 914 121 919 121 918 121 919 121 920 121 921 121 922 121 911 121 911 121 922 121 923 121 911 121 923 121 924 121 924 121 925 121 911 121 911 121 925 121 914 121 926 121 927 121 925 121 925 121 927 121 928 121 925 121 928 121 929 121 925 121 929 121 914 121 914 121 929 121 930 121 914 121 930 121 931 121 931 121 930 121 932 121 931 121 932 121 933 121 930 121 934 121 932 121 932 121 934 121 935 121 932 121 935 121 936 121 933 121 937 121 931 121 920 121 938 121 918 121 939 793 940 793 936 793 936 793 940 793 932 793 930 798 941 798 934 798 934 990 941 990 942 990 934 991 942 991 935 991 935 795 942 795 943 795 935 794 943 794 936 794 936 794 943 794 939 794 944 799 941 799 929 799 929 799 941 799 930 799 925 803 945 803 926 803 926 803 945 803 946 803 926 802 946 802 927 802 927 802 946 802 947 802 927 801 947 801 928 801 928 801 947 801 948 801 928 800 948 800 929 800 929 800 948 800 944 800 949 804 945 804 924 804 924 804 945 804 925 804 911 808 950 808 921 808 921 808 950 808 951 808 921 807 951 807 922 807 922 807 951 807 952 807 922 806 952 806 923 806 923 806 952 806 953 806 923 805 953 805 924 805 924 805 953 805 949 805 954 809 950 809 878 809 878 809 950 809 911 809 884 815 955 815 883 815 883 992 955 992 956 992 883 993 956 993 882 993 882 994 956 994 957 994 882 995 957 995 881 995 881 813 957 813 958 813 881 812 958 812 880 812 880 812 958 812 959 812 880 811 959 811 879 811 879 811 959 811 960 811 879 810 960 810 878 810 878 810 960 810 954 810 961 872 955 872 901 872 901 872 955 872 884 872 885 871 962 871 886 871 886 871 962 871 963 871 886 870 963 870 887 870 887 996 963 996 964 996 887 997 964 997 888 997 888 997 964 997 965 997 888 998 965 998 889 998 889 868 965 868 966 868 889 867 966 867 890 867 890 999 966 999 967 999 890 1000 967 1000 891 1000 891 866 967 866 968 866 891 865 968 865 892 865 892 1001 968 1001 969 1001 892 1002 969 1002 893 1002 893 1003 969 1003 970 1003 893 1004 970 1004 894 1004 894 863 970 863 971 863 894 862 971 862 895 862 895 862 971 862 972 862 895 861 972 861 896 861 896 1005 972 1005 973 1005 896 1006 973 1006 897 1006 897 1007 973 1007 974 1007 897 1008 974 1008 898 1008 898 859 974 859 975 859 898 858 975 858 899 858 899 858 975 858 976 858 899 857 976 857 900 857 900 1009 976 1009 977 1009 900 1010 977 1010 910 1010 910 1011 977 1011 978 1011 910 1012 978 1012 909 1012 909 1013 978 1013 979 1013 909 1014 979 1014 908 1014 908 854 979 854 980 854 908 853 980 853 907 853 907 1015 980 1015 981 1015 907 1016 981 1016 906 1016 906 1017 981 1017 982 1017 906 1018 982 1018 905 1018 905 1019 982 1019 983 1019 905 1020 983 1020 904 1020 904 1021 983 1021 984 1021 904 1022 984 1022 903 1022 903 1023 984 1023 985 1023 903 1024 985 1024 902 1024 902 1024 985 1024 986 1024 902 1025 986 1025 901 1025 901 847 986 847 961 847 987 846 962 846 868 846 868 846 962 846 885 846 875 845 988 845 874 845 874 845 988 845 989 845 874 1026 989 1026 873 1026 873 1026 989 1026 990 1026 873 1027 990 1027 872 1027 872 1027 990 1027 991 1027 872 1028 991 1028 871 1028 871 1028 991 1028 992 1028 871 1029 992 1029 870 1029 870 1029 992 1029 993 1029 870 1030 993 1030 869 1030 869 1030 993 1030 994 1030 869 833 994 833 868 833 868 833 994 833 987 833 995 832 988 832 876 832 876 832 988 832 875 832 996 831 995 831 877 831 877 831 995 831 876 831 916 830 997 830 915 830 915 830 997 830 998 830 915 1031 998 1031 913 1031 913 1031 998 1031 999 1031 913 1032 999 1032 912 1032 912 1032 999 1032 1000 1032 912 825 1000 825 877 825 877 825 1000 825 996 825 938 824 1001 824 918 824 918 1033 1001 1033 1002 1033 918 1034 1002 1034 917 1034 917 821 1002 821 1003 821 917 820 1003 820 916 820 916 820 1003 820 997 820 914 819 1004 819 919 819 919 819 1004 819 1005 819 919 818 1005 818 920 818 920 818 1005 818 1006 818 920 817 1006 817 938 817 938 817 1006 817 1001 817 1007 816 1004 816 931 816 931 816 1004 816 914 816 932 792 940 792 933 792 933 792 940 792 1008 792 933 791 1008 791 937 791 937 791 1008 791 1009 791 937 790 1009 790 931 790 931 790 1009 790 1007 790 733 113 731 113 987 113 987 113 731 113 729 113 987 113 729 113 962 113 962 113 729 113 797 113 962 113 797 113 795 113 795 113 793 113 962 113 962 113 793 113 955 113 962 113 955 113 821 113 821 113 955 113 823 113 823 113 955 113 825 113 825 113 955 113 827 113 827 113 955 113 829 113 829 113 955 113 831 113 831 113 955 113 833 113 833 113 955 113 835 113 835 113 955 113 961 113 835 113 961 113 837 113 837 113 961 113 839 113 839 113 961 113 841 113 841 113 961 113 843 113 843 113 961 113 845 113 845 113 961 113 847 113 847 113 961 113 849 113 849 113 961 113 986 113 849 113 986 113 985 113 793 113 791 113 955 113 955 113 791 113 789 113 955 113 789 113 787 113 955 113 787 113 956 113 956 113 787 113 785 113 956 113 785 113 957 113 957 113 785 113 783 113 957 113 783 113 958 113 958 113 783 113 781 113 958 113 781 113 959 113 959 113 781 113 779 113 959 113 779 113 960 113 960 113 779 113 777 113 960 113 777 113 954 113 954 113 777 113 775 113 954 113 775 113 773 113 773 113 771 113 954 113 954 113 771 113 769 113 954 113 769 113 996 113 996 113 769 113 767 113 996 113 767 113 765 113 765 113 763 113 996 113 996 113 763 113 761 113 996 113 761 113 759 113 996 113 759 113 995 113 995 113 759 113 757 113 995 113 757 113 755 113 755 113 753 113 995 113 995 113 753 113 988 113 988 113 753 113 751 113 988 113 751 113 749 113 747 113 990 113 749 113 749 113 990 113 989 113 749 113 989 113 988 113 745 113 993 113 747 113 747 113 993 113 992 113 747 113 992 113 991 113 993 113 745 113 994 113 994 113 745 113 743 113 994 113 743 113 987 113 987 113 743 113 741 113 987 113 741 113 739 113 739 113 737 113 987 113 987 113 737 113 735 113 987 113 735 113 733 113 799 113 969 113 801 113 801 113 969 113 968 113 801 113 968 113 803 113 803 113 968 113 967 113 803 113 967 113 805 113 805 113 967 113 966 113 805 113 966 113 807 113 807 113 966 113 965 113 807 113 965 113 809 113 809 113 965 113 964 113 809 113 964 113 811 113 811 113 964 113 963 113 811 113 963 113 813 113 813 113 963 113 962 113 813 113 962 113 815 113 815 113 962 113 817 113 817 113 962 113 819 113 819 113 962 113 821 113 969 113 799 113 970 113 970 113 799 113 867 113 970 113 867 113 971 113 971 113 867 113 865 113 971 113 865 113 972 113 972 113 865 113 863 113 972 113 863 113 973 113 973 113 863 113 861 113 973 113 861 113 974 113 974 113 861 113 859 113 974 113 859 113 975 113 975 113 859 113 857 113 975 113 857 113 976 113 976 113 857 113 977 113 977 113 857 113 855 113 977 113 855 113 978 113 978 113 855 113 979 113 979 113 855 113 980 113 980 113 855 113 853 113 980 113 853 113 981 113 981 113 853 113 982 113 982 113 853 113 983 113 983 113 853 113 851 113 983 113 851 113 984 113 984 113 851 113 985 113 985 113 851 113 849 113 991 113 990 113 747 113 954 113 996 113 950 113 950 113 996 113 1000 113 950 113 1000 113 999 113 950 113 999 113 1004 113 1004 113 999 113 998 113 1004 113 998 113 997 113 997 113 1003 113 1004 113 1004 113 1003 113 1002 113 1004 113 1002 113 1005 113 1005 113 1002 113 1006 113 1006 113 1002 113 1001 113 1007 113 941 113 1004 113 1004 113 941 113 944 113 1004 113 944 113 945 113 945 113 944 113 948 113 945 113 948 113 947 113 1009 113 1008 113 1007 113 1007 113 1008 113 940 113 1007 113 940 113 941 113 941 113 940 113 942 113 942 113 940 113 943 113 943 113 940 113 939 113 947 113 946 113 945 113 1004 113 945 113 950 113 950 113 945 113 949 113 950 113 949 113 953 113 953 113 952 113 950 113 950 113 952 113 951 113</p>
        </triangles>
        <triangles count="1" material="mat_1">
          <input semantic="VERTEX" source="#vert_0" offset="0"/>
          <input semantic="NORMAL" source="#norm_0" offset="1"/>
          <p>0 0 1 0 2 0</p>
        </triangles>
      </mesh>
    </geometry>
  </library_geometries>
  <library_visual_scenes>
    <visual_scene id="DefaultScene">
      <node id="node_6b6f4cd6_b2ed_4582_af66_fefe78999bbf" type="NODE">
        <matrix>1 0 0 0 0 1 0 0 0 0 1 0 0 0 0 1</matrix>
        <node id="node_70b97f47_50d4_4d60_98b6_76d91bd0779e" type="NODE">
          <matrix>1 0 0 0 0 1 0 0 0 0 1 0 0 0 0 1</matrix>
          <node id="node_70b97f47_50d4_4d60_98b6_76d91bd0779e_mesh0" type="NODE">
            <matrix>1 0 0 0 0 1 0 0 0 0 1 0 0 0 0 1</matrix>
            <instance_geometry url="#geometry_8eea16aa_4be1_4773_a28e_70f52687cdd0">
              <bind_material>
                <technique_common>
                  <instance_material symbol="mat_1" target="#mat_1"/>
                </technique_common>
              </bind_material>
            </instance_geometry>
          </node>
        </node>
      </node>
    </visual_scene>
  </library_visual_scenes>
  <scene>
    <instance_visual_scene url="#DefaultScene"/>
  </scene>
</COLLADA>
