<?xml version="1.0" encoding="UTF-8"?>
<COLLADA xmlns="http://www.collada.org/2005/11/COLLADASchema" version="1.4.1">
<!--
# File generated by ImageToStl.com - Free Image and 3D model conversion tools
-->
  <asset>
    <contributor>
      <author>ImageToStl.com</author>
      <authoring_tool>ImageToStl.com</authoring_tool>
    </contributor>
    <created>2026-09-24T03:08:39</created>
    <modified>2026-09-24T03:08:39</modified>
    <up_axis>Z_UP</up_axis>
  </asset>
  <library_effects>
    <effect id="effect_0">
        <profile_COMMON>
          <technique sid="common">
            <phong>
              <diffuse>
                <color>0.62745 0.62745 0.62745 1</color>
              </diffuse>
            </phong>
          </technique>
        </profile_COMMON>
    </effect>
    <effect id="effect_1">
        <profile_COMMON>
          <technique sid="common">
            <phong>
              <diffuse>
                <color>0.59608 0.59608 0.59608 1</color>
              </diffuse>
            </phong>
          </technique>
        </profile_COMMON>
    </effect>
  </library_effects>
  <library_materials>
    <material id="mat_0">
      <instance_effect url="#effect_0"/>
    </material>
    <material id="mat_1">
      <instance_effect url="#effect_1"/>
    </material>
  </library_materials>
  <library_geometries>
    <geometry id="geometry_b3b7cd05_18b6_4eff_b0d2_82e1e418910b">
      <mesh>
        <source id="pos_0">
          <float_array id="pos_0-array" count="1206">36.31484604 23.21175194 -5 36.31484604 23.21175194 0 36.22114182 22.5 -5 36.22114182 22.5 0 36.31484604 21.78824806 -5 36.31484604 21.78824806 0 36.58957291 21.125 -5 36.58957291 21.125 0 37.02659988 20.55545616 -5 37.02659988 20.55545616 0 37.59614182 20.11843109 -5 37.59614182 20.11843109 0 38.25939178 19.84370422 -5 38.25939178 19.84370422 0 38.97114182 19.75 -5 38.97114182 19.75 0 39.68289566 19.84370422 -5 39.68289566 19.84370422 0 40.34614182 20.11843109 -5 40.34614182 20.11843109 0 40.91568756 20.55545616 -5 40.91568756 20.55545616 0 41.35271454 21.125 -5 41.35271454 21.125 0 41.62743759 21.78824806 -5 41.62743759 21.78824806 0 41.72114182 22.5 -5 41.72114182 22.5 0 41.62743759 23.21175194 -5 41.62743759 23.21175194 0 41.35271454 23.875 -5 41.35271454 23.875 0 40.91568756 24.44454384 -5 40.91568756 24.44454384 0 40.34614182 24.88156891 -5 40.34614182 24.88156891 0 39.68289566 25.15629578 -5 39.68289566 25.15629578 0 38.97114182 25.25 -5 38.97114182 25.25 0 38.25939178 25.15629578 -5 38.25939178 25.15629578 0 37.59614182 24.88156891 -5 37.59614182 24.88156891 0 37.02659988 24.44454384 -5 37.02659988 24.44454384 0 36.58957291 23.875 -5 36.58957291 23.875 0 -41.62743759 23.21175194 -5 -41.62743759 23.21175194 0 -41.72114182 22.5 -5 -41.72114182 22.5 0 -41.62743759 21.78824806 -5 -41.62743759 21.78824806 0 -41.35271454 21.125 -5 -41.35271454 21.125 0 -40.91568756 20.55545616 -5 -40.91568756 20.55545616 0 -40.34614182 20.11843109 -5 -40.34614182 20.11843109 0 -39.68289566 19.84370422 -5 -39.68289566 19.84370422 0 -38.97114182 19.75 -5 -38.97114182 19.75 0 -38.25939178 19.84370422 -5 -38.25939178 19.84370422 0 -37.59614182 20.11843109 -5 -37.59614182 20.11843109 0 -37.02659988 20.55545616 -5 -37.02659988 20.55545616 0 -36.58957291 21.125 -5 -36.58957291 21.125 0 -36.31484604 21.78824806 -5 -36.31484604 21.78824806 0 -36.22114182 22.5 -5 -36.22114182 22.5 0 -36.31484604 23.21175194 -5 -36.31484604 23.21175194 0 -36.58957291 23.875 -5 -36.58957291 23.875 0 -37.02659988 24.44454384 -5 -37.02659988 24.44454384 0 -37.59614182 24.88156891 -5 -37.59614182 24.88156891 0 -38.25939178 25.15629578 -5 -38.25939178 25.15629578 0 -38.97114182 25.25 -5 -38.97114182 25.25 0 -39.68289566 25.15629578 -5 -39.68289566 25.15629578 0 -40.34614182 24.88156891 -5 -40.34614182 24.88156891 0 -40.91568756 24.44454384 -5 -40.91568756 24.44454384 0 -41.35271454 23.875 -5 -41.35271454 23.875 0 36.31484604 -21.78824806 -5 36.31484604 -21.78824806 0 36.22114182 -22.5 -5 36.22114182 -22.5 0 36.31484604 -23.21175194 -5 36.31484604 -23.21175194 0 36.58957291 -23.875 -5 36.58957291 -23.875 0 37.02659988 -24.44454384 -5 37.02659988 -24.44454384 0 37.59614182 -24.88156891 -5 37.59614182 -24.88156891 0 38.25939178 -25.15629578 -5 38.25939178 -25.15629578 0 38.97114182 -25.25 -5 38.97114182 -25.25 0 39.68289566 -25.15629578 -5 39.68289566 -25.15629578 0 40.34614182 -24.88156891 -5 40.34614182 -24.88156891 0 40.91568756 -24.44454384 -5 40.91568756 -24.44454384 0 41.35271454 -23.875 -5 41.35271454 -23.875 0 41.62743759 -23.21175194 -5 41.62743759 -23.21175194 0 41.72114182 -22.5 -5 41.72114182 -22.5 0 41.62743759 -21.78824806 -5 41.62743759 -21.78824806 0 41.35271454 -21.125 -5 41.35271454 -21.125 0 40.91568756 -20.55545616 -5 40.91568756 -20.55545616 0 40.34614182 -20.11843109 -5 40.34614182 -20.11843109 0 39.68289566 -19.84370422 -5 39.68289566 -19.84370422 0 38.97114182 -19.75 -5 38.97114182 -19.75 0 38.25939178 -19.84370422 -5 38.25939178 -19.84370422 0 37.59614182 -20.11843109 -5 37.59614182 -20.11843109 0 37.02659988 -20.55545616 -5 37.02659988 -20.55545616 0 36.58957291 -21.125 -5 36.58957291 -21.125 0 -41.62743759 -21.78824806 -5 -41.62743759 -21.78824806 0 -41.72114182 -22.5 -5 -41.72114182 -22.5 0 -41.62743759 -23.21175194 -5 -41.62743759 -23.21175194 0 -41.35271454 -23.875 -5 -41.35271454 -23.875 0 -40.91568756 -24.44454384 -5 -40.91568756 -24.44454384 0 -40.34614182 -24.88156891 -5 -40.34614182 -24.88156891 0 -39.68289566 -25.15629578 -5 -39.68289566 -25.15629578 0 -38.97114182 -25.25 -5 -38.97114182 -25.25 0 -38.25939178 -25.15629578 -5 -38.25939178 -25.15629578 0 -37.59614182 -24.88156891 -5 -37.59614182 -24.88156891 0 -37.02659988 -24.44454384 -5 -37.02659988 -24.44454384 0 -36.58957291 -23.875 -5 -36.58957291 -23.875 0 -36.31484604 -23.21175194 -5 -36.31484604 -23.21175194 0 -36.22114182 -22.5 -5 -36.22114182 -22.5 0 -36.31484604 -21.78824806 -5 -36.31484604 -21.78824806 0 -36.58957291 -21.125 -5 -36.58957291 -21.125 0 -37.02659988 -20.55545616 -5 -37.02659988 -20.55545616 0 -37.59614182 -20.11843109 -5 -37.59614182 -20.11843109 0 -38.25939178 -19.84370422 -5 -38.25939178 -19.84370422 0 -38.97114182 -19.75 -5 -38.97114182 -19.75 0 -39.68289566 -19.84370422 -5 -39.68289566 -19.84370422 0 -40.34614182 -20.11843109 -5 -40.34614182 -20.11843109 0 -40.91568756 -20.55545616 -5 -40.91568756 -20.55545616 0 -41.35271454 -21.125 -5 -41.35271454 -21.125 0 -169.69572449 -10.16670609 -5 -169.69572449 -10.16670609 0 -170 -0 -5 -170 -0 0 -169.69572449 10.16670609 -5 -169.69572449 10.16670609 0 -168.78398132 20.29701805 -5 -168.78398132 20.29701805 0 -167.26803589 30.35467148 -5 -167.26803589 30.35467148 0 -165.15330505 40.30366516 -5 -165.15330505 40.30366516 0 -162.44737244 50.10837936 -5 -162.44737244 50.10837936 0 -159.15992737 59.73371887 -5 -159.15992737 59.73371887 0 -155.30273438 69.14522552 -5 -155.30273438 69.14522552 0 -150.8895874 78.30921936 -5 -150.8895874 78.30921936 0 -145.93629456 87.19287872 -5 -145.93629456 87.19287872 0 -140.46058655 95.76441193 -5 -140.46058655 95.76441193 0 -134.48207092 103.99313354 -5 -134.48207092 103.99313354 0 -128.02215576 111.84958649 -5 -128.02215576 111.84958649 0 -121.10393524 119.30564117 -5 -121.10393524 119.30564117 0 -113.7522049 126.33461761 -5 -113.7522049 126.33461761 0 -105.99326324 132.91134644 -5 -105.99326324 132.91134644 0 -97.85490417 139.01229858 -5 -97.85490417 139.01229858 0 -89.36624146 144.61561584 -5 -89.36624146 144.61561584 0 -80.55767059 149.70123291 -5 -80.55767059 149.70123291 0 -71.46073151 154.25097656 -5 -71.46073151 154.25097656 0 -62.10797501 158.24853516 -5 -62.10797501 158.24853516 0 -52.53289032 161.67961121 -5 -52.53289032 161.67961121 0 -42.76974869 164.53190613 -5 -42.76974869 164.53190613 0 -32.85350418 166.79522705 -5 -32.85350418 166.79522705 0 -22.81965446 168.4614563 -5 -22.81965446 168.4614563 0 -12.70411587 169.52464294 -5 -12.70411587 169.52464294 0 -2.54309916 169.98097229 -5 -2.54309916 169.98097229 0 7.62702131 169.8288269 -5 7.62702131 169.8288269 0 17.76983833 169.06872559 -5 17.76983833 169.06872559 0 27.8490448 167.70339966 -5 27.8490448 167.70339966 0 37.82855988 165.73774719 -5 37.82855988 165.73774719 0 47.67265701 163.17878723 -5 47.67265701 163.17878723 0 57.34609604 160.03570557 -5 57.34609604 160.03570557 0 66.81425476 156.31971741 -5 66.81425476 156.31971741 0 76.04323578 152.04415894 -5 76.04323578 152.04415894 0 85 147.22431946 -5 85 147.22431946 0 93.65248871 141.87745667 -5 93.65248871 141.87745667 0 101.96971893 136.02270508 -5 101.96971893 136.02270508 0 109.92192841 129.68103027 -5 109.92192841 129.68103027 0 117.48065186 122.8751297 -5 117.48065186 122.8751297 0 124.61882019 115.62936401 -5 124.61882019 115.62936401 0 131.31088257 107.96968079 -5 131.31088257 107.96968079 0 137.53288269 99.92349243 -5 137.53288269 99.92349243 0 143.26255798 91.51960754 -5 143.26255798 91.51960754 0 148.47940063 82.7881012 -5 148.47940063 82.7881012 0 153.16470337 73.76023865 -5 153.16470337 73.76023865 0 157.30172729 64.46833038 -5 157.30172729 64.46833038 0 160.87565613 54.94564056 -5 160.87565613 54.94564056 0 163.87368774 45.22626495 -5 163.87368774 45.22626495 0 166.28509521 35.34498596 -5 166.28509521 35.34498596 0 168.10124207 25.33718491 -5 168.10124207 25.33718491 0 169.31562805 15.23868275 -5 169.31562805 15.23868275 0 169.92391968 5.08562946 -5 169.92391968 5.08562946 0 169.92391968 -5.08562946 -5 169.92391968 -5.08562946 0 169.31562805 -15.23868275 -5 169.31562805 -15.23868275 0 168.10124207 -25.33718491 -5 168.10124207 -25.33718491 0 166.28509521 -35.34498596 -5 166.28509521 -35.34498596 0 163.87368774 -45.22626495 -5 163.87368774 -45.22626495 0 160.87565613 -54.94564056 -5 160.87565613 -54.94564056 0 157.30172729 -64.46833038 -5 157.30172729 -64.46833038 0 153.16470337 -73.76023865 -5 153.16470337 -73.76023865 0 148.47940063 -82.7881012 -5 148.47940063 -82.7881012 0 143.26255798 -91.51960754 -5 143.26255798 -91.51960754 0 137.53288269 -99.92349243 -5 137.53288269 -99.92349243 0 131.31088257 -107.96968079 -5 131.31088257 -107.96968079 0 124.61882019 -115.62936401 -5 124.61882019 -115.62936401 0 117.48065186 -122.8751297 -5 117.48065186 -122.8751297 0 109.92192841 -129.68103027 -5 109.92192841 -129.68103027 0 101.96971893 -136.02270508 -5 101.96971893 -136.02270508 0 93.65248871 -141.87745667 -5 93.65248871 -141.87745667 0 85 -147.22431946 -5 85 -147.22431946 0 76.04323578 -152.04415894 -5 76.04323578 -152.04415894 0 66.81425476 -156.31971741 -5 66.81425476 -156.31971741 0 57.34609604 -160.03570557 -5 57.34609604 -160.03570557 0 47.67265701 -163.17878723 -5 47.67265701 -163.17878723 0 37.82855988 -165.73774719 -5 37.82855988 -165.73774719 0 27.8490448 -167.70339966 -5 27.8490448 -167.70339966 0 17.76983833 -169.06872559 -5 17.76983833 -169.06872559 0 7.62702131 -169.8288269 -5 7.62702131 -169.8288269 0 -2.54309916 -169.98097229 -5 -2.54309916 -169.98097229 0 -12.70411587 -169.52464294 -5 -12.70411587 -169.52464294 0 -22.81965446 -168.4614563 -5 -22.81965446 -168.4614563 0 -32.85350418 -166.79522705 -5 -32.85350418 -166.79522705 0 -42.76974869 -164.53190613 -5 -42.76974869 -164.53190613 0 -52.53289032 -161.67961121 -5 -52.53289032 -161.67961121 0 -62.10797501 -158.24853516 -5 -62.10797501 -158.24853516 0 -71.46073151 -154.25097656 -5 -71.46073151 -154.25097656 0 -80.55767059 -149.70123291 -5 -80.55767059 -149.70123291 0 -89.36624146 -144.61561584 -5 -89.36624146 -144.61561584 0 -97.85490417 -139.01229858 -5 -97.85490417 -139.01229858 0 -105.99326324 -132.91134644 -5 -105.99326324 -132.91134644 0 -113.7522049 -126.33461761 -5 -113.7522049 -126.33461761 0 -121.10393524 -119.30564117 -5 -121.10393524 -119.30564117 0 -128.02215576 -111.84958649 -5 -128.02215576 -111.84958649 0 -134.48207092 -103.99313354 -5 -134.48207092 -103.99313354 0 -140.46058655 -95.76441193 -5 -140.46058655 -95.76441193 0 -145.93629456 -87.19287872 -5 -145.93629456 -87.19287872 0 -150.8895874 -78.30921936 -5 -150.8895874 -78.30921936 0 -155.30273438 -69.14522552 -5 -155.30273438 -69.14522552 0 -159.15992737 -59.73371887 -5 -159.15992737 -59.73371887 0 -162.44737244 -50.10837936 -5 -162.44737244 -50.10837936 0 -165.15330505 -40.30366516 -5 -165.15330505 -40.30366516 0 -167.26803589 -30.35467148 -5 -167.26803589 -30.35467148 0 -168.78398132 -20.29701805 -5 -168.78398132 -20.29701805 0</float_array>
          <technique_common>
            <accessor source="#pos_0-array" count="1206" stride="3">
              <param name="X" type="float"/>
              <param name="Y" type="float"/>
              <param name="Z" type="float"/>
            </accessor>
          </technique_common>
        </source>
        <source id="norm_0">
          <float_array id="norm_0-array" count="792">0.99144 -0.13053 0 0.99144 0.13053 -0 0.92388 0.38268 -0 0.79335 0.60876 -0 0.60876 0.79335 -0 0.38268 0.92388 -0 0.13053 0.99144 -0 -0.13053 0.99144 0 -0.38268 0.92388 0 -0.38268 0.92388 -0 -0.60876 0.79335 -0 -0.60876 0.79335 0 -0.79335 0.60876 0 -0.92388 0.38268 0 -0.99144 0.13053 0 -0.99144 -0.13053 0 -0.92388 -0.38268 0 -0.79335 -0.60876 0 -0.60876 -0.79335 0 -0.60876 -0.79335 0 -0.38268 -0.92388 0 -0.38268 -0.92388 0 -0.13053 -0.99144 0 0.13053 -0.99144 0 0.38268 -0.92388 0 0.60876 -0.79335 0 0.79335 -0.60876 0 0.92388 -0.38268 0 0.92388 0.38268 0 0.79335 0.60876 0 -0.79335 0.60876 -0 -0.92388 0.38268 -0 -0.92388 -0.38268 0 -0.79335 -0.60876 0 -0.13053 -0.99144 0 0.79335 -0.60876 -0 0.92388 -0.38268 -0 -0.92388 -0.38268 0 -0.79335 -0.60876 0 0.79335 -0.60876 -0 0.92388 -0.38268 -0 0.38268 0.92388 -0 0.13053 0.99144 -0 -0.13053 0.99144 -0 -0.38268 0.92388 -0 -0.38268 0.92388 0 -0.60876 0.79335 0 -0.92388 0.38268 0 -0.99144 0.13053 0 -0.99144 -0.13053 -0 -0.92388 -0.38268 -0 -0.60876 -0.79335 -0 -0.38268 -0.92388 -0 0.13053 -0.99144 0 0.38268 -0.92388 0 -0.99955 -0.02992 -0 -0.99955 -0.02992 0 -0.99955 0.02992 -0 -0.99955 0.02992 0 -0.99597 0.08964 0 -0.99597 0.08964 0 -0.98883 0.14904 0 -0.98883 0.14904 0 -0.97815 0.20791 0 -0.97815 0.20791 0 -0.96396 0.26604 0 -0.96396 0.26604 -0 -0.94633 0.32321 -0 -0.94633 0.32321 0 -0.9253 0.37923 0 -0.9253 0.37923 -0 -0.90097 0.43388 -0 -0.90097 0.43388 -0 -0.87341 0.48699 -0 -0.87341 0.48699 0 -0.84272 0.53835 0 -0.84272 0.53835 -0 -0.80902 0.58779 -0 -0.80902 0.58779 -0 -0.77242 0.63512 0 -0.77242 0.63512 0 -0.73305 0.68017 0 -0.73305 0.68017 0 -0.69106 0.72279 0 -0.69106 0.72279 -0 -0.6466 0.76283 -0 -0.6466 0.76283 0 -0.59982 0.80013 0 -0.59982 0.80013 0 -0.5509 0.83457 0 -0.5509 0.83457 0 -0.5 0.86603 0 -0.5 0.86603 0 -0.44731 0.89438 0 -0.44731 0.89438 -0 -0.39303 0.91953 -0 -0.39303 0.91953 0 -0.33733 0.94139 0 -0.33733 0.94139 0 -0.28043 0.95988 0 -0.28043 0.95988 -0 -0.22252 0.97493 -0 -0.22252 0.97493 0 -0.16382 0.98649 0 -0.16382 0.98649 0 -0.10453 0.99452 0 -0.10453 0.99452 -0 -0.04486 0.99899 -0 -0.04486 0.99899 -0 0.01496 0.99989 0 0.01496 0.99989 -0 0.07473 0.9972 -0 0.07473 0.9972 -0 0.13423 0.99095 -0 0.13423 0.99095 0 0.19326 0.98115 0 0.19326 0.98115 -0 0.25159 0.96783 -0 0.25159 0.96783 -0 0.30902 0.95106 -0 0.30902 0.95106 0 0.36534 0.93087 0 0.36534 0.93087 -0 0.42036 0.90736 -0 0.42036 0.90736 0 0.47387 0.8806 0 0.47387 0.8806 -0 0.52568 0.85068 0 0.52568 0.85068 -0 0.57562 0.81772 -0 0.57562 0.81772 -0 0.62349 0.78183 -0 0.62349 0.78183 0 0.66913 0.74314 0 0.66913 0.74314 -0 0.71238 0.7018 -0 0.71238 0.7018 0 0.75307 0.65794 0 0.79107 0.61172 0 0.79107 0.61172 -0 0.82624 0.56332 -0 0.82624 0.56332 -0 0.85845 0.5129 -0 0.85845 0.5129 -0 0.88759 0.46064 -0 0.88759 0.46064 -0 0.91355 0.40674 -0 0.91355 0.40674 -0 0.93623 0.35137 0 0.93623 0.35137 -0 0.95557 0.29476 -0 0.95557 0.29476 -0 0.97149 0.23708 -0 0.97149 0.23708 0 0.98393 0.17856 0 0.98393 0.17856 0 0.99285 0.11939 0 0.99285 0.11939 -0 0.99821 0.0598 -0 0.99821 0.0598 -0 1 0 -0 0.99821 -0.0598 0 0.99821 -0.0598 0 0.99285 -0.11939 0 0.99285 -0.11939 -0 0.98393 -0.17856 -0 0.98393 -0.17856 -0 0.97149 -0.23708 -0 0.97149 -0.23708 0 0.95557 -0.29476 0 0.95557 -0.29476 0 0.93623 -0.35137 0 0.93623 -0.35137 -0 0.91355 -0.40674 0 0.91355 -0.40674 0 0.88759 -0.46064 0 0.88759 -0.46064 0 0.85845 -0.5129 0 0.85845 -0.5129 0 0.82624 -0.56332 0 0.82624 -0.56332 0 0.79107 -0.61172 0 0.79107 -0.61172 -0 0.75307 -0.65794 -0 0.71238 -0.7018 -0 0.71238 -0.7018 0 0.66913 -0.74314 0 0.66913 -0.74314 -0 0.62349 -0.78183 -0 0.62349 -0.78183 0 0.57562 -0.81772 0 0.57562 -0.81772 0 0.52568 -0.85068 0 0.52568 -0.85068 -0 0.47387 -0.8806 0 0.47387 -0.8806 -0 0.42036 -0.90736 -0 0.42036 -0.90736 0 0.36534 -0.93087 0 0.36534 -0.93087 -0 0.30902 -0.95106 -0 0.30902 -0.95106 0 0.25159 -0.96783 0 0.25159 -0.96783 0 0.19326 -0.98115 0 0.19326 -0.98115 -0 0.13423 -0.99095 -0 0.13423 -0.99095 0 0.07473 -0.9972 0 0.07473 -0.9972 0 0.01496 -0.99989 0 0.01496 -0.99989 -0 -0.04486 -0.99899 0 -0.04486 -0.99899 0 -0.10453 -0.99452 0 -0.10453 -0.99452 0 -0.16382 -0.98649 0 -0.16382 -0.98649 -0 -0.22252 -0.97493 -0 -0.22252 -0.97493 0 -0.28043 -0.95988 0 -0.28043 -0.95988 0 -0.33733 -0.94139 0 -0.33733 -0.94139 -0 -0.39303 -0.91953 -0 -0.39303 -0.91953 0 -0.44731 -0.89438 0 -0.44731 -0.89438 0 -0.5 -0.86603 0 -0.5 -0.86603 -0 -0.5509 -0.83457 -0 -0.5509 -0.83457 -0 -0.59982 -0.80013 -0 -0.59982 -0.80013 0 -0.6466 -0.76283 0 -0.6466 -0.76283 0 -0.69106 -0.72279 0 -0.69106 -0.72279 -0 -0.73305 -0.68017 -0 -0.73305 -0.68017 0 -0.77242 -0.63512 0 -0.77242 -0.63512 -0 -0.80902 -0.58779 0 -0.80902 -0.58779 0 -0.84272 -0.53835 0 -0.84272 -0.53835 0 -0.87341 -0.48699 0 -0.87341 -0.48699 0 -0.90097 -0.43388 0 -0.90097 -0.43388 0 -0.9253 -0.37923 0 -0.9253 -0.37923 0 -0.94633 -0.32321 0 -0.94633 -0.32321 0 -0.96396 -0.26604 0 -0.96396 -0.26604 -0 -0.97815 -0.20791 -0 -0.97815 -0.20791 0 -0.98883 -0.14904 0 -0.98883 -0.14904 -0 -0.99597 -0.08964 -0 -0.99597 -0.08964 -0 0 0 1 -0 0 -1</float_array>
          <technique_common>
            <accessor source="#norm_0-array" count="792" stride="3">
              <param name="X" type="float"/>
              <param name="Y" type="float"/>
              <param name="Z" type="float"/>
            </accessor>
          </technique_common>
        </source>
        <vertices id="vert_0">
          <input semantic="POSITION" source="#pos_0"/>
        </vertices>
        <triangles count="815">
          <input semantic="VERTEX" source="#vert_0" offset="0"/>
          <input semantic="NORMAL" source="#norm_0" offset="1"/>
          <p>2 0 1 0 3 0 2 1 3 1 4 1 4 1 3 1 5 1 4 2 5 2 6 2 6 2 5 2 7 2 6 3 7 3 8 3 8 3 7 3 9 3 8 4 9 4 10 4 10 4 9 4 11 4 10 5 11 5 12 5 12 5 11 5 13 5 12 6 13 6 14 6 14 6 13 6 15 6 14 7 15 7 16 7 16 7 15 7 17 7 16 8 17 8 18 8 18 9 17 9 19 9 18 10 19 10 20 10 20 11 19 11 21 11 20 12 21 12 22 12 22 12 21 12 23 12 22 13 23 13 24 13 24 13 23 13 25 13 24 14 25 14 26 14 26 14 25 14 27 14 26 15 27 15 28 15 28 15 27 15 29 15 28 16 29 16 30 16 30 16 29 16 31 16 30 17 31 17 32 17 32 17 31 17 33 17 32 18 33 18 34 18 34 19 33 19 35 19 34 20 35 20 36 20 36 21 35 21 37 21 36 22 37 22 38 22 38 22 37 22 39 22 38 23 39 23 40 23 40 23 39 23 41 23 40 24 41 24 42 24 42 24 41 24 43 24 42 25 43 25 44 25 44 25 43 25 45 25 44 26 45 26 46 26 46 26 45 26 47 26 46 27 47 27 0 27 0 27 47 27 1 27 48 0 49 0 50 0 50 0 49 0 51 0 50 1 51 1 52 1 52 1 51 1 53 1 52 2 53 2 54 2 54 28 53 28 55 28 54 29 55 29 56 29 56 3 55 3 57 3 56 4 57 4 58 4 58 4 57 4 59 4 58 5 59 5 60 5 60 5 59 5 61 5 60 6 61 6 62 6 62 6 61 6 63 6 62 7 63 7 64 7 64 7 63 7 65 7 64 8 65 8 66 8 66 8 65 8 67 8 66 11 67 11 68 11 68 11 67 11 69 11 68 12 69 12 70 12 70 30 69 30 71 30 70 31 71 31 72 31 72 13 71 13 73 13 72 14 73 14 74 14 74 14 73 14 75 14 74 15 75 15 76 15 76 15 75 15 77 15 76 16 77 16 78 16 78 32 77 32 79 32 78 33 79 33 80 33 80 17 79 17 81 17 80 18 81 18 82 18 82 18 81 18 83 18 82 21 83 21 84 21 84 20 83 20 85 20 84 34 85 34 86 34 86 22 85 22 87 22 86 23 87 23 88 23 88 23 87 23 89 23 88 24 89 24 90 24 90 24 89 24 91 24 90 25 91 25 92 25 92 25 91 25 93 25 92 26 93 26 94 26 94 35 93 35 95 35 94 36 95 36 48 36 48 27 95 27 49 27 96 0 97 0 98 0 98 0 97 0 99 0 98 1 99 1 100 1 100 1 99 1 101 1 100 2 101 2 102 2 102 28 101 28 103 28 102 29 103 29 104 29 104 3 103 3 105 3 104 4 105 4 106 4 106 4 105 4 107 4 106 5 107 5 108 5 108 5 107 5 109 5 108 6 109 6 110 6 110 6 109 6 111 6 110 7 111 7 112 7 112 7 111 7 113 7 112 8 113 8 114 8 114 8 113 8 115 8 114 11 115 11 116 11 116 11 115 11 117 11 116 12 117 12 118 12 118 30 117 30 119 30 118 31 119 31 120 31 120 13 119 13 121 13 120 14 121 14 122 14 122 14 121 14 123 14 122 15 123 15 124 15 124 15 123 15 125 15 124 16 125 16 126 16 126 37 125 37 127 37 126 38 127 38 128 38 128 17 127 17 129 17 128 18 129 18 130 18 130 18 129 18 131 18 130 21 131 21 132 21 132 21 131 21 133 21 132 22 133 22 134 22 134 22 133 22 135 22 134 23 135 23 136 23 136 23 135 23 137 23 136 24 137 24 138 24 138 24 137 24 139 24 138 25 139 25 140 25 140 25 139 25 141 25 140 26 141 26 142 26 142 39 141 39 143 39 142 40 143 40 96 40 96 27 143 27 97 27 144 0 145 0 146 0 146 0 145 0 147 0 146 1 147 1 148 1 148 1 147 1 149 1 148 2 149 2 150 2 150 28 149 28 151 28 150 29 151 29 152 29 152 3 151 3 153 3 152 4 153 4 154 4 154 4 153 4 155 4 154 5 155 5 156 5 156 41 155 41 157 41 156 42 157 42 158 42 158 6 157 6 159 6 158 7 159 7 160 7 160 43 159 43 161 43 160 44 161 44 162 44 162 45 161 45 163 45 162 46 163 46 164 46 164 11 163 11 165 11 164 12 165 12 166 12 166 30 165 30 167 30 166 31 167 31 168 31 168 47 167 47 169 47 168 48 169 48 170 48 170 14 169 14 171 14 170 15 171 15 172 15 172 49 171 49 173 49 172 50 173 50 174 50 174 32 173 32 175 32 174 33 175 33 176 33 176 17 175 17 177 17 176 18 177 18 178 18 178 51 177 51 179 51 178 52 179 52 180 52 180 21 179 21 181 21 180 22 181 22 182 22 182 22 181 22 183 22 182 23 183 23 184 23 184 53 183 53 185 53 184 54 185 54 186 54 186 24 185 24 187 24 186 25 187 25 188 25 188 25 187 25 189 25 188 26 189 26 190 26 190 35 189 35 191 35 190 36 191 36 144 36 144 27 191 27 145 27 192 55 193 55 194 55 194 56 193 56 195 56 194 57 195 57 196 57 196 58 195 58 197 58 196 59 197 59 198 59 198 60 197 60 199 60 198 61 199 61 200 61 200 62 199 62 201 62 200 63 201 63 202 63 202 64 201 64 203 64 202 65 203 65 204 65 204 66 203 66 205 66 204 67 205 67 206 67 206 68 205 68 207 68 206 69 207 69 208 69 208 70 207 70 209 70 208 71 209 71 210 71 210 72 209 72 211 72 210 73 211 73 212 73 212 74 211 74 213 74 212 75 213 75 214 75 214 76 213 76 215 76 214 77 215 77 216 77 216 78 215 78 217 78 216 79 217 79 218 79 218 80 217 80 219 80 218 81 219 81 220 81 220 82 219 82 221 82 220 83 221 83 222 83 222 84 221 84 223 84 222 85 223 85 224 85 224 86 223 86 225 86 224 87 225 87 226 87 226 88 225 88 227 88 226 89 227 89 228 89 228 90 227 90 229 90 228 91 229 91 230 91 230 92 229 92 231 92 230 93 231 93 232 93 232 94 231 94 233 94 232 95 233 95 234 95 234 96 233 96 235 96 234 97 235 97 236 97 236 98 235 98 237 98 236 99 237 99 238 99 238 100 237 100 239 100 238 101 239 101 240 101 240 102 239 102 241 102 240 103 241 103 242 103 242 104 241 104 243 104 242 105 243 105 244 105 244 106 243 106 245 106 244 107 245 107 246 107 246 108 245 108 247 108 246 109 247 109 248 109 248 110 247 110 249 110 248 111 249 111 250 111 250 112 249 112 251 112 250 113 251 113 252 113 252 114 251 114 253 114 252 115 253 115 254 115 254 116 253 116 255 116 254 117 255 117 256 117 256 118 255 118 257 118 256 119 257 119 258 119 258 120 257 120 259 120 258 121 259 121 260 121 260 122 259 122 261 122 260 123 261 123 262 123 262 124 261 124 263 124 262 125 263 125 264 125 264 126 263 126 265 126 264 127 265 127 266 127 266 128 265 128 267 128 266 129 267 129 268 129 268 130 267 130 269 130 268 131 269 131 270 131 270 132 269 132 271 132 270 133 271 133 272 133 272 134 271 134 273 134 272 135 273 135 274 135 274 136 273 136 275 136 274 137 275 137 276 137 276 137 275 137 277 137 276 138 277 138 278 138 278 139 277 139 279 139 278 140 279 140 280 140 280 141 279 141 281 141 280 142 281 142 282 142 282 143 281 143 283 143 282 144 283 144 284 144 284 145 283 145 285 145 284 146 285 146 286 146 286 147 285 147 287 147 286 148 287 148 288 148 288 149 287 149 289 149 288 150 289 150 290 150 290 151 289 151 291 151 290 152 291 152 292 152 292 153 291 153 293 153 292 154 293 154 294 154 294 155 293 155 295 155 294 156 295 156 296 156 296 157 295 157 297 157 296 158 297 158 298 158 298 159 297 159 299 159 298 160 299 160 300 160 300 160 299 160 301 160 300 161 301 161 302 161 302 162 301 162 303 162 302 163 303 163 304 163 304 164 303 164 305 164 304 165 305 165 306 165 306 166 305 166 307 166 306 167 307 167 308 167 308 168 307 168 309 168 308 169 309 169 310 169 310 170 309 170 311 170 310 171 311 171 312 171 312 172 311 172 313 172 312 173 313 173 314 173 314 174 313 174 315 174 314 175 315 175 316 175 316 176 315 176 317 176 316 177 317 177 318 177 318 178 317 178 319 178 318 179 319 179 320 179 320 180 319 180 321 180 320 181 321 181 322 181 322 182 321 182 323 182 322 183 323 183 324 183 324 183 323 183 325 183 324 184 325 184 326 184 326 185 325 185 327 185 326 186 327 186 328 186 328 187 327 187 329 187 328 188 329 188 330 188 330 189 329 189 331 189 330 190 331 190 332 190 332 191 331 191 333 191 332 192 333 192 334 192 334 193 333 193 335 193 334 194 335 194 336 194 336 195 335 195 337 195 336 196 337 196 338 196 338 197 337 197 339 197 338 198 339 198 340 198 340 199 339 199 341 199 340 200 341 200 342 200 342 201 341 201 343 201 342 202 343 202 344 202 344 203 343 203 345 203 344 204 345 204 346 204 346 205 345 205 347 205 346 206 347 206 348 206 348 207 347 207 349 207 348 208 349 208 350 208 350 209 349 209 351 209 350 210 351 210 352 210 352 211 351 211 353 211 352 212 353 212 354 212 354 213 353 213 355 213 354 214 355 214 356 214 356 215 355 215 357 215 356 216 357 216 358 216 358 217 357 217 359 217 358 218 359 218 360 218 360 219 359 219 361 219 360 220 361 220 362 220 362 221 361 221 363 221 362 222 363 222 364 222 364 223 363 223 365 223 364 224 365 224 366 224 366 225 365 225 367 225 366 226 367 226 368 226 368 227 367 227 369 227 368 228 369 228 370 228 370 229 369 229 371 229 370 230 371 230 372 230 372 231 371 231 373 231 372 232 373 232 374 232 374 233 373 233 375 233 374 234 375 234 376 234 376 235 375 235 377 235 376 236 377 236 378 236 378 237 377 237 379 237 378 238 379 238 380 238 380 239 379 239 381 239 380 240 381 240 382 240 382 241 381 241 383 241 382 242 383 242 384 242 384 243 383 243 385 243 384 244 385 244 386 244 386 245 385 245 387 245 386 246 387 246 388 246 388 247 387 247 389 247 388 248 389 248 390 248 390 249 389 249 391 249 390 250 391 250 392 250 392 251 391 251 393 251 392 252 393 252 394 252 394 253 393 253 395 253 394 254 395 254 396 254 396 255 395 255 397 255 396 256 397 256 398 256 398 257 397 257 399 257 398 258 399 258 400 258 400 259 399 259 401 259 400 260 401 260 192 260 192 261 401 261 193 261 145 262 401 262 147 262 147 262 401 262 399 262 147 262 399 262 397 262 191 262 53 262 145 262 145 262 53 262 195 262 145 262 195 262 193 262 53 262 191 262 55 262 55 262 191 262 189 262 55 262 189 262 57 262 57 262 189 262 187 262 57 262 187 262 59 262 59 262 187 262 185 262 59 262 185 262 61 262 61 262 185 262 183 262 61 262 183 262 63 262 63 262 183 262 135 262 63 262 135 262 297 262 297 262 135 262 299 262 299 262 135 262 301 262 301 262 135 262 303 262 303 262 135 262 133 262 303 262 133 262 131 262 135 262 183 262 137 262 137 262 183 262 181 262 137 262 181 262 139 262 139 262 181 262 179 262 139 262 179 262 141 262 141 262 179 262 177 262 141 262 177 262 143 262 143 262 177 262 175 262 143 262 175 262 97 262 97 262 175 262 173 262 97 262 173 262 99 262 99 262 173 262 171 262 99 262 171 262 101 262 101 262 171 262 169 262 101 262 169 262 103 262 103 262 169 262 167 262 103 262 167 262 105 262 105 262 167 262 165 262 105 262 165 262 107 262 107 262 165 262 163 262 107 262 163 262 109 262 109 262 163 262 161 262 109 262 161 262 111 262 111 262 161 262 159 262 111 262 159 262 305 262 305 262 159 262 307 262 307 262 159 262 309 262 309 262 159 262 311 262 311 262 159 262 313 262 313 262 159 262 391 262 313 262 391 262 315 262 315 262 391 262 389 262 315 262 389 262 317 262 317 262 389 262 387 262 317 262 387 262 319 262 319 262 387 262 385 262 319 262 385 262 321 262 321 262 385 262 383 262 321 262 383 262 323 262 323 262 383 262 381 262 323 262 381 262 325 262 325 262 381 262 379 262 325 262 379 262 327 262 327 262 379 262 377 262 327 262 377 262 329 262 329 262 377 262 375 262 329 262 375 262 331 262 331 262 375 262 373 262 331 262 373 262 333 262 333 262 373 262 371 262 333 262 371 262 335 262 335 262 371 262 369 262 335 262 369 262 337 262 337 262 369 262 367 262 337 262 367 262 339 262 339 262 367 262 365 262 339 262 365 262 341 262 341 262 365 262 363 262 341 262 363 262 343 262 343 262 363 262 361 262 343 262 361 262 345 262 345 262 361 262 359 262 345 262 359 262 347 262 347 262 359 262 357 262 347 262 357 262 349 262 349 262 357 262 355 262 349 262 355 262 351 262 351 262 355 262 353 262 159 262 157 262 391 262 391 262 157 262 155 262 391 262 155 262 153 262 153 262 151 262 391 262 391 262 151 262 393 262 393 262 151 262 149 262 393 262 149 262 395 262 395 262 149 262 147 262 395 262 147 262 397 262 131 262 129 262 303 262 303 262 129 262 127 262 303 262 127 262 125 262 303 262 125 262 305 262 305 262 125 262 123 262 305 262 123 262 121 262 121 262 119 262 305 262 305 262 119 262 117 262 305 262 117 262 115 262 115 262 113 262 305 262 305 262 113 262 111 262 49 262 205 262 51 262 51 262 205 262 203 262 51 262 203 262 201 262 95 262 209 262 49 262 49 262 209 262 207 262 49 262 207 262 205 262 93 262 215 262 95 262 95 262 215 262 213 262 95 262 213 262 211 262 91 262 221 262 93 262 93 262 221 262 219 262 93 262 219 262 217 262 89 262 225 262 91 262 91 262 225 262 223 262 91 262 223 262 221 262 87 262 231 262 89 262 89 262 231 262 229 262 89 262 229 262 227 262 85 262 41 262 87 262 87 262 41 262 39 262 87 262 39 262 247 262 247 262 39 262 249 262 249 262 39 262 251 262 251 262 39 262 253 262 253 262 39 262 255 262 255 262 39 262 257 262 257 262 39 262 259 262 259 262 39 262 261 262 261 262 39 262 263 262 263 262 39 262 265 262 265 262 39 262 267 262 267 262 39 262 269 262 269 262 39 262 271 262 271 262 39 262 273 262 273 262 39 262 275 262 275 262 39 262 277 262 277 262 39 262 279 262 279 262 39 262 281 262 281 262 39 262 283 262 283 262 39 262 285 262 285 262 39 262 287 262 287 262 39 262 289 262 289 262 39 262 291 262 291 262 39 262 293 262 293 262 39 262 295 262 295 262 39 262 37 262 295 262 37 262 35 262 41 262 85 262 43 262 43 262 85 262 83 262 43 262 83 262 45 262 45 262 83 262 81 262 45 262 81 262 47 262 47 262 81 262 79 262 47 262 79 262 1 262 1 262 79 262 77 262 1 262 77 262 3 262 3 262 77 262 75 262 3 262 75 262 5 262 5 262 75 262 73 262 5 262 73 262 7 262 7 262 73 262 71 262 7 262 71 262 9 262 9 262 71 262 69 262 9 262 69 262 11 262 11 262 69 262 67 262 11 262 67 262 13 262 13 262 67 262 65 262 13 262 65 262 15 262 15 262 65 262 63 262 15 262 63 262 297 262 51 262 199 262 53 262 53 262 199 262 197 262 53 262 197 262 195 262 35 262 33 262 295 262 295 262 33 262 31 262 295 262 31 262 29 262 29 262 27 262 295 262 295 262 27 262 25 262 295 262 25 262 297 262 297 262 25 262 23 262 297 262 23 262 21 262 21 262 19 262 297 262 297 262 19 262 17 262 297 262 17 262 15 262 193 262 401 262 145 262 247 262 245 262 87 262 87 262 245 262 243 262 87 262 243 262 241 262 241 262 239 262 87 262 87 262 239 262 237 262 87 262 237 262 235 262 235 262 233 262 87 262 87 262 233 262 231 262 227 262 225 262 89 262 217 262 215 262 93 262 211 262 209 262 95 262 201 262 199 262 51 262 148 263 394 263 146 263 146 263 394 263 396 263 146 263 396 263 398 263 150 263 390 263 148 263 148 263 390 263 392 263 148 263 392 263 394 263 390 263 150 263 388 263 388 263 150 263 152 263 388 263 152 263 154 263 154 263 156 263 388 263 388 263 156 263 158 263 388 263 158 263 110 263 110 263 158 263 108 263 108 263 158 263 160 263 108 263 160 263 106 263 106 263 160 263 162 263 106 263 162 263 104 263 104 263 162 263 164 263 104 263 164 263 102 263 102 263 164 263 166 263 102 263 166 263 100 263 100 263 166 263 168 263 100 263 168 263 98 263 98 263 168 263 170 263 98 263 170 263 96 263 96 263 170 263 172 263 96 263 172 263 142 263 142 263 172 263 174 263 142 263 174 263 140 263 140 263 174 263 176 263 140 263 176 263 138 263 138 263 176 263 178 263 138 263 178 263 136 263 136 263 178 263 180 263 136 263 180 263 134 263 134 263 180 263 182 263 134 263 182 263 302 263 302 263 182 263 14 263 302 263 14 263 300 263 300 263 14 263 298 263 298 263 14 263 296 263 296 263 14 263 16 263 296 263 16 263 18 263 184 263 60 263 182 263 182 263 60 263 62 263 182 263 62 263 14 263 14 263 62 263 12 263 12 263 62 263 64 263 12 263 64 263 10 263 10 263 64 263 66 263 10 263 66 263 8 263 8 263 66 263 68 263 8 263 68 263 6 263 6 263 68 263 70 263 6 263 70 263 4 263 4 263 70 263 72 263 4 263 72 263 2 263 2 263 72 263 74 263 2 263 74 263 0 263 0 263 74 263 76 263 0 263 76 263 46 263 46 263 76 263 78 263 46 263 78 263 44 263 44 263 78 263 80 263 44 263 80 263 42 263 42 263 80 263 82 263 42 263 82 263 40 263 40 263 82 263 84 263 40 263 84 263 38 263 38 263 84 263 86 263 38 263 86 263 294 263 294 263 86 263 292 263 292 263 86 263 290 263 290 263 86 263 288 263 288 263 86 263 286 263 286 263 86 263 284 263 284 263 86 263 282 263 282 263 86 263 280 263 280 263 86 263 278 263 278 263 86 263 276 263 276 263 86 263 274 263 274 263 86 263 272 263 272 263 86 263 270 263 270 263 86 263 268 263 268 263 86 263 266 263 266 263 86 263 264 263 264 263 86 263 262 263 262 263 86 263 260 263 260 263 86 263 258 263 258 263 86 263 256 263 256 263 86 263 254 263 254 263 86 263 252 263 252 263 86 263 250 263 250 263 86 263 248 263 248 263 86 263 246 263 246 263 86 263 244 263 244 263 86 263 242 263 242 263 86 263 240 263 240 263 86 263 238 263 238 263 86 263 236 263 236 263 86 263 234 263 234 263 86 263 232 263 232 263 86 263 230 263 230 263 86 263 88 263 230 263 88 263 228 263 228 263 88 263 226 263 226 263 88 263 224 263 224 263 88 263 90 263 224 263 90 263 222 263 222 263 90 263 220 263 220 263 90 263 92 263 220 263 92 263 218 263 218 263 92 263 216 263 216 263 92 263 214 263 214 263 92 263 94 263 214 263 94 263 212 263 212 263 94 263 210 263 210 263 94 263 208 263 208 263 94 263 48 263 208 263 48 263 206 263 206 263 48 263 204 263 204 263 48 263 50 263 204 263 50 263 202 263 202 263 50 263 200 263 200 263 50 263 198 263 198 263 50 263 52 263 198 263 52 263 196 263 196 263 52 263 194 263 194 263 52 263 144 263 194 263 144 263 192 263 192 263 144 263 400 263 400 263 144 263 146 263 400 263 146 263 398 263 60 263 184 263 58 263 58 263 184 263 186 263 58 263 186 263 56 263 56 263 186 263 188 263 56 263 188 263 54 263 54 263 188 263 190 263 54 263 190 263 52 263 52 263 190 263 144 263 112 263 304 263 110 263 110 263 304 263 306 263 110 263 306 263 308 263 112 263 114 263 304 263 304 263 114 263 116 263 304 263 116 263 118 263 118 263 120 263 304 263 304 263 120 263 122 263 304 263 122 263 124 263 304 263 124 263 302 263 302 263 124 263 126 263 302 263 126 263 128 263 128 263 130 263 302 263 302 263 130 263 132 263 302 263 132 263 134 263 18 263 20 263 296 263 296 263 20 263 22 263 296 263 22 263 24 263 296 263 24 263 294 263 294 263 24 263 26 263 294 263 26 263 28 263 28 263 30 263 294 263 294 263 30 263 32 263 294 263 32 263 34 263 34 263 36 263 294 263 294 263 36 263 38 263 308 263 310 263 110 263 110 263 310 263 312 263 110 263 312 263 314 263 110 263 314 263 388 263 388 263 314 263 316 263 388 263 316 263 386 263 386 263 316 263 318 263 386 263 318 263 384 263 384 263 318 263 320 263 384 263 320 263 382 263 382 263 320 263 322 263 382 263 322 263 380 263 380 263 322 263 324 263 380 263 324 263 378 263 378 263 324 263 326 263 378 263 326 263 376 263 376 263 326 263 328 263 376 263 328 263 374 263 374 263 328 263 330 263 374 263 330 263 372 263 372 263 330 263 332 263 372 263 332 263 370 263 370 263 332 263 334 263 370 263 334 263 368 263 368 263 334 263 336 263 368 263 336 263 366 263 366 263 336 263 338 263 366 263 338 263 364 263 364 263 338 263 340 263 364 263 340 263 362 263 362 263 340 263 342 263 362 263 342 263 360 263 360 263 342 263 344 263 360 263 344 263 358 263 358 263 344 263 346 263 358 263 346 263 356 263 356 263 346 263 348 263 356 263 348 263 354 263 354 263 348 263 350 263 354 263 350 263 352 263</p>
        </triangles>
        <triangles count="1" material="mat_1">
          <input semantic="VERTEX" source="#vert_0" offset="0"/>
          <input semantic="NORMAL" source="#norm_0" offset="1"/>
          <p>0 0 1 0 2 0</p>
        </triangles>
      </mesh>
    </geometry>
  </library_geometries>
  <library_visual_scenes>
    <visual_scene id="DefaultScene">
      <node id="node_8df210ff_ccfe_41ce_b7f4_86e82fd8834b" type="NODE">
        <matrix>1 0 0 0 0 1 0 0 0 0 1 0 0 0 0 1</matrix>
        <node id="node_7c44a978_bcef_4ad8_a85d_5dde9f4f62f6" type="NODE">
          <matrix>1 0 0 0 0 1 0 0 0 0 1 0 0 0 0 1</matrix>
          <node id="node_7c44a978_bcef_4ad8_a85d_5dde9f4f62f6_mesh0" type="NODE">
            <matrix>1 0 0 0 0 1 0 0 0 0 1 0 0 0 0 1</matrix>
            <instance_geometry url="#geometry_b3b7cd05_18b6_4eff_b0d2_82e1e418910b">
              <bind_material>
                <technique_common>
                  <instance_material symbol="mat_1" target="#mat_1"/>
                </technique_common>
              </bind_material>
            </instance_geometry>
          </node>
        </node>
      </node>
    </visual_scene>
  </library_visual_scenes>
  <scene>
    <instance_visual_scene url="#DefaultScene"/>
  </scene>
</COLLADA>
